<?xml version="1.0" encoding="UTF-8"?>
<svg id="Layer_1" data-name="Layer 1" xmlns="http://www.w3.org/2000/svg" viewBox="0 0 90 90">
  <defs>
    <style>
      .cls-1 {
        fill: #116087;
      }

      .cls-2 {
        fill: #313742;
      }
    </style>
  </defs>
  <path class="cls-1" d="M61.5,49.9l-9-19.5-5.5-11.8-.3-.6c-.4-.9-1.6-.8-2,0-.3.7-.6,1.4-.9,2.1-.5,1.2-1.1,2.4-1.6,3.5l6.8,14.6,11.1,23.9c1.6.4,3.2.7,4.9,1.2.3,0,.6.2.9.2.9.2,1.6-.7,1.2-1.5,0,0-5.6-12.1-5.6-12.1Z"/>
  <path class="cls-2" d="M65.7,36.1c-1.8-3.9-6.2-5.7-10.1-4.4l6.9,14.9c3.5-2.2,5-6.7,3.2-10.5Z"/>
  <path class="cls-2" d="M41.5,27.1l-.4-.9c-1.1,2.1-2.4,4.1-3.8,6-.2.3-.5.6-.7.9-2.6,3.4-5.7,6.3-9.2,8.8-1.5,1.1-3,2.1-4.6,3-1.5.9-2.9,1.8-4.4,2.6-.2,0-.3.2-.5.2l7.7,16.6c.2,0,.3-.1.5-.2,2.3-1,4.7-1.8,7.1-2.5,2.3-.6,4.7-1,7.1-1.3,1.6-.2,3.1-.2,4.7-.2h1.3c2,0,3.9.2,5.9.4,1.8.2,3.5.5,5.3.8l-6.7-14.5-9.1-19.8-.2.1Z"/>
  <path class="cls-2" d="M58.5,25.9c1,.2,1.9-.5,2-1.4l1.8-11.1c.2-1-.5-1.9-1.4-2-1-.2-1.9.5-2,1.4l-1.8,11.1c-.2,1,.5,1.9,1.4,2Z"/>
  <path class="cls-2" d="M71.9,34l9.9-5.2c.9-.5,1.2-1.5.7-2.4s-1.5-1.2-2.4-.7l-9.9,5.2c-.9.5-1.2,1.5-.7,2.4s1.5,1.2,2.4.7Z"/>
  <path class="cls-2" d="M82.9,50.5l-10.2-4.7c-.9-.4-1.9,0-2.3.8-.4.9,0,1.9.8,2.3l10.2,4.7c.9.4,1.9,0,2.3-.8.4-.9,0-1.9-.8-2.3Z"/>
  <path class="cls-1" d="M23.5,65s0-.1-.1-.2l-7.4-16.1c-.2.1-.5.2-.7.3-1.8.8-3.6,1.5-5.3,2.6-1.9,1.1-3,2.8-3.5,4.9-.8,3.5.1,6.6,2.6,9.2,2,2.1,4.8,3.1,7.6,2.4.4,0,.7-.2,1.1-.3,1-.4,1.6-.7,2.6-1.1l3.3-1.5c0-.2-.1-.3-.1-.3l-.1.1Z"/>
  <path class="cls-2" d="M24.2,66.6l-3.3,1.5h-.1c.7,2.1,1.3,4.3,1.9,6.4.3.9.5,1.8.8,2.7.1.4.2,1.3.7,1.4h.5c.7-.1,1.3-.4,1.9-.7.5-.3,1-.5,1.2-1,.4-.8.2-1.9-.2-2.7,0,0-2.2-5.2-3.4-7.7v.1Z"/>
</svg>