<?xml version="1.0" encoding="UTF-8"?>
<svg id="Layer_1" data-name="Layer 1" xmlns="http://www.w3.org/2000/svg" viewBox="0 0 90 90">
  <defs>
    <style>
      .cls-1 {
        fill: #69957c;
        fill-rule: evenodd;
      }
    </style>
  </defs>
  <path class="cls-1" d="M44.4,41.1l-19.8,11.5.5,4.2c0,.4-.2.9-.5,1.1l-6.9,4c-.3.2-.7.2-1,0s-.6-.5-.6-.8l-.4-3.3-1.3.8c-.5.3-1.2.1-1.5-.4s-.1-1.2.4-1.5l1.3-.8-2.6-2c-.3-.2-.5-.6-.4-.9,0-.4.2-.7.5-.9l6.9-4c.4-.2.9-.2,1.2,0l3.3,2.6,19.4-11.2v-.5c0-1.3,1-2.3,2.3-2.3s2.3,1,2.3,2.3-1,2.3-2.3,2.3-.4,0-.6,0h0l-.2-.2ZM21.4,51.9l-2-1.6-4.8,2.8,2,1.6s4.8-2.8,4.8-2.8ZM17.6,56.5l.3,2.5,4.8-2.8-.3-2.5s-4.8,2.8-4.8,2.8ZM56.3,65.9c.9-8.3,3.2-12.2,5.4-15.5,2.1-3.2,3.9-5.8,3.9-11.5,0-10.9-8.8-19.7-19.7-19.7s-19.7,8.8-19.7,19.7.6,5.6,1.5,7.5c.3.5,0,1.2-.5,1.5s-1.2,0-1.5-.5c-1-2.2-1.8-4.7-1.8-8.4,0-12.1,9.8-21.9,21.9-21.9s14.6,4,18.5,10.1l3.6-2.1-2.5-1.1c-.6-.3-.8-.9-.5-1.5s.9-.8,1.5-.5l4.6,2.1c.5.2.7.7.6,1.2l-1,4.9c-.1.6-.7,1-1.3.8s-1-.7-.8-1.3l.6-2.6-3.4,2c1.5,3,2.4,6.3,2.4,9.9,0,6.4-2,9.2-4.3,12.7-2,3.1-4.2,6.8-5,14.4,1.4.2,2.5,1.4,2.5,2.9v1.8c0,.7-.2,1.3-.6,1.8.4.5.6,1.1.6,1.8v1.8c0,1.6-1.3,2.9-2.9,2.9h-1v.6c0,2.2-1.8,4.1-4.1,4.1h-14.3c-2.2,0-4.1-1.8-4.1-4.1v-.6h-1c-1.6,0-2.9-1.3-2.9-2.9v-1.8c0-.7.2-1.3.6-1.8-.4-.5-.6-1.1-.6-1.8v-1.8c0-1.5,1.1-2.7,2.5-2.9-.8-7.1-2.8-10.8-4.6-13.8-.3-.5-.2-1.2.3-1.5s1.2-.2,1.5.3c2,3.2,4.1,7.2,5,14.9h20.7l-.1-.1ZM54.9,79h-18v.6c0,1,.8,1.9,1.9,1.9h14.3c1,0,1.9-.8,1.9-1.9v-.6h-.1ZM58.1,71.4c.4,0,.7-.3.7-.7v-1.8c0-.4-.3-.7-.7-.7h-24.3c-.4,0-.7.3-.7.7v1.8c0,.4.3.7.7.7h24.3ZM33.7,73.6c-.4,0-.7.3-.7.7v1.8c0,.4.3.7.7.7h24.3c.4,0,.7-.3.7-.7v-1.8c0-.4-.3-.7-.7-.7h-24.3ZM33.7,43c.2.6-.1,1.2-.7,1.4s-1.2-.1-1.4-.7c-.5-1.5-.8-3.1-.8-4.7,0-8.3,6.7-15.1,15.1-15.1s15.1,6.7,15.1,15.1-6.7,15.1-15.1,15.1-8.5-1.9-11.2-5c-.4-.5-.4-1.1,0-1.5.5-.4,1.1-.4,1.5,0,2.4,2.6,5.8,4.3,9.6,4.3,7.1,0,12.9-5.8,12.9-12.9s-5.8-12.9-12.9-12.9-12.9,5.8-12.9,12.9.2,2.8.6,4h.2ZM40.8,39.3c0,.6-.4,1.1-1,1.2-.6,0-1.1-.4-1.2-1v-.5c0-4,3.3-7.3,7.3-7.3s7.3,3.3,7.3,7.3-3.3,7.3-7.3,7.3-2.8-.4-4-1.2c-.5-.3-.6-1-.3-1.5s1-.6,1.5-.3c.8.5,1.8.8,2.8.8,2.8,0,5.1-2.3,5.1-5.1s-2.3-5.1-5.1-5.1-5.1,2.3-5.1,5.1,0,.2,0,.4h0v-.1ZM44.8,7.4c0-.6.5-1.1,1.1-1.1s1.1.5,1.1,1.1v4.8c0,.6-.5,1.1-1.1,1.1s-1.1-.5-1.1-1.1v-4.8ZM60.7,11.1c.3-.5,1-.7,1.5-.4s.7,1,.4,1.5l-2.4,4.1c-.3.5-1,.7-1.5.4-.5-.3-.7-1-.4-1.5l2.4-4.1ZM77.5,37.8c.6,0,1.1.5,1.1,1.1s-.5,1.1-1.1,1.1h-4.8c-.6,0-1.1-.5-1.1-1.1s.5-1.1,1.1-1.1h4.8ZM73.8,53.7c.5.3.7,1,.4,1.5-.3.5-1,.7-1.5.4l-4.1-2.4c-.5-.3-.7-1-.4-1.5.3-.5,1-.7,1.5-.4l4.1,2.4ZM14.4,40.1c-.6,0-1.1-.5-1.1-1.1s.5-1.1,1.1-1.1h4.8c.6,0,1.1.5,1.1,1.1s-.5,1.1-1.1,1.1h-4.8ZM18,24.1c-.5-.3-.7-1-.4-1.5.3-.5,1-.7,1.5-.4l4.1,2.4c.5.3.7,1,.4,1.5-.3.5-1,.7-1.5.4l-4.1-2.4ZM29.2,12.2c-.3-.5-.1-1.2.4-1.5s1.2-.1,1.5.4l2.4,4.1c.3.5.1,1.2-.4,1.5s-1.2.1-1.5-.4c0,0-2.4-4.1-2.4-4.1Z"/>
</svg>