<?xml version="1.0" encoding="UTF-8"?>
<svg id="Layer_1" data-name="Layer 1" xmlns="http://www.w3.org/2000/svg" viewBox="0 0 90 90">
  <defs>
    <style>
      .cls-1 {
        fill: #116087;
        fill-rule: evenodd;
      }
    </style>
  </defs>
  <path class="cls-1" d="M19.95,27.77c-3,.2-5.7-1.8-6.2-4.8-.6-3.2,1.6-6.3,4.7-6.8l4.2-.8c.3,0,.6,0,.9.2,4.4-1.4,8.2-3.4,10.8-5.7-.3-1.8.9-3.5,2.7-3.8s3.5.9,3.9,2.7l1,5.4c.2,0,.4-.1.6-.2,2-.4,3.9,1,4.3,3,.4,2-1,3.9-3,4.3h-.6l1,5.4c.3,1.8-.9,3.5-2.7,3.9-1.8.3-3.5-.8-3.9-2.6-3.2-1.2-7.2-1.8-11.7-1.6l2.1,6.8c.3,1-.2,2.1-1.2,2.5h0l-1.9.6c-.5.2-1.1.2-1.6,0h0c-.5-.3-.9-.7-1.1-1.2h0l-2.2-7.3h-.1ZM24.25,17.67l1.2,6.5c4.4-.2,8.4.2,11.7,1.3l-2.4-13.1c-2.7,2.1-6.3,4-10.5,5.3ZM23.75,27.07l-1.7.3c.6,2,1.8,6,2.1,6.8l1.6-.5s-2-6.6-2-6.6ZM42.25,16.37l.5,2.6h.6c.8-.1,1.3-.9,1.2-1.7h0c-.1-.8-.9-1.3-1.7-1.2h0c-.2,0-.4.1-.6.2h0v.1ZM37.35,8.27c-.6.1-1,.7-.9,1.3l3.3,17.9c.1.6.7,1,1.3.9s1-.7.9-1.3l-3.3-17.9c-.1-.6-.7-1-1.3-.9h0ZM21.95,17.77l-3.2.6c-2,.4-3.3,2.3-3,4.3h0c.4,2,2.3,3.3,4.3,2.9l3.2-.6-1.3-7.2ZM35.95,69.57c.6.2.8.9.6,1.5s-.9.8-1.5.6c-10.6-4.5-18-15-18-27.2s.6-6.7,1.7-9.8c.2-.6.8-.9,1.4-.7s.9.8.7,1.4c-1,2.8-1.5,5.9-1.5,9,0,11.3,6.8,21,16.6,25.2h0ZM55.55,18.47c-.6-.2-.9-.8-.7-1.4s.8-.9,1.4-.7c11.7,4,20.1,15,20.1,28s-1.8,11.6-4.9,16.3c0,0-.1.2-.2.2-.3.5-1,.6-1.5.3s-.6-1-.3-1.5c0,0,.1-.1.2-.2,2.9-4.3,4.5-9.5,4.5-15.1,0-12-7.8-22.3-18.6-25.9h0ZM44.25,63.87c.6,0,1,.6,1,1.2s-.6,1-1.2,1c-10.8-1.4-19.1-10.6-19.1-21.7s.4-4.9,1.2-7.1c.2-.6.8-.9,1.4-.7s.9.8.7,1.4c-.7,2-1.1,4.1-1.1,6.4,0,10,7.5,18.3,17.1,19.5h0ZM53.65,25.97c-.6-.2-.9-.9-.6-1.4s.9-.9,1.4-.6c8.3,3.1,14.2,11.1,14.2,20.5s-2.1,10.8-5.6,14.6c0,0-.2.2-.2.3-.4.4-1.1.5-1.6,0-.4-.4-.5-1.1,0-1.6,0,0,.1-.2.2-.2,3.1-3.5,5.1-8.1,5.1-13.2,0-8.4-5.3-15.6-12.8-18.4h-.1ZM30.65,33.07c-.4.5-1,.6-1.5.3-.5-.4-.6-1-.3-1.5,1.1-1.5,2.3-2.9,3.7-4,.5-.4,1.2-.3,1.6.1.4.5.3,1.2-.1,1.6-1.3,1.1-2.4,2.3-3.3,3.6l-.1-.1ZM44.55,56.17c.6.1,1,.7.9,1.3s-.7,1-1.3.9c-6.6-1.2-11.6-7-11.6-13.9s6.3-14.2,14.2-14.2,14.2,6.3,14.2,14.2-1.6,7.6-4.3,10.2c-.4.4-1.1.4-1.6,0s-.4-1.1,0-1.6c2.2-2.2,3.6-5.2,3.6-8.6,0-6.6-5.4-11.9-11.9-11.9s-11.9,5.4-11.9,11.9,4.2,10.7,9.8,11.7h-.1ZM45.05,48.27c.6.2.8.9.6,1.5s-.9.8-1.5.6c-2.3-1-3.8-3.3-3.8-5.9s2.9-6.4,6.4-6.4,6.4,2.9,6.4,6.4,0,.3,0,.5c0,.6-.6,1.1-1.2,1-.6,0-1.1-.6-1-1.2v-.3c0-2.3-1.9-4.2-4.2-4.2s-4.2,1.9-4.2,4.2,1,3.2,2.5,3.9h0v-.1ZM53.85,60.87c.4-.2,1-.4,1.6-.4h0c1.2,0,2.1.5,2.7,1.3.6-.8,1.5-1.3,2.6-1.3h0c1.2,0,2,.5,2.7,1.3.6-.8,1.5-1.3,2.7-1.3,2.1,0,3.8,1.7,3.8,3.8v8h0c-.5,7.5-5.7,11.6-12.3,11.7-4,0-7.7-1.5-10.8-3.5-3-1.9-5.5-4.2-7.4-5.8-1.2-1-1.8-2.1-1.9-3.1-.1-1.1.2-2.2.9-3.1,1.4-1.8,3.7-2.1,5.8-.9l2.1,1.1v-18.8c0-2.1,1.7-3.8,3.8-3.8h0c2.1,0,3.8,1.7,3.8,3.8h0v10.9l-.1.1ZM64.55,65.17h0c0,.6-.5,1.1-1.1,1.1s-1.1-.5-1.1-1.1h0c0-.6-.1-1.2-.5-1.8-.2-.4-.6-.7-1.1-.7s-.9.3-1.1.7c-.3.5-.5,1.2-.5,1.8h0c0,.6-.5,1.1-1.1,1.1s-1.1-.5-1.1-1.1h0c0-.5,0-1-.3-1.5-.2-.5-.6-1-1.3-1-.6,0-.9.3-1.2.7-.3.5-.4,1.2-.4,1.8h0c0,.7-.5,1.2-1.1,1.2s-1.1-.5-1.1-1.1h0v-15.3c0-.9-.7-1.6-1.6-1.6s-1.6.7-1.6,1.6v20.7c0,.4-.2.7-.5.9-.3.2-.7.2-1.1,0l-3.7-2h0c-1.1-.6-2.2-.6-2.9.3-.3.4-.5,1-.5,1.5,0,.6.4,1.1,1.1,1.7,1.8,1.5,4.3,3.8,7.2,5.6,2.8,1.8,6,3.2,9.6,3.1,5.4-.1,9.7-3.4,10.1-9.6v-8h0c0-.9-.7-1.6-1.6-1.6s-.9.3-1.1.7c-.3.5-.5,1.2-.5,1.7h0l.1.2ZM49.75,17.57c-.6.1-1.2-.3-1.3-.9s.3-1.2.9-1.3l3.1-.6c.6-.1,1.2.3,1.3.9s-.3,1.2-.9,1.3l-3.1.6ZM47.35,12.87c-.5.4-1.2.3-1.6-.1-.4-.5-.3-1.2.1-1.6l2.6-2.2c.5-.4,1.2-.3,1.6.1.4.5.3,1.2-.1,1.6l-2.6,2.2ZM47.95,22.57c-.6-.2-.9-.8-.7-1.4s.8-.9,1.4-.7l3.2,1.1c.6.2.9.8.7,1.4s-.8.9-1.4.7l-3.2-1.1Z"/>
</svg>