<?xml version="1.0" encoding="UTF-8"?>
<svg id="Layer_1" xmlns="http://www.w3.org/2000/svg" version="1.1" xmlns:xlink="http://www.w3.org/1999/xlink" viewBox="0 0 90 90">
  <!-- Generator: Adobe Illustrator 29.0.1, SVG Export Plug-In . SVG Version: 2.1.0 Build 192)  -->
  <defs>
    <style>
      .st0, .st1 {
        fill-rule: evenodd;
      }

      .st0, .st2 {
        fill: #67957b;
      }

      .st1, .st3 {
        fill: #363e39;
      }

      .st4 {
        fill: #282b2e;
      }
    </style>
  </defs>
  <path class="st0" d="M20,27.7c-3,.2-5.7-1.8-6.2-4.8-.6-3.2,1.6-6.3,4.7-6.8l4.2-.8c.3,0,.6,0,.9.2,4.4-1.4,8.2-3.4,10.8-5.7-.3-1.8.9-3.5,2.7-3.8,1.8-.3,3.5.9,3.9,2.7l1,5.4c.2,0,.4-.1.6-.2,2-.4,3.9,1,4.3,3,.4,2-1,3.9-3,4.3-.2,0-.4,0-.6,0l1,5.4c.3,1.8-.9,3.5-2.7,3.9-1.8.3-3.5-.8-3.9-2.6-3.2-1.2-7.2-1.8-11.7-1.6l2.1,6.8c.3,1-.2,2.1-1.2,2.5,0,0,0,0,0,0,0,0-1.9.6-1.9.6-.5.2-1.1.2-1.6,0h0c-.5-.3-.9-.7-1.1-1.2,0,0,0,0,0,0l-2.2-7.3ZM24.3,17.6l1.2,6.5c4.4-.2,8.4.2,11.7,1.3l-2.4-13.1c-2.7,2.1-6.3,4-10.5,5.3ZM23.8,27l-1.7.3c.6,2,1.8,6,2.1,6.8l1.6-.5-2-6.6ZM42.3,16.3l.5,2.6c.2,0,.4,0,.6,0h0c.8-.1,1.3-.9,1.2-1.7h0c-.1-.8-.9-1.3-1.7-1.2h0c-.2,0-.4.1-.6.2h0ZM37.4,8.2c-.6.1-1,.7-.9,1.3l3.3,17.9c.1.6.7,1,1.3.9.6-.1,1-.7.9-1.3l-3.3-17.9c-.1-.6-.7-1-1.3-.9h0ZM22,17.7l-3.2.6c-2,.4-3.3,2.3-3,4.3h0c.4,2,2.3,3.3,4.3,2.9l3.2-.6-1.3-7.2ZM36,69.5c.6.2.8.9.6,1.5s-.9.8-1.5.6c-10.6-4.5-18-15-18-27.2s.6-6.7,1.7-9.8c.2-.6.8-.9,1.4-.7.6.2.9.8.7,1.4-1,2.8-1.5,5.9-1.5,9,0,11.3,6.8,21,16.6,25.2h0ZM55.6,18.4c-.6-.2-.9-.8-.7-1.4.2-.6.8-.9,1.4-.7,11.7,4,20.1,15,20.1,28s-1.8,11.6-4.9,16.3c0,0-.1.2-.2.2-.3.5-1,.6-1.5.3-.5-.3-.6-1-.3-1.5,0,0,.1-.1.2-.2,2.9-4.3,4.5-9.5,4.5-15.1,0-12-7.8-22.3-18.6-25.9h0ZM44.3,63.8c.6,0,1,.6,1,1.2,0,.6-.6,1-1.2,1-10.8-1.4-19.1-10.6-19.1-21.7s.4-4.9,1.2-7.1c.2-.6.8-.9,1.4-.7.6.2.9.8.7,1.4-.7,2-1.1,4.1-1.1,6.4,0,10,7.5,18.3,17.1,19.5h0ZM53.7,25.9c-.6-.2-.9-.9-.6-1.4s.9-.9,1.4-.6c8.3,3.1,14.2,11.1,14.2,20.5s-2.1,10.8-5.6,14.6c0,0-.2.2-.2.3-.4.4-1.1.5-1.6,0-.4-.4-.5-1.1,0-1.6,0,0,.1-.2.2-.2,3.1-3.5,5.1-8.1,5.1-13.2,0-8.4-5.3-15.6-12.8-18.4h0ZM30.7,33c-.4.5-1,.6-1.5.3-.5-.4-.6-1-.3-1.5,1.1-1.5,2.3-2.9,3.7-4,.5-.4,1.2-.3,1.6.1.4.5.3,1.2-.1,1.6-1.3,1.1-2.4,2.3-3.3,3.6ZM44.6,56.1c.6.1,1,.7.9,1.3-.1.6-.7,1-1.3.9-6.6-1.2-11.6-7-11.6-13.9s6.3-14.2,14.2-14.2,14.2,6.3,14.2,14.2-1.6,7.6-4.3,10.2c-.4.4-1.1.4-1.6,0s-.4-1.1,0-1.6c2.2-2.2,3.6-5.2,3.6-8.6,0-6.6-5.4-11.9-11.9-11.9s-11.9,5.4-11.9,11.9,4.2,10.7,9.8,11.7h0ZM45.1,48.2c.6.2.8.9.6,1.5-.2.6-.9.8-1.5.6-2.3-1-3.8-3.3-3.8-5.9s2.9-6.4,6.4-6.4,6.4,2.9,6.4,6.4,0,.3,0,.5c0,.6-.6,1.1-1.2,1-.6,0-1.1-.6-1-1.2,0-.1,0-.2,0-.3,0-2.3-1.9-4.2-4.2-4.2s-4.2,1.9-4.2,4.2,1,3.2,2.5,3.9h0ZM53.9,60.8c.4-.2,1-.4,1.6-.4h0c1.2,0,2.1.5,2.7,1.3.6-.8,1.5-1.3,2.6-1.3h0c1.2,0,2,.5,2.7,1.3.6-.8,1.5-1.3,2.7-1.3,2.1,0,3.8,1.7,3.8,3.8v8c0,0,0,0,0,0-.5,7.5-5.7,11.6-12.3,11.7-4,0-7.7-1.5-10.8-3.5-3-1.9-5.5-4.2-7.4-5.8-1.2-1-1.8-2.1-1.9-3.1-.1-1.1.2-2.2.9-3.1,1.4-1.8,3.7-2.1,5.8-.9l2.1,1.1v-18.8c0-2.1,1.7-3.8,3.8-3.8h0c2.1,0,3.8,1.7,3.8,3.8h0s0,10.9,0,10.9ZM64.6,65.1h0c0,.6-.5,1.1-1.1,1.1s-1.1-.5-1.1-1.1h0c0-.6-.1-1.2-.5-1.8-.2-.4-.6-.7-1.1-.7-.5,0-.9.3-1.1.7-.3.5-.5,1.2-.5,1.8h0c0,.6-.5,1.1-1.1,1.1s-1.1-.5-1.1-1.1h0c0-.5,0-1-.3-1.5-.2-.5-.6-1-1.3-1-.6,0-.9.3-1.2.7-.3.5-.4,1.2-.4,1.8h0c0,.7-.5,1.2-1.1,1.2-.6,0-1.1-.5-1.1-1.1h0c0,0,0-15.3,0-15.3,0-.9-.7-1.6-1.6-1.6-.9,0-1.6.7-1.6,1.6v20.7c0,.4-.2.7-.5.9-.3.2-.7.2-1.1,0l-3.7-2s0,0,0,0c-1.1-.6-2.2-.6-2.9.3-.3.4-.5,1-.5,1.5,0,.6.4,1.1,1.1,1.7,1.8,1.5,4.3,3.8,7.2,5.6,2.8,1.8,6,3.2,9.6,3.1,5.4-.1,9.7-3.4,10.1-9.6v-8c0,0,0,0,0,0,0-.9-.7-1.6-1.6-1.6s-.9.3-1.1.7c-.3.5-.5,1.2-.5,1.7h0ZM49.8,17.5c-.6.1-1.2-.3-1.3-.9-.1-.6.3-1.2.9-1.3l3.1-.6c.6-.1,1.2.3,1.3.9.1.6-.3,1.2-.9,1.3l-3.1.6ZM47.4,12.8c-.5.4-1.2.3-1.6-.1-.4-.5-.3-1.2.1-1.6l2.6-2.2c.5-.4,1.2-.3,1.6.1.4.5.3,1.2-.1,1.6l-2.6,2.2ZM48,22.5c-.6-.2-.9-.8-.7-1.4.2-.6.8-.9,1.4-.7l3.2,1.1c.6.2.9.8.7,1.4-.2.6-.8.9-1.4.7l-3.2-1.1Z"/>
  <path class="st1" d="M140.1,229.7l-19.8,11.5.5,4.2c0,.4-.2.9-.5,1.1l-6.9,4c-.3.2-.7.2-1,0s-.6-.5-.6-.8l-.4-3.3-1.3.8c-.5.3-1.2.1-1.5-.4-.3-.5-.1-1.2.4-1.5l1.3-.8-2.6-2c-.3-.2-.5-.6-.4-.9,0-.4.2-.7.5-.9l6.9-4c.4-.2.9-.2,1.2,0l3.3,2.6,19.4-11.2c0-.2,0-.4,0-.5,0-1.3,1-2.3,2.3-2.3s2.3,1,2.3,2.3-1,2.3-2.3,2.3-.4,0-.6,0h0ZM117.1,240.4l-2-1.6-4.8,2.8,2,1.6,4.8-2.8ZM113.3,245.1l.3,2.5,4.8-2.8-.3-2.5-4.8,2.8ZM152,254.5c.9-8.3,3.2-12.2,5.4-15.5,2.1-3.2,3.9-5.8,3.9-11.5,0-10.9-8.8-19.7-19.7-19.7s-19.7,8.8-19.7,19.7.6,5.6,1.5,7.5c.3.5,0,1.2-.5,1.5-.5.3-1.2,0-1.5-.5-1-2.2-1.8-4.7-1.8-8.4,0-12.1,9.8-21.9,21.9-21.9s14.6,4,18.5,10.1l3.6-2.1-2.5-1.1c-.6-.3-.8-.9-.5-1.5s.9-.8,1.5-.5l4.6,2.1c.5.2.7.7.6,1.2l-1,4.9c-.1.6-.7,1-1.3.8s-1-.7-.8-1.3l.6-2.6-3.4,2c1.5,3,2.4,6.3,2.4,9.9,0,6.4-2,9.2-4.3,12.7-2,3.1-4.2,6.8-5,14.4,1.4.2,2.5,1.4,2.5,2.9v1.8c0,.7-.2,1.3-.6,1.8.4.5.6,1.1.6,1.8v1.8c0,1.6-1.3,2.9-2.9,2.9h-1v.6c0,2.2-1.8,4.1-4.1,4.1h-14.3c-2.2,0-4.1-1.8-4.1-4.1v-.6h-1c-1.6,0-2.9-1.3-2.9-2.9v-1.8c0-.7.2-1.3.6-1.8-.4-.5-.6-1.1-.6-1.8v-1.8c0-1.5,1.1-2.7,2.5-2.9-.8-7.1-2.8-10.8-4.6-13.8-.3-.5-.2-1.2.3-1.5s1.2-.2,1.5.3c2,3.2,4.1,7.2,5,14.9h20.7ZM150.6,267.6h-18v.6c0,1,.8,1.9,1.9,1.9h14.3c1,0,1.9-.8,1.9-1.9v-.6ZM153.8,260c.4,0,.7-.3.7-.7v-1.8c0-.4-.3-.7-.7-.7h-24.3c-.4,0-.7.3-.7.7v1.8c0,.4.3.7.7.7h24.3ZM129.4,262.2c-.4,0-.7.3-.7.7v1.8c0,.4.3.7.7.7h24.3c.4,0,.7-.3.7-.7v-1.8c0-.4-.3-.7-.7-.7h-24.3ZM129.4,231.6c.2.6-.1,1.2-.7,1.4s-1.2-.1-1.4-.7c-.5-1.5-.8-3.1-.8-4.7,0-8.3,6.7-15.1,15.1-15.1s15.1,6.7,15.1,15.1-6.7,15.1-15.1,15.1-8.5-1.9-11.2-5c-.4-.5-.4-1.1,0-1.5.5-.4,1.1-.4,1.5,0,2.4,2.6,5.8,4.3,9.6,4.3,7.1,0,12.9-5.8,12.9-12.9s-5.8-12.9-12.9-12.9-12.9,5.8-12.9,12.9.2,2.8.6,4h0ZM136.5,227.9c0,.6-.4,1.1-1,1.2-.6,0-1.1-.4-1.2-1,0-.2,0-.3,0-.5,0-4,3.3-7.3,7.3-7.3s7.3,3.3,7.3,7.3-3.3,7.3-7.3,7.3-2.8-.4-4-1.2c-.5-.3-.6-1-.3-1.5.3-.5,1-.6,1.5-.3.8.5,1.8.8,2.8.8,2.8,0,5.1-2.3,5.1-5.1s-2.3-5.1-5.1-5.1-5.1,2.3-5.1,5.1,0,.2,0,.4h0ZM140.5,196c0-.6.5-1.1,1.1-1.1s1.1.5,1.1,1.1v4.8c0,.6-.5,1.1-1.1,1.1s-1.1-.5-1.1-1.1v-4.8ZM156.4,199.6c.3-.5,1-.7,1.5-.4s.7,1,.4,1.5l-2.4,4.1c-.3.5-1,.7-1.5.4-.5-.3-.7-1-.4-1.5l2.4-4.1ZM173.2,226.4c.6,0,1.1.5,1.1,1.1s-.5,1.1-1.1,1.1h-4.8c-.6,0-1.1-.5-1.1-1.1s.5-1.1,1.1-1.1h4.8ZM169.5,242.3c.5.3.7,1,.4,1.5-.3.5-1,.7-1.5.4l-4.1-2.4c-.5-.3-.7-1-.4-1.5.3-.5,1-.7,1.5-.4l4.1,2.4ZM110.1,228.7c-.6,0-1.1-.5-1.1-1.1s.5-1.1,1.1-1.1h4.8c.6,0,1.1.5,1.1,1.1s-.5,1.1-1.1,1.1h-4.8ZM113.7,212.7c-.5-.3-.7-1-.4-1.5.3-.5,1-.7,1.5-.4l4.1,2.4c.5.3.7,1,.4,1.5-.3.5-1,.7-1.5.4l-4.1-2.4ZM124.9,200.8c-.3-.5-.1-1.2.4-1.5s1.2-.1,1.5.4l2.4,4.1c.3.5.1,1.2-.4,1.5-.5.3-1.2.1-1.5-.4l-2.4-4.1Z"/>
  <g>
    <path class="st2" d="M421.1,217.9l-9-19.5-5.5-11.8-.3-.6c-.4-.9-1.6-.8-2,0-.3.7-.6,1.4-.9,2.1-.5,1.2-1.1,2.4-1.6,3.5l6.8,14.6,11.1,23.9c1.6.4,3.2.7,4.9,1.2.3,0,.6.2.9.2.9.2,1.6-.7,1.2-1.5l-5.6-12.1Z"/>
    <path class="st3" d="M425.4,204.1c-1.8-3.9-6.2-5.7-10.1-4.4l6.9,14.9c3.5-2.2,5-6.7,3.2-10.5Z"/>
    <path class="st3" d="M401.2,195l-.4-.9c-1.1,2.1-2.4,4.1-3.8,6-.2.3-.5.6-.7.9-2.6,3.4-5.7,6.3-9.2,8.8-1.5,1.1-3,2.1-4.6,3-1.5.9-2.9,1.8-4.4,2.6-.2,0-.3.2-.5.2l7.7,16.6c.2,0,.3-.1.5-.2,2.3-1,4.7-1.8,7.1-2.5,2.3-.6,4.7-1,7.1-1.3,1.6-.2,3.1-.2,4.7-.2.4,0,.9,0,1.3,0,2,0,3.9.2,5.9.4,1.8.2,3.5.5,5.3.8l-6.7-14.5-9.1-19.8Z"/>
    <path class="st3" d="M418.1,193.9c1,.2,1.9-.5,2-1.4l1.8-11.1c.2-1-.5-1.9-1.4-2-1-.2-1.9.5-2,1.4l-1.8,11.1c-.2,1,.5,1.9,1.4,2Z"/>
    <path class="st3" d="M431.6,202l9.9-5.2c.9-.5,1.2-1.5.7-2.4-.5-.9-1.5-1.2-2.4-.7l-9.9,5.2c-.9.5-1.2,1.5-.7,2.4.5.9,1.5,1.2,2.4.7Z"/>
    <path class="st3" d="M442.5,218.5l-10.2-4.7c-.9-.4-1.9,0-2.3.8-.4.9,0,1.9.8,2.3l10.2,4.7c.9.4,1.9,0,2.3-.8.4-.9,0-1.9-.8-2.3Z"/>
    <path class="st2" d="M383.2,232.9c0,0,0-.1-.1-.2l-7.4-16.1c-.2.1-.5.2-.7.3-1.8.8-3.6,1.5-5.3,2.6-1.9,1.1-3,2.8-3.5,4.9-.8,3.5.1,6.6,2.6,9.2,2,2.1,4.8,3.1,7.6,2.4.4,0,.7-.2,1.1-.3,1-.4,1.6-.7,2.6-1.1l3.3-1.5c0-.2-.1-.3-.1-.3Z"/>
    <path class="st4" d="M383.9,234.5l-3.3,1.5s0,0-.1,0c.7,2.1,1.3,4.3,1.9,6.4.3.9.5,1.8.8,2.7.1.4.2,1.3.7,1.4.2,0,.3,0,.5,0,.7-.1,1.3-.4,1.9-.7.5-.3,1-.5,1.2-1,.4-.8.2-1.9-.2-2.7,0,0-2.2-5.2-3.4-7.7Z"/>
  </g>
  <path class="st3" d="M269,266.1c.7,1.1.3,2.6-.9,3.3l-4.5,2.6c-1.1.7-2.6.3-3.3-.9l-6.8-11.8,8.6-5,6.8,11.8ZM269.3,211.1l20.2,34.9-20.1.3c-3.5-6-6.9-12-10.4-17.9l10.3-17.3h0ZM266.4,248.1l-17.5,10.1c-3.2,1.8-7.3.7-9.2-2.5l-3.7-6.3c-1.8-3.2-.7-7.3,2.5-9.2l17.5-10.1c3.5,6,6.9,12,10.4,17.9ZM300.6,242.1c1,1.7.4,4-1.3,5l-.8.4c-1.7,1-4,.4-5-1.3l-22.3-38.6c-1-1.7-.4-4,1.3-5l.8-.4c1.7-1,4-.4,5,1.3l22.3,38.6ZM296.4,224.5l6.2-1.2c.9-.2,1.8.4,2,1.3s-.4,1.8-1.3,2l-6.2,1.2c-.9.2-1.8-.4-2-1.3-.2-.9.4-1.8,1.3-2h0ZM300.9,230.7l6.6.7c.9,0,1.6.9,1.5,1.9s-.9,1.6-1.9,1.5l-6.6-.7c-.9,0-1.6-.9-1.5-1.9,0-.9.9-1.6,1.9-1.5ZM292.7,219.3l5.3-3.1c.8-.5,1.8-.2,2.3.6.5.8.2,1.8-.6,2.3l-5.3,3.1c-.8.5-1.8.2-2.3-.6-.5-.8-.2-1.8.6-2.3ZM285.5,208l2.7-6c.4-.8,1.4-1.2,2.2-.9.9.4,1.2,1.4.9,2.2l-2.7,6c-.4.9-1.4,1.2-2.2.9-.9-.4-1.2-1.4-.9-2.2h0ZM289.2,214.1l4.2-4.7c.6-.7,1.7-.8,2.4-.2.7.6.8,1.7.2,2.4l-4.2,4.7c-.6.7-1.7.8-2.4.2-.7-.6-.8-1.7-.2-2.4h0Z"/>
  <image width="419" height="120" transform="translate(52.4 -88.4) scale(.2)" xlink:href="01-1.png"/>
</svg>