<?xml version="1.0" encoding="UTF-8"?>
<svg id="Layer_1" data-name="Layer 1" xmlns="http://www.w3.org/2000/svg" viewBox="0 0 90 90">
  <defs>
    <style>
      .cls-1 {
        fill: #116087;
      }
    </style>
  </defs>
  <path class="cls-1" d="M41.9,74.5c.7,1.1.3,2.6-.9,3.3l-4.5,2.6c-1.1.7-2.6.3-3.3-.9l-6.8-11.8,8.6-5,6.8,11.8h.1ZM42.2,19.5l20.2,34.9-20.1.3c-3.5-6-6.9-12-10.4-17.9l10.3-17.3h0ZM39.3,56.4l-17.5,10.1c-3.2,1.8-7.3.7-9.2-2.5l-3.7-6.3c-1.8-3.2-.7-7.3,2.5-9.2l17.5-10.1c3.5,6,6.9,12,10.4,17.9v.1ZM73.5,50.5c1,1.7.4,4-1.3,5l-.8.4c-1.7,1-4,.4-5-1.3l-22.3-38.6c-1-1.7-.4-4,1.3-5l.8-.4c1.7-1,4-.4,5,1.3,0,0,22.3,38.6,22.3,38.6ZM69.3,32.9l6.2-1.2c.9-.2,1.8.4,2,1.3s-.4,1.8-1.3,2l-6.2,1.2c-.9.2-1.8-.4-2-1.3-.2-.9.4-1.8,1.3-2h0ZM73.8,39l6.6.7c.9,0,1.6.9,1.5,1.9s-.9,1.6-1.9,1.5l-6.6-.7c-.9,0-1.6-.9-1.5-1.9,0-.9.9-1.6,1.9-1.5ZM65.6,27.6l5.3-3.1c.8-.5,1.8-.2,2.3.6.5.8.2,1.8-.6,2.3l-5.3,3.1c-.8.5-1.8.2-2.3-.6-.5-.8-.2-1.8.6-2.3ZM58.4,16.4l2.7-6c.4-.8,1.4-1.2,2.2-.9.9.4,1.2,1.4.9,2.2l-2.7,6c-.4.9-1.4,1.2-2.2.9-.9-.4-1.2-1.4-.9-2.2h0ZM62.1,22.4l4.2-4.7c.6-.7,1.7-.8,2.4-.2.7.6.8,1.7.2,2.4l-4.2,4.7c-.6.7-1.7.8-2.4.2-.7-.6-.8-1.7-.2-2.4h0Z"/>
</svg>