<?xml version="1.0" encoding="UTF-8"?>
<svg id="Layer_1" data-name="Layer 1" xmlns="http://www.w3.org/2000/svg" viewBox="0 0 200 200">
  <defs>
    <style>
      .cls-1 {
        fill: #116087;
      }

      .cls-2 {
        fill: none;
        stroke: #116087;
        stroke-miterlimit: 10;
        stroke-width: 3px;
      }
    </style>
  </defs>
  <circle class="cls-2" cx="100" cy="100" r="86.2"/>
  <g>
    <path class="cls-1" d="M127.83,97.1c-4.42,0-8.79,1.01-12.76,2.95v-28.59c0-.78-.63-1.42-1.42-1.42h-3.41v-7.2c0-.78-.63-1.42-1.42-1.42h-5.46v-3.25c0-.78-.63-1.42-1.42-1.42s-1.42.63-1.42,1.42v3.25h-5.59c-.78,0-1.42.63-1.42,1.42v7.2h-4.26v-9.13c0-.78-.63-1.42-1.42-1.42h-6.17v-7.31c0-.78-.63-1.42-1.42-1.42h-12.93v-4.6c0-.78-.63-1.42-1.42-1.42s-1.42.63-1.42,1.42v4.6h-12.42c-.78,0-1.42.63-1.42,1.42v7.31h-6.17c-.78,0-1.42.63-1.42,1.42v78.01c0,.78.63,1.42,1.42,1.42h57.94c7.83,14.02,25.54,19.04,39.56,11.22,14.02-7.83,19.04-25.54,11.22-39.56-5.14-9.2-14.85-14.9-25.39-14.9ZM53.51,53.6h25.35v5.9h-25.35v-5.9ZM73.44,137.51h-6.09v-14.43h6.09v14.43ZM64.51,137.51h-5.58v-14.43h5.58v14.43ZM86.44,137.51h-10.17v-15.85c0-.78-.63-1.42-1.42-1.42h-17.34c-.78,0-1.42.63-1.42,1.42v15.85h-10.17V62.33h40.52v75.18ZM96.37,64.26h11.04v5.78h-11.04v-5.78ZM89.28,137.51v-64.63h22.96v28.77c-1.76,1.12-3.39,2.43-4.87,3.89-.23-.16-.51-.24-.79-.24h-11.54c-.78,0-1.42.63-1.42,1.42s.63,1.42,1.42,1.42h10.01c-1.68,2.12-3.06,4.46-4.09,6.96h-5.91c-.78,0-1.42.63-1.42,1.42s.63,1.42,1.42,1.42h4.91c-.74,2.51-1.14,5.11-1.19,7.73h-3.72c-.78,0-1.42.63-1.42,1.42s.63,1.42,1.42,1.42h3.8c.24,3.11.99,6.16,2.21,9.03h-11.78ZM127.83,152.42c-14.49,0-26.24-11.75-26.24-26.24,0-14.49,11.75-26.24,26.24-26.24,14.49,0,26.24,11.75,26.24,26.24h0c-.02,14.49-11.76,26.23-26.24,26.24h0Z"/>
    <path class="cls-1" d="M53.3,84.68h25.76c.78,0,1.42-.63,1.42-1.42s-.63-1.42-1.42-1.42h-25.76c-.78,0-1.42.63-1.42,1.42s.63,1.42,1.42,1.42Z"/>
    <path class="cls-1" d="M53.3,96.53h25.76c.78,0,1.42-.63,1.42-1.42s-.63-1.42-1.42-1.42h-25.76c-.78,0-1.42.63-1.42,1.42s.63,1.42,1.42,1.42Z"/>
    <path class="cls-1" d="M53.3,108.39h25.76c.78,0,1.42-.63,1.42-1.42s-.63-1.42-1.42-1.42h-25.76c-.78,0-1.42.63-1.42,1.42s.63,1.42,1.42,1.42Z"/>
    <path class="cls-1" d="M53.3,72.83h25.76c.78,0,1.42-.63,1.42-1.42s-.63-1.42-1.42-1.42h-25.76c-.78,0-1.42.63-1.42,1.42s.63,1.42,1.42,1.42Z"/>
    <path class="cls-1" d="M95.04,97.57h11.08c.78,0,1.42-.63,1.42-1.42s-.63-1.42-1.42-1.42h-11.08c-.78,0-1.42.63-1.42,1.42s.63,1.42,1.42,1.42Z"/>
    <path class="cls-1" d="M95.04,87.26h11.08c.78,0,1.42-.63,1.42-1.42s-.63-1.42-1.42-1.42h-11.08c-.78,0-1.42.63-1.42,1.42s.63,1.42,1.42,1.42Z"/>
    <path class="cls-1" d="M127.84,105.55h-.04c-11.49.02-20.8,9.34-20.8,20.83,0,.78.64,1.42,1.42,1.41.64,0,1.2-.43,1.37-1.05.18-.67.63-1.86,1.04-2.33.66-.64,1.55-.99,2.47-.98.9,0,1.77.35,2.41.98.63.66.99,1.54,1,2.46,0,.78.63,1.42,1.42,1.42s1.42-.63,1.42-1.42c-.03-1.86,1.45-3.4,3.31-3.44.04,0,.09,0,.13,0h.02c.9,0,1.77.35,2.41.98.63.66.99,1.54,1,2.46v14.31c0,1.55-1.25,2.8-2.8,2.8s-2.8-1.25-2.8-2.8v-1.74c0-.78-.63-1.42-1.42-1.42s-1.42.63-1.42,1.42v1.74c0,3.11,2.52,5.63,5.63,5.63s5.63-2.52,5.63-5.63h0v-14.31c-.03-1.86,1.45-3.4,3.31-3.44.04,0,.09,0,.13,0,.91,0,1.78.34,2.43.98.63.66.99,1.54,1,2.46,0,.78.63,1.42,1.42,1.42s1.42-.63,1.42-1.42c-.03-1.86,1.45-3.4,3.31-3.44.04,0,.09,0,.13,0h.02c.9,0,1.77.35,2.41.97.42.46.86,1.64,1.05,2.34.2.76.98,1.21,1.73,1.01.62-.16,1.05-.73,1.05-1.37v-.03c-.02-11.49-9.33-20.79-20.82-20.81ZM142.39,120.59c-1.65,0-3.24.64-4.42,1.79-.02.02-.04.04-.06.06-.13.14-.25.28-.37.43-.12-.15-.24-.29-.37-.43-.01-.01-.03-.03-.04-.04-1.18-1.16-2.76-1.81-4.41-1.81-1.66,0-3.26.64-4.45,1.79-.02.02-.04.04-.06.06-.13.14-.25.28-.37.43-.12-.15-.24-.29-.37-.43-.01-.01-.03-.03-.04-.04-1.18-1.16-2.76-1.81-4.41-1.81h-.03c-1.65,0-3.24.64-4.42,1.79-.02.02-.04.04-.06.06-.13.14-.25.28-.37.43-.12-.15-.24-.29-.37-.43-.01-.01-.03-.03-.04-.04-1.89-1.84-4.72-2.33-7.12-1.22,2.29-7.59,9.28-12.79,17.21-12.8h.03s0,0,.01,0c7.93.01,14.92,5.2,17.22,12.79-.84-.38-1.75-.58-2.67-.58Z"/>
  </g>
</svg>