<?xml version="1.0" encoding="utf-8"?>
<!-- Generator: Adobe Illustrator 27.0.0, SVG Export Plug-In . SVG Version: 6.00 Build 0)  -->
<svg version="1.1" id="Layer_1" xmlns="http://www.w3.org/2000/svg" xmlns:xlink="http://www.w3.org/1999/xlink" x="0px" y="0px"
	 viewBox="0 0 103 99" style="enable-background:new 0 0 103 99;" xml:space="preserve">
<style type="text/css">
	.st0{fill-rule:evenodd;clip-rule:evenodd;fill:#FFFFFF;}
	.st1{fill:#FBAD3E;}
	.st2{fill:#FA990E;}
	.st3{fill:#D61F26;}
	.st4{fill:#203568;}
	.st5{fill:#255299;}
	.st6{fill:#D1DAFE;}
	.st7{fill:#51504F;}
	.st8{fill:#393F48;}
	.st9{fill:#FFFFFF;}
	.st10{fill:#912010;}
	.st11{fill:none;}
	.st12{fill:#203568;stroke:#FFFDFD;stroke-width:0.5;stroke-miterlimit:10;}
	.st13{fill:#2A4792;}
</style>
<path class="st0" d="M-224.8-3.2c-1.6-0.2-3.3,1.1-4.8,0.3c-1.6-0.8-2.2-2.9-3.3-4.4c-1.5-2.1-4.2-3.6-4.3-6.4c-0.1-2.7,2-5.1,4-6.4
	c1.8-1.2,4.2,0.6,6.2-0.3c2.2-0.9,3.2-4.6,5.6-4.7c2.3-0.1,4.4,2,5.8,4.1c1.4,2.1,2,4.7,2.2,7.4c0.2,2.6,0.2,5.3-0.9,7.5
	c-1.1,2.2-2.9,3.9-5,4.4C-221.2-1.1-222.9-3-224.8-3.2z"/>
<path class="st0" d="M-190.5-3.2c-1.6-0.2-3.3,1.1-4.8,0.3c-1.6-0.8-2.2-2.9-3.3-4.4c-1.5-2.1-4.2-3.6-4.3-6.4c-0.1-2.7,2-5.1,4-6.4
	c1.8-1.2,4.2,0.6,6.2-0.3c2.2-0.9,3.2-4.6,5.6-4.7c2.3-0.1,4.4,2,5.8,4.1c1.4,2.1,2,4.7,2.2,7.4c0.2,2.6,0.2,5.3-0.9,7.5
	c-1.1,2.2-2.9,3.9-5,4.4C-186.9-1.1-188.6-3-190.5-3.2z"/>
<text transform="matrix(1.6539 0 0 1 -271.2153 4.4982)" style="font-family:'NexaLight'; font-size:1.8591px;">Commercial Moving</text>
<text transform="matrix(1 0 0 1 -233.0836 5.5308)" style="font-family:'NexaLight'; font-size:3.0746px;">Small Moves</text>
<text transform="matrix(1 0 0 1 -205.6064 5.5308)" style="font-family:'NexaLight'; font-size:3.0746px;">Packing &amp; Storage Service</text>
<g>
	<path class="st0" d="M52.8,81.3c-6.3-0.7-12.8,3.5-18.6,1c-6-2.6-8.5-9.5-12.7-14.6c-5.7-7-16.2-12-16.4-21.1
		c-0.2-8.9,7.6-16.7,15.4-21.1c7.1-4,16.2,1.9,23.8-0.9c8.5-3.1,12.5-15.2,21.5-15.5c8.9-0.4,16.8,6.8,22.4,13.7
		c5.5,6.8,7.6,15.6,8.5,24.3c0.9,8.5,0.9,17.4-3.4,24.8c-4.1,7.1-11.2,12.8-19.2,14.7C66.8,88.3,60.2,82.1,52.8,81.3z"/>
	<g>
		<g>
			<g>
				<g>
					<g>
						<g>
							<g>
								<g>
									<path class="st1" d="M61.7,25.2v10.1h-8.8c-0.6,0-1.1-0.5-1.1-1.1v-8c0-0.6,0.5-1.1,1.1-1.1H61.7z"/>
									<path class="st2" d="M58.6,25.2v2.5c0,0.3-0.3,0.4-0.5,0.3l-0.8-0.6c-0.1-0.1-0.3-0.1-0.4,0L56.1,28
										c-0.2,0.2-0.6,0-0.6-0.3v-2.5H58.6z"/>
									<path class="st2" d="M57.5,32.8c-0.3,0.1-0.6,0.2-1,0.3c-0.3,0.1-0.6,0.1-1,0.1c-0.3,0-0.6,0-1-0.1c-0.3,0-0.6-0.1-1-0.3
										c0.3-0.1,0.6-0.2,1-0.3c0.3-0.1,0.6-0.1,1-0.1c0.3,0,0.6,0,1,0.1C56.8,32.5,57.2,32.6,57.5,32.8z"/>
									<path class="st2" d="M55.3,33.8c0.2,0,0.4,0.1,0.6,0.3c-0.2,0.1-0.4,0.2-0.6,0.3c-0.2,0.1-0.4,0.1-0.6,0.1
										c-0.2,0-0.4,0-0.6-0.1c-0.2,0-0.4-0.1-0.6-0.3c0.2-0.1,0.4-0.2,0.6-0.3c0.2,0,0.4-0.1,0.6-0.1S55.1,33.7,55.3,33.8z"/>
								</g>
							</g>
						</g>
					</g>
				</g>
			</g>
			<g>
				<g>
					<g>
						<g>
							<g>
								<g>
									<path class="st1" d="M74.4,25.2v10.1h-8.8c-0.6,0-1.1-0.5-1.1-1.1v-8c0-0.6,0.5-1.1,1.1-1.1H74.4z"/>
									<path class="st2" d="M64.5,26.3v7.9c0,0.6-0.5,1.1-1.1,1.1h-1.8V25.2h1.8C64.1,25.2,64.5,25.7,64.5,26.3z"/>
									<path class="st2" d="M77.3,26.3v7.9c0,0.6-0.5,1.1-1.1,1.1h-1.8V25.2h1.8C76.8,25.2,77.3,25.7,77.3,26.3z"/>
									<path class="st2" d="M71.4,25.2v2.5c0,0.3-0.3,0.4-0.5,0.3L70,27.4c-0.1-0.1-0.3-0.1-0.4,0L68.8,28c-0.2,0.2-0.6,0-0.6-0.3
										v-2.5H71.4z"/>
									<path class="st2" d="M70.3,32.8c-0.3,0.1-0.6,0.2-1,0.3c-0.3,0.1-0.6,0.1-1,0.1c-0.3,0-0.6,0-1-0.1s-0.6-0.1-1-0.3
										c0.3-0.1,0.6-0.2,1-0.3c0.3-0.1,0.6-0.1,1-0.1c0.3,0,0.6,0,1,0.1C69.6,32.5,69.9,32.6,70.3,32.8z"/>
									<path class="st2" d="M68.1,33.8c0.2,0,0.4,0.1,0.6,0.3c-0.2,0.1-0.4,0.2-0.6,0.3c-0.2,0.1-0.4,0.1-0.6,0.1
										c-0.2,0-0.4,0-0.6-0.1c-0.2,0-0.4-0.1-0.6-0.3c0.2-0.1,0.4-0.2,0.6-0.3c0.2,0,0.4-0.1,0.6-0.1
										C67.7,33.7,67.9,33.7,68.1,33.8z"/>
								</g>
							</g>
						</g>
					</g>
				</g>
			</g>
		</g>
		<g>
			<g>
				<g>
					<g>
						<g>
							<g>
								<g>
									<path class="st1" d="M61.7,42.1v10.1h-8.8c-0.6,0-1.1-0.5-1.1-1.1v-8c0-0.6,0.5-1.1,1.1-1.1H61.7z"/>
									<path class="st2" d="M58.6,42.1v2.5c0,0.3-0.3,0.4-0.5,0.3l-0.8-0.6c-0.1-0.1-0.3-0.1-0.4,0l-0.8,0.5
										c-0.2,0.2-0.6,0-0.6-0.3v-2.5H58.6z"/>
									<path class="st2" d="M57.5,49.7c-0.3,0.1-0.6,0.2-1,0.3c-0.3,0.1-0.6,0.1-1,0.1c-0.3,0-0.6,0-1-0.1c-0.3,0-0.6-0.1-1-0.3
										c0.3-0.1,0.6-0.2,1-0.3c0.3-0.1,0.6-0.1,1-0.1c0.3,0,0.6,0,1,0.1C56.8,49.5,57.2,49.5,57.5,49.7z"/>
									<path class="st2" d="M55.3,50.7c0.2,0,0.4,0.1,0.6,0.3c-0.2,0.1-0.4,0.2-0.6,0.3c-0.2,0.1-0.4,0.1-0.6,0.1
										c-0.2,0-0.4,0-0.6-0.1c-0.2,0-0.4-0.1-0.6-0.3c0.2-0.1,0.4-0.2,0.6-0.3c0.2,0,0.4-0.1,0.6-0.1S55.1,50.6,55.3,50.7z"/>
								</g>
							</g>
						</g>
					</g>
				</g>
			</g>
			<g>
				<g>
					<g>
						<g>
							<g>
								<g>
									<path class="st1" d="M74.4,42.1v10.1h-8.8c-0.6,0-1.1-0.5-1.1-1.1v-8c0-0.6,0.5-1.1,1.1-1.1H74.4z"/>
									<path class="st2" d="M77.3,43.2v7.9c0,0.6-0.5,1.1-1.1,1.1h-1.8V42.1h1.8C76.8,42.1,77.3,42.6,77.3,43.2z"/>
									<path class="st2" d="M64.5,43.2v7.9c0,0.6-0.5,1.1-1.1,1.1h-1.8V42.1h1.8C64.1,42.1,64.5,42.6,64.5,43.2z"/>
									<path class="st2" d="M71.4,42.1v2.5c0,0.3-0.3,0.4-0.5,0.3L70,44.3c-0.1-0.1-0.3-0.1-0.4,0l-0.8,0.5
										c-0.2,0.2-0.6,0-0.6-0.3v-2.5H71.4z"/>
									<path class="st2" d="M70.3,49.7c-0.3,0.1-0.6,0.2-1,0.3C69,50,68.6,50,68.3,50c-0.3,0-0.6,0-1-0.1c-0.3,0-0.6-0.1-1-0.3
										c0.3-0.1,0.6-0.2,1-0.3c0.3-0.1,0.6-0.1,1-0.1c0.3,0,0.6,0,1,0.1C69.6,49.5,69.9,49.5,70.3,49.7z"/>
									<path class="st2" d="M68.1,50.7c0.2,0,0.4,0.1,0.6,0.3c-0.2,0.1-0.4,0.2-0.6,0.3c-0.2,0.1-0.4,0.1-0.6,0.1
										c-0.2,0-0.4,0-0.6-0.1c-0.2,0-0.4-0.1-0.6-0.3c0.2-0.1,0.4-0.2,0.6-0.3c0.2,0,0.4-0.1,0.6-0.1
										C67.7,50.6,67.9,50.6,68.1,50.7z"/>
								</g>
							</g>
						</g>
					</g>
				</g>
			</g>
		</g>
		<g>
			<path class="st3" d="M81.3,35.2c0.6,0,1.2,0.4,1.3,1c0.1,0.6,0.1,1.1,0,1.7c-0.1,0.6-0.7,1-1.3,1c-11.7,0.6-23.1,0.6-34.3,0
				c-0.6,0-1.2-0.4-1.3-0.9c-0.1-0.6-0.1-1.1,0-1.7c0.1-0.6,0.7-1,1.3-1.1C58.1,34.7,69.6,34.7,81.3,35.2z"/>
			<path class="st3" d="M81.3,52c0.6,0,1.2,0.4,1.3,1c0.1,0.6,0.1,1.1,0,1.7c-0.1,0.6-0.7,1-1.3,1c-11.7,0.6-23.1,0.6-34.3,0
				c-0.6,0-1.2-0.4-1.3-0.9c-0.1-0.6-0.1-1.1,0-1.7c0.1-0.6,0.7-1,1.3-1.1C58.1,51.4,69.6,51.4,81.3,52z"/>
		</g>
		<g>
			<g>
				<path class="st4" d="M49.6,61.8c0,0.6-0.5,1.2-1.1,1.3c-0.6,0.1-1.3,0.1-1.9,0c-0.6-0.1-1.1-0.7-1.1-1.3
					c-0.7-11.7-0.7-23.1,0-34.3c0-0.6,0.5-1.2,1.1-1.3c0.6-0.1,1.3-0.1,1.9,0c0.7,0.1,1.2,0.7,1.2,1.3
					C50.3,38.7,50.3,50.1,49.6,61.8z"/>
				<path class="st4" d="M82.4,61.8c0,0.6-0.5,1.2-1.1,1.3s-1.3,0.1-1.9,0c-0.6-0.1-1.1-0.7-1.1-1.3c-0.7-11.7-0.7-23.1,0-34.3
					c0-0.6,0.5-1.2,1.1-1.3c0.6-0.1,1.3-0.1,1.9,0c0.7,0.1,1.2,0.7,1.2,1.3C83.1,38.7,83.1,50.1,82.4,61.8z"/>
			</g>
		</g>
		<path class="st3" d="M58.8,51.8v19.8H31.5V51.8c0-1.4,1.1-2.5,2.5-2.5h22.4C57.7,49.3,58.8,50.5,58.8,51.8z"/>
		<rect x="58.8" y="58.6" class="st5" width="1.4" height="13"/>
		<path class="st4" d="M72.9,64.2v7.4H60.2V57.4c0-1.3,1-2.3,2.3-2.3h4.4c0.9,0,1.7,0.5,2.1,1.2l3.6,6.8
			C72.8,63.5,72.9,63.9,72.9,64.2z"/>
		<path class="st6" d="M73.4,72.2v1.6c0,0.3-0.2,0.5-0.5,0.5H31.4c-0.3,0-0.5-0.2-0.5-0.5v-1.6c0-0.3,0.2-0.5,0.5-0.5h41.5
			C73.2,71.6,73.4,71.9,73.4,72.2z"/>
		<path class="st6" d="M61.5,57.1v4c0,0.4,0.2,0.7,0.6,0.7l6.7,1.7c1,0.3,1.8-0.8,1.4-1.7l-2.3-5.1c-0.1-0.3-0.4-0.4-0.7-0.4h-4.9
			C61.8,56.3,61.5,56.7,61.5,57.1z"/>
		<path class="st7" d="M65.5,64.8c0.1,0,0.3-0.1,0.3-0.2c0.1-0.2,0-0.4-0.2-0.5l-1.7-0.6c-0.2-0.1-0.4,0-0.5,0.2
			c-0.1,0.2,0,0.4,0.2,0.5l1.7,0.6C65.4,64.8,65.4,64.8,65.5,64.8z"/>
		<circle class="st8" cx="66.5" cy="73.4" r="3.4"/>
		<circle class="st9" cx="66.5" cy="73.4" r="1.3"/>
		<circle class="st8" cx="45.9" cy="73.4" r="3.4"/>
		<circle class="st9" cx="45.9" cy="73.4" r="1.3"/>
		<circle class="st8" cx="37.5" cy="73.4" r="3.4"/>
		<circle class="st9" cx="37.5" cy="73.4" r="1.3"/>
		<path class="st1" d="M70.9,67.4c0,0.9,0.8,1.7,1.7,1.7c0.1,0,0.2,0,0.2,0v-3.4c-0.1,0-0.2,0-0.2,0C71.7,65.7,70.9,66.4,70.9,67.4z
			"/>
		<path class="st10" d="M54.9,52.2c-0.2,1.4-0.3,2.8-0.4,4.2c-0.1,1.4-0.1,2.8-0.1,4.2c0,1.4,0,2.8,0.1,4.2c0.1,1.4,0.2,2.8,0.4,4.2
			c0.2-1.4,0.3-2.8,0.4-4.2c0.1-1.4,0.1-2.8,0.1-4.2c0-1.4,0-2.8-0.1-4.2C55.2,55,55.1,53.6,54.9,52.2z"/>
		<path class="st10" d="M51,52.2c-0.2,1.4-0.3,2.8-0.4,4.2c-0.1,1.4-0.1,2.8-0.1,4.2c0,1.4,0,2.8,0.1,4.2c0.1,1.4,0.2,2.8,0.4,4.2
			c0.2-1.4,0.3-2.8,0.4-4.2c0.1-1.4,0.1-2.8,0.1-4.2c0-1.4,0-2.8-0.1-4.2C51.3,55,51.2,53.6,51,52.2z"/>
		<path class="st10" d="M47.1,52.2c-0.2,1.4-0.3,2.8-0.4,4.2c-0.1,1.4-0.1,2.8-0.1,4.2c0,1.4,0,2.8,0.1,4.2c0.1,1.4,0.2,2.8,0.4,4.2
			c0.2-1.4,0.3-2.8,0.4-4.2c0.1-1.4,0.1-2.8,0.1-4.2c0-1.4,0-2.8-0.1-4.2C47.4,55,47.3,53.6,47.1,52.2z"/>
		<path class="st10" d="M43.2,52.2c-0.2,1.4-0.3,2.8-0.4,4.2c-0.1,1.4-0.1,2.8-0.1,4.2c0,1.4,0,2.8,0.1,4.2c0.1,1.4,0.2,2.8,0.4,4.2
			c0.2-1.4,0.3-2.8,0.4-4.2c0.1-1.4,0.1-2.8,0.1-4.2c0-1.4,0-2.8-0.1-4.2C43.6,55,43.4,53.6,43.2,52.2z"/>
		<path class="st10" d="M39.3,52.2c-0.2,1.4-0.3,2.8-0.4,4.2c-0.1,1.4-0.1,2.8-0.1,4.2c0,1.4,0,2.8,0.1,4.2c0.1,1.4,0.2,2.8,0.4,4.2
			c0.2-1.4,0.3-2.8,0.4-4.2c0.1-1.4,0.1-2.8,0.1-4.2c0-1.4,0-2.8-0.1-4.2C39.7,55,39.6,53.6,39.3,52.2z"/>
		<path class="st10" d="M35.5,52.2c-0.2,1.4-0.3,2.8-0.4,4.2c-0.1,1.4-0.1,2.8-0.1,4.2c0,1.4,0,2.8,0.1,4.2c0.1,1.4,0.2,2.8,0.4,4.2
			c0.2-1.4,0.3-2.8,0.4-4.2c0.1-1.4,0.1-2.8,0.1-4.2c0-1.4,0-2.8-0.1-4.2C35.8,55,35.7,53.6,35.5,52.2z"/>
		<path class="st3" d="M42.7,36.4c0,2.4-3.5,7.9-4.8,9.9c-0.2,0.4-0.8,0.4-1,0c-1.3-2-4.8-7.5-4.8-9.9c0-2.9,2.4-5.3,5.3-5.3
			C40.3,31.1,42.7,33.5,42.7,36.4z"/>
		<circle class="st5" cx="37.4" cy="36.4" r="3.8"/>
		<circle class="st9" cx="37.4" cy="36.4" r="2.8"/>
	</g>
</g>
<g id="Master_Layer_4">
</g>
<rect x="-197" y="-21" class="st11" width="15.1" height="17.8"/>
<path class="st12" d="M-189.6-11.9l-0.2,5.6l5.4-3.1l0.3-5.4L-189.6-11.9z"/>
<path class="st12" d="M-194.6-14.9l-0.1,5.3l5,3.3l0.2-5.6L-194.6-14.9z"/>
<path class="st12" d="M-189-17.6l-5.7,2.6l5.1,3l5.5-2.9L-189-17.6z"/>
<path class="st3" d="M-187.5-13L-187.5-13l1.1-0.2l0.1-0.4l-4.6-3"/>
<path class="st3" d="M-187.5-13l0.5-0.8l-4-2.9l-1.2,0.5L-187.5-13z"/>
<path class="st3" d="M-187.5-13l1.2-0.6l0,1.4l-1.1,0.6L-187.5-13z"/>
<path class="st3" d="M-189.5-4.6c-3.7,0-6.8-2.6-7.5-6.2c0-0.1,0-0.1,0-0.1c0,0,0.1-0.1,0.1-0.1s0.1,0,0.1,0c0,0,0.1,0.1,0.1,0.1
	C-196-7.4-193-5-189.5-5c4,0,7.2-3.2,7.2-7.2c0-3.9-3.2-7.2-7.2-7.2c-0.3,0-0.6,0-0.9,0.1c-0.1,0-0.1,0-0.1,0c0,0-0.1-0.1-0.1-0.1
	c0-0.1,0-0.1,0-0.1c0,0,0.1-0.1,0.1-0.1c0.3,0,0.6-0.1,1-0.1c2,0,3.9,0.8,5.4,2.2c1.4,1.4,2.2,3.3,2.2,5.3s-0.8,3.9-2.2,5.3
	S-187.5-4.6-189.5-4.6z"/>
<path class="st9" d="M-196.8-11.6c0,0-0.1,0-0.1-0.1c0,0-0.1-0.1-0.1-0.1c0-0.1,0-0.2,0-0.3c0-0.1,0-0.1,0.1-0.1
	c0,0,0.1-0.1,0.1-0.1s0.1,0,0.1,0.1c0,0,0.1,0.1,0.1,0.1c0,0.1,0,0.2,0,0.3c0,0,0,0.1,0,0.1c0,0,0,0,0,0.1
	C-196.7-11.6-196.7-11.6-196.8-11.6C-196.7-11.6-196.7-11.6-196.8-11.6C-196.8-11.6-196.8-11.6-196.8-11.6z"/>
<path class="st13" d="M-196.6-13.4C-196.7-13.4-196.7-13.4-196.6-13.4c-0.1,0-0.1,0-0.2-0.1c0,0,0,0,0-0.1c0,0,0-0.1,0-0.1
	c0-0.2,0.1-0.4,0.2-0.6c0,0,0,0,0-0.1c0,0,0,0,0.1-0.1s0,0,0.1,0c0,0,0.1,0,0.1,0c0,0,0,0,0.1,0c0,0,0,0,0,0.1c0,0,0,0,0,0.1
	c0,0,0,0.1,0,0.1c-0.1,0.2-0.1,0.4-0.1,0.6c0,0,0,0.1-0.1,0.1C-196.5-13.5-196.6-13.4-196.6-13.4L-196.6-13.4z M-195.7-15.7
	c0,0-0.1,0-0.1,0c0,0,0,0-0.1-0.1c0,0,0,0,0-0.1s0-0.1,0-0.1c0,0,0-0.1,0-0.1c0.1-0.2,0.2-0.4,0.3-0.5c0,0,0,0,0.1-0.1
	c0,0,0,0,0.1,0c0,0,0.1,0,0.1,0c0,0,0,0,0.1,0c0,0,0,0,0.1,0.1c0,0,0,0,0,0.1c0,0,0,0.1,0,0.1c0,0,0,0,0,0.1
	c-0.1,0.2-0.2,0.3-0.3,0.5C-195.6-15.8-195.6-15.8-195.7-15.7C-195.7-15.7-195.7-15.7-195.7-15.7L-195.7-15.7z M-194.1-17.6
	c0,0-0.1,0-0.1,0c0,0-0.1-0.1-0.1-0.1c0,0,0-0.1,0-0.1c0,0,0-0.1,0.1-0.1c0.2-0.1,0.3-0.3,0.5-0.4c0,0,0.1,0,0.1,0
	c0.1,0,0.1,0,0.1,0.1c0,0,0,0.1,0,0.1c0,0.1,0,0.1-0.1,0.1c-0.2,0.1-0.3,0.2-0.5,0.4C-194-17.6-194.1-17.6-194.1-17.6L-194.1-17.6z"
	/>
<path class="st13" d="M-189.2-19.3L-189.2-19.3c-0.1,0-0.2,0-0.3,0h0c-0.1,0-0.1,0-0.1-0.1c0,0-0.1-0.1-0.1-0.1c0-0.1,0-0.1,0.1-0.1
	c0,0,0.1-0.1,0.1-0.1c0.1,0,0.2,0,0.3,0c0.1,0,0.1,0,0.1,0.1c0,0,0.1,0.1,0.1,0.1c0,0.1,0,0.1-0.1,0.1
	C-189.1-19.3-189.1-19.3-189.2-19.3L-189.2-19.3z"/>
<path class="st13" d="M-189.2-18.1c0,0-0.1,0-0.1,0l-1.6-1.1c0,0,0,0-0.1-0.1c0,0,0-0.1,0-0.1c0,0,0-0.1,0-0.1c0,0,0-0.1,0-0.1
	c1.5-1.4,1.6-1.4,1.7-1.5c0,0,0.1,0,0.1,0c0,0,0.1,0.1,0.1,0.1c0,0,0,0.1,0,0.1c0,0-0.1,0.1-0.1,0.1c-0.1,0.1-0.7,0.7-1.4,1.2
	l1.4,0.9c0,0,0.1,0.1,0.1,0.1c0,0,0,0.1,0,0.1c0,0,0,0.1-0.1,0.1C-189.1-18.1-189.2-18.1-189.2-18.1L-189.2-18.1z"/>
<path class="st3" d="M-229-11.6l4.6,2.3c0,0,0,0,0.1,0c0,0,0,0,0,0c0,0,0.1,0,0.1,0l2.7-1.4c0.1,0,0.1-0.2,0.1-0.2
	c0-0.1-0.2-0.1-0.2-0.1l-0.1,0.1l0-0.6c0-0.1-0.1-0.2-0.2-0.2c0,0,0,0,0,0c-0.1,0-0.2,0.1-0.2,0.2l0,0.8l-2,1l0-4.5l2-1l0,0.8
	c0,0.1,0.1,0.2,0.2,0.2c0,0,0,0,0,0c0.1,0,0.2-0.1,0.2-0.2l0-1l1.8-0.9l0,1.9c0,0.1,0.1,0.2,0.2,0.2c0,0,0,0,0,0
	c0.1,0,0.2-0.1,0.2-0.2l0-2.2c0,0,0,0,0,0c0,0,0,0,0,0c0,0,0,0,0,0c0,0,0,0,0,0c0-0.1-0.1-0.1-0.1-0.1l-4.5-2.3c-0.1,0-0.1,0-0.2,0
	l-2.2,1.1c0,0-0.1,0-0.1,0l-2.3,1.2c0,0,0,0,0,0c0,0,0,0,0,0c0,0,0,0,0,0c0,0,0,0,0,0c0,0,0,0,0,0c0,0,0,0,0,0c0,0,0,0,0,0
	c0,0,0,0,0,0c0,0,0,0,0,0c0,0,0,0,0,0c0,0,0,0,0,0c0,0,0,0,0,0c0,0,0,0,0,0c0,0,0,0,0,0c0,0,0,0,0,0c0,0,0,0,0,0c0,0,0,0,0,0
	c0,0,0,0,0,0c0,0,0,0,0,0c0,0,0,0,0,0c0,0,0,0,0,0c0,0,0,0,0,0c0,0,0,0,0,0c0,0,0,0,0,0c0,0,0,0,0,0c0,0,0,0,0,0c0,0,0,0,0,0
	c0,0,0,0,0,0c0,0,0,0,0,0c0,0,0,0,0,0c0,0,0,0,0,0c0,0,0,0,0,0c0,0,0,0,0,0c0,0,0,0,0,0c0,0,0,0,0,0c0,0,0,0,0,0c0,0,0,0,0,0
	c0,0,0,0,0,0c0,0,0,0,0,0c0,0,0,0,0,0c0,0,0,0,0,0c0,0,0,0,0,0c0,0,0,0,0,0c0,0,0,0,0,0c0,0,0,0,0,0c0,0,0,0,0,0c0,0,0,0,0,0l0,4.9
	C-229.1-11.7-229.1-11.6-229-11.6z M-226.6-17.6l4.2,2.1l-2,1l-1.5-0.7l-2.7-1.4L-226.6-17.6z M-228.8-16.3l2.8,1.4l1.4,0.7l0,4.5
	l-4.2-2.1L-228.8-16.3z M-224.4-18.7l4.2,2.1l-1.8,0.9l-4.2-2.1L-224.4-18.7z"/>
<path class="st4" d="M-228.9-8.3C-228.9-8.3-228.9-8.3-228.9-8.3C-228.9-8.3-228.9-8.3-228.9-8.3C-228.9-8.3-228.9-8.3-228.9-8.3
	C-228.9-8.3-228.9-8.3-228.9-8.3C-228.9-8.3-228.9-8.3-228.9-8.3C-228.9-8.3-228.9-8.3-228.9-8.3C-228.9-8.3-228.9-8.3-228.9-8.3
	C-228.9-8.3-228.9-8.3-228.9-8.3C-228.9-8.3-228.9-8.3-228.9-8.3C-228.9-8.3-228.9-8.3-228.9-8.3C-228.9-8.3-228.9-8.3-228.9-8.3
	C-228.9-8.3-228.9-8.3-228.9-8.3C-228.9-8.3-228.9-8.2-228.9-8.3C-228.9-8.2-228.9-8.2-228.9-8.3c0,0.1,0,0.1,0.1,0.1c0,0,0,0,0,0
	c0,0,0,0,0,0c0,0,0,0,0,0c0,0,0,0,0,0c0,0,0,0,0,0c0,0,0,0,0,0c0,0,0,0,0,0c0,0,0,0,0,0c0,0,0,0,0,0c0,0,0,0,0,0c0,0,0.1,0,0.1,0
	c0,0,0,0,0,0c0,0,0,0,0,0c0,0,0,0,0,0c0,0,0,0,0,0l0,0l9.1,0c0,0,0,0,0,0c0.3,0,0.7-0.1,1-0.2c0.3-0.1,0.6-0.3,0.8-0.6
	c0.2-0.2,0.4-0.5,0.6-0.8c0.1-0.3,0.2-0.7,0.2-1c0-0.9-0.4-1.7-1.2-2.2c-0.4-0.3-0.9-0.5-1.5-0.5c0,0,0,0,0,0l-1.1,0
	c-0.1,0-0.2,0.1-0.2,0.2c0,0.1,0.1,0.2,0.2,0.2l1.1,0c0,0,0,0,0,0c0.5,0,0.9,0.1,1.3,0.4c0.6,0.4,1,1.1,1,1.9c0,1.3-1,2.3-2.3,2.3
	c0,0,0,0,0,0l-8.9,0l0-0.8c0-0.1,0-0.1-0.1-0.2c-0.1,0-0.1,0-0.2,0l-2.7,1.8c-0.1,0-0.1,0.1-0.1,0.2s0,0.1,0.1,0.2l2.7,1.8
	c0,0,0.1,0,0.1,0c0,0,0.1,0,0.1,0c0.1,0,0.1-0.1,0.1-0.2l0-0.8l8.9,0c0.3,0,0.6,0,0.9-0.1c0.3-0.1,0.5-0.2,0.7-0.4
	c0.2-0.2,0.4-0.4,0.6-0.6c0.2-0.2,0.3-0.5,0.4-0.8c0-0.1,0-0.2-0.1-0.2c-0.1,0-0.2,0-0.2,0.1c-0.3,1-1.2,1.7-2.2,1.7l-8.9,0l0-0.6
	c0-0.1-0.1-0.2-0.2-0.2c0,0,0,0,0,0c-0.1,0-0.2,0.1-0.2,0.2l0,0.8c0,0,0,0,0,0c0,0,0,0,0,0l0,0.6l-2.2-1.5l2.2-1.5L-228.9-8.3z"/>
<path class="st4" d="M-219.9-18.8h0.2c0.1,0,0.2-0.1,0.2-0.2c0-0.1-0.1-0.2-0.2-0.2h-0.2c-0.1,0-0.2,0.1-0.2,0.2
	C-220.1-18.9-220-18.8-219.9-18.8z"/>
<path class="st4" d="M-222-18.8h1c0.1,0,0.2-0.1,0.2-0.2c0-0.1-0.1-0.2-0.2-0.2h-1c-0.1,0-0.2,0.1-0.2,0.2
	C-222.1-18.9-222.1-18.8-222-18.8z"/>
<path class="st4" d="M-219.3-17.6h2.1c0.1,0,0.2-0.1,0.2-0.2s-0.1-0.2-0.2-0.2h-2.1c-0.1,0-0.2,0.1-0.2,0.2S-219.4-17.6-219.3-17.6z
	"/>
<path class="st4" d="M-218.6-16.4c-0.1,0-0.2,0.1-0.2,0.2s0.1,0.2,0.2,0.2h0.5c0.1,0,0.2-0.1,0.2-0.2s-0.1-0.2-0.2-0.2H-218.6z"/>
<path class="st4" d="M-220.7-11.4l1,0c0,0,0,0,0,0c0.5,0,0.9,0.1,1.3,0.4c0.1,0,0.1,0.1,0.2,0.2c0,0,0.1,0,0.1,0
	c0.1,0,0.1,0,0.1-0.1c0.1-0.1,0.1-0.2,0-0.3c-0.1-0.1-0.2-0.1-0.2-0.2c-0.4-0.3-0.9-0.5-1.5-0.5c0,0,0,0,0,0l-1,0
	c-0.1,0-0.2,0.1-0.2,0.2C-220.9-11.4-220.8-11.4-220.7-11.4C-220.7-11.4-220.7-11.4-220.7-11.4z"/>
</svg>
