<?xml version="1.0" encoding="UTF-8"?>
<svg id="Layer_1" data-name="Layer 1" xmlns="http://www.w3.org/2000/svg" viewBox="0 0 200 200">
  <path d="M156.89,136.89c.58,1.01.24,2.29-.77,2.87-1.01.58-2.29.24-2.87-.77l-2.32-4.01c-4.47,9.06-11.71,16.72-20.72,21.81-7.72,4.36-16.36,6.63-24.98,6.63-2.71,0-5.41-.22-8.08-.68-1.15-.19-1.92-1.28-1.72-2.43.19-1.15,1.28-1.91,2.43-1.72,19.29,3.27,39.31-6.91,48.57-24.06l-3.09,1.78c-1.01.58-2.29.23-2.87-.77-.58-1.01-.23-2.29.77-2.87l8.1-4.67c1.01-.58,2.29-.24,2.87.77l4.68,8.1h0ZM104.57,39.68c.19-1.15-.58-2.23-1.72-2.43-11.17-1.9-22.92.21-33.06,5.95-9,5.09-16.25,12.75-20.72,21.81l-2.32-4c-.58-1.01-1.87-1.35-2.87-.77-1.01.58-1.35,1.87-.77,2.87l4.68,8.09c.39.67,1.1,1.05,1.82,1.05.36,0,.72-.09,1.05-.28l8.09-4.67c1.01-.58,1.35-1.87.77-2.87-.58-1.01-1.87-1.35-2.87-.77l-3.08,1.77c9.26-17.15,29.28-27.32,48.56-24.04,1.14.2,2.23-.58,2.43-1.72h0ZM75.26,112.87c-4.18,7.45-12.16,12.49-21.3,12.49s-17.1-5.05-21.29-12.49c-8.26,1.04-14.56,8.06-14.56,16.53v21.41h8.95v-13.61c0-2.71,2.2-4.92,4.91-4.92h43.99c2.71,0,4.92,2.21,4.92,4.92v13.61h8.94v-21.41c0-8.47-6.3-15.49-14.55-16.53h0ZM146.03,58.51c11.14,0,20.21-9.06,20.21-20.2s-9.06-20.21-20.21-20.21-20.2,9.06-20.2,20.21,9.06,20.2,20.2,20.2ZM53.96,121.16c11.14,0,20.21-9.06,20.21-20.2s-9.06-20.21-20.21-20.21-20.2,9.06-20.2,20.21,9.06,20.2,20.2,20.2ZM75.95,136.49h-12.05l.02,17.86c0,1.41-.8,2.64-2.09,3.22-.46.21-.95.31-1.44.31-.84,0-1.66-.3-2.31-.88l-4.13-3.67-4.13,3.68c-1.02.91-2.49,1.13-3.75.56-1.28-.58-2.07-1.81-2.07-3.21l.02-17.87h-12.06c-.39,0-.7.32-.7.71v43.98c0,.39.32.71.7.71h43.99c.39,0,.71-.33.71-.71v-43.98c0-.39-.32-.71-.71-.71h0ZM56.3,149.78l3.41,3.03-.02-16.32h-11.46l-.02,16.32,3.42-3.05c1.3-1.17,3.35-1.17,4.66.01h0ZM148.35,87.12l3.43,3.05-.02-16.32h-11.46l-.02,16.32,3.42-3.05c1.31-1.16,3.35-1.16,4.65,0h0ZM167.33,50.23c-4.18,7.45-12.16,12.49-21.3,12.49s-17.1-5.05-21.29-12.49c-8.26,1.04-14.56,8.06-14.56,16.53v21.41h8.95v-13.61c0-2.71,2.21-4.92,4.92-4.92h43.98c2.71,0,4.92,2.21,4.92,4.92v13.61h8.95v-21.41c0-8.47-6.3-15.49-14.56-16.53h0ZM168.02,73.84h-12.05l.02,17.86c0,1.41-.79,2.64-2.07,3.22-.46.21-.95.31-1.44.31-.84,0-1.66-.3-2.31-.87l-4.14-3.68-4.13,3.68c-1.02.91-2.5,1.13-3.75.56-1.28-.57-2.07-1.81-2.07-3.22l.02-17.87h-12.05c-.39,0-.71.32-.71.71v43.99c0,.39.32.7.71.7h43.98c.39,0,.71-.32.71-.7v-43.99c0-.39-.33-.71-.71-.71h0Z" style="fill: #116087;"/>
</svg>