<?xml version="1.0" encoding="UTF-8"?>
<svg id="Layer_1" xmlns="http://www.w3.org/2000/svg" version="1.1" viewBox="0 0 54 54">
  <!-- Generator: Adobe Illustrator 29.1.0, SVG Export Plug-In . SVG Version: 2.1.0 Build 142)  -->
  <defs>
    <style>
      .st0 {
        fill: #fff;
      }
    </style>
  </defs>
  <path class="st0" d="M27,4.8c-6.9,0-12.5,5.6-12.5,12.5,0,.6.6,3.2,6.5,15.6,1.3,2.7,2.6,5.4,3.7,7.7,0,0,0,0,0,0,.9,1.9,1.7,3.4,2.2,4.4.5-1,1.3-2.6,2.2-4.5,1.1-2.3,2.4-5,3.7-7.7,5.9-12.4,6.5-15,6.5-15.6,0-6.9-5.6-12.5-12.5-12.5h0ZM23.9,31c0,.4-.3.7-.7.7s-.7-.3-.7-.7v-3.5c0-.4.3-.7.7-.7s.7.3.7.7v3.5ZM25.8,35.9c0,.4-.3.7-.7.7s-.7-.3-.7-.7h0v-3.5c0-.4.3-.7.7-.7s.7.3.7.7v3.5ZM27.7,31c0,.4-.3.7-.7.7s-.7-.3-.7-.7v-3.5c0-.4.3-.7.7-.7s.7.3.7.7v3.5ZM29.6,35.9c0,.4-.3.7-.7.7s-.7-.3-.7-.7h0v-3.5c0-.4.3-.7.7-.7s.7.3.7.7v3.5ZM31.5,31c0,.4-.3.7-.7.7s-.7-.3-.7-.7v-3.5c0-.4.3-.7.7-.7s.7.3.7.7v3.5ZM27,25.9c-4.7,0-8.6-3.8-8.6-8.6s3.8-8.6,8.6-8.6,8.6,3.8,8.6,8.6h0c0,4.7-3.8,8.6-8.6,8.6h0Z"/>
  <path class="st0" d="M27,10.2c-4,0-7.2,3.2-7.2,7.2s3.2,7.2,7.2,7.2,7.2-3.2,7.2-7.2c0-4-3.2-7.2-7.2-7.2h0ZM25.6,20.1c.4.2.5.6.3,1-.2.4-.6.5-1,.3,0,0,0,0,0,0-2.2-1.1-3.1-3.8-2-6,.4-.9,1.1-1.6,2-2,.3-.2.8,0,1,.3.2.3,0,.8-.3,1,0,0,0,0,0,0-1.5.8-2.1,2.6-1.4,4.1.3.6.8,1.1,1.4,1.4ZM29,21.3c0,0-.2,0-.3,0-.4,0-.7-.3-.7-.7,0-.3.2-.5.4-.6,1.5-.8,2.1-2.6,1.4-4.1-.3-.6-.8-1.1-1.4-1.4-.3-.2-.5-.6-.3-1,.2-.3.6-.5.9-.3,2.2,1.1,3.1,3.8,2,6-.4.9-1.1,1.6-2,2h0Z"/>
  <path class="st0" d="M40.4,45.4c0,1.6-5.1,3.8-13.4,3.8s-13.4-2.2-13.4-3.8,1-1.5,2.8-2.2c1.9-.7,4.5-1.2,7.4-1.5,1.5,3.1,2.6,5.3,2.7,5.3.2.4.6.5,1,.3.1,0,.2-.2.3-.3,0,0,1.1-2.2,2.7-5.3,2.9.2,5.5.7,7.4,1.5,1.7.7,2.8,1.5,2.8,2.2h0Z"/>
</svg>