<?xml version="1.0" encoding="utf-8"?>
<!-- Generator: Adobe Illustrator 28.2.0, SVG Export Plug-In . SVG Version: 6.00 Build 0)  -->
<svg version="1.1" id="Layer_1" xmlns="http://www.w3.org/2000/svg" xmlns:xlink="http://www.w3.org/1999/xlink" x="0px" y="0px"
	 viewBox="0 0 100 100" style="enable-background:new 0 0 100 100;" xml:space="preserve">
<style type="text/css">
	.st0{fill:#040404;}
	.st1{fill:#030303;}
	.st2{fill:#FAE1CA;}
	.st3{fill:#4E6DB3;}
	.st4{fill:#3C5994;}
	.st5{fill:#3C5993;}
	.st6{fill:#F9E1CA;}
	.st7{fill:#1D1916;}
	.st8{fill:#1B1815;}
	.st9{fill:#1C1916;}
	.st10{fill:#060505;}
	.st11{fill:#03050D;}
	.st12{fill:#010101;}
	.st13{fill:#14120F;}
	.st14{fill:#100D0B;}
	.st15{fill:#0E0C0A;}
	.st16{fill:#151310;}
</style>
<g>
	<path class="st0" d="M75.2,37c5.9,2.5,8,7,5.9,12.2c-0.4,1.1-0.5,1.7,0.3,2.7c2.1,2.6,2.6,5.6,1.2,8.7c-0.4,1-0.1,1.8,0.2,2.6
		c1,3,0.6,5.7-1.4,8.1c-1,1.2-1.4,2.2-1.2,3.8c0.5,4.4-1.7,7.9-5.9,9.3c-1.2,0.4-1.8,0.9-2.5,2c-1.9,3.1-4.7,4.6-8.3,4.2
		c-1.2-0.1-1.8,0.2-2.5,1.1c-2.9,3.3-6.3,4.2-9.9,2.8c-3.5-1.4-5.5-4.5-5.5-8.8c0-16.9,0-33.7,0-50.6c0-4.1,1.5-7.2,5.3-8.9
		c3.7-1.6,7.1-0.9,9.8,2.1c1.2,1.4,2.2,0.7,3.2,0.2c1.4-0.7,0-1.5-0.2-2.2c-2.1-6.8,0.1-13.9,5.8-18.1C75.1,4,82.6,4,88.3,8
		c5.7,4.1,8.1,11.4,6,18c-2.2,6.7-8.3,11-15.4,11C77.9,37,76.9,37,75.2,37z"/>
	<path class="st1" d="M42.9,60.2c0,8.1-0.1,16.2,0,24.4c0.1,4.4-1.3,8-5.5,9.7c-4.1,1.7-7.7,0.4-10.3-3.1c-0.6-0.8-1.3-0.7-2.1-0.6
		c-3.6,0.3-6.4-1.2-8.3-4.2c-0.6-1-1.2-1.6-2.4-2c-4.3-1.5-6.6-5.1-6-9.6c0.2-1.5,0.1-2.5-1.1-3.4c-0.2-0.2-0.4-0.5-0.5-0.7
		c-0.9-1.5-2-3.4-1.4-4.9C7.1,61.2,3.1,56.1,7,52c0.9-1,0.9-1.7,0.4-2.9c-1.9-4.6-0.1-9.3,4.3-11.3c1.4-0.6,2-1.3,2.4-2.7
		c1.4-5.3,5.8-7.8,11.1-6.3c1.2,0.3,1.8,0.2,2.6-0.6c2.7-2.8,6-3.6,9.6-2c3.7,1.6,5.4,4.5,5.4,8.5C42.9,43.1,42.9,51.7,42.9,60.2z"
		/>
	<path class="st2" d="M64.5,31.5c-0.9,2.4-1.5,4.3-2.2,6.3c-0.4,1-1.2,2.1-0.1,3.1c1.3,1.2,2.2-0.2,3.2-0.7c2-1,3.9-2.2,6.2-3.5
		c-0.3,2.5,0.8,3.1,2.8,3.5c4.1,0.7,5.9,5.4,3.3,8.8c-1.3,1.8-1.2,2.6,0.5,3.9c2.3,1.8,2.7,4.3,1.4,6.9c-0.6,1.2-0.8,2.1-0.1,3.4
		c1.5,2.8,0.9,5.4-1.6,7.3c-1.3,1-1.5,1.7-1,3.3c1.4,4-0.4,6.9-4.4,7.8c-1.5,0.3-2.2,1-2.8,2.4c-1.2,2.9-3.8,4.2-6.7,3.3
		c-1.8-0.6-2.8-0.3-3.6,1.5c-1.3,2.6-3.6,3.7-6.4,3c-2.9-0.8-4.3-2.8-4.3-5.9c0-17,0-34.1,0-51.1c0-3.1,1.3-5.2,4.2-6.1
		c2.7-0.8,5.2,0.2,6.5,2.8C60.9,34.5,62.5,32.1,64.5,31.5z"/>
	<path class="st3" d="M68.6,29.6c-1-3-2.8-5.8-2.5-9.3C66.4,14.2,71.2,9,77.5,8.1c5.7-0.8,11.4,2.8,13.4,8.4
		c1.3,10.3-6.7,18-16.9,16.3c-0.2,0-0.3,0-0.5-0.1c-1-0.6-2.2,0.1-3.2-0.5C69.3,31.6,67.9,31.3,68.6,29.6z"/>
	<path class="st4" d="M74,32.8c8.6,0.6,16.3-4.6,16.9-16.3c2.1,5,1,10.1-3,14C84.1,34.1,78.9,35,74,32.8z"/>
	<path class="st5" d="M68.6,29.6c0.7,2.6,3.4,1.9,5,3.1c-2.7,0.3-4.6,2.5-7.5,3.6C66.9,33.8,67.7,31.7,68.6,29.6z"/>
	<path class="st6" d="M39.9,60.2c0,8.3,0,16.6,0,25c0,3.7-1.5,5.9-4.4,6.6c-3.2,0.7-5.4-0.6-6.7-3.5c-0.6-1.3-1.5-1.4-2.7-1.1
		c-4,0.9-5.8,0.1-7.5-3.7c-0.6-1.3-1.5-1.5-2.6-1.8c-4.1-0.9-5.8-3.8-4.4-7.8c0.5-1.5,0.4-2.4-1-3.3c-2.5-1.9-3.2-4.4-1.7-7.3
		c0.6-1.1,0.7-2,0.1-3.1c-1.6-2.8-1-5.4,1.5-7.4c1.5-1.2,1.6-1.9,0.5-3.5c-2.9-4-1.1-8.2,3.8-9.2c1.7-0.3,2.1-1,2.1-2.6
		c0.1-5.2,4.5-7.7,9-5.1c1.7,1,2.5,0.7,3.3-0.9c1.4-2.6,3.7-3.6,6.5-2.8c2.9,0.8,4.3,3,4.3,6C40,43.1,39.9,51.6,39.9,60.2z"/>
	<path class="st7" d="M58.7,64.9c0.1,0.8-0.2,1.2-1,1.1c-0.8,0-1.8,0.3-2-0.9c-0.4-1.9-1.6-3-3.5-3.5c-1.3-0.3-0.9-1.5-0.7-2.3
		c0.2-1,1.1-0.6,1.8-0.5C55.9,59.4,58.8,62.6,58.7,64.9z"/>
	<path class="st8" d="M61.4,84.6c-0.6,0-1.3,0.1-1.3-0.8c0-0.8-0.2-1.8,0.8-2.1c1.8-0.5,3-1.5,3.5-3.5c0.3-1.2,1.5-0.9,2.4-0.7
		c1,0.2,0.6,1.2,0.5,1.8C66.7,81.8,63.6,84.6,61.4,84.6z"/>
	<path class="st9" d="M68.9,65.8c0,0.1,0,0.3,0,0.3C67,68,65.1,69.9,63,71.6c-0.7,0.6-1.4-0.2-1.3-1.3c0.2-2.5,3.6-5.7,6-5.8
		C68.8,64.5,69,65,68.9,65.8z"/>
	<path class="st10" d="M58.7,55.6c-0.6,0-1.3,0.2-1.3-0.7c0-0.8-0.3-1.8,0.7-2.1c1.8-0.5,2.9-1.7,3.5-3.5c0.3-1,1.3-0.8,2.1-0.7
		c1.3,0.2,0.7,1.3,0.5,1.9C63.7,53,60.9,55.5,58.7,55.6z"/>
	<path class="st11" d="M79.1,11c2.3,0,3.9,1,5,3c1.1,2.1,1,4.3-0.4,6.1c-1.4,1.8-3,3.4-3.2,5.8c-0.1,1.2-1,1.1-1.8,1.1
		c-1.1-0.1-1.2-0.8-1-1.8c0.3-2.3,1.3-4.3,3-5.9c1.5-1.4,1.9-3.2,0.3-4.5c-1.5-1.3-3.3-1.1-4.3,0.9c-0.7,1.4-1.9,1.4-2.8,0.9
		c-1-0.6-0.2-1.7,0.2-2.4C74.9,12,76.7,11,79.1,11z"/>
	<path class="st12" d="M79.1,31.3c-1.2,0-1.6-0.5-1.7-1.5c-0.1-1.3,0.7-1.5,1.7-1.5c1.2,0,1.3,0.7,1.3,1.6
		C80.4,31,80,31.5,79.1,31.3z"/>
	<path class="st13" d="M32.7,53.6c0.3,1.9-0.3,2.3-1.5,2c-2.9-0.6-4.6-2.5-5.5-5.2c-0.2-0.6-0.6-1.3,0.1-1.6
		c0.7-0.4,2.1-0.5,2.3,0.1c0.9,2.2,2.2,3.6,4.4,4.3C32.7,53.2,32.7,53.8,32.7,53.6z"/>
	<path class="st14" d="M28.3,70.5c0.1,0.5,0.1,1.2-0.6,1.1c-0.8-0.1-2,0.7-2.4-0.6c-0.5-2-1.9-3-3.7-3.7c-1.1-0.4-0.6-1.4-0.6-2.1
		c0.1-1.2,1-0.6,1.6-0.5C25.4,65.2,28.2,68,28.3,70.5z"/>
	<path class="st15" d="M28.6,84.6c-2.5,0.1-6.1-3.6-6-6.1c0-0.6,0.2-1,0.8-1c0.6,0,1.6-0.1,1.7,0.2c0.9,2,2,3.6,4.3,4.3
		c0.6,0.2,0.4,1.3,0.3,2C29.7,84.7,29.1,84.6,28.6,84.6z"/>
	<path class="st16" d="M22.4,55.6c-0.1,2.6-3.3,5.7-5.9,5.9c-0.6,0-1.1,0.1-1.1-0.6c0-0.8-0.6-1.9,0.7-2.3c1.8-0.5,2.9-1.7,3.5-3.5
		c0.3-1.1,1.3-0.7,2.1-0.7C22.6,54.3,22.5,55,22.4,55.6z"/>
	<path class="st14" d="M25.2,35.7c2.5,0,5.8,3.2,5.9,5.8c0,0.5,0.2,1.1-0.5,1.1c-0.8,0-1.8,0.5-2.2-0.5c-0.7-1.9-1.8-3.1-3.7-3.7
		c-1-0.3-0.6-1.4-0.6-2.2C24.1,35.6,24.7,35.6,25.2,35.7z"/>
</g>
</svg>
