<svg xmlns="http://www.w3.org/2000/svg" width="1920.328" height="570.262" viewBox="0 0 1920.328 570.262">
  <g id="Group_170" data-name="Group 170" transform="translate(0 -129.74)">
    <rect id="Rectangle_21" data-name="Rectangle 21" width="1920.328" height="570" transform="translate(0 130)" fill="#fff"/>
    <g id="Layer_3" data-name="Layer 3" transform="translate(0 70)">
      <g id="Group_56" data-name="Group 56">
        <g id="Group_14" data-name="Group 14">
          <g id="Group_7" data-name="Group 7">
            <path id="Path_9" data-name="Path 9" d="M1351.763,166.622c-2.833-11.136-14.831-16.2-20.354-26.073-6.365-11.38-2.384-26.815,5.913-36.224.533-.6,42.2-69.1,77.757-35.142,10.3,9.833,12.906,43.343,13.141,58.237q.54,34.2,1.078,68.4c.472,29.894-25.5,50.451-52.317,41.446-11.117-3.733-28.463-14.381-31.884-27.383C1341.045,194.48,1355.634,181.841,1351.763,166.622Z" fill="#f1d1b6"/>
            <g id="Group_2" data-name="Group 2">
              <rect id="Rectangle_2" data-name="Rectangle 2" width="274.352" height="2" transform="translate(1373.678 408.912) rotate(-87.201)" fill="#ede7e4"/>
            </g>
            <g id="Group_3" data-name="Group 3">
              <path id="Path_10" data-name="Path 10" d="M1386.67,157.925l-26.051-29.434,1.5-1.325,25.027,28.278,25.968-13.138.9,1.784Z" fill="#ede7e4"/>
            </g>
            <g id="Group_4" data-name="Group 4">
              <path id="Path_11" data-name="Path 11" d="M1384.767,196.685l-30.841-10.932.668-1.885,30.228,10.714,27.647-8.226.57,1.917Z" fill="#ede7e4"/>
            </g>
            <g id="Group_5" data-name="Group 5">
              <rect id="Rectangle_3" data-name="Rectangle 3" width="2" height="19.934" transform="translate(1365.758 172.484) rotate(-16.848)" fill="#ede7e4"/>
            </g>
            <g id="Group_6" data-name="Group 6">
              <rect id="Rectangle_4" data-name="Rectangle 4" width="17.436" height="2" transform="translate(1402.089 148.411) rotate(-84.986)" fill="#ede7e4"/>
            </g>
          </g>
          <g id="Group_11" data-name="Group 11">
            <path id="Path_12" data-name="Path 12" d="M1390.833,209.2c-.592-11.152-.875-23.36,5.914-32.226a24.89,24.89,0,0,1,25.835-8.5,26.08,26.08,0,0,1,18.187,20.425c1.428,8.53-1.415,17.118-2.507,25.7-2.526,19.84,4.2,41.059-3.666,59.449-4.3,10.071-15.332,18.78-25.67,15.162-11.079-3.878-14.89-18.409-15.54-28.822C1392.323,243.351,1391.737,226.253,1390.833,209.2Z" fill="#bccace"/>
            <g id="Group_8" data-name="Group 8">
              <rect id="Rectangle_5" data-name="Rectangle 5" width="194.152" height="2.001" transform="translate(1410.535 408.93) rotate(-88.239)" fill="#ede7e4"/>
            </g>
            <g id="Group_9" data-name="Group 9">
              <path id="Path_13" data-name="Path 13" d="M1416.668,240.19l-16.649-18.639,1.492-1.332,15.365,17.2,13.4-11.071,1.273,1.542Z" fill="#ede7e4"/>
            </g>
            <g id="Group_10" data-name="Group 10">
              <rect id="Rectangle_6" data-name="Rectangle 6" width="14.095" height="2" transform="translate(1415.62 263.347) rotate(-21.606)" fill="#ede7e4"/>
            </g>
          </g>
          <g id="Group_13" data-name="Group 13">
            <path id="Path_14" data-name="Path 14" d="M1292.164,225.946c1.279-2.782,3.193-5.232,4.518-7.993s2.015-6.084.71-8.855c-1.856-3.941-6.911-5.3-9.471-8.823-3.035-4.181-1.7-10.114.753-14.66s5.936-8.659,7.149-13.682c1.649-6.823-1.194-14.051.007-20.967.958-5.522,4.784-10.616,10.068-12.483s11.817-.052,14.905,4.625c4.389,6.649.978,15.689,2.961,23.406,1.972,7.676,9.2,13.646,9.477,21.566.191,5.426-2.972,10.33-4.52,15.534-1.758,5.911-1.416,12.225-.807,18.362s1.47,12.325.7,18.443c-1.464,11.635-13.544,24.628-25.77,16.266C1294.222,250.788,1287.681,235.7,1292.164,225.946Z" fill="#ede7e4"/>
            <g id="Group_12" data-name="Group 12">
              <rect id="Rectangle_7" data-name="Rectangle 7" width="2" height="238.054" transform="translate(1309.937 170.91) rotate(-0.186)" fill="#ede7e4"/>
            </g>
          </g>
        </g>
        <g id="Group_27" data-name="Group 27">
          <g id="Group_20" data-name="Group 20">
            <path id="Path_15" data-name="Path 15" d="M432.8,166.622c2.833-11.136,14.83-16.2,20.354-26.073,6.365-11.38,2.384-26.815-5.913-36.224-.534-.6-42.2-69.1-77.757-35.142-10.3,9.833-12.907,43.343-13.141,58.237q-.54,34.2-1.079,68.4c-.471,29.894,25.5,50.451,52.318,41.446,11.117-3.733,28.463-14.381,31.884-27.383C443.514,194.48,428.925,181.841,432.8,166.622Z" fill="#f1d1b6"/>
            <g id="Group_15" data-name="Group 15">
              <rect id="Rectangle_8" data-name="Rectangle 8" width="2" height="274.352" transform="matrix(0.999, -0.049, 0.049, 0.999, 395.472, 134.985)" fill="#ede7e4"/>
            </g>
            <g id="Group_16" data-name="Group 16">
              <path id="Path_16" data-name="Path 16" d="M397.889,157.925,370.544,144.09l.9-1.784,25.968,13.138,25.027-28.278,1.5,1.325Z" fill="#ede7e4"/>
            </g>
            <g id="Group_17" data-name="Group 17">
              <path id="Path_17" data-name="Path 17" d="M399.791,196.685l-28.271-8.412.57-1.917,27.647,8.226,30.228-10.714.668,1.885Z" fill="#ede7e4"/>
            </g>
            <g id="Group_18" data-name="Group 18">
              <rect id="Rectangle_9" data-name="Rectangle 9" width="19.934" height="2" transform="translate(411.107 190.982) rotate(-73.139)" fill="#ede7e4"/>
            </g>
            <g id="Group_19" data-name="Group 19">
              <rect id="Rectangle_10" data-name="Rectangle 10" width="2" height="17.436" transform="translate(378.955 131.216) rotate(-5.003)" fill="#ede7e4"/>
            </g>
          </g>
          <g id="Group_24" data-name="Group 24">
            <path id="Path_18" data-name="Path 18" d="M393.726,209.2c.592-11.152.875-23.36-5.914-32.226a24.891,24.891,0,0,0-25.835-8.5A26.08,26.08,0,0,0,343.79,188.9c-1.428,8.53,1.415,17.118,2.507,25.7,2.526,19.84-4.2,41.059,3.665,59.449,4.306,10.071,15.333,18.78,25.671,15.162,11.079-3.878,14.89-18.409,15.54-28.822C392.236,243.351,392.822,226.253,393.726,209.2Z" fill="#bccace"/>
            <g id="Group_21" data-name="Group 21">
              <rect id="Rectangle_11" data-name="Rectangle 11" width="2.001" height="194.152" transform="matrix(1, -0.031, 0.031, 1, 366.049, 214.931)" fill="#ede7e4"/>
            </g>
            <g id="Group_22" data-name="Group 22">
              <path id="Path_19" data-name="Path 19" d="M367.891,240.19l-14.882-12.3,1.273-1.542,13.4,11.071,15.365-17.2,1.492,1.332Z" fill="#ede7e4"/>
            </g>
            <g id="Group_23" data-name="Group 23">
              <rect id="Rectangle_12" data-name="Rectangle 12" width="2" height="14.095" transform="translate(355.097 260.019) rotate(-68.411)" fill="#ede7e4"/>
            </g>
          </g>
          <g id="Group_26" data-name="Group 26">
            <path id="Path_20" data-name="Path 20" d="M492.395,225.946c-1.279-2.782-3.194-5.232-4.518-7.993s-2.015-6.084-.71-8.855c1.856-3.941,6.911-5.3,9.47-8.823,3.036-4.181,1.7-10.114-.752-14.66s-5.936-8.659-7.149-13.682c-1.649-6.823,1.194-14.051-.007-20.967-.958-5.522-4.784-10.616-10.068-12.483s-11.817-.052-14.9,4.625c-4.389,6.649-.979,15.689-2.961,23.406-1.973,7.676-9.2,13.646-9.477,21.566-.191,5.426,2.972,10.33,4.52,15.534,1.758,5.911,1.416,12.225.807,18.362s-1.47,12.325-.7,18.443c1.464,11.635,13.545,24.628,25.771,16.266C490.336,250.788,496.877,235.7,492.395,225.946Z" fill="#ede7e4"/>
            <g id="Group_25" data-name="Group 25">
              <rect id="Rectangle_13" data-name="Rectangle 13" width="238.054" height="2" transform="translate(471.825 408.957) rotate(-89.802)" fill="#ede7e4"/>
            </g>
          </g>
        </g>
        <path id="Path_21" data-name="Path 21" d="M1449.827,386.23c-97.692-19.65-209.759-3.865-304.946-27.333-37.745-9.306-70.771-24.373-108.866-33.18-159.2-36.806-352.075,60.115-509.535,20.839-108.468-27.056-147.667-79.186-293.1-2.1-50.3,26.658-96.159,37.849-146.455,64.507h1434.75A338.785,338.785,0,0,0,1449.827,386.23Z" fill="#ede7e4"/>
        <g id="Group_32" data-name="Group 32">
          <path id="Path_22" data-name="Path 22" d="M242.083,268.064c-6.611-10.921-6.474-27.408,2.127-40.159,2.751-4.078,6.417-8.081,6.443-13,.024-4.463-2.981-8.271-5-12.251a29.564,29.564,0,0,1,18.908-41.9c14.864-3.85,31.979,5.765,28.375,25.347-2.68,14.554-14.2,21.522-11.809,30.829,1.543,6.015,8.271,8.731,13.413,12.215,11.291,7.651,16.733,22.965,12.8,36.025C297.431,298.1,255.83,290.773,242.083,268.064Z" fill="#f1d1b6"/>
          <g id="Group_28" data-name="Group 28">
            <rect id="Rectangle_14" data-name="Rectangle 14" width="2" height="168.427" transform="translate(268.57 181.654)" fill="#ede7e4"/>
          </g>
          <g id="Group_29" data-name="Group 29">
            <rect id="Rectangle_15" data-name="Rectangle 15" width="12.2" height="2" transform="translate(268.835 238.027) rotate(-47.413)" fill="#ede7e4"/>
          </g>
          <g id="Group_30" data-name="Group 30">
            <path id="Path_23" data-name="Path 23" d="M269.51,277.336,258.5,266.122l1.428-1.4,9.7,9.884,24.655-21.04,1.3,1.521Z" fill="#ede7e4"/>
          </g>
          <g id="Group_31" data-name="Group 31">
            <rect id="Rectangle_16" data-name="Rectangle 16" width="1.999" height="19.742" transform="translate(255.112 186.423) rotate(-44.109)" fill="#ede7e4"/>
          </g>
        </g>
        <g id="Group_45" data-name="Group 45">
          <g id="Group_38" data-name="Group 38">
            <path id="Path_24" data-name="Path 24" d="M1213.97,193.872c2.281-8.965,11.939-13.038,16.386-20.989,5.123-9.161,1.919-21.587-4.761-29.161-.429-.487-33.971-55.63-62.6-28.29-8.287,7.915-10.39,34.892-10.579,46.881q-.434,27.531-.868,55.06c-.379,24.065,20.531,40.615,42.117,33.365,8.949-3.005,22.913-11.577,25.667-22.044C1222.6,216.3,1210.853,206.124,1213.97,193.872Z" fill="#ede7e4"/>
            <g id="Group_33" data-name="Group 33">
              <rect id="Rectangle_17" data-name="Rectangle 17" width="2" height="220.86" transform="translate(1183.729 168.413) rotate(-2.808)" fill="#ede7e4"/>
            </g>
            <g id="Group_34" data-name="Group 34">
              <path id="Path_25" data-name="Path 25" d="M1185.915,187.113l-22.147-11.206.9-1.784,20.771,10.508,20.048-22.651,1.5,1.325Z" fill="#ede7e4"/>
            </g>
            <g id="Group_35" data-name="Group 35">
              <path id="Path_26" data-name="Path 26" d="M1187.406,218.278l-22.821-6.789.57-1.917,22.2,6.6,24.273-8.6.668,1.885Z" fill="#ede7e4"/>
            </g>
            <g id="Group_36" data-name="Group 36">
              <rect id="Rectangle_18" data-name="Rectangle 18" width="16.047" height="2" transform="translate(1196.324 213.426) rotate(-73.14)" fill="#ede7e4"/>
            </g>
            <g id="Group_37" data-name="Group 37">
              <rect id="Rectangle_19" data-name="Rectangle 19" width="2" height="14.036" transform="translate(1170.433 165.387) rotate(-5.001)" fill="#ede7e4"/>
            </g>
          </g>
          <g id="Group_42" data-name="Group 42">
            <path id="Path_27" data-name="Path 27" d="M1182.518,228.149c.476-8.977.7-18.805-4.761-25.942a20.035,20.035,0,0,0-20.8-6.841,20.993,20.993,0,0,0-14.641,16.442c-1.15,6.867,1.139,13.78,2.019,20.687,2.033,15.972-3.379,33.053,2.95,47.858,3.466,8.107,12.343,15.118,20.666,12.2,8.918-3.121,11.986-14.819,12.509-23.2C1181.318,255.641,1181.79,241.876,1182.518,228.149Z" fill="#ede7e4"/>
            <g id="Group_39" data-name="Group 39">
              <rect id="Rectangle_20" data-name="Rectangle 20" width="2.001" height="156.297" transform="translate(1160.042 232.768) rotate(-1.776)" fill="#ede7e4"/>
            </g>
            <g id="Group_40" data-name="Group 40">
              <path id="Path_28" data-name="Path 28" d="M1161.74,253.366l-12.124-10.018,1.274-1.542,10.642,8.792,12.245-13.709,1.492,1.332Z" fill="#ede7e4"/>
            </g>
            <g id="Group_41" data-name="Group 41">
              <rect id="Rectangle_21-2" data-name="Rectangle 21" width="2" height="11.347" transform="translate(1151.349 269.24) rotate(-68.41)" fill="#ede7e4"/>
            </g>
          </g>
          <g id="Group_44" data-name="Group 44">
            <path id="Path_29" data-name="Path 29" d="M1252.949,299.63c-1.03-2.24-2.571-4.212-3.638-6.435s-1.622-4.9-.571-7.128c1.494-3.173,5.563-4.266,7.624-7.1,2.444-3.366,1.371-8.143-.606-11.8s-4.779-6.971-5.755-11.014c-1.328-5.493.961-11.312-.006-16.88a13.042,13.042,0,0,0-8.1-10.048c-4.254-1.5-9.513-.042-12,3.723-3.534,5.353-.788,12.63-2.384,18.843-1.588,6.179-7.405,10.985-7.629,17.361-.154,4.368,2.392,8.315,3.638,12.505,1.415,4.758,1.14,9.841.65,14.781s-1.183,9.922-.563,14.848c1.178,9.366,10.9,19.825,20.745,13.094C1251.291,319.628,1256.557,307.478,1252.949,299.63Z" fill="#ede7e4"/>
            <g id="Group_43" data-name="Group 43">
              <rect id="Rectangle_22" data-name="Rectangle 22" width="141.64" height="2" transform="translate(1236.213 396.956) rotate(-89.748)" fill="#ede7e4"/>
            </g>
          </g>
        </g>
        <g id="Group_50" data-name="Group 50">
          <path id="Path_30" data-name="Path 30" d="M1060.442,275.536c-5.322-8.792-5.212-22.065,1.712-32.329,2.214-3.284,5.166-6.506,5.187-10.466.019-3.593-2.4-6.658-4.026-9.862a23.8,23.8,0,0,1,15.222-33.73c11.966-3.1,25.744,4.641,22.842,20.4-2.157,11.716-11.427,17.326-9.506,24.818,1.242,4.842,6.659,7.029,10.8,9.834a26.717,26.717,0,0,1,10.306,29C1105,299.711,1071.508,293.817,1060.442,275.536Z" fill="#ede7e4"/>
          <g id="Group_46" data-name="Group 46">
            <rect id="Rectangle_23" data-name="Rectangle 23" width="2" height="151.437" transform="translate(1081.569 205.974)" fill="#ede7e4"/>
          </g>
          <g id="Group_47" data-name="Group 47">
            <rect id="Rectangle_24" data-name="Rectangle 24" width="9.822" height="2" transform="matrix(0.677, -0.736, 0.736, 0.677, 1081.833, 251.223)" fill="#ede7e4"/>
          </g>
          <g id="Group_48" data-name="Group 48">
            <path id="Path_31" data-name="Path 31" d="M1082.509,283.267l-8.987-9.159,1.428-1.4,7.681,7.827,19.71-16.82,1.3,1.521Z" fill="#ede7e4"/>
          </g>
          <g id="Group_49" data-name="Group 49">
            <rect id="Rectangle_25" data-name="Rectangle 25" width="1.999" height="15.892" transform="matrix(0.718, -0.696, 0.696, 0.718, 1070.791, 209.949)" fill="#ede7e4"/>
          </g>
        </g>
        <g id="Group_55" data-name="Group 55">
          <path id="Path_32" data-name="Path 32" d="M553.319,273.786c-3.957-6.538-3.876-16.407,1.273-24.04,1.647-2.442,3.842-4.838,3.858-7.783.014-2.672-1.785-4.951-2.994-7.334a17.7,17.7,0,0,1,11.319-25.082c8.9-2.3,19.144,3.452,16.986,15.174-1.6,8.712-8.5,12.884-7.069,18.455.924,3.6,4.952,5.227,8.029,7.312a19.868,19.868,0,0,1,7.664,21.566C586.452,291.764,561.548,287.381,553.319,273.786Z" fill="#f1d1b6"/>
          <g id="Group_51" data-name="Group 51">
            <rect id="Rectangle_26" data-name="Rectangle 26" width="2" height="152.867" transform="translate(568.774 222.058)" fill="#ede7e4"/>
          </g>
          <g id="Group_52" data-name="Group 52">
            <rect id="Rectangle_27" data-name="Rectangle 27" width="7.304" height="2" transform="matrix(0.677, -0.736, 0.736, 0.677, 569.038, 255.534)" fill="#ede7e4"/>
          </g>
          <g id="Group_53" data-name="Group 53">
            <path id="Path_33" data-name="Path 33" d="M569.713,279.885l-6.851-6.982,1.428-1.4,5.544,5.649L584.309,264.8l1.3,1.521Z" fill="#ede7e4"/>
          </g>
          <g id="Group_54" data-name="Group 54">
            <rect id="Rectangle_28" data-name="Rectangle 28" width="1.999" height="11.818" transform="matrix(0.718, -0.696, 0.696, 0.718, 560.831, 225.192)" fill="#ede7e4"/>
          </g>
        </g>
      </g>
      <g id="Group_69" data-name="Group 69">
        <rect id="Rectangle_29" data-name="Rectangle 29" width="217.181" height="379.106" transform="translate(706.208 250.367)" fill="#bddbe3"/>
        <path id="Path_34" data-name="Path 34" d="M706.208,572.341h13.816v-3.684H706.208Zm0,10.275h13.816v-3.684H706.208Zm0,46.857h5.957v-3.684h-5.957Zm0-36.272h13.816v-3.684H706.208Zm0,20.86h13.816v-3.684H706.208Zm0,10.275h13.816v-3.684H706.208Zm0-20.86h13.816v-3.684H706.208Zm0-83.44h13.816v-3.685H706.208Zm0,10.585h13.816v-3.684H706.208Zm0,31.135h13.816v-3.684H706.208Zm0-20.86h13.816v-3.685H706.208Zm0,10.585h13.816V547.8H706.208Zm5.957,64.033h-5.957V619.2h5.957Zm0-73.165h-5.957v3.684h5.957Zm0,10.585h-5.957v3.685h5.957Zm0-20.86h-5.957v3.685h5.957Zm0-10.585h-5.957v3.684h5.957Zm0-10.275h-5.957V514.9h5.957Zm0,62.58h-5.957v3.685h5.957Zm0,20.86h-5.957v3.685h5.957Zm0,10.275h-5.957v3.684h5.957Zm0-41.72h-5.957v3.684h5.957Zm-5.957-53.448h13.816v-3.684H706.208Zm5.957,74.308h-5.957v3.684h5.957ZM706.208,467.1h13.816v-3.684H706.208Zm5.957-19.406h-5.957v3.684h5.957Zm0-62.58h-5.957V388.8h5.957Zm0,72.854h-5.957v3.684h5.957Zm0,10.585h-5.957v3.685h5.957Zm-5.957,29.682h13.816v-3.684H706.208Zm5.957-81.987h-5.957v3.684h5.957Zm0-10.275h-5.957v3.685h5.957Zm0,31.135h-5.957v3.684h5.957Zm0-41.72h-5.957v3.684h5.957Zm0,94.025h-5.957V493.1h5.957Zm0-62.58h-5.957v3.685h5.957Zm0,51.995h-5.957v3.684h5.957Zm-5.957-32.588h13.816v-3.684H706.208Zm0,10.275h13.816v-3.684H706.208Zm5.957,43.173h-5.957v3.684h5.957Zm-5.957-11.727h13.816v-3.685H706.208Zm0-10.586h13.816v-3.684H706.208Zm0-51.994h13.816V421.7H706.208Zm0-20.861h13.816v-3.684H706.208Zm0-10.585h13.816v-3.684H706.208Zm0,41.72h13.816v-3.684H706.208Zm0-20.86h13.816v-3.684H706.208Zm0-31.135h13.816v-3.684H706.208Zm5.957-41.212h-5.957v3.684h5.957Zm0-31.446h-5.957v3.684h5.957Zm0-10.274h-5.957v3.684h5.957Zm0-10.586h-5.957v3.684h5.957Zm0-10.274h-5.957v3.684h5.957Zm0-10.586h-5.957v3.684h5.957Zm0,62.58h-5.957v3.684h5.957Zm0-10.274h-5.957v3.684h5.957Zm0,31.134h-5.957V356.4h5.957Zm0,10.586h-5.957v3.684h5.957Zm0,10.274h-5.957v3.684h5.957Zm0-114.574h-5.957v3.684h5.957Zm-5.957,19.407h13.816V274.73H706.208Zm0,10.274h13.816V285H706.208Zm0,10.586h13.816V295.59H706.208Zm0-31.446h13.816V264.14H706.208Zm0-13.959v3.685h13.816V253.87Zm0,55.679h13.816V305.86H706.208Zm0,41.72h13.816V347.58H706.208Zm0-31.134h13.816V316.45H706.208Zm0,41.72h13.816V358.17H706.208Zm0,10.274h13.816V368.44H706.208Zm0-41.72h13.816V326.72H706.208Zm0,10.586h13.816v-3.7H706.208Z" fill="#d6e6eb"/>
        <path id="Path_35" data-name="Path 35" d="M923.389,568.657H909.574v3.684h13.815Zm0,10.275H909.574v3.684h13.815Zm0,46.857h-5.957v3.684h5.957Zm0-36.272H909.574V593.2h13.815Zm0,20.86H909.574v3.684h13.815Zm0,10.275H909.574v3.684h13.815Zm0-20.86H909.574v3.684h13.815Zm0-83.441H909.574v3.685h13.815Zm0,10.586H909.574v3.684h13.815Zm0,31.135H909.574v3.684h13.815Zm0-20.861H909.574V540.9h13.815Zm0,10.586H909.574v3.684h13.815Zm-5.957,71.4h5.957v-3.685h-5.957Zm0-73.166h5.957v-3.684h-5.957Zm0,10.586h5.957v-3.685h-5.957Zm0-20.86h5.957v-3.685h-5.957Zm0-10.586h5.957v-3.684h-5.957Zm0-10.275h5.957v-3.684h-5.957Zm0,62.581h5.957v-3.685h-5.957Zm0,20.86h5.957v-3.685h-5.957Zm0,10.274h5.957v-3.684h-5.957Zm0-41.72h5.957v-3.684h-5.957Zm5.957-60.816H909.574v3.684h13.815Zm-5.957,81.676h5.957v-3.684h-5.957Zm5.957-124.342H909.574V467.1h13.815Zm-5.957-12.038h5.957v-3.684h-5.957Zm0-62.58h5.957v-3.684h-5.957Zm0,72.854h5.957v-3.684h-5.957Zm0,10.586h5.957v-3.685h-5.957Zm5.957,22.313H909.574v3.684h13.815Zm-5.957-74.619h5.957v-3.684h-5.957Zm0-10.274h5.957v-3.685h-5.957Zm0,31.134h5.957V437.1h-5.957Zm0-41.72h5.957v-3.684h-5.957Zm0,94.026h5.957v-3.685h-5.957Zm0-62.58h5.957v-3.685h-5.957Zm0,51.994h5.957v-3.684h-5.957Zm5.957-39.956H909.574v3.684h13.815Zm0,10.275H909.574v3.684h13.815Zm-5.957,50.541h5.957v-3.684h-5.957Zm5.957-19.1H909.574v3.685h13.815Zm0-10.585H909.574v3.684h13.815Zm0-51.995H909.574v3.685h13.815Zm0-20.86H909.574v3.684h13.815Zm0-10.585H909.574v3.684h13.815Zm0,41.72H909.574v3.684h13.815Zm0-20.86H909.574v3.684h13.815Zm0-31.135H909.574v3.684h13.815Zm-5.957-33.844h5.957v-3.684h-5.957Zm0-31.446h5.957V311h-5.957Zm0-10.274h5.957v-3.684h-5.957Zm0-10.586h5.957v-3.684h-5.957Zm0-10.274h5.957v-3.684h-5.957Zm0-10.586h5.957v-3.684h-5.957Zm0,62.58h5.957v-3.684h-5.957Zm0-10.274h5.957v-3.684h-5.957Zm0,31.134h5.957v-3.684h-5.957Zm0,10.586h5.957V363.3h-5.957Zm0,10.274h5.957v-3.684h-5.957Zm0-114.574h5.957V259h-5.957Zm5.957,12.038H909.574V278.4h13.815Zm0,10.275H909.574v3.684h13.815Zm0,10.585H909.574v3.685h13.815Zm0-31.445H909.574v3.684h13.815Zm-13.815-10.275v3.685h13.815v-3.685Zm13.815,51.995H909.574v3.684h13.815Zm0,41.72H909.574v3.684h13.815Zm0-31.135H909.574v3.685h13.815Zm0,41.72H909.574v3.685h13.815Zm0,10.275H909.574v3.684h13.815Zm0-41.72H909.574V330.4h13.815Zm0,10.585H909.574v3.685h13.815Z" fill="#d6e6eb"/>
        <rect id="Rectangle_30" data-name="Rectangle 30" width="234.796" height="65.31" transform="translate(697.401 564.163)" fill="#bddbe3"/>
        <path id="Path_36" data-name="Path 36" d="M697.4,564.163H932.2l-8.807-5.986H706.208Z" fill="#d6e6eb"/>
        <rect id="Rectangle_31" data-name="Rectangle 31" width="251.71" height="7.109" transform="translate(688.944 439.92)" fill="#d6e6eb"/>
        <rect id="Rectangle_32" data-name="Rectangle 32" width="217.181" height="7.109" transform="translate(706.208 284.914)" fill="#d6e6eb"/>
        <path id="Path_37" data-name="Path 37" d="M688.944,447.029c14.577,0,8.925,23.2,17.264,23.2H923.389c8.34,0,2.687-23.2,17.264-23.2Z" fill="#bddbe3"/>
        <rect id="Rectangle_33" data-name="Rectangle 33" width="239.318" height="17.49" transform="translate(695.14 232.877)" fill="#d6e6eb"/>
        <rect id="Rectangle_34" data-name="Rectangle 34" width="217.181" height="7.936" transform="translate(706.208 250.367)" fill="#92b7c2" opacity="0.3" style="mix-blend-mode: multiply;isolation: isolate"/>
        <rect id="Rectangle_35" data-name="Rectangle 35" width="159.24" height="137.503" transform="translate(746.047 629.473) rotate(-90)" fill="#a0c8d1"/>
        <rect id="Rectangle_36" data-name="Rectangle 36" width="217.181" height="7.936" transform="translate(706.208 470.233)" fill="#92b7c2" opacity="0.3" style="mix-blend-mode: multiply;isolation: isolate"/>
        <g id="Group_60" data-name="Group 60">
          <g id="Group_57" data-name="Group 57">
            <rect id="Rectangle_37" data-name="Rectangle 37" width="88.061" height="48.73" transform="translate(780.876 331.593) rotate(90)" fill="#dfeef2"/>
            <rect id="Rectangle_38" data-name="Rectangle 38" width="39.331" height="78.661" transform="translate(736.845 336.293)" fill="#88badb"/>
            <path id="Path_38" data-name="Path 38" d="M758.885,336.292l-22.04,50.453v28.209h.673l34.362-78.662Zm-4.748,78.662L776.176,364.5V352.487l-27.287,62.467ZM775,336.292l-34.362,78.662h5.248l30.286-69.332v-9.33Z" fill="#fefefe" opacity="0.2"/>
            <rect id="Rectangle_39" data-name="Rectangle 39" width="39.331" height="3.347" transform="translate(736.845 375.623)" fill="#dfeef2"/>
          </g>
          <g id="Group_58" data-name="Group 58">
            <rect id="Rectangle_40" data-name="Rectangle 40" width="88.061" height="48.73" transform="translate(839.164 331.593) rotate(90)" fill="#dfeef2"/>
            <rect id="Rectangle_41" data-name="Rectangle 41" width="39.331" height="78.661" transform="translate(795.133 336.293)" fill="#88badb"/>
            <path id="Path_39" data-name="Path 39" d="M817.173,336.292l-22.04,50.453v28.209h.673l34.362-78.662Zm-4.748,78.662L834.464,364.5V352.487l-27.287,62.467Zm20.867-78.662L798.93,414.954h5.248l30.286-69.332v-9.33Z" fill="#fefefe" opacity="0.2"/>
            <rect id="Rectangle_42" data-name="Rectangle 42" width="39.331" height="3.347" transform="translate(795.133 375.623)" fill="#dfeef2"/>
          </g>
          <g id="Group_59" data-name="Group 59">
            <rect id="Rectangle_43" data-name="Rectangle 43" width="88.061" height="48.73" transform="translate(897.452 331.593) rotate(90)" fill="#dfeef2"/>
            <rect id="Rectangle_44" data-name="Rectangle 44" width="39.331" height="78.661" transform="translate(853.421 336.293)" fill="#88badb"/>
            <path id="Path_40" data-name="Path 40" d="M875.46,336.292l-22.039,50.453v28.209h.673l34.362-78.662Zm-4.748,78.662,22.04-50.453V352.487l-27.287,62.467Zm20.867-78.662-34.361,78.662h5.248l30.286-69.332v-9.33Z" fill="#fefefe" opacity="0.2"/>
            <rect id="Rectangle_45" data-name="Rectangle 45" width="39.331" height="3.347" transform="translate(853.421 375.623)" fill="#dfeef2"/>
          </g>
        </g>
        <g id="Group_61" data-name="Group 61">
          <rect id="Rectangle_46" data-name="Rectangle 46" width="83.836" height="37.386" transform="translate(746.218 567.386) rotate(-90)" fill="#dfeef2"/>
          <rect id="Rectangle_47" data-name="Rectangle 47" width="73.688" height="27.238" transform="translate(751.292 562.312) rotate(-90)" fill="#88badb"/>
          <rect id="Rectangle_48" data-name="Rectangle 48" width="27.238" height="4.7" transform="translate(751.292 505.67)" fill="#dfeef2"/>
        </g>
        <g id="Group_62" data-name="Group 62">
          <rect id="Rectangle_49" data-name="Rectangle 49" width="83.836" height="37.386" transform="translate(846.164 567.386) rotate(-90)" fill="#dfeef2"/>
          <rect id="Rectangle_50" data-name="Rectangle 50" width="73.688" height="27.238" transform="translate(851.238 562.312) rotate(-90)" fill="#88badb"/>
          <rect id="Rectangle_51" data-name="Rectangle 51" width="27.238" height="4.7" transform="translate(851.238 505.67)" fill="#dfeef2"/>
        </g>
        <g id="Group_63" data-name="Group 63">
          <path id="Path_41" data-name="Path 41" d="M780.876,331.593h-48.73l-2.537-18.18h53.8Z" fill="#d6e6eb"/>
          <path id="Path_42" data-name="Path 42" d="M762.891,331.593h-12.76l-.664-23.165h14.088Z" fill="#dfeef2"/>
        </g>
        <g id="Group_64" data-name="Group 64">
          <path id="Path_43" data-name="Path 43" d="M839.164,331.593h-48.73l-2.537-18.18h53.8Z" fill="#d6e6eb"/>
          <path id="Path_44" data-name="Path 44" d="M821.179,331.593h-12.76l-.664-23.165h14.088Z" fill="#dfeef2"/>
        </g>
        <g id="Group_65" data-name="Group 65">
          <path id="Path_45" data-name="Path 45" d="M897.452,331.593h-48.73l-2.537-18.18h53.8Z" fill="#d6e6eb"/>
          <path id="Path_46" data-name="Path 46" d="M879.466,331.593h-12.76l-.664-23.165H880.13Z" fill="#dfeef2"/>
        </g>
        <g id="Group_67" data-name="Group 67">
          <rect id="Rectangle_52" data-name="Rectangle 52" width="39.331" height="76.038" transform="translate(795.133 488.249)" fill="#88badb"/>
          <rect id="Rectangle_53" data-name="Rectangle 53" width="128.774" height="48.73" transform="translate(839.164 483.55) rotate(90)" fill="#dfeef2"/>
          <rect id="Rectangle_54" data-name="Rectangle 54" width="39.331" height="75.845" transform="translate(795.133 488.249)" fill="#88badb"/>
          <rect id="Rectangle_55" data-name="Rectangle 55" width="39.331" height="43.337" transform="translate(795.133 564.287)" fill="#bddbe3"/>
          <rect id="Rectangle_56" data-name="Rectangle 56" width="39.331" height="4.7" transform="translate(795.133 561.938)" fill="#dfeef2"/>
          <rect id="Rectangle_57" data-name="Rectangle 57" width="39.331" height="4.7" transform="translate(795.133 505.296)" fill="#dfeef2"/>
          <rect id="Rectangle_58" data-name="Rectangle 58" width="54.421" height="4.7" transform="translate(812.449 564.287) rotate(-90)" fill="#dfeef2"/>
          <g id="Group_66" data-name="Group 66">
            <rect id="Rectangle_59" data-name="Rectangle 59" width="4.827" height="12.253" rx="0.908" transform="translate(826.828 574.081)" fill="#dfeef2"/>
            <path id="Path_47" data-name="Path 47" d="M831.181,577.368a1.939,1.939,0,1,1-.568-1.372,1.94,1.94,0,0,1,.568,1.372Z" fill="#bddbe3"/>
            <rect id="Rectangle_60" data-name="Rectangle 60" width="0.832" height="2.633" transform="translate(828.825 581.145)" fill="#bddbe3"/>
          </g>
        </g>
        <g id="Group_68" data-name="Group 68">
          <rect id="Rectangle_61" data-name="Rectangle 61" width="65.469" height="8.574" transform="translate(782.064 612.324)" fill="#dfeef2"/>
          <rect id="Rectangle_62" data-name="Rectangle 62" width="74.868" height="8.574" transform="translate(777.364 620.899)" fill="#dfeef2"/>
          <rect id="Rectangle_63" data-name="Rectangle 63" width="74.881" height="1.378" transform="translate(777.358 628.095)" fill="#f7f6f0"/>
          <rect id="Rectangle_64" data-name="Rectangle 64" width="65.487" height="1.378" transform="translate(782.055 619.521)" fill="#f7f6f0"/>
        </g>
      </g>
      <g id="Group_70" data-name="Group 70">
        <path id="Rectangle_65" data-name="Rectangle 65" d="M0,0H267.251V23.781H5.258A5.258,5.258,0,0,1,0,18.524Z" transform="translate(1457.814 534.18)" fill="#405e7a"/>
        <rect id="Rectangle_66" data-name="Rectangle 66" width="257.668" height="23.781" transform="translate(1467.397 557.961)" fill="#82aeba"/>
        <path id="Rectangle_67" data-name="Rectangle 67" d="M0,0H10.515V30.5a5.257,5.257,0,0,1-5.257,5.257h0A5.257,5.257,0,0,1,0,30.5Z" transform="translate(1466.687 557.961)" fill="#82aeba"/>
        <path id="Path_48" data-name="Path 48" d="M1829.956,493.547l-57.217-78.1a12.935,12.935,0,0,0-10.436-5.291h-44.1a12.937,12.937,0,0,0-12.937,12.937V568.8a12.937,12.937,0,0,0,12.937,12.937H1819.52a12.937,12.937,0,0,0,12.937-12.937V501.192a12.936,12.936,0,0,0-2.5-7.645Z" fill="#92b7c2"/>
        <path id="Path_49" data-name="Path 49" d="M1749.933,504.478l-14.34-2.144a3.208,3.208,0,0,1-2.7-3.648h0a3.209,3.209,0,0,1,3.648-2.7l14.34,2.144a3.208,3.208,0,0,1,2.7,3.648h0a3.208,3.208,0,0,1-3.648,2.7Z" fill="#405e7a"/>
        <path id="Path_50" data-name="Path 50" d="M1705.268,423.1V581.742H1812.4l-.24-49.995a11.9,11.9,0,0,0-10.1-11.762l-73.747-11.264a11.9,11.9,0,0,1-10.1-11.762v-86.8a12.937,12.937,0,0,0-12.946,12.941Z" fill="#82aeba"/>
        <path id="Path_51" data-name="Path 51" d="M1839.289,581.742h-28V557.961h28a11.891,11.891,0,0,1,11.891,11.891h0a11.891,11.891,0,0,1-11.89,11.89Z" fill="#82aeba"/>
        <path id="Path_52" data-name="Path 52" d="M1584.664,593.717a50.945,50.945,0,1,0-101.891,0Z" fill="#92b7c2"/>
        <path id="Path_53" data-name="Path 53" d="M1487.112,593.717a46.606,46.606,0,1,1,93.212,0Z" fill="#405e7a"/>
        <path id="Path_54" data-name="Path 54" d="M1809.047,593.717a50.945,50.945,0,1,0-101.891,0Z" fill="#92b7c2"/>
        <path id="Path_55" data-name="Path 55" d="M1711.495,593.717a46.607,46.607,0,1,1,93.213,0Z" fill="#405e7a"/>
        <circle id="Ellipse_1" data-name="Ellipse 1" cx="35.756" cy="35.756" r="35.756" transform="translate(1497.962 557.961)" fill="#34495e"/>
        <circle id="Ellipse_2" data-name="Ellipse 2" cx="35.756" cy="35.756" r="35.756" transform="translate(1722.346 557.961)" fill="#34495e"/>
        <circle id="Ellipse_3" data-name="Ellipse 3" cx="17.878" cy="17.878" r="17.878" transform="translate(1512.211 607.009) rotate(-76.7)" fill="#82aeba"/>
        <circle id="Ellipse_4" data-name="Ellipse 4" cx="17.878" cy="17.878" r="17.878" transform="translate(1736.594 607.009) rotate(-76.7)" fill="#82aeba"/>
        <rect id="Rectangle_68" data-name="Rectangle 68" width="81.115" height="35.776" rx="5.51" transform="translate(1602.453 563.961)" fill="#405e7a"/>
        <rect id="Rectangle_69" data-name="Rectangle 69" width="276.393" height="182.602" rx="12.937" transform="translate(1418.786 351.578)" fill="#92b7c2"/>
        <path id="Path_56" data-name="Path 56" d="M1808.207,500.744a8.617,8.617,0,0,1-1.2-.084l-67.99-9.505a8.3,8.3,0,0,1-7.124-8.189V427.11a8.279,8.279,0,0,1,8.269-8.269h20.1a8.3,8.3,0,0,1,6.671,3.382l47.887,65.361a8.112,8.112,0,0,1,.712,8.614,8.2,8.2,0,0,1-7.331,4.546Z" fill="#bddbe3"/>
        <path id="Path_57" data-name="Path 57" d="M1739.322,489.007l67.989,9.5a6.1,6.1,0,0,0,5.765-9.645L1765.189,423.5a6.1,6.1,0,0,0-4.92-2.494h-20.1a6.1,6.1,0,0,0-6.1,6.1v55.856a6.1,6.1,0,0,0,5.253,6.044Z" fill="#4093c9" fill-rule="evenodd"/>
        <path id="Path_58" data-name="Path 58" d="M1451.473,418.571h211.02a4.205,4.205,0,0,0,0-8.41h-211.02a4.205,4.205,0,0,0,0,8.41Zm211.02,22.236h-211.02a4.205,4.205,0,0,0,0,8.41h211.02a4.205,4.205,0,0,0,0-8.41Zm0,30.646h-211.02a4.205,4.205,0,0,0,0,8.41h211.02a4.205,4.205,0,0,0,0-8.41Z" fill="#bddbe3"/>
        <path id="Path_59" data-name="Path 59" d="M1622.265,599.737h5.271V563.961h-5.271Zm36.22-35.776v35.776h5.272V563.961Z" fill="#82aeba"/>
        <path id="Path_60" data-name="Path 60" d="M1770.673,430.991l-22.863,59.2,16.84,2.354,17.646-45.693Zm-5.484-7.486a6.1,6.1,0,0,0-4.92-2.494h-.2l-25.134,65.081a6.1,6.1,0,0,0,4.392,2.915l3.185.445L1767.013,426Zm20.55,28.05-16.1,41.69,8.42,1.177,13.492-34.936Zm7.741,10.564-12.626,32.694,8.42,1.177,10.017-25.939Z" fill="#fefefe" opacity="0.2"/>
        <rect id="Rectangle_70" data-name="Rectangle 70" width="4.25" height="27.67" transform="translate(1832.457 515.101)" fill="#405e7a"/>
        <path id="Path_61" data-name="Path 61" d="M1839.781,516.972h-3.073V540.9h3.073c3.353,0,6.072-5.357,6.072-11.964S1843.134,516.972,1839.781,516.972Z" fill="#82aeba"/>
      </g>
      <g id="Group_83" data-name="Group 83">
        <g id="Group_80" data-name="Group 80">
          <path id="Path_62" data-name="Path 62" d="M1063.392,558.961c-1.383,2.914-3.266,6.2-6,7.015-1.9.566-7.218-3.018-8.283-4.456s2.238-70.8,4.622-75.023c3.2-5.664,28.446,2.159,27.576,11.986-1.111,12.563-4.689,25.928-8.937,38.385A208.438,208.438,0,0,1,1063.392,558.961Z" fill="#255880"/>
          <path id="Path_63" data-name="Path 63" d="M1108.583,623.349a18.96,18.96,0,0,1-8.35-.667l-.435-9.766a2.34,2.34,0,0,1,.152-1.19,1.959,1.959,0,0,1,1.479-.814c2.216-.4,5.636-.523,6,2.3C1107.861,616.59,1108.2,619.972,1108.583,623.349Z" fill="#f4a086"/>
          <path id="Path_64" data-name="Path 64" d="M1048.931,623.349a17.954,17.954,0,0,1-8.2-.667l1.809-9.766a2.721,2.721,0,0,1,.425-1.19,2.564,2.564,0,0,1,1.665-.815c2.308-.4,5.757-.522,5.47,2.3C1049.763,616.59,1049.32,619.972,1048.931,623.349Z" fill="#f4a086"/>
          <path id="Path_65" data-name="Path 65" d="M1049.851,550.976c3.6-5.763,12.293-9.714,15.944.284,5.568,15.248-12.092,43.769-14.72,62.182h-9.456C1041.356,611.66,1047.852,554.173,1049.851,550.976Z" fill="#255880"/>
          <path id="Path_66" data-name="Path 66" d="M1103.8,558.645c-.5,2.913-4.26,6.516-6.745,7.331-1.723.566-8.134-3.018-9.636-4.456s-18.33-59.63-17.227-63.853a14.031,14.031,0,0,1,11.482-10.178c7.584-1.227,15.777,1.411,18.81,10.994C1107.8,521.612,1098.729,538.892,1103.8,558.645Z" fill="#2d6c9c"/>
          <path id="Path_67" data-name="Path 67" d="M1084.431,550.976c1.647-5.752,10.015-10.3,16.04.284,9.7,17.04,7.434,42.505,7.968,62.182h-9.456C1098.116,611.66,1083.516,554.174,1084.431,550.976Z" fill="#2d6c9c"/>
          <path id="Path_68" data-name="Path 68" d="M1114.692,442.323a.869.869,0,0,1,.027.209C1114.711,442.462,1114.7,442.393,1114.692,442.323Z" fill="#18898d" fill-rule="evenodd"/>
          <g id="Group_71" data-name="Group 71">
            <path id="Path_69" data-name="Path 69" d="M1072.835,368.11c1.363-1.368,10.779-4.953,13.81,1.842a16.925,16.925,0,0,1,.9,8.933c-.733,3.357-3.953,14.276-1.669,15.843a7.794,7.794,0,0,1-9.6-7.7c.041-2.671,1.441-5.354.683-7.916a9.869,9.869,0,0,0-2.77-3.9c-.914-.922-2.452-1.938-2.688-3.25A4.683,4.683,0,0,1,1072.835,368.11Z" fill="#222b56" fill-rule="evenodd"/>
            <path id="Path_70" data-name="Path 70" d="M1064.145,372.434a4.966,4.966,0,0,1,1.365-3.065c1.354-1.227,3.509-1.032,5.16-.249.89.423,1.8,1.151,1.808,2.136a2.954,2.954,0,0,1-1.248,2.045c-1.427,1.262-3.474,3.133-5.355,3.636C1063.553,377.558,1063.96,373.768,1064.145,372.434Z" fill="#222b56" fill-rule="evenodd"/>
            <path id="Path_71" data-name="Path 71" d="M1069.857,387.478c1.21-5.339,5.25-6.59,7.6-5.308,1.505,9.994,3.039,14.436,6.957,19.888-4.871,3.122-13.186,2.541-14.983,0C1069.358,401.257,1069.231,390.239,1069.857,387.478Z" fill="#f4a086"/>
            <path id="Path_72" data-name="Path 72" d="M1079.743,374.879a8.316,8.316,0,0,0-13.874-2.077c-3.831,4.269-4.284,15.519-2.862,18.3,2.487,4.869,11.4,2.729,13.3.177C1079.094,387.546,1081.647,379.441,1079.743,374.879Z" fill="#f7b690"/>
            <path id="Path_73" data-name="Path 73" d="M1064.8,373.877c-.16,1.254-.088,2.538-.372,3.77a3.719,3.719,0,0,1-2.242,2.844,4.6,4.6,0,0,0,.387-3.352c-.228-1.131-.657-2.216-.835-3.355a7.749,7.749,0,0,1,9.356-8.754,5.162,5.162,0,0,1,3.377,2.222,3.121,3.121,0,0,1-.407,3.816,3.7,3.7,0,0,1-3.219.623c-.9-.209-1.183-.829-1.927-1.24C1066.591,369.166,1065.041,371.986,1064.8,373.877Z" fill="#222b56" fill-rule="evenodd"/>
            <path id="Path_74" data-name="Path 74" d="M1083.505,384.891a5.261,5.261,0,0,1-2.155,3.3c-3.174,2.187-4.386-2.378-3.138-4.635C1079.7,380.864,1084.2,381.292,1083.505,384.891Z" fill="#f7b690"/>
            <path id="Path_75" data-name="Path 75" d="M1072.039,370.91c.025,1.027,2.756,2.7,3.508,3.394a8.921,8.921,0,0,1,2.073,2.255,5.493,5.493,0,0,1,.125,3.88,22.477,22.477,0,0,0-.962,3.847,3.744,3.744,0,0,0,1.417,3.5,3.975,3.975,0,0,1,.82-3.692c.784-1.059,1.82-1.915,2.57-3a7.265,7.265,0,0,0,.522-7.211c-.8-1.611-3-4.228-4.677-4.859C1076.046,368.507,1071.985,368.586,1072.039,370.91Z" fill="#222b56" fill-rule="evenodd"/>
          </g>
          <path id="Path_76" data-name="Path 76" d="M1022.7,628.132c-.121-1.353,1.163-2.474,2.484-2.789a18.4,18.4,0,0,1,4.061-.091,10.968,10.968,0,0,0,9.415-5.811,2.776,2.776,0,0,1,.945-1.257,1.822,1.822,0,0,1,1.968.362,21.191,21.191,0,0,1,1.437,1.566,4.829,4.829,0,0,0,3.446,1.38c1.063-.016,2.253-.828,3.274-.291.9.473,1.144,1.722,1.372,2.611.394,1.533.751,3.076,1.126,4.614a6.4,6.4,0,0,1,.189,1.047h-7.382a10.387,10.387,0,0,1-.77-2.472,5.835,5.835,0,0,1-.639,2.472h-20.289a2.274,2.274,0,0,1-.637-1.341Z" fill="#0a3c5f" fill-rule="evenodd"/>
          <path id="Path_77" data-name="Path 77" d="M1096.824,628.132a3.175,3.175,0,0,1,1.092-2.789c.581-.315,1.488-2.583,2.69-5.9.55-1.518,3.615-1.943,5.145.671.5.848.958,1.4,1.516,1.38.467-.016.99-.828,1.439-.291a6.3,6.3,0,0,1,.6,2.611c.173,1.533.329,3.076.494,4.614.037.34.073.7.084,1.047H1097.1A3.989,3.989,0,0,1,1096.824,628.132Z" fill="#0a3c5f" fill-rule="evenodd"/>
          <g id="Group_72" data-name="Group 72">
            <path id="Path_78" data-name="Path 78" d="M1035.505,455.048c-.036-2.842,9.216-38.568,24.534-49.331l3.8,20.34c-2.389,7.093-5.848,13.929-8.691,20.859a40.272,40.272,0,0,1-4.7,9.146,13.563,13.563,0,0,1-8.4,5.539c-1.778.278-4.549.079-5.818-1.426C1035.215,458.965,1035.524,456.494,1035.505,455.048Z" fill="#2d6c9c"/>
            <path id="Path_79" data-name="Path 79" d="M1009.8,480.757c-.164,1.744,3.3,3.319,5.01,3.706.494.112,3.028-2.417,6.584-4.883l-5.426-5.55C1013.437,477.2,1009.836,480.4,1009.8,480.757Z" fill="#d5e5fd"/>
            <path id="Path_80" data-name="Path 80" d="M1038.284,448.616c-1.93.389-4.186,3.1-5.289,4.516-2.761,3.54-13.556,16.379-18.962,23.137l5.915,7.438c8.739-6.06,24.613-21.4,27.269-24.872C1053.841,450.179,1039.285,448.414,1038.284,448.616Z" fill="#2d6c9c"/>
            <path id="Path_81" data-name="Path 81" d="M1014.632,484.047c-.071-1.8-1.944-3.968-3.891-3.656-2.153.344-3.076,3.528-3.426,5.32a9.091,9.091,0,0,0-.158,1.342h7.7C1014.382,486.257,1014.672,485.059,1014.632,484.047Z" fill="#f7b690"/>
          </g>
          <g id="Group_78" data-name="Group 78">
            <path id="Path_82" data-name="Path 82" d="M1051.007,415.548c-2.4,3.543-1.526,8.591-.929,12.687,1.276,8.763.905,70.643.785,72.023a3.486,3.486,0,0,0,1.874,3.544,6.5,6.5,0,0,0,2.686.361c12.345-.08,31.89-.16,44.235-.24a4.534,4.534,0,0,0,2.368-.445c1.482-.924.969-2.933.437-4.47-3.56-10.284-5.319-37.357-2.088-47.726,3.207-10.289,7.144-23,5.369-33.758-4.356-5.318-13.263-17.663-30.924-17.663C1062.431,399.861,1053.156,412.37,1051.007,415.548Z" fill="#3c79a6"/>
            <path id="Path_83" data-name="Path 83" d="M1064.76,462.876c2.239-11.869,4.528-23.7,7.207-34.452,2.533-10.164,8.629-17.325,16.312-24-6.346-4.954-17.412-5.423-22.851,1.049-6.712,7.986-4.579,22.469-4.278,32.044C1061.389,445.115,1063.587,462.889,1064.76,462.876Z" fill="#acccfd"/>
            <path id="Path_84" data-name="Path 84" d="M1072.31,409.14c.886-1.278,2.064-2.63,1.8-4.162a2.5,2.5,0,0,0-2.058-1.991c-3.748-.532-2.028,3.544-1.493,5.338-3.6,5.4-7.928,16.724-9.362,30.241.386,8.064,2.446,24.322,3.568,24.31,1.526-8.088,3.078-16.151,4.758-23.873C1069.838,430.084,1070.653,411.531,1072.31,409.14Z" fill="#cc346f"/>
            <g id="Group_73" data-name="Group 73">
              <rect id="Rectangle_71" data-name="Rectangle 71" width="33.881" height="1" transform="translate(1064 503.324) rotate(-88.877)" fill="#255880"/>
            </g>
            <g id="Group_74" data-name="Group 74">
              <path id="Path_85" data-name="Path 85" d="M1067.769,462.852l-.887-.463a98.8,98.8,0,0,1,22.094-28.232l-6.419-4.614,6.5-2.152c1.792-7.528,2.31-14.113-.865-21.656l.921-.388c3.32,7.884,2.741,14.716.851,22.548l-.065.27-5.166,1.711,5.848,4.2-.474.415A97.814,97.814,0,0,0,1067.769,462.852Z" fill="#255880"/>
            </g>
            <g id="Group_75" data-name="Group 75">
              <path id="Path_86" data-name="Path 86" d="M1062.538,463.1a81.4,81.4,0,0,1-8.892-30.837l-.031-.372,2.3-.892a4.507,4.507,0,0,1-1.947-2.586,9.1,9.1,0,0,1,.117-4.48,36.577,36.577,0,0,1,8.9-17.058l.734.68a35.57,35.57,0,0,0-8.655,16.591,8.242,8.242,0,0,0-.133,3.99,3.05,3.05,0,0,0,2.527,2.309l2.4.1-5.188,2.013a80.423,80.423,0,0,0,8.752,30.083Z" fill="#255880"/>
            </g>
            <g id="Group_76" data-name="Group 76">
              <path id="Path_87" data-name="Path 87" d="M1073.123,474.53a2.29,2.29,0,1,1,2.289-2.29,2.29,2.29,0,0,1-2.289,2.29Zm0-3.579a1.29,1.29,0,1,0,1.289,1.289,1.29,1.29,0,0,0-1.289-1.289Z" fill="#255880"/>
            </g>
            <g id="Group_77" data-name="Group 77">
              <path id="Path_88" data-name="Path 88" d="M1072.479,487.085a2.289,2.289,0,1,1,2.289-2.289A2.289,2.289,0,0,1,1072.479,487.085Zm0-3.578a1.289,1.289,0,1,0,1.289,1.289A1.289,1.289,0,0,0,1072.479,483.507Z" fill="#255880"/>
            </g>
            <path id="Path_89" data-name="Path 89" d="M1065.292,478.558c.384,8.728,1.7,17.535,5.247,25.52l-8.089.043s.249-5.359.492-7.257C1063.686,491.069,1065.571,484.381,1065.292,478.558Z" fill="#255880"/>
          </g>
          <rect id="Rectangle_72" data-name="Rectangle 72" width="219.518" height="60.095" rx="5.475" transform="translate(956.307 428.34)" fill="#a0c8d1"/>
          <path id="Path_90" data-name="Path 90" d="M1011.009,488.435h-3.777c-.063,1.474,2.062,3.922,4.358,3.922,1.75,0,5.72-.21,6.942-1.466.7-.719,1.072-2.5.278-3.115C1017.871,487.047,1013.536,486.646,1011.009,488.435Z" fill="#f7b690"/>
          <path id="Path_91" data-name="Path 91" d="M1067,407.174l2.354-1.724a2.1,2.1,0,0,1,3.493.366l2.325,2.613a1.925,1.925,0,0,0,3.237.2,67.135,67.135,0,0,0,7.054-6.348.827.827,0,0,0,.086-1.362l-2.922-3.555a23.187,23.187,0,0,1-6.776,2.434,8.99,8.99,0,0,1-5.463-.822c-.276-.147-.8-.658-1.111-.487s-.38,1.163-.461,1.483q-.424,1.686-.85,3.373Z" fill="#d5e5fd"/>
          <g id="Group_79" data-name="Group 79">
            <path id="Path_92" data-name="Path 92" d="M1128,451.146c-1.141-5-19.606-37.265-28.968-40.059a12.558,12.558,0,0,0-4.805.292l-.579,18.239c3.988,6.334,8.955,12.167,13.345,18.236a40.324,40.324,0,0,0,6.717,7.787,13.565,13.565,0,0,0,9.463,3.413c1.793-.148,4.44-.992,5.32-2.752C1129.2,454.886,1128.325,452.557,1128,451.146Z" fill="#3c79a6"/>
            <path id="Path_93" data-name="Path 93" d="M1089.4,480.757c-.165,1.744,3.3,3.319,5.009,3.706.494.112,3.029-2.417,6.585-4.883l-5.427-5.55C1093.037,477.2,1089.436,480.4,1089.4,480.757Z" fill="#d5e5fd"/>
            <path id="Path_94" data-name="Path 94" d="M1128.647,453.75c-.45-1.61-2.1-2.558-3.669-3.13a17.2,17.2,0,0,0-8.752-1.047c-1.931.389-2.527,2.144-3.631,3.559-2.76,3.54-13.556,16.379-18.962,23.137l5.915,7.438c8.739-6.06,24.613-21.4,27.27-24.872C1127.955,457.349,1129.15,455.553,1128.647,453.75Z" fill="#3c79a6"/>
            <path id="Path_95" data-name="Path 95" d="M1086.916,485.711a6.071,6.071,0,0,0,.664,4.638,5.252,5.252,0,0,0,3.61,2.008,12.779,12.779,0,0,0,4.219-.292,5.036,5.036,0,0,0,2.723-1.174,1.869,1.869,0,0,0,.067-2.667c-.939-.729-2.48-.04-3.409-.781s-.51-2.2-.557-3.4c-.071-1.8-1.944-3.968-3.892-3.656C1088.189,480.735,1087.266,483.919,1086.916,485.711Z" fill="#f7b690"/>
          </g>
        </g>
        <g id="Group_82" data-name="Group 82">
          <path id="Path_96" data-name="Path 96" d="M1204.624,576.973c-.165,6.032-6.223,22.033-7.748,39.072-.218,1.071-5.59,1.032-5.878.1-.727-19.42-4.466-42.218-2.307-53.951.72-3.915,7.616-10.742,10.8-6.221C1202.385,560.094,1204.76,571.967,1204.624,576.973Z" fill="#f7b690"/>
          <path id="Path_97" data-name="Path 97" d="M1199.383,622.811a15.75,15.75,0,0,0-.173-4.921,7.865,7.865,0,0,0-2.179-4.21c-.32.787-1.132,1.854-1.98,1.889-.67.027-3.992-1.381-4.622-1.151-.453.166-1.186,6.616-3.188,7.984a43.685,43.685,0,0,1-6.547,3.139,6.2,6.2,0,0,0-2.1,1.389,2.445,2.445,0,0,0-.6,2.342,1.572,1.572,0,0,0,.1.2h14.562a16.179,16.179,0,0,0,.918-1.567l3.056-5.719a24.912,24.912,0,0,1,.665,7.286h1.627Q1199.151,626.142,1199.383,622.811Z" fill="#2a95bf" fill-rule="evenodd"/>
          <path id="Path_98" data-name="Path 98" d="M1180.089,575.615c.791,5.985-2.709,22.36-1.528,39.362-.048,1.079-5.405,1.516-5.839.622-3.8-19.159-11.135-41.4-10.844-53.2.1-3.939,5.884-11.307,9.77-7.112C1175.185,559.1,1179.432,570.647,1180.089,575.615Z" fill="#f7b690"/>
          <path id="Path_99" data-name="Path 99" d="M1180.825,622.811a15.805,15.805,0,0,0-.173-4.921,7.87,7.87,0,0,0-2.18-4.21c-.32.787-1.131,1.854-1.98,1.889-.67.027-3.991-1.381-4.621-1.151-.454.166-1.187,6.616-3.188,7.984a43.762,43.762,0,0,1-6.547,3.139,6.185,6.185,0,0,0-2.1,1.389,2.445,2.445,0,0,0-.6,2.342,1.481,1.481,0,0,0,.1.2H1174.1a16.394,16.394,0,0,0,.918-1.567l3.056-5.719a24.95,24.95,0,0,1,.665,7.286h1.626Q1180.594,626.142,1180.825,622.811Z" fill="#2a95bf" fill-rule="evenodd"/>
          <path id="Path_100" data-name="Path 100" d="M1173.167,487.357c11.108-17.679,31.74-10.157,37.091.591,3.185,6.4,3.878,14.641.6,20.655-1.829,8.538-3.328,5.734-8.106,52.163-1.732,4.006-29.874,3.472-38.623,1.673-2.544-.234-2.725-.629-2.793-2.8C1158.567,537.306,1166.09,498.622,1173.167,487.357Z" fill="#2a95bf" fill-rule="evenodd"/>
          <path id="Path_101" data-name="Path 101" d="M1174.488,470.331c-1.547-3.689-1.882-9.456-3.626-13.056-2.7-5.561-5.207-8.108-5.207-12.759,0-7.458,8.423-9.728,12.9-18.237,2.444-4.652,6.814-4.606,10.68-4.606,3.911,0,8.49,10.835,8.356,15.291-.267,8.907-5.546,15.824-4.427,24.8,1.2,9.586,6.8,14.04,14.111,21.986l-35.869,7C1172.3,487.048,1178.477,479.84,1174.488,470.331Z" fill="#222b54" fill-rule="evenodd"/>
          <path id="Path_102" data-name="Path 102" d="M1194.894,437.944a40.192,40.192,0,0,1-2.252,9.626,103.645,103.645,0,0,1-11.662,23.769,11.133,11.133,0,0,1-2.917,3.293,4.064,4.064,0,0,1-4.185.373c-1.881-1.1-2.006-3.733-1.837-5.9.791-10.11,3.048-20.04,5.3-29.927.826-3.633,1.778-7.491,4.491-10.044,2.5-2.352,7.118-3.466,10.28-1.754C1195.19,429.042,1195.139,434.945,1194.894,437.944Z" fill="#0a3c5f" fill-rule="evenodd"/>
          <path id="Path_103" data-name="Path 103" d="M1149.6,457.6c-1.316.491-1.233,2.4-.7,3.7,1.47,3.558,23.483,16,26.489,14.128,1.818-1.132,4.853-4.559,4.794-6.744C1180.12,466.046,1150.153,457.4,1149.6,457.6Z" fill="#0a3c5f" fill-rule="evenodd"/>
          <path id="Path_104" data-name="Path 104" d="M1150.956,457.574c-1.721-3.85-2.953-8.4-4.7-9.976-1.418-1.278-.548,2.242-.591,4.151-2.6-4.55-4.629-4.071-8.243-5.2-3.744-1.165,6.944,15.187,12.931,16.02Z" fill="#f7b690"/>
          <g id="Group_81" data-name="Group 81">
            <path id="Path_105" data-name="Path 105" d="M1188.921,406.618c-.628-1.183-7.509,2.364-7.918,3.214s-.842,10.462-2.313,16.463c-.318,1.3,12.517-2.67,11.606-4.238C1188.817,419.515,1187.308,409.82,1188.921,406.618Z" fill="#f4a086"/>
            <path id="Path_106" data-name="Path 106" d="M1169.085,397.953c2.377-9.86,15.866-7.781,19.07-6.8s3.285,5.515,3.594,8.851a8.423,8.423,0,0,1-1.781,5.742c-1.178,1.572-6.308,3.939-6.6,4-1.9,3.282-5,7.035-8.147,6.989a4.663,4.663,0,0,1-3.537-2.077,13.789,13.789,0,0,1-1.733-3.866,23.368,23.368,0,0,1-.866-12.839Z" fill="#f7b690"/>
            <path id="Path_107" data-name="Path 107" d="M1192.432,403.684a9.839,9.839,0,0,0,2.323-4.932,9.2,9.2,0,0,0-1.663-6.18c-2.172-3.229-7.783-7.4-12.316-7.488-4.843-.1-13.16,4.724-12.371,10.716.237,1.793,1.221,1.8,2.936,2.378,2.26.754,5.292,1.276,7.166,2.746,2.242,1.759,1.245,6,5.833,7.38,1.484.446,3.008,3.065,3.993,5.1C1189.5,412.075,1191.3,405.056,1192.432,403.684Z" fill="#cc346f"/>
            <path id="Path_108" data-name="Path 108" d="M1186.332,404.44a1.676,1.676,0,0,1,.439.865,3.873,3.873,0,0,1-2.983,4.677,1.652,1.652,0,0,1-1.19-.116c-1.2-.732-.591-3.28-.014-4.268C1183.183,404.573,1185.309,403.488,1186.332,404.44Z" fill="#f7b690"/>
            <path id="Path_109" data-name="Path 109" d="M1197.568,407.419a8.214,8.214,0,0,1,2.581,7.03c-.32,2.438-1.743,4.68-1.745,7.139a11.1,11.1,0,0,0,1.924,5.52,44.832,44.832,0,0,0,9.646,11.368c.418.352.886.809.785,1.346-.124.659-.967.845-1.637.876a27.989,27.989,0,0,1-7.559-.489,13.481,13.481,0,0,1-6.635-3.488,12.354,12.354,0,0,1-3.342-7.586,17.652,17.652,0,0,1,1.43-8.252,39.056,39.056,0,0,0,1.87-4.554,6.1,6.1,0,0,0-.4-4.774c-.755-1.23-2.083-2-2.953-3.15a4.12,4.12,0,0,1-.993-2.387c.141-.875,1.169-.707,1.935-.671a8.22,8.22,0,0,1,5.093,2.072Z" fill="#cc346f"/>
            <path id="Path_110" data-name="Path 110" d="M1194.186,407.175a5.365,5.365,0,0,1-1.308,1.6,5.033,5.033,0,0,1-1.457,1.024,1.94,1.94,0,0,1-1.724-.061,1.991,1.991,0,0,1-.776-1.97c.176-1.3,1.232-3.528,2.718-3.628C1193.376,404.027,1195.021,405.389,1194.186,407.175Z" fill="#0a3c5f" fill-rule="evenodd"/>
          </g>
        </g>
      </g>
      <g id="Group_91" data-name="Group 91">
        <g id="Group_87" data-name="Group 87">
          <g id="Group_84" data-name="Group 84">
            <path id="Path_111" data-name="Path 111" d="M1352.095,573.684a2.4,2.4,0,0,1,2.4,2.4v51a2.4,2.4,0,0,1-2.4,2.4h-57.088v-55.8Z" fill="#f79a45"/>
            <path id="Path_112" data-name="Path 112" d="M1278.86,573.684h16.147v55.789H1278.86a2.394,2.394,0,0,1-2.394-2.4v-51a2.4,2.4,0,0,1,2.394-2.389Z" fill="#e68227"/>
            <rect id="Rectangle_73" data-name="Rectangle 73" width="59.483" height="9.697" transform="translate(1354.49 606.427) rotate(180)" fill="#e68227"/>
            <rect id="Rectangle_74" data-name="Rectangle 74" width="55.788" height="9.697" transform="translate(1319.9 629.473) rotate(-90)" fill="#e68227"/>
            <path id="Path_113" data-name="Path 113" d="M1333.472,611.7v3.381h13.784V611.7Zm13.784,4.854h-13.784v3.382h13.784Zm0,4.856h-13.784v3.381h13.784Z" fill="#e68227"/>
          </g>
          <g id="Group_85" data-name="Group 85">
            <path id="Path_114" data-name="Path 114" d="M1278.07,573.684a2.4,2.4,0,0,1,2.4,2.4v51a2.4,2.4,0,0,1-2.4,2.4h-57.087v-55.8Z" fill="#f79a45"/>
            <path id="Path_115" data-name="Path 115" d="M1204.836,573.684h16.147v55.789h-16.147a2.4,2.4,0,0,1-2.4-2.4v-51A2.4,2.4,0,0,1,1204.836,573.684Z" fill="#e68227"/>
            <rect id="Rectangle_75" data-name="Rectangle 75" width="59.483" height="9.697" transform="translate(1280.466 606.427) rotate(180)" fill="#e68227"/>
            <rect id="Rectangle_76" data-name="Rectangle 76" width="55.788" height="9.697" transform="translate(1245.875 629.473) rotate(-90)" fill="#e68227"/>
            <path id="Path_116" data-name="Path 116" d="M1259.447,611.7v3.381h13.784V611.7Zm13.784,4.854h-13.784v3.382h13.784Zm0,4.856h-13.784v3.381h13.784Z" fill="#e68227"/>
          </g>
          <g id="Group_86" data-name="Group 86">
            <path id="Path_117" data-name="Path 117" d="M1329.526,517.968a2.4,2.4,0,0,1,2.4,2.4v51a2.4,2.4,0,0,1-2.4,2.4h-57.088v-55.79Z" fill="#f79a45"/>
            <path id="Path_118" data-name="Path 118" d="M1256.291,517.968h16.147v55.788h-16.147a2.4,2.4,0,0,1-2.4-2.395v-51A2.4,2.4,0,0,1,1256.291,517.968Z" fill="#e68227"/>
            <rect id="Rectangle_77" data-name="Rectangle 77" width="59.483" height="9.697" transform="translate(1331.921 550.711) rotate(180)" fill="#e68227"/>
            <rect id="Rectangle_78" data-name="Rectangle 78" width="55.788" height="9.697" transform="translate(1297.331 573.756) rotate(-90)" fill="#e68227"/>
            <path id="Path_119" data-name="Path 119" d="M1310.9,555.98v3.382h13.784V555.98Zm13.784,4.855H1310.9v3.381h13.784Zm0,4.855H1310.9v3.382h13.784Z" fill="#e68227"/>
          </g>
        </g>
        <g id="Group_90" data-name="Group 90">
          <path id="Path_120" data-name="Path 120" d="M1322.869,558.961c1.383,2.914,3.266,6.2,6,7.015,1.9.566,7.218-3.018,8.283-4.456s-2.238-70.8-4.622-75.023c-3.2-5.664-28.446,2.159-27.577,11.986,1.112,12.563,4.69,25.928,8.938,38.385a208.431,208.431,0,0,0,8.978,22.093Z" fill="#222b54" fill-rule="evenodd"/>
          <path id="Path_121" data-name="Path 121" d="M1291.545,623.349a18.513,18.513,0,0,0,8.282-.667q-.281-4.883-.56-9.766a2.449,2.449,0,0,0-.273-1.19,2.212,2.212,0,0,0-1.561-.815c-2.257-.4-5.69-.522-5.765,2.3C1291.578,616.59,1291.589,619.972,1291.545,623.349Z" fill="#f4a086"/>
          <path id="Path_122" data-name="Path 122" d="M1337.329,623.349a17.957,17.957,0,0,0,8.2-.667l-1.809-9.766a2.722,2.722,0,0,0-.425-1.19,2.562,2.562,0,0,0-1.665-.815c-2.308-.4-5.757-.522-5.471,2.3C1336.5,616.59,1336.941,619.972,1337.329,623.349Z" fill="#f4a086"/>
          <path id="Path_123" data-name="Path 123" d="M1336.41,550.976c-3.6-5.763-12.293-9.714-15.944.284-5.568,15.248,4.9,43.769,7.525,62.182h16.651C1344.905,611.66,1338.409,554.173,1336.41,550.976Z" fill="#222b54" fill-rule="evenodd"/>
          <path id="Path_124" data-name="Path 124" d="M1290.65,503.386c2.3,1.814,5.347,2.091,8.2,2.091,23.505,0,37.106-7.644,33.856-18.441-3.34-11.091-24.375-9.3-35.362-5.727-2.368.771-5.819,1.517-7.437,3.728C1287.563,488.243,1285.057,498.98,1290.65,503.386Z" fill="#0a3c5f" fill-rule="evenodd"/>
          <path id="Path_125" data-name="Path 125" d="M1292.648,558.961c.8,2.914,2.015,6.2,4.583,7.015,1.781.566,7.826-3.018,9.182-4.456s12.257-59.63,10.724-63.853a16.071,16.071,0,0,0-12.519-10.178c-7.709-1.227-16.578,1.167-17.69,10.994-1.422,12.563-.54,25.928,1.2,38.385a176.381,176.381,0,0,0,4.52,22.093Z" fill="#0a3c5f" fill-rule="evenodd"/>
          <path id="Path_126" data-name="Path 126" d="M1308.326,550.976c-2.233-5.752-11.064-10.3-16.011.284-7.965,17.04-3.1,42.505-1.635,62.182h14.25C1306.1,588.872,1309.567,554.173,1308.326,550.976Z" fill="#0a3c5f" fill-rule="evenodd"/>
          <path id="Path_127" data-name="Path 127" d="M1335.254,415.548c2.4,3.543,1.526,8.591.929,12.687-1.276,8.763-4.285,17.253-6.049,25.95s-2.218,17.92,1.479,26.126a12.642,12.642,0,0,1,1.385,3.947,3.486,3.486,0,0,1-1.874,3.544,6.5,6.5,0,0,1-2.686.361l-37.035-.24a4.534,4.534,0,0,1-2.368-.445c-1.482-.924-.969-2.933-.437-4.47,3.56-10.284.519-21.357-2.712-31.726-3.207-10.289-9.41-23.546-4.915-33.48,2.834-6.263,12.809-17.941,30.47-17.941C1323.83,399.861,1333.1,412.37,1335.254,415.548Z" fill="#222b54" fill-rule="evenodd"/>
          <g id="Group_88" data-name="Group 88">
            <path id="Path_128" data-name="Path 128" d="M1369.8,411.631a2.4,2.4,0,0,1,2.4,2.4v51a2.4,2.4,0,0,1-2.4,2.4h-57.088V411.631Z" fill="#f79a45"/>
            <path id="Path_129" data-name="Path 129" d="M1296.567,411.631h16.147v55.788h-16.147a2.4,2.4,0,0,1-2.4-2.4v-51a2.4,2.4,0,0,1,2.4-2.388Z" fill="#e68227"/>
            <rect id="Rectangle_79" data-name="Rectangle 79" width="59.483" height="9.697" transform="translate(1372.197 444.374) rotate(180)" fill="#e68227"/>
            <rect id="Rectangle_80" data-name="Rectangle 80" width="55.788" height="9.697" transform="translate(1337.607 467.419) rotate(-90)" fill="#e68227"/>
            <path id="Path_130" data-name="Path 130" d="M1351.179,449.643v3.381h13.783v-3.381Zm13.783,4.855h-13.783v3.381h13.783Zm0,4.855h-13.783v3.382h13.783Z" fill="#e68227"/>
          </g>
          <path id="Path_131" data-name="Path 131" d="M1282.256,415.42c3.218-5.269,10.43-7.6,11.528,1.416.624,5.12.181,38.471-4.817,51.471-1.172,3.049-6.663,4.172-7.98-.246C1276.886,454.3,1273.369,429.967,1282.256,415.42Z" fill="#0a3c5f" fill-rule="evenodd"/>
          <path id="Path_132" data-name="Path 132" d="M1318.25,462.073c1.292,1.181,1.173,3.371.168,4.8s-27.244,4.117-33.394,4.117c-2.234,0-3.831-2.089-4.415-4.238-.686-2.528.084-11.049,9.312-9.443C1296.417,458.442,1317.422,461.316,1318.25,462.073Z" fill="#0a3c5f" fill-rule="evenodd"/>
          <g id="Group_89" data-name="Group 89">
            <path id="Path_133" data-name="Path 133" d="M1325.906,380.344c-.461,1.051-1.236.88-1.341-.253-.334-3.623-.279-4.2-2.317-7.235-1.121-1.668-4.659-1.9-3.914-2.609C1320.8,367.9,1329.721,371.649,1325.906,380.344Z" fill="#222b56" fill-rule="evenodd"/>
            <path id="Path_134" data-name="Path 134" d="M1316.4,387.478c-1.21-5.339-5.25-6.59-7.6-5.308-1.505,9.994-3.039,14.436-6.957,19.888,4.871,3.122,13.186,2.541,14.983,0C1316.9,401.257,1317.03,390.239,1316.4,387.478Z" fill="#f4a086"/>
            <path id="Path_135" data-name="Path 135" d="M1309.489,373.19a8.315,8.315,0,0,1,14.027.147c3.106,4.822,1.771,16-.074,18.526-3.227,4.414-11.69.888-13.163-1.932C1308.122,385.8,1306.886,377.393,1309.489,373.19Z" fill="#f7b690"/>
            <path id="Path_136" data-name="Path 136" d="M1311.6,374.43c-.04.863-.238,12.018-.556,11.93-1.133-.31-2.892-3.218-4.911-2.846-.645.119-1.677.667-1.677-.645,0-8.3,2.733-9.935,4.107-10.876C1311.594,369.919,1311.7,372.284,1311.6,374.43Z" fill="#222b56" fill-rule="evenodd"/>
            <path id="Path_137" data-name="Path 137" d="M1325.434,370.947a1.727,1.727,0,0,1-.758,1.511,5.1,5.1,0,0,1-1.616.7,3.237,3.237,0,0,1-4.441,1.822c-.472-.226-.885-.564-1.363-.777a4.453,4.453,0,0,0-2.8-.119c-.925.212-1.813.569-2.74.769a8.411,8.411,0,0,1-4.226-.179,13.48,13.48,0,0,1-.051-3.117c.04-.4-.006-.935.331-1.163C1313.8,366.34,1325.434,367.586,1325.434,370.947Z" fill="#222b56" fill-rule="evenodd"/>
            <path id="Path_138" data-name="Path 138" d="M1305.6,375.715a.6.6,0,0,1-.6-.607c.085-6.2,1.576-11.123,10.922-11.123,9.146,0,10.89,5.155,10.922,11.55h0l6.926,1.386c-.45,1.9-2.745,1.855-4.7,1.855h-10.188a19.812,19.812,0,0,1-10.563-3.061Z" fill="#fe4757"/>
            <path id="Path_139" data-name="Path 139" d="M1304.187,382.479a5.26,5.26,0,0,0,1.606,3.6c2.787,2.662,4.707-1.653,3.833-4.079C1308.584,379.107,1304.075,378.816,1304.187,382.479Z" fill="#f7b690"/>
          </g>
          <path id="Path_140" data-name="Path 140" d="M1363.566,628.132c.121-1.353-1.163-2.474-2.484-2.789a18.4,18.4,0,0,0-4.061-.091,10.968,10.968,0,0,1-9.415-5.811,2.773,2.773,0,0,0-.945-1.257,1.822,1.822,0,0,0-1.968.362,21.177,21.177,0,0,0-1.437,1.566,4.828,4.828,0,0,1-3.447,1.38c-1.062-.016-2.252-.828-3.273-.291-.9.473-1.144,1.722-1.373,2.611-.393,1.533-.75,3.076-1.125,4.614a6.414,6.414,0,0,0-.189,1.047h7.382A10.383,10.383,0,0,0,1342,627a5.835,5.835,0,0,0,.639,2.472h20.289a2.275,2.275,0,0,0,.638-1.34Z" fill="#0a3c5f" fill-rule="evenodd"/>
          <path id="Path_141" data-name="Path 141" d="M1303.51,628.132a3.173,3.173,0,0,0-1.092-2.789c-.58-.315-1.487-2.583-2.69-5.9-.55-1.518-3.614-1.943-5.145.671-.5.848-.958,1.4-1.515,1.38-.467-.016-.99-.828-1.439-.291a6.284,6.284,0,0,0-.6,2.611c-.173,1.533-.33,3.076-.5,4.614-.036.34-.072.7-.083,1.047h12.782A3.986,3.986,0,0,0,1303.51,628.132Z" fill="#0a3c5f" fill-rule="evenodd"/>
          <path id="Path_142" data-name="Path 142" d="M1314.641,461.286c2.743-.3,4.819-2.889,11.027-5.127.267-.1.568-.248.808-.1a.573.573,0,0,1,.21.59,1.67,1.67,0,0,1-.289.6c-1.8,2.719-2.459,3.485-2.4,4.485a2.227,2.227,0,0,0,.036.28,30.909,30.909,0,0,1,9.855,4.984c4.741.578,1.455,3.788-6.347,4.276-4.338.271-6.965-.839-10.994-2.412C1314.074,467.9,1310.257,461.769,1314.641,461.286Z" fill="#f7b690"/>
        </g>
      </g>
      <g id="Group_95" data-name="Group 95">
        <g id="Group_92" data-name="Group 92">
          <path id="Path_143" data-name="Path 143" d="M527.3,573.684a2.4,2.4,0,0,0-2.4,2.4v51a2.4,2.4,0,0,0,2.4,2.4h57.09v-55.8Z" fill="#f79a45"/>
          <path id="Path_144" data-name="Path 144" d="M600.537,573.684H584.39v55.789h16.147a2.4,2.4,0,0,0,2.4-2.4v-51A2.4,2.4,0,0,0,600.537,573.684Z" fill="#e68227"/>
          <rect id="Rectangle_81" data-name="Rectangle 81" width="59.483" height="9.697" transform="translate(524.907 596.73)" fill="#e68227"/>
          <rect id="Rectangle_82" data-name="Rectangle 82" width="55.788" height="9.697" transform="translate(549.8 629.473) rotate(-90)" fill="#e68227"/>
          <path id="Path_145" data-name="Path 145" d="M532.142,611.7v3.381h13.783V611.7Zm0,8.236h13.783v-3.382H532.142Zm0,4.855h13.783V621.41H532.142Z" fill="#e68227"/>
        </g>
        <g id="Group_93" data-name="Group 93">
          <path id="Path_146" data-name="Path 146" d="M601.327,573.684a2.4,2.4,0,0,0-2.4,2.4v51a2.4,2.4,0,0,0,2.4,2.4h57.088v-55.8Z" fill="#f79a45"/>
          <path id="Path_147" data-name="Path 147" d="M674.562,573.684H658.415v55.789h16.147a2.4,2.4,0,0,0,2.4-2.4v-51a2.4,2.4,0,0,0-2.395-2.389Z" fill="#e68227"/>
          <rect id="Rectangle_83" data-name="Rectangle 83" width="59.483" height="9.697" transform="translate(598.932 596.73)" fill="#e68227"/>
          <rect id="Rectangle_84" data-name="Rectangle 84" width="55.788" height="9.697" transform="translate(623.825 629.473) rotate(-90)" fill="#e68227"/>
          <path id="Path_148" data-name="Path 148" d="M606.166,611.7v3.381H619.95V611.7Zm0,8.236H619.95v-3.382H606.166Zm0,4.855H619.95V621.41H606.166Z" fill="#e68227"/>
        </g>
        <g id="Group_94" data-name="Group 94">
          <path id="Path_149" data-name="Path 149" d="M549.872,517.968a2.4,2.4,0,0,0-2.4,2.4v51a2.4,2.4,0,0,0,2.4,2.4H606.96v-55.79Z" fill="#f79a45"/>
          <path id="Path_150" data-name="Path 150" d="M623.107,517.968H606.96v55.788h16.147a2.4,2.4,0,0,0,2.4-2.4v-51A2.4,2.4,0,0,0,623.107,517.968Z" fill="#e68227"/>
          <rect id="Rectangle_85" data-name="Rectangle 85" width="59.483" height="9.697" transform="translate(547.477 541.014)" fill="#e68227"/>
          <rect id="Rectangle_86" data-name="Rectangle 86" width="55.788" height="9.697" transform="translate(572.37 573.756) rotate(-90)" fill="#e68227"/>
          <path id="Path_151" data-name="Path 151" d="M554.711,555.98v3.382h13.784V555.98Zm0,8.236h13.784v-3.381H554.711Zm0,4.856h13.784V565.69H554.711Z" fill="#e68227"/>
        </g>
      </g>
      <g id="Group_99" data-name="Group 99">
        <path id="Path_152" data-name="Path 152" d="M1423.277,427.349c-.765,10.8-2.883,21.873-8.962,30.839-1.31,1.932-3.212,3.937-5.534,3.693a4.625,4.625,0,0,1-3.269-2.228,10.74,10.74,0,0,1-1.327-3.846c-1.969-10.557,1.253-21.315,4.462-31.564,1.322-4.221,3.079-11.693,7.376-13.969,4.476-2.371,6.729,4.952,7.14,7.939A44.275,44.275,0,0,1,1423.277,427.349Z" fill="#f4a086"/>
        <path id="Path_153" data-name="Path 153" d="M1423.792,412c-.2-1.787-.683-3.894-2.343-4.674-1.75-.822-3.629.379-4.99,1.6-8.252,7.4-11.38,17.852-12.876,29.067l19.789,1.221A104.551,104.551,0,0,0,1423.792,412Z" fill="#6c77d9" fill-rule="evenodd"/>
        <path id="Path_154" data-name="Path 154" d="M1396.26,456.54a3.376,3.376,0,0,0,1.021,3.691c1,.926,7.958,4.2,14.788,1.181,3.438-1.52,3.959-4.831,2.753-7.974C1413.145,449.063,1396.92,455.065,1396.26,456.54Z" fill="#f7b690"/>
        <g id="Group_96" data-name="Group 96">
          <path id="Path_155" data-name="Path 155" d="M1440.359,623.349a18.027,18.027,0,0,1-8.207-.667l1.644-9.766a2.668,2.668,0,0,1,.405-1.19,2.515,2.515,0,0,1,1.651-.815c2.3-.4,5.748-.522,5.509,2.3C1441.076,616.59,1440.691,619.972,1440.359,623.349Z" fill="#f4a086"/>
          <path id="Path_156" data-name="Path 156" d="M1453.545,610.413a17.94,17.94,0,0,1-6.859,4.536q-2.3-4.4-4.607-8.8a2.711,2.711,0,0,1-.4-1.2,2.561,2.561,0,0,1,.807-1.669c1.57-1.738,4.206-3.964,5.724-1.566C1450.026,604.583,1451.766,607.517,1453.545,610.413Z" fill="#f4a086"/>
          <path id="Path_157" data-name="Path 157" d="M1414.495,486.5c3.2-5.664,28.446,2.159,27.576,11.986-1.111,12.563-4.689,25.928-8.937,38.385q-.27.793-.548,1.585a27.307,27.307,0,0,0,.65,19.932c5.923,13.621,9.651,32.126,15.879,42.912l-7.439,5.838c-1.307-1.24-29.466-48.851-30.91-55.226C1409.674,547.089,1411.953,491,1414.495,486.5Z" fill="#222b54" fill-rule="evenodd"/>
          <path id="Path_158" data-name="Path 158" d="M1458.685,504.422c-.172,2.925-7.659,1.055-10.514,1.055-23.505,0-37.106-7.644-33.856-18.441,3.34-11.091,24.375-9.3,35.362-5.727,2.368.771,5.819,1.517,7.437,3.728C1459.46,488.243,1459.3,493.866,1458.685,504.422Z" fill="#0a3c5f" fill-rule="evenodd"/>
          <path id="Path_159" data-name="Path 159" d="M1446.406,558.961c-1.119,2.914-2.7,6.2-5.362,7.015-1.844.566-7.491-3.018-8.687-4.456s-5.636-59.63-3.634-63.853a18.632,18.632,0,0,1,13.649-10.178c7.845-1.227,16.448,1.167,16.469,10.994.028,12.563-2.339,25.928-5.457,38.385a191.3,191.3,0,0,1-6.978,22.093Z" fill="#0a3c5f" fill-rule="evenodd"/>
          <path id="Path_160" data-name="Path 160" d="M1431.615,550.976c2.871-5.752,12.207-10.3,15.979.284,6.073,17.04-1.615,42.505-5.27,62.182h-9.456C1432.38,611.66,1430.019,554.173,1431.615,550.976Z" fill="#0a3c5f" fill-rule="evenodd"/>
          <path id="Path_161" data-name="Path 161" d="M1444.23,615.386a2.774,2.774,0,0,1-.357-1.532,1.823,1.823,0,0,1,1.541-1.276c.7-.132,1.417-.034,2.123-.1a4.82,4.82,0,0,0,3.271-1.756c.671-.825.813-2.258,1.88-2.7.941-.387,2.054.228,2.883.624,1.427.683,2.84,1.4,4.259,2.1a6.533,6.533,0,0,1,.924.527l-4.74,5.66a10.38,10.38,0,0,1-2.39-1,5.841,5.841,0,0,1,1.485,2.078l-8.649,11.452-3.669-3.338A10.973,10.973,0,0,0,1444.23,615.386Z" fill="#0a3c5f" fill-rule="evenodd"/>
          <path id="Path_162" data-name="Path 162" d="M1441.623,625.327a18.413,18.413,0,0,1,4.062-.078c.084,0,.167-.008.251-.011l.524,4.235-6.7-.022a2.28,2.28,0,0,1-.632-1.343C1439.013,626.754,1440.3,625.638,1441.623,625.327Z" fill="#0a3c5f" fill-rule="evenodd"/>
          <path id="Path_163" data-name="Path 163" d="M1428.311,628.132a3.176,3.176,0,0,1,1.092-2.789c.58-.315,1.487-2.583,2.69-5.9.55-1.518,3.615-1.943,5.145.671.5.848.958,1.4,1.515,1.38.467-.016.99-.828,1.439-.291a6.282,6.282,0,0,1,.6,2.611c.173,1.533.33,3.076.495,4.614.036.34.072.7.083,1.047h-12.782a3.989,3.989,0,0,1-.277-1.343Z" fill="#0a3c5f" fill-rule="evenodd"/>
        </g>
        <path id="Path_164" data-name="Path 164" d="M1460.192,451.282c3.206-10.289,7.144-23,5.369-33.758-4.356-5.318-13.263-17.663-30.924-17.663-12.389,0-21.664,12.509-23.813,15.687-2.4,3.543-1.526,8.59-.929,12.687,1.272,8.732,5.052,43.043,1.768,66.857h50.023C1461.59,483.735,1456.961,461.651,1460.192,451.282Z" fill="#6c77d9" fill-rule="evenodd"/>
        <path id="Path_165" data-name="Path 165" d="M1471.7,438.771a50.855,50.855,0,0,0-15.019-24.691c-1.306-1.178-3.076-2.359-4.694-1.67a3.27,3.27,0,0,0-1.733,2.178,9.193,9.193,0,0,0-.2,2.859c.445,11.18,2.477,22.23,4.5,33.234a40.291,40.291,0,0,0,2.719,9.918,13.558,13.558,0,0,0,7.078,7.148c1.683.638,4.435,1.013,5.986-.2,1.248-.975,1.455-3.456,1.77-4.868a51.081,51.081,0,0,0,1.054-15.3,50.114,50.114,0,0,0-1.461-8.608Z" fill="#f7b690"/>
        <path id="Path_166" data-name="Path 166" d="M1474.509,442.323a.863.863,0,0,1,.027.209C1474.529,442.462,1474.516,442.393,1474.509,442.323Z" fill="#18898d" fill-rule="evenodd"/>
        <path id="Path_167" data-name="Path 167" d="M1449.742,412c.093-1.787.438-3.894,2.049-4.674,1.7-.822,4.855.729,6.294,1.95,8.718,7.4,13.568,17.5,15.77,28.717l-21.979,1.221A105.463,105.463,0,0,1,1449.742,412Z" fill="#6c77d9" fill-rule="evenodd"/>
        <g id="Group_97" data-name="Group 97">
          <path id="Path_168" data-name="Path 168" d="M1429.674,387.478c1.21-5.339,5.25-6.59,7.6-5.308,1.505,9.994,3.039,14.436,6.957,19.888-4.871,3.122-13.186,2.541-14.983,0C1429.175,401.257,1429.048,390.239,1429.674,387.478Z" fill="#f4a086"/>
          <path id="Path_169" data-name="Path 169" d="M1429.938,374.942a8.316,8.316,0,0,0-12.8,5.742c-.92,5.662,4.773,15.376,7.473,16.952,4.722,2.757,11.071-3.859,11.293-7.033C1436.231,385.955,1434,377.754,1429.938,374.942Z" fill="#f7b690"/>
          <path id="Path_170" data-name="Path 170" d="M1433.377,376.132a1.378,1.378,0,0,1,1.3-.045,4.086,4.086,0,0,1,1.089.8,22.44,22.44,0,0,1,3.164,3.352,7.53,7.53,0,0,1,1.537,4.277,8.663,8.663,0,0,0,.085,2.973c.307.841,1.086,1.614.853,2.478a1.457,1.457,0,0,1-1.566.948,2.578,2.578,0,0,1-1.653-1.018,13.617,13.617,0,0,1-1.05-1.691c-1.124-1.9-2.763-3.446-3.932-5.316s-1.82-4.326-.763-6.262Z" fill="#222b56" fill-rule="evenodd"/>
          <path id="Path_171" data-name="Path 171" d="M1410.944,378.629l3.132-1.267a5.352,5.352,0,0,0-1.16,1.952,1.615,1.615,0,0,0,2.382,1.973,5.364,5.364,0,0,0,1.357-1.138,2.8,2.8,0,0,0-.438,1.269.961.961,0,0,0,.742.991,1.414,1.414,0,0,0,.965-.418l4.252-3.351a3.929,3.929,0,0,0-.1,1.346,1.335,1.335,0,0,0,.752,1.055c.739.291,1.5-.368,1.948-1.022s.917-1.442,1.7-1.56c.882-.132,1.6.658,2.144,1.368l.29.382,2.981,3.923a4.68,4.68,0,0,0,1.032,1.091,1.59,1.59,0,0,0,1.429.247c.8-.307,9.458-13.08-1.619-16.981-1.6-.565-3.867.061-5.489.571a40.34,40.34,0,0,1-4.83,1.621c-1.326.238-2.688.147-4.029.28C1414.639,371.333,1411.043,374.772,1410.944,378.629Z" fill="#222b56" fill-rule="evenodd"/>
          <path id="Path_172" data-name="Path 172" d="M1438.51,381.338a5.256,5.256,0,0,1-.033,3.94c-1.491,3.555-4.975.367-5.144-2.206C1433.132,380,1437.149,377.935,1438.51,381.338Z" fill="#f7b690"/>
        </g>
        <g id="Group_98" data-name="Group 98">
          <path id="Path_173" data-name="Path 173" d="M1444.461,471.182h-38.593a4.568,4.568,0,0,1-4.116-3.215l-13.2-47.158a2.355,2.355,0,0,1,2.315-3.215h30.01a4.567,4.567,0,0,1,4.115,3.215l12.632,45.113C1438.544,468.343,1441.36,471.182,1444.461,471.182Z" fill="#d5e5fd"/>
        </g>
        <path id="Path_174" data-name="Path 174" d="M1410.873,417.594c-2.241,0-5.741,2.636-5.741,7.05h-30.467c.426-4.505,2.447-7.05,6.109-7.05Z" fill="#fff"/>
        <path id="Path_175" data-name="Path 175" d="M1433.905,457.189c-1.469.953-1.712,3.133-.955,4.712s26.279,7.767,32.428,7.666c1.871-.031,4.021-.209,5.122-1.722.983-1.352.7-3.233.177-4.819a17.2,17.2,0,0,0-4.612-7.512C1464.561,454.242,1434.845,456.579,1433.905,457.189Z" fill="#f7b690"/>
        <path id="Path_176" data-name="Path 176" d="M1424.695,452.674c-.615-.856-1.237-2.033-.609-2.88a1.738,1.738,0,0,1,1.907-.464,5.6,5.6,0,0,1,1.755,1.119,5.269,5.269,0,0,0,2.466,1.32,1.99,1.99,0,0,0,2.245-1.273c.241-1-.543-2.269.2-2.989a1.306,1.306,0,0,1,1.513-.091,3.829,3.829,0,0,1,1.134,1.147c1.713,2.313,3.466,4.707,4.154,7.5s.049,6.124-2.287,7.8a6.127,6.127,0,0,1-7.182-.324,7.594,7.594,0,0,1-2.6-5.438C1427.143,455.8,1426.1,454.624,1424.695,452.674Z" fill="#f7b690"/>
        <path id="Path_177" data-name="Path 177" d="M1394.653,450.279c.11-.322.289-5.473.554-5.688.484-.393,2.293,5.669,1.919,6.168l3.011-.321c.953-.1,2.2-.024,2.487.889.231.73-.353,1.431-.759,2.08-.721,1.153.34,7.886-.223,8.457-2.082,2.113-6.643-1.551-7.4-3.614C1393.184,455.388,1393.709,453.03,1394.653,450.279Z" fill="#f4a086"/>
      </g>
    </g>
    <g id="Layer_2" data-name="Layer 2" transform="translate(0 70)">
      <g id="Group_101" data-name="Group 101">
        <path id="Path_178" data-name="Path 178" d="M433.467,559.488c1.383,2.914,3.266,6.2,6,7.015,1.895.566,7.218-3.018,8.283-4.456s-2.238-70.8-4.622-75.023c-3.2-5.664-28.446,2.159-27.577,11.986,1.112,12.563,4.69,25.928,8.938,38.385a208.445,208.445,0,0,0,8.978,22.093Z" fill="#222b54" fill-rule="evenodd"/>
        <path id="Path_179" data-name="Path 179" d="M402.143,623.876a18.513,18.513,0,0,0,8.282-.667l-.56-9.766a2.448,2.448,0,0,0-.273-1.19,2.211,2.211,0,0,0-1.561-.814c-2.257-.4-5.69-.523-5.765,2.3C402.176,617.117,402.187,620.5,402.143,623.876Z" fill="#f4a086"/>
        <path id="Path_180" data-name="Path 180" d="M447.927,623.876a17.957,17.957,0,0,0,8.2-.667l-1.809-9.766a2.722,2.722,0,0,0-.425-1.19,2.563,2.563,0,0,0-1.665-.814c-2.308-.4-5.757-.523-5.471,2.3C447.1,617.117,447.539,620.5,447.927,623.876Z" fill="#f4a086"/>
        <path id="Path_181" data-name="Path 181" d="M447.008,551.5c-3.6-5.763-12.293-9.714-15.944.284-5.568,15.248,12.092,43.769,14.72,62.183h9.456C455.5,612.187,449.007,554.7,447.008,551.5Z" fill="#222b54" fill-rule="evenodd"/>
        <path id="Path_182" data-name="Path 182" d="M401.248,503.913c2.3,1.814,5.347,2.091,8.2,2.091,23.5,0,37.106-7.644,33.856-18.441-3.34-11.091-24.375-9.3-35.362-5.727-2.368.771-5.819,1.517-7.437,3.728C398.161,488.77,395.655,499.507,401.248,503.913Z" fill="#0a3c5f" fill-rule="evenodd"/>
        <path id="Path_183" data-name="Path 183" d="M433.4,427.876c.764,10.8,2.883,21.873,8.961,30.839,1.311,1.932,3.213,3.937,5.535,3.693a4.624,4.624,0,0,0,3.269-2.228,10.733,10.733,0,0,0,1.327-3.846c1.969-10.557-1.253-21.315-4.462-31.564-1.322-4.221-3.079-11.693-7.376-13.969-4.476-2.371-6.73,4.952-7.14,7.939a44.279,44.279,0,0,0-.114,9.136Z" fill="#f4a086"/>
        <path id="Path_184" data-name="Path 184" d="M432.884,412.526c.2-1.787.683-3.894,2.343-4.673,1.75-.823,3.629.378,4.99,1.6,8.252,7.4,11.38,17.853,12.876,29.068L433.3,439.74A104.563,104.563,0,0,1,432.884,412.526Z" fill="#ad2b5e"/>
        <path id="Path_185" data-name="Path 185" d="M403.246,559.488c.8,2.914,2.015,6.2,4.583,7.015,1.781.566,7.826-3.018,9.182-4.456s12.257-59.63,10.724-63.853a16.071,16.071,0,0,0-12.519-10.178c-7.709-1.227-16.578,1.167-17.69,10.994-1.422,12.563-.54,25.928,1.2,38.385a176.364,176.364,0,0,0,4.52,22.093Z" fill="#0a3c5f" fill-rule="evenodd"/>
        <path id="Path_186" data-name="Path 186" d="M467.3,428.853c1.312-.942,2.92-1.931,4.437-1.375a3.378,3.378,0,0,1,1.93,3.308c-.035,1.363-16.447,28.138-23.378,30.921-3.488,1.4-6.223-.537-7.632-3.594C440.7,453.858,462.521,432.282,467.3,428.853Z" fill="#f7b690"/>
        <path id="Path_187" data-name="Path 187" d="M418.924,551.5c-2.233-5.752-11.064-10.3-16.011.284-7.965,17.04-3.1,42.505-1.635,62.183h9.456C411.42,612.187,420.165,554.7,418.924,551.5Z" fill="#0a3c5f" fill-rule="evenodd"/>
        <path id="Path_188" data-name="Path 188" d="M445.852,416.076c2.4,3.542,1.526,8.59.929,12.686-1.276,8.763-4.285,17.253-6.049,25.95s-2.218,17.92,1.479,26.126a12.607,12.607,0,0,1,1.384,3.948,3.482,3.482,0,0,1-1.874,3.543,6.5,6.5,0,0,1-2.685.361L402,488.45a4.544,4.544,0,0,1-2.368-.444c-1.482-.925-.969-2.934-.437-4.47,3.56-10.284.519-21.358-2.712-31.727-3.207-10.289-7.145-23-5.369-33.757,4.356-5.319,13.263-17.664,30.924-17.664C434.428,400.388,443.7,412.9,445.852,416.076Z" fill="#cc346f"/>
        <path id="Path_189" data-name="Path 189" d="M384.975,439.3a50.865,50.865,0,0,1,15.02-24.691c1.306-1.178,3.076-2.359,4.694-1.669a3.269,3.269,0,0,1,1.733,2.177,9.186,9.186,0,0,1,.2,2.859c-.445,11.18-2.477,22.23-4.5,33.234a40.289,40.289,0,0,1-2.719,9.918,13.562,13.562,0,0,1-7.078,7.148c-1.683.638-4.436,1.013-5.987-.2-1.247-.975-1.454-3.456-1.769-4.867a51.1,51.1,0,0,1-1.054-15.3,50.225,50.225,0,0,1,1.46-8.609Z" fill="#f4a086"/>
        <path id="Path_190" data-name="Path 190" d="M382.167,442.85a.862.862,0,0,0-.027.209C382.147,442.99,382.159,442.92,382.167,442.85Z" fill="#18898d" fill-rule="evenodd"/>
        <path id="Path_191" data-name="Path 191" d="M406.934,412.526c-.093-1.787-.438-3.894-2.049-4.673-1.7-.823-4.855.728-6.294,1.949-8.718,7.4-13.568,17.5-15.77,28.718l21.979,1.22a105.46,105.46,0,0,0,2.134-27.214Z" fill="#cc346f"/>
        <path id="Path_192" data-name="Path 192" d="M414.57,434.47c1.743-.168,3.289,1.388,3.679,3.1s-19.779,28.784-24.657,32.53c-1.484,1.14-3.278,2.338-5.081,1.838-1.611-.446-2.562-2.093-3.137-3.663a17.184,17.184,0,0,1-1.062-8.75c.385-1.931,2.139-2.531,3.551-3.637C393.055,451.824,413.454,434.577,414.57,434.47Z" fill="#f7b690"/>
        <path id="Path_193" data-name="Path 193" d="M420.039,415.306c.516-.473,1.257-.947,1.863-.6a1.228,1.228,0,0,1,.51,1.165,5.594,5.594,0,0,1-.352,1.291c-.711,2.194-.265,4.566-.123,6.868a25.731,25.731,0,0,1-3.646,14.806c-2.285,3.773-6.235-2.27-6.069-4.917a31.5,31.5,0,0,1,3.286-12.8A22.385,22.385,0,0,1,420.039,415.306Z" fill="#f7b690"/>
        <g id="Group_100" data-name="Group 100">
          <path id="Path_194" data-name="Path 194" d="M437.578,382.9c-.588.985-1.336.72-1.3-.418.121-3.637.247-4.206-1.4-7.468-.9-1.794-1.2-1.946-.369-2.554C437.256,370.439,442.448,374.745,437.578,382.9Z" fill="#222b56" fill-rule="evenodd"/>
          <path id="Path_195" data-name="Path 195" d="M427,388.006c-1.21-5.34-5.25-6.591-7.6-5.309-1.505,9.994-3.039,14.436-6.957,19.888,4.871,3.122,13.186,2.541,14.983,0C427.5,401.784,427.627,390.766,427,388.006Z" fill="#f4a086"/>
          <path id="Path_196" data-name="Path 196" d="M422.182,373.75a8.315,8.315,0,0,1,13.9,1.9c2.48,5.172-.239,16.1-2.385,18.372-3.752,3.977-11.71-.578-12.819-3.56C419.252,386.091,419.075,377.6,422.182,373.75Z" fill="#f7b690"/>
          <path id="Path_197" data-name="Path 197" d="M424.126,375.244c.229.832-1.737,11.893-2.042,11.767-1.085-.449-2.467-3.554-4.517-3.436-.655.037-1.557.462-1.583-.85-.161-8.311-.488-7.887.993-8.649C420.241,372.4,423.717,373.758,424.126,375.244Z" fill="#222b56" fill-rule="evenodd"/>
          <path id="Path_198" data-name="Path 198" d="M415.036,370.056c6.779-4.761,17.9-6.563,21.118-4.67,4.791,2.818,1.268,10.861-.531,11.3-.821.2-1.574-.446-2.272-.922-3.316-2.261-6.286-.532-8.78-.072C420.153,376.511,409.259,374.113,415.036,370.056Z" fill="#222b56" fill-rule="evenodd"/>
          <path id="Path_199" data-name="Path 199" d="M415.763,382.3a5.255,5.255,0,0,0,1.144,3.771c2.433,2.989,4.876-1.052,4.312-3.568C420.546,379.507,416.108,378.656,415.763,382.3Z" fill="#f7b690"/>
        </g>
        <path id="Path_200" data-name="Path 200" d="M474.164,628.659c.121-1.353-1.163-2.474-2.484-2.789a18.4,18.4,0,0,0-4.061-.091,10.967,10.967,0,0,1-9.415-5.811,2.776,2.776,0,0,0-.945-1.257,1.824,1.824,0,0,0-1.968.362c-.549.45-.936,1.064-1.437,1.566a4.824,4.824,0,0,1-3.447,1.38c-1.062-.016-2.252-.828-3.273-.291-.9.474-1.144,1.722-1.373,2.611-.393,1.533-.75,3.076-1.125,4.614a6.409,6.409,0,0,0-.189,1.047h7.382a10.386,10.386,0,0,0,.77-2.472,5.819,5.819,0,0,0,.639,2.472h20.289a2.28,2.28,0,0,0,.637-1.341Z" fill="#0a3c5f" fill-rule="evenodd"/>
        <path id="Path_201" data-name="Path 201" d="M414.108,628.659a3.173,3.173,0,0,0-1.092-2.789c-.58-.315-1.487-2.583-2.69-5.9-.55-1.518-3.614-1.943-5.145.671-.5.848-.958,1.4-1.515,1.38-.467-.016-.99-.828-1.439-.291a6.285,6.285,0,0,0-.6,2.611c-.173,1.533-.33,3.076-.495,4.614-.036.34-.072.7-.083,1.047h12.782A3.988,3.988,0,0,0,414.108,628.659Z" fill="#0a3c5f" fill-rule="evenodd"/>
        <path id="Path_202" data-name="Path 202" d="M477.791,418.094a8.81,8.81,0,0,0-3.314-5.814,2.745,2.745,0,0,0-1.73-.854,2.7,2.7,0,0,0-1.835,1.135,17.27,17.27,0,0,0-3.636,6.96,21.869,21.869,0,0,0-.669,4.747c-.3-.294-.751-.32-1.064-.607-1.006-.921-1.792-2.4-3.117-2.726-1.24-.3-.086,3.086.167,4.6.763,4.566,6.607,8.728,9.88,7.1,1.726-.858,1.261-3.785,3.019-7.823C476.326,422.9,478.174,420.148,477.791,418.094Z" fill="#f7b690"/>
      </g>
      <g id="Group_102" data-name="Group 102">
        <path id="Path_203" data-name="Path 203" d="M523.7,551.927q-1.728-9.828-3.457-19.654c-1.236-7.032-2.479-14.187-1.849-21.5s1.455-16.856,6.763-21.433c6.786-5.85,17.558-8.024,19.727,1.828,7.625,34.647-10.834,90.163-14.586,102.677q-1.559,5.2-3.278,10.355h-9.564C518.932,584.783,518.829,562.37,523.7,551.927Z" fill="#6a60d1" fill-rule="evenodd"/>
        <path id="Path_204" data-name="Path 204" d="M517.451,604.2h9.564q-2.006,6.042-4.218,12.027c-.518,1.4-1.25,2.991-2.678,3.407-1.825.532-4.256-1.073-3.984-2.933C516.705,612.8,517.118,608.579,517.451,604.2Z" fill="#f4a086"/>
        <path id="Path_205" data-name="Path 205" d="M517.04,560.254c-1.17,3.169-3.056,6.736-6.06,6.841-1.823.063-3.506-1.284-4.547-3a20.588,20.588,0,0,1-2.055-5.772q-3.231-13.026-6.461-26.052c-1.744-7.032-3.5-14.187-3.4-21.5s2.338-14.926,7.316-19.5c6.364-5.851,17.934-5.143,20.2,4.824,3.006,13.2,2.863,27.892.85,41.256a116.223,116.223,0,0,1-5.843,22.9Z" fill="#7368e3" fill-rule="evenodd"/>
        <path id="Path_206" data-name="Path 206" d="M502.968,549.482c5.95-8.522,17.174-3.154,14.685,7.194-3.007,12.5-7.842,24.874-12.7,36.754q-1.926,4.71-4,9.358l-9.315-3C494.833,580.361,496.89,558.187,502.968,549.482Z" fill="#7368e3" fill-rule="evenodd"/>
        <path id="Path_207" data-name="Path 207" d="M491.643,599.784l9.315,3q-2.628,5.93-5.466,11.76c-.64,1.311-1.51,2.783-2.956,2.965-1.85.232-4.1-1.768-3.66-3.58C489.932,609.583,490.824,604.772,491.643,599.784Z" fill="#f7b690"/>
        <path id="Path_208" data-name="Path 208" d="M486.077,619.657a16.238,16.238,0,0,1,1-4.966c.66-1.523,1.112-3.114,2.53-3.977a3.608,3.608,0,0,0,2.082,2.321c.676.14,4.3-1.109,4.9-.769.432.245.073,7.293,1.874,9.018a44.964,44.964,0,0,0,6.116,4.288,6.363,6.363,0,0,1,1.9,1.763,2.515,2.515,0,0,1,.219,2.479,1.777,1.777,0,0,1-.137.186l-14.78-2.45a16.922,16.922,0,0,1-.668-1.744l-2.139-6.319a25.626,25.626,0,0,0-1.9,7.283l-1.651-.274Q485.753,623.076,486.077,619.657Z" fill="#7368e3" fill-rule="evenodd"/>
        <path id="Path_209" data-name="Path 209" d="M524.175,511.776c-4.891-.136-41,3.009-21.009-28.7,2.786-4.418,9.849-4.9,15.031-5.553,7.018-.885,20.69-.817,24.064,5.553C552.786,502.952,529.588,511.927,524.175,511.776Z" fill="#7368e3" fill-rule="evenodd"/>
        <path id="Path_210" data-name="Path 210" d="M530.044,441.6c-1.48-5.17-2.613-11.063-.905-16.324.535-1.644.637-1.906,2.107-1.089a15.028,15.028,0,0,1,3.127,2.766,34.031,34.031,0,0,1,4.8,6.439,62.609,62.609,0,0,1,3.682,7.545l-11.18,5.763Q530.785,444.173,530.044,441.6Z" fill="#fdd247" fill-rule="evenodd"/>
        <path id="Path_211" data-name="Path 211" d="M542.693,440.939c.718,1.713,1.4,3.444,2.068,5.174l11.112,28.525a4.466,4.466,0,0,1,.434,2.8c-.429,1.47-2.318,2.085-3.786,1.65a8.29,8.29,0,0,1-3.6-2.75,90.122,90.122,0,0,1-17.41-29.638Z" fill="#f4a086"/>
        <path id="Path_212" data-name="Path 212" d="M561.973,444.242c-.21-1.014-.671-2.23-1.7-2.346-.978-.11-1.694.871-2.165,1.735-3.981,7.3-9.088,30.978-6.944,34.039,2,2.857,4.437,3,6.31.085C561.285,471.829,562.815,448.306,561.973,444.242Z" fill="#f7b690"/>
        <path id="Path_213" data-name="Path 213" d="M562.578,441.786a7.59,7.59,0,0,0-1.85-6.155,7.742,7.742,0,0,0-4.83-2c-.769-.067-1.743.074-1.979.809-.21.655.325,1.284.6,1.914.627,1.435-.107,3.06-.284,4.616a6.482,6.482,0,0,0,1.461,4.846c.888,1.055,3.386,2.939,4.839,2C561.885,446.939,562.428,443.252,562.578,441.786Z" fill="#f7b690"/>
        <path id="Path_214" data-name="Path 214" d="M510.693,467.72c1.292-12.241-11.854-22.51-10.62-34.757.842-8.355,9.1-14.951,17.5-14.841s16.112,6.214,19.113,14.058a24.325,24.325,0,0,1,1.393,11.747c-.357,2.758-1.183,5.434-1.652,8.175a41.84,41.84,0,0,0,.944,16.85c1.157,4.8,3.645,9.381,4.891,14.123h-39.1C504.3,481.1,510.32,471.253,510.693,467.72Z" fill="#fdd247" fill-rule="evenodd"/>
        <path id="Path_215" data-name="Path 215" d="M514.151,622.81a16.232,16.232,0,0,1,.178-5.063,8.1,8.1,0,0,1,2.242-4.331c.329.809,1.164,1.908,2.037,1.943.689.028,4.107-1.421,4.754-1.184.467.171,1.221,6.806,3.28,8.214a45.133,45.133,0,0,0,6.736,3.23,6.391,6.391,0,0,1,2.161,1.428,2.516,2.516,0,0,1,.621,2.41,1.644,1.644,0,0,1-.1.206H521.073a16.847,16.847,0,0,1-.944-1.612l-3.144-5.883a25.65,25.65,0,0,0-.684,7.5h-1.673Z" fill="#6a60d1" fill-rule="evenodd"/>
        <path id="Path_216" data-name="Path 216" d="M493.619,437.6a19.534,19.534,0,0,1,6.914-10.335,3.113,3.113,0,0,1,2.885-.717,3.243,3.243,0,0,1,1.52,2.372c1.557,6.209.675,12.71-.423,19.048l-12.469-1.952a43.943,43.943,0,0,1,1.573-8.416Z" fill="#fdd247" fill-rule="evenodd"/>
        <path id="Path_217" data-name="Path 217" d="M491.515,450.087c.111-1.354.225-2.713.367-4.067l12.469,1.952q-.158.909-.319,1.814L500.654,468.8c-.423,2.376-.364,5.236-2.5,6.783a4.9,4.9,0,0,1-5.411.3,6.374,6.374,0,0,1-2.54-4.212,18.879,18.879,0,0,1-.038-5.038Z" fill="#f7b690"/>
        <path id="Path_218" data-name="Path 218" d="M498.2,506.867c.045,1.472.076,4.952-1.393,5.066-1.139.088-2.327-2.749-2.582-3.863-1.765-7.724-4.379-33.612-3.949-35.407.71-2.961,7.908-5.258,9.728-1.358C501.852,475.262,497.793,493.479,498.2,506.867Z" fill="#f7b690"/>
        <path id="Path_219" data-name="Path 219" d="M500.2,510.843l1.5,6.784c-.187.468-.94.353-1.24-.052a6.494,6.494,0,0,1-.532-1.409c-.2-.465-.725-.889-1.172-.656s-.407.88-.3,1.374l1.479,6.848a4.251,4.251,0,0,1-5.071-.656,9.035,9.035,0,0,1-2.439-4.85,21.757,21.757,0,0,1-.321-7.631,6.057,6.057,0,0,1,1.745-3.96C496.739,504.227,499.672,508.446,500.2,510.843Z" fill="#f7b690"/>
        <path id="Path_220" data-name="Path 220" d="M528.47,383.932a7.815,7.815,0,0,0-13.582-1.663c-.828,1.146-1.373,2.545-2.507,3.39-1.492,1.111-3.541.945-5.344,1.4a7.811,7.811,0,0,0-5.591,5.78c-1.219,5.588,3.912,11.063,2.847,16.682-.486,2.559-2.2,4.7-3.974,6.6s-3.713,3.743-4.836,6.092-1.243,5.406.487,7.352a8.991,8.991,0,0,0,4.957,2.354,28.5,28.5,0,0,0,6.169.512c4.8,0,4.8-9.88,5.044-17.52.142-4.422,10.376-4.9,11.626-9.145.686-2.327-.094-4.829.142-7.243.229-2.355,1.439-4.018,2.937-5.737a9.951,9.951,0,0,0,2.1-4.919,7.815,7.815,0,0,0-.475-3.935Z" fill="#222b56" fill-rule="evenodd"/>
        <path id="Path_221" data-name="Path 221" d="M522.049,408.542a21.144,21.144,0,0,0,.568,9.323c.273.933.589,2.016.029,2.811a3.08,3.08,0,0,1-2.528.888,14.63,14.63,0,0,1-4.63-.347,4.937,4.937,0,0,1-3.385-2.941,7.341,7.341,0,0,1,.126-3.8l1.536-7.225a4.161,4.161,0,0,1,.8-1.983,2.843,2.843,0,0,1,3.356-.348,8.328,8.328,0,0,1,2.576,2.516Z" fill="#f4a086"/>
        <path id="Path_222" data-name="Path 222" d="M526.622,407.5a14.493,14.493,0,0,0,1.146-5.058,26.324,26.324,0,0,0,.061-7.152,9.107,9.107,0,0,0-3.512-6.038c-2.381-1.633-5.592-1.574-8.327-.649a8.85,8.85,0,0,0-5.6,4.673,12.292,12.292,0,0,0-.646,4.016,14.889,14.889,0,0,0,.375,5.267,9.662,9.662,0,0,0,3.488,4.619,23.1,23.1,0,0,0,5.175,2.758,10.328,10.328,0,0,0,3.253.919C524.291,410.994,525.687,409.372,526.622,407.5Z" fill="#f7b690"/>
        <path id="Path_223" data-name="Path 223" d="M516.914,392.833c-1.007,2.27-.618,5.131-2.2,7.045a4.333,4.333,0,0,1-5.472.869,4.942,4.942,0,0,1-2.149-3.888,7.22,7.22,0,0,1,1.3-4.343,13.641,13.641,0,0,1,3.239-3.255,16.4,16.4,0,0,1,6.342-3.072,10.6,10.6,0,0,1,4.478-.013c1.108.247,3.254.85,3.551,2.162.294,1.3-.847,1.533-1.768,1.278a5.955,5.955,0,0,0-4.053.061,6.114,6.114,0,0,0-3.268,3.156Z" fill="#222b56" fill-rule="evenodd"/>
        <path id="Path_224" data-name="Path 224" d="M511.393,399.376a3.672,3.672,0,0,0-1.365-.263,1.691,1.691,0,0,0-1.24.554,2.02,2.02,0,0,0-.245,1.8,2.933,2.933,0,0,0,3.373,2.317,1.981,1.981,0,0,0,1.477-2.531,2.731,2.731,0,0,0-2-1.877Z" fill="#f7b690"/>
      </g>
      <path id="Path_225" data-name="Path 225" d="M59.116,622.666a8.018,8.018,0,0,1-.527-1.9l-.005-.017h0a7.647,7.647,0,0,1-.037-1.928c.692-6.343,8.563-9.038,14.942-8.857s13.359,1.628,18.7-1.864c6.635-4.338,7.061-13.716,10.592-20.814,6.163-12.39,24.264-16.794,35.431-8.622.015-10.751,8.481-20.882,19.059-22.807s22.069,4.576,25.87,14.633c-.761-9.167,10.18-12.24,17.006-9.408,9.031,3.748,11.633,13.988,14.64,22.219,5.511-6.822,18.59-9.651,16.936,1.827a33.556,33.556,0,0,1-4.755,12.258,11.42,11.42,0,0,1,9.651,5.293c3.349-9.207,16.408-9.522,20.2-.49a8.093,8.093,0,0,1,9.613-9.9c15.23,3.494,10.565,13.95.715,25.914,8.41-7.174,25.518,1.724,26.984,11.277H61Z" fill="#8ed184"/>
      <g id="Group_106" data-name="Group 106">
        <path id="Path_226" data-name="Path 226" d="M901.28,559.488c1.383,2.914,3.266,6.2,6,7.015,1.9.566,7.217-3.018,8.283-4.456s-2.238-70.8-4.622-75.023c-3.2-5.664-28.446,2.159-27.577,11.986,1.112,12.563,4.69,25.928,8.938,38.385a208.426,208.426,0,0,0,8.978,22.093Z" fill="#222b54" fill-rule="evenodd"/>
        <path id="Path_227" data-name="Path 227" d="M886.641,623.876a19.734,19.734,0,0,0,8.467-.667q1.073-4.883,2.147-9.766a2.291,2.291,0,0,0,.057-1.19c-.182-.512-.769-.709-1.336-.814-2.147-.4-5.545-.523-6.4,2.3C888.548,617.117,887.621,620.5,886.641,623.876Z" fill="#f4a086"/>
        <path id="Path_228" data-name="Path 228" d="M915.7,561.252c-1.27-5.764-7.651-17.561-15.352-7.563-11.744,15.247-7,41.867-11.833,60.281h9.457C898.951,612.187,916.4,564.449,915.7,561.252Z" fill="#222b54" fill-rule="evenodd"/>
        <path id="Path_229" data-name="Path 229" d="M869.061,503.913c2.3,1.814,5.347,2.091,8.2,2.091,23.505,0,37.106-7.644,33.855-18.441-3.339-11.091-24.374-9.3-35.361-5.727-2.368.771-5.819,1.517-7.438,3.728C865.974,488.77,863.468,499.507,869.061,503.913Z" fill="#0a3c5f" fill-rule="evenodd"/>
        <path id="Path_230" data-name="Path 230" d="M919.374,420.972c10.314,3.309,21.377,5.458,31.959,3.151,2.281-.5,4.85-1.518,5.487-3.764.372-1.313.245-3.053-.852-3.864-5.391-3.985-43.9-13.559-49.747-8.606-3.865,3.273,2.095,8.088,4.714,9.579a44.231,44.231,0,0,0,8.439,3.5Z" fill="#f7b690"/>
        <path id="Path_231" data-name="Path 231" d="M907.435,417.052c-6.035-3.264-6.386-9.047.031-11.214,6.179-2.087,17.111,1.157,28.078,3.939l-5.192,15.7C921.572,423.377,915.505,421.415,907.435,417.052Z" fill="#ad2b5e"/>
        <path id="Path_232" data-name="Path 232" d="M859.838,559.488c.339,2.914,1.046,6.2,3.486,7.015,1.692.566,8.3-3.018,9.879-4.456s21.58-59.63,20.707-63.853a13.056,13.056,0,0,0-10.928-10.178c-7.516-1.227-16.759,1.167-19.408,10.994-3.386,12.563-4.594,25.928-4.806,38.385A166.259,166.259,0,0,0,859.838,559.488Z" fill="#0a3c5f" fill-rule="evenodd"/>
        <path id="Path_233" data-name="Path 233" d="M963.316,386.53c1.034-1.241,2.341-2.6,3.949-2.446a3.377,3.377,0,0,1,2.7,2.716c.309,1.328-8.842,31.37-14.85,35.806-3.023,2.233-6.158,1.045-8.291-1.559C943.855,417.423,959.553,391.051,963.316,386.53Z" fill="#f7b690"/>
        <path id="Path_234" data-name="Path 234" d="M920.961,416.076c2,3.542.562,8.59-.495,12.686-2.259,8.763-6.221,17.253-8.96,25.95s-4.229,17.92-1.453,26.126a11.543,11.543,0,0,1,.942,3.947,3.97,3.97,0,0,1-2.272,3.544,6.788,6.788,0,0,1-2.726.361l-37.009-.24a4.263,4.263,0,0,1-2.317-.445c-1.379-.924-.64-2.933.064-4.47,4.715-10.284,2.916-21.357.848-31.726-2.052-10.289-4.564-23-1.581-33.757,4.953-5.319,15.245-17.664,32.906-17.664C911.3,400.388,919.169,412.9,920.961,416.076Z" fill="#cc346f"/>
        <path id="Path_235" data-name="Path 235" d="M861.844,439.3a50.866,50.866,0,0,1,15.02-24.691c1.306-1.178,3.076-2.359,4.694-1.669a3.272,3.272,0,0,1,1.733,2.177,9.185,9.185,0,0,1,.2,2.859c-.446,11.18-2.477,22.23-4.5,33.234a40.283,40.283,0,0,1-2.719,9.918,13.561,13.561,0,0,1-7.078,7.148c-1.683.638-4.436,1.013-5.987-.2-1.248-.975-1.454-3.456-1.77-4.867a51.1,51.1,0,0,1-1.053-15.3,50.223,50.223,0,0,1,1.46-8.609Z" fill="#f4a086"/>
        <path id="Path_236" data-name="Path 236" d="M859.036,442.85a.811.811,0,0,0-.027.209C859.016,442.99,859.028,442.92,859.036,442.85Z" fill="#18898d" fill-rule="evenodd"/>
        <path id="Path_237" data-name="Path 237" d="M883.8,412.526c-.093-1.787-.439-3.894-2.049-4.673-1.7-.823-4.855.728-6.294,1.949-8.718,7.4-13.568,17.5-15.771,28.718l21.98,1.22a105.5,105.5,0,0,0,2.134-27.214Z" fill="#cc346f"/>
        <path id="Path_238" data-name="Path 238" d="M891.439,434.47c1.743-.168,3.289,1.388,3.679,3.1s-19.78,28.789-24.657,32.535c-1.484,1.14-3.278,2.338-5.081,1.838-1.611-.446-2.562-2.093-3.137-3.663a17.2,17.2,0,0,1-1.063-8.75c.386-1.931,2.14-2.531,3.552-3.637C869.924,451.824,890.323,434.577,891.439,434.47Z" fill="#f7b690"/>
        <path id="Path_239" data-name="Path 239" d="M896.908,415.306c.516-.473,1.257-.947,1.863-.6a1.228,1.228,0,0,1,.51,1.165,5.6,5.6,0,0,1-.352,1.291c-.711,2.194-.266,4.566-.124,6.868a25.738,25.738,0,0,1-3.645,14.806c-2.285,3.773-6.235-2.27-6.069-4.917a31.5,31.5,0,0,1,3.286-12.8,22.382,22.382,0,0,1,4.531-5.813Z" fill="#f7b690"/>
        <g id="Group_104" data-name="Group 104">
          <path id="Path_240" data-name="Path 240" d="M903.871,388.006c-1.21-5.34-5.25-6.591-7.6-5.309-1.5,9.994-3.039,14.436-6.957,19.888,4.87,3.122,13.186,2.541,14.983,0C904.369,401.784,904.5,390.766,903.871,388.006Z" fill="#f4a086"/>
          <g id="Group_103" data-name="Group 103">
            <path id="Path_241" data-name="Path 241" d="M912.18,380.523c-.313,1.1-1.1,1.041-1.363-.067-.825-3.544-.85-4.127-3.283-6.851-1.339-1.5-1.66-1.57-1.018-2.372C908.641,368.575,914.771,371.388,912.18,380.523Z" fill="#222b56" fill-rule="evenodd"/>
            <path id="Path_242" data-name="Path 242" d="M894.939,375.678a8.315,8.315,0,0,1,13.916-1.77c3.736,4.352,3.94,15.61,2.457,18.363-2.593,4.813-11.459,2.476-13.3-.117C895.308,388.357,892.935,380.2,894.939,375.678Z" fill="#f7b690"/>
            <path id="Path_243" data-name="Path 243" d="M897.2,376.618c.437.745,1.405,11.937,1.078,11.894-1.165-.152-3.3-2.793-5.254-2.149-.623.206-1.384.851-1.749-.41-2.309-7.985-2.515-7.491-1.282-8.611C892.714,374.874,896.424,375.289,897.2,376.618Z" fill="#222b56" fill-rule="evenodd"/>
            <path id="Path_244" data-name="Path 244" d="M890.346,372.694c5.314-6.355,10.414-5.765,14.013-4.77,5.358,1.479,5.947,6.217,4.325,7.112-.74.408-1.636-.022-2.434-.3-3.789-1.325-6.209,1.115-8.5,2.2C893.7,378.871,885.818,378.11,890.346,372.694Z" fill="#222b56" fill-rule="evenodd"/>
            <path id="Path_245" data-name="Path 245" d="M890.956,385.6a5.262,5.262,0,0,0,2.082,3.346c3.125,2.257,4.437-2.28,3.24-4.564C894.851,381.663,890.345,381.991,890.956,385.6Z" fill="#f7b690"/>
          </g>
          <path id="Path_246" data-name="Path 246" d="M889.612,380.363a.632.632,0,0,1-.838-.319c-2.209-5.79-2.513-10.972,7.021-14.775,9.33-3.721,13.019.358,15.42,6.284h0l7.58-1.53c.244,1.948-2.114,2.84-4.106,3.635L904.3,377.8a23.352,23.352,0,0,1-11.911,1.454Z" fill="#fe9e43"/>
        </g>
        <path id="Path_247" data-name="Path 247" d="M913.977,628.659c.121-1.353-1.163-2.474-2.484-2.789a18.4,18.4,0,0,0-4.061-.091,10.967,10.967,0,0,1-9.415-5.811,2.775,2.775,0,0,0-.945-1.257,1.824,1.824,0,0,0-1.968.362c-.549.45-.936,1.064-1.437,1.566a4.824,4.824,0,0,1-3.447,1.38c-1.062-.016-2.252-.828-3.273-.291-.9.474-1.144,1.722-1.373,2.611-.393,1.533-.75,3.076-1.125,4.614a6.523,6.523,0,0,0-.19,1.047h7.383a10.386,10.386,0,0,0,.77-2.472,5.818,5.818,0,0,0,.639,2.472H913.34a2.286,2.286,0,0,0,.637-1.341Z" fill="#0a3c5f" fill-rule="evenodd"/>
        <g id="Group_105" data-name="Group 105">
          <path id="Path_248" data-name="Path 248" d="M796.158,567.309a18.489,18.489,0,0,0,2.719,7.851l9.315-2.987a2.463,2.463,0,0,0,1.084-.563,2.213,2.213,0,0,0,.4-1.715c-.18-2.285-.919-5.639-3.672-5.005C802.71,565.649,799.438,566.506,796.158,567.309Z" fill="#f4a086"/>
          <path id="Path_249" data-name="Path 249" d="M870.427,565.431c5.01-3.6,7.2-13.291-4.285-15.43-18.491-3.444-41.928,7.639-60.61,13.99l2.368,9.155C809.8,573.363,867.642,567.433,870.427,565.431Z" fill="#0a3c5f" fill-rule="evenodd"/>
          <path id="Path_250" data-name="Path 250" d="M794.524,580.091a3.172,3.172,0,0,0,2.426-1.756c.16-.641,2.128-2.086,5.041-4.082,1.332-.913.975-3.986-1.939-4.813-.945-.269-1.593-.577-1.715-1.121-.1-.457.553-1.166-.079-1.466a6.28,6.28,0,0,0-2.679.07c-1.527.216-3.061.451-4.59.676-.339.05-.693.1-1.035.182l3.2,12.375a4,4,0,0,0,1.37-.065Z" fill="#0a3c5f" fill-rule="evenodd"/>
        </g>
        <path id="Path_251" data-name="Path 251" d="M975.056,368.939c-.4-1.867-.75-1.839-2.725.347-1.883,2.084-1.179,5.412-6.514,9.152-.115-.3.352-3.106.235-3.4-.2-.5-.539-1.1-1.078-1.055-.458.041-.718.533-.879.964-2.08,5.565-1.05,9.684-1.233,12.2-.321,4.4,6.4,1.757,7.795-.5C974.448,380.524,976.574,376,975.056,368.939Z" fill="#f7b690"/>
      </g>
      <g id="Group_107" data-name="Group 107">
        <rect id="Rectangle_87" data-name="Rectangle 87" width="5.997" height="145.709" transform="translate(244.407 483.075)" fill="#bccace"/>
        <rect id="Rectangle_88" data-name="Rectangle 88" width="94.955" height="58.495" rx="6.53" transform="translate(199.928 497.021)" fill="#fe4757"/>
        <path id="Path_252" data-name="Path 252" d="M225.026,525.13c-2.353-.911-3.39-1.7-3.39-3.289,0-1.164.885-2.556,3.213-2.556a6.8,6.8,0,0,1,3.238.81l.607-1.8a7.749,7.749,0,0,0-3.77-.835c-3.313,0-5.514,1.974-5.514,4.63,0,2.4,1.719,3.846,4.5,4.832,2.3.886,3.212,1.8,3.212,3.391,0,1.719-1.315,2.909-3.567,2.909a7.787,7.787,0,0,1-3.946-1.114l-.557,1.847a8.8,8.8,0,0,0,4.352,1.088c4.022,0,5.97-2.277,5.97-4.908C229.377,527.635,227.91,526.243,225.026,525.13Zm14.27-7.666c-4.553,0-7.918,3.542-7.918,8.956,0,5.161,3.162,8.652,7.665,8.652,4.352,0,7.919-3.111,7.919-8.981,0-5.06-3.01-8.627-7.662-8.627Zm-.126,15.813c-3.465,0-5.439-3.264-5.439-6.908,0-3.744,1.821-7.108,5.465-7.108,3.668,0,5.438,3.541,5.438,6.932C244.634,530.064,242.662,533.277,239.17,533.277Zm12.855-15.535h-2.2v17.052h9.487v-1.847h-7.286Zm21.328,2c-1.493-1.391-3.744-2.125-6.906-2.125a31.592,31.592,0,0,0-4.681.354v16.773a35.406,35.406,0,0,0,4,.2c3.315,0,5.945-.859,7.539-2.453a9.018,9.018,0,0,0,2.454-6.629,7.854,7.854,0,0,0-2.406-6.121Zm-7.16,13.434a13.8,13.8,0,0,1-2.226-.127v-13.46a12.536,12.536,0,0,1,2.58-.228c4.656,0,6.932,2.556,6.908,6.579,0,4.6-2.555,7.235-7.262,7.235Z" fill="#fff"/>
      </g>
    </g>
  </g>
</svg>
