<?xml version="1.0" encoding="UTF-8"?>
<svg id="Layer_1" data-name="Layer 1" xmlns="http://www.w3.org/2000/svg" viewBox="0 0 90 90">
  <defs>
    <style>
      .cls-1 {
        fill: #fff;
      }
    </style>
  </defs>
  <path class="cls-1" d="M45.7,22.54l32.51-.04c1.69.23,2.92,1.33,3.08,3.07l-.12,53.36c-.46,1.46-1.61,2.62-3.07,3.07-10.71.12-21.54.32-32.22-.1-1.19-.36-2.38-1.54-2.74-2.74-.5-17.76-.06-35.63-.22-53.43.16-1.8,1.09-2.71,2.79-3.19ZM79.12,26.98h-14.28v5.15h14.03l.25-.25v-4.9ZM79.29,51.89v-15.86l-.25-.25h-33.13v16.02l.25.25h32.71c.05,0,.25-.22.42-.17ZM46.12,61.48c.26.19.56.19.87.21,1.13.09,3.76.14,4.83,0,.33-.04.68-.19.82-.51.15-.34.17-3.54.1-4.07-.04-.33-.19-.68-.51-.82-.42-.18-4.51-.15-5.23-.09-.3.03-.61.02-.87.21-.32.32-.33,4.74,0,5.07ZM55.25,61.48c.26.19.56.19.87.21,1.13.09,3.76.14,4.83,0,.33-.04.68-.19.82-.51.15-.34.17-3.54.1-4.07-.04-.33-.19-.68-.51-.82-.42-.18-4.51-.15-5.23-.09-.3.03-.61.02-.87.21-.32.32-.33,4.74,0,5.07ZM64.38,61.48c.26.19.56.19.87.21,1.13.09,3.76.14,4.83,0,.33-.04.68-.19.82-.51.15-.34.17-3.54.1-4.07-.04-.33-.19-.68-.51-.82-.42-.18-4.51-.15-5.23-.09-.3.03-.61.02-.87.21-.32.32-.33,4.74,0,5.07ZM73.19,56.41c-.29.29-.27,3.59-.22,4.21s.22.99.91,1.08c.55.07,3.91.05,4.18-.16.2-.16.21-.36.24-.59.07-.57.05-4.24-.16-4.51s-.47-.22-.75-.24c-.61-.06-3.92-.07-4.2.22ZM52.52,69.12c.29-.29.31-4.33.12-4.77-.14-.32-.49-.47-.82-.51-.61-.08-5.05-.06-5.4.1-.1.04-.29.22-.35.32-.26.44-.27,4.55.05,4.87.85.28,6.02.38,6.4,0ZM55.66,63.88c-.15.04-.38.24-.46.37-.24.4-.23,3.52-.16,4.16.03.26.1.69.33.83.26.15,5.63.15,5.98,0,.32-.14.47-.49.51-.82.07-.54.06-3.73-.1-4.07-.14-.32-.49-.47-.82-.51-.66-.09-4.79-.1-5.29.04ZM64.8,63.88c-.38.11-.58.51-.62.87-.1.74-.1,3.09,0,3.84.07.55.2.68.75.75.62.08,5.22.06,5.57-.09.32-.14.47-.49.51-.82.07-.54.06-3.73-.1-4.07-.14-.32-.49-.47-.82-.51-.66-.09-4.79-.1-5.29.04ZM73.93,63.88c-.61.14-.88.81-.95,1.37l.04,10.76c.31,1.39,2.89,1.26,3.99,1.07.58-.1,1.22-.39,1.27-1.05l-.02-11.41c-.3-1.03-3.48-.94-4.33-.75ZM46.7,71.52c-.36.08-.71.34-.78.72-.11.58-.1,3.36-.01,3.99.11.79.71.85,1.41.91.83.08,4.7.13,5.15-.34.24-.25.23-.59.26-.9.07-.81.1-2.73,0-3.5-.09-.64-.47-.84-1.08-.91-.86-.1-4.19-.13-4.95.04ZM55.83,71.52c-.36.08-.71.34-.78.72-.11.58-.1,3.36-.01,3.99.11.79.71.85,1.41.91.83.08,4.7.13,5.15-.34.24-.25.23-.59.26-.9.07-.81.1-2.73,0-3.5-.09-.64-.47-.84-1.08-.91-.86-.1-4.19-.13-4.95.04ZM64.96,71.52c-.36.08-.71.34-.78.72-.11.58-.1,3.36-.01,3.99.11.79.71.85,1.41.91.83.08,4.7.13,5.15-.34.24-.25.23-.59.26-.9.07-.81.1-2.73,0-3.5-.09-.64-.47-.84-1.08-.91-.86-.1-4.19-.13-4.95.04Z"/>
  <path class="cls-1" d="M56.71,19.51h-10.21c-.21,0-2.86-1.85-3.62-2.19-14.63-6.48-30.21,6.8-26.06,22.24,2.65,9.86,13.04,15.97,22.96,13.32v7.8c-6.92,1.3-14.33-.38-20.05-4.45-11.82-8.39-14.77-24.78-6.49-36.79,9.84-14.27,30.49-15.27,41.9-2.27.58.66,1.33,1.48,1.58,2.33Z"/>
  <path class="cls-1" d="M33.63,36.2s.18-.13.17-.25c-2.33-.64-5.09-2-5.32-4.73-.31-3.61,2.06-5.77,5.41-6.39.04-1.36.03-3.13,1.81-3.18s2.03,1.69,1.93,3.15l2.28.62-.15,3.06-2.32-.5v5.65l2.3.94v9.33s-2.61.7-2.61.7c.19,1.54-.69,3.21-2.43,2.65-1.62-.53-1.05-2.52-1.4-2.76-1.49-.19-6.74-1.2-4.99-3.65,1.13-1.58,3.78.86,5.32.42.07-1.67-.1-3.39,0-5.06ZM33.79,32.46v-3.9c0-.07.44-.5-.08-.42-2.69.44-2.65,3.91.08,4.32ZM37.28,37.11v3.57c0,.08-.26.35-.17.58,3.05-.17,3.42-3.76.17-4.15Z"/>
</svg>