<?xml version="1.0" encoding="UTF-8"?>
<svg id="Layer_1" xmlns="http://www.w3.org/2000/svg" version="1.1" viewBox="0 0 54 54">
  <!-- Generator: Adobe Illustrator 29.1.0, SVG Export Plug-In . SVG Version: 2.1.0 Build 142)  -->
  <defs>
    <style>
      .st0 {
        fill: #fff;
      }
    </style>
  </defs>
  <path class="st0" d="M43.7,39c-2.6,0-4.7,2.1-4.7,4.7s2.1,4.7,4.7,4.7,4.7-2.1,4.7-4.7-2.1-4.7-4.7-4.7ZM45.3,45.4c-.1.1-.3.2-.4.2s-.3,0-.5-.2l-1.1-1.2c-.1-.1-.2-.3-.2-.4v-3.1c0-.3.3-.6.6-.6h0c.3,0,.6.3.6.6v2.8s1,1,1,1c.2.3.2.6,0,.9h0ZM43.7,37.8c.4,0,.8,0,1.1.1v-5.9h-20.3v13.9c0,.5.4,1,1,1h13.1c-.6-.9-.9-2-.9-3.2,0-3.3,2.7-6,6-6ZM40.5,34.1h2.2v2.2h-2.2v-2.2ZM35.8,43h-2.2v-2.2h2.2v2.2ZM33.6,34.1h2.2v2.2h-2.2v-2.2ZM29,43h-2.2v-2.2h2.2v2.2ZM26.8,34.1h2.2v2.2h-2.2v-2.2ZM40,29.1c-.3,0-.5-.2-.5-.5v-1.7c0-.3.2-.5.5-.5s.5.2.5.5v1.7c0,.2-.2.5-.5.5ZM29.4,29.1c-.3,0-.5-.2-.5-.5v-1.7c0-.3.2-.5.5-.5s.5.2.5.5v1.7c0,.3-.2.5-.5.5ZM41.7,28.2h2.1c.5,0,1,.4,1,1v1.6h-20.3v-1.6c0-.5.4-1,1-1h2.1v.5c0,.9.8,1.7,1.7,1.7s1.7-.8,1.7-1.7v-.5h7.2v.5c0,.9.8,1.7,1.7,1.7s1.7-.8,1.7-1.7v-.5ZM25.6,26.9c-1.2,0-2.2,1-2.2,2.2v10.3h-4.1v-17.2h9.6v3.1c-.6.2-1.1.9-1.1,1.6h-2.1ZM29.4,21.1h-10.8c-.3,0-.6.3-.6.6v17.8h-9.3v-19l15.4-10.1,9.2,6.1,6.1,4.1v4.9c-.6.2-1.1.9-1.1,1.6h-7.2c0-.7-.5-1.3-1.1-1.6v-3.7c0-.3-.3-.6-.6-.6h0ZM23.7,9L5.5,21v-3.3l9.3-6.1,9.2-6.1,9.2,6.1,9.3,6.1v3.3l-2.2-1.4s0,0,0,0l-6.4-4.2-9.6-6.3c-.2-.1-.5-.1-.7,0h0Z"/>
</svg>