<?xml version="1.0" encoding="UTF-8"?>
<svg id="Layer_1" xmlns="http://www.w3.org/2000/svg" version="1.1" viewBox="0 0 54 54">
  <!-- Generator: Adobe Illustrator 29.1.0, SVG Export Plug-In . SVG Version: 2.1.0 Build 142)  -->
  <defs>
    <style>
      .st0 {
        fill: #fff;
      }
    </style>
  </defs>
  <g id="shipping_cost">
    <path class="st0" d="M31.1,10.8l2.3,2.3v-6.1h-5.7v6.1l2.3-2.3c.3-.3.7-.3,1,0Z"/>
    <path class="st0" d="M17,7h-2.1c-.4,0-.7.3-.7.7v2.1h2.9v-2.9Z"/>
    <path class="st0" d="M46.2,7h-2.1v2.9h2.9v-2.1c0-.4-.3-.7-.7-.7Z"/>
    <path class="st0" d="M42.7,10.6v-3.6h-7.8v7.8c0,.3-.2.5-.4.7,0,0-.2,0-.3,0-.2,0-.4,0-.5-.2l-3.1-3.1-3.1,3.1c-.3.3-.7.3-1,0-.1-.1-.2-.3-.2-.5v-7.8h-7.8v3.6c0,.4-.3.7-.7.7h-3.6v8.6h10.7c1.2,0,2.1,1,2.1,2.1v17.8h15.7v-3.6c0-.4.3-.7.7-.7h3.6V11.3h-3.6c-.4,0-.7-.3-.7-.7ZM44.8,32.7c0,.4-.3.7-.7.7h-7.8v1.4c0,.4-.3.7-.7.7-.2,0-.3,0-.4-.1l-5.7-4.3c-.3-.2-.4-.7-.1-1,0,0,0-.1.1-.1l5.7-4.3c.3-.2.8-.2,1,.1,0,.1.1.3.1.4v1.4h7.8c.4,0,.7.3.7.7v4.3ZM44.8,20.6c0,.2-.1.4-.3.6l-5.7,4.3c-.1,0-.3.1-.4.1-.4,0-.7-.3-.7-.7v-1.4h-7.8c-.4,0-.7-.3-.7-.7v-4.3c0-.4.3-.7.7-.7h7.8v-1.4c0-.4.3-.7.7-.7.2,0,.3,0,.4.1l5.7,4.3c.2.1.3.3.3.6Z"/>
    <path class="st0" d="M44.1,39.8h2.1c.4,0,.7-.3.7-.7v-2.1h-2.9v2.9Z"/>
    <path class="st0" d="M24.9,21.3H7.8c-.4,0-.7.3-.7.7v24.2c0,.4.3.7.7.7h17.1c.4,0,.7-.3.7-.7v-24.2c0-.4-.3-.7-.7-.7ZM13.5,43.7c0,1-.8,1.8-1.8,1.8h-1.4c-1,0-1.8-.8-1.8-1.8v-1.4c0-1,.8-1.8,1.8-1.8h1.4c1,0,1.8.8,1.8,1.8v1.4ZM13.5,37.3c0,1-.8,1.8-1.8,1.8h-1.4c-1,0-1.8-.8-1.8-1.8v-1.4c0-1,.8-1.8,1.8-1.8h1.4c1,0,1.8.8,1.8,1.8v1.4ZM19.2,43.7c0,1-.8,1.8-1.8,1.8h-1.4c-1,0-1.8-.8-1.8-1.8v-1.4c0-1,.8-1.8,1.8-1.8h1.4c1,0,1.8.8,1.8,1.8v1.4ZM19.2,37.3c0,1-.8,1.8-1.8,1.8h-1.4c-1,0-1.8-.8-1.8-1.8v-1.4c0-1,.8-1.8,1.8-1.8h1.4c1,0,1.8.8,1.8,1.8v1.4ZM24.1,44.8c0,.4-.3.7-.7.7h-2.9c-.4,0-.7-.3-.7-.7v-5c0-.4.3-.7.7-.7h2.9c.4,0,.7.3.7.7v5ZM24.1,37c0,.4-.3.7-.7.7h-2.9c-.4,0-.7-.3-.7-.7v-2.1c0-.4.3-.7.7-.7h2.9c.4,0,.7.3.7.7v2.1ZM24.1,29.1c0,2-1.6,3.6-3.6,3.6h-8.6c-2,0-3.6-1.6-3.6-3.6v-2.9c0-2,1.6-3.6,3.6-3.6h8.6c2,0,3.6,1.6,3.6,3.6v2.9Z"/>
    <path class="st0" d="M20.6,24.1h-8.6c-1.2,0-2.1,1-2.1,2.1v2.9c0,1.2,1,2.1,2.1,2.1h8.6c1.2,0,2.1-1,2.1-2.1v-2.9c0-1.2-1-2.1-2.1-2.1ZM21.3,29.1c0,.8-.6,1.4-1.4,1.4h-1.4c-.8,0-1.4-.6-1.4-1.4v-2.9c0-.8.6-1.4,1.4-1.4h1.4c.8,0,1.4.6,1.4,1.4v2.9Z"/>
    <rect class="st0" x="9.9" y="35.6" width="2.1" height="2.1" rx=".4" ry=".4"/>
    <rect class="st0" x="9.9" y="42" width="2.1" height="2.1" rx=".4" ry=".4"/>
    <rect class="st0" x="15.6" y="35.6" width="2.1" height="2.1" rx=".4" ry=".4"/>
    <rect class="st0" x="15.6" y="42" width="2.1" height="2.1" rx=".4" ry=".4"/>
    <path class="st0" d="M21.3,40.5h1.4v3.6h-1.4v-3.6Z"/>
    <path class="st0" d="M18.4,26.3h1.4v2.9h-1.4v-2.9Z"/>
    <path class="st0" d="M21.3,35.6h1.4v.7h-1.4v-.7Z"/>
    <path class="st0" d="M30.6,19.2v2.9h7.8c.4,0,.7.3.7.7v.7l3.8-2.9-3.8-2.9v.7c0,.4-.3.7-.7.7h-7.8Z"/>
    <path class="st0" d="M34.8,28.4v-.7l-3.8,2.9,3.8,2.9v-.7c0-.4.3-.7.7-.7h7.8v-2.9h-7.8c-.4,0-.7-.3-.7-.7Z"/>
  </g>
</svg>