<?xml version="1.0" encoding="utf-8"?>
<!-- Generator: Adobe Illustrator 28.2.0, SVG Export Plug-In . SVG Version: 6.00 Build 0)  -->
<svg version="1.1" id="Layer_2_00000011731735071449329800000005699848152023809428_"
	 xmlns="http://www.w3.org/2000/svg" xmlns:xlink="http://www.w3.org/1999/xlink" x="0px" y="0px" viewBox="0 0 100 100"
	 style="enable-background:new 0 0 100 100;" xml:space="preserve">
<style type="text/css">
	.st0{fill:#84DBFF;}
	.st1{fill:#FFD15C;}
	.st2{fill:#FF7058;}
	.st3{fill:#4CDBC4;}
</style>
<path class="st0" d="M12.8,85.2c0,5.4,4.4,9.8,9.8,9.8h54.8c5.4,0,9.8-4.4,9.8-9.8V14.8c0-5.4-4.4-9.8-9.8-9.8H38.3
	c-0.1,0-0.2,0-0.2,0c-0.1,0-0.2,0-0.2,0c-0.3,0.1-0.6,0.2-0.9,0.5L13.4,29.1c-0.2,0.2-0.4,0.6-0.5,0.9c0,0.1,0,0.2,0,0.2
	c0,0.1,0,0.2-0.1,0.3V85.2z M83.3,14.8v70.4c0,3.2-2.6,5.9-5.9,5.9H22.6c-3.2,0-5.9-2.6-5.9-5.9V32.4h13.7c5.4,0,9.8-4.4,9.8-9.8
	V8.9h37.2C80.6,8.9,83.3,11.5,83.3,14.8z M36.3,11.7v10.9c0,3.2-2.6,5.9-5.9,5.9H19.5L36.3,11.7z"/>
<path class="st1" d="M39.6,40.8c-0.8-0.8-2-0.7-2.8,0c-0.7,0.8-0.7,2,0,2.7l7.8,7.8c0.8,0.8,2,0.8,2.8,0l15.7-15.7
	c0.8-0.8,0.7-2,0-2.8c-0.8-0.7-2-0.7-2.7,0L46.1,47.2L39.6,40.8z"/>
<path class="st2" d="M32.4,61.7c0,1.1,0.9,2,2,2h31.3c1.1,0,2-0.9,2-2c0-1.1-0.9-2-2-2H34.3C33.3,59.8,32.4,60.7,32.4,61.7z"/>
<path class="st3" d="M42.2,71.5h-7.8c-1.1,0-2,0.9-2,2c0,1.1,0.9,2,2,2h7.8c1.1,0,2-0.9,2-2C44.1,72.4,43.3,71.5,42.2,71.5z"/>
<path class="st3" d="M65.7,71.5H50c-1.1,0-2,0.9-2,2c0,1.1,0.9,2,2,2h15.7c1.1,0,2-0.9,2-2C67.6,72.4,66.7,71.5,65.7,71.5z"/>
</svg>
