<?xml version="1.0" encoding="utf-8"?>
<!-- Generator: Adobe Illustrator 28.2.0, SVG Export Plug-In . SVG Version: 6.00 Build 0)  -->
<svg version="1.1" id="Layer_1" xmlns="http://www.w3.org/2000/svg" xmlns:xlink="http://www.w3.org/1999/xlink" x="0px" y="0px"
	 viewBox="0 0 100 100" style="enable-background:new 0 0 100 100;" xml:space="preserve">
<style type="text/css">
	.st0{fill:#352445;}
	.st1{fill:#D0B2B3;}
	.st2{fill:#B4B8BD;}
	.st3{opacity:0.5;}
	.st4{fill:#FFFFFF;}
	.st5{opacity:0.75;}
	.st6{fill:#969495;}
	.st7{fill:#FEBD3C;}
	.st8{opacity:0.3;}
	.st9{fill:#E1E2EE;}
	.st10{fill:#1D1D1B;}
	.st11{fill:#FFDA96;}
	.st12{fill:none;stroke:#352445;stroke-width:30.6591;stroke-miterlimit:10;}
</style>
<g>
	<g>
		<path class="st0" d="M50.2,93.1c-0.4,0-0.7-0.3-0.7-0.7V80.8c0-0.4,0.3-0.7,0.7-0.7c0.4,0,0.7,0.3,0.7,0.7v11.7
			C50.9,92.8,50.6,93.1,50.2,93.1z"/>
	</g>
	<g>
		<path class="st0" d="M18.8,80.3c-0.2,0-0.3-0.1-0.5-0.2c-0.3-0.3-0.3-0.7,0-0.9l8.3-8.3c0.3-0.3,0.7-0.3,0.9,0
			c0.3,0.3,0.3,0.7,0,0.9l-8.3,8.3C19.2,80.2,19,80.3,18.8,80.3z"/>
	</g>
	<g>
		<path class="st0" d="M17.4,49H5.7C5.3,49,5,48.7,5,48.4c0-0.4,0.3-0.7,0.7-0.7h11.7c0.4,0,0.7,0.3,0.7,0.7
			C18,48.7,17.7,49,17.4,49z"/>
	</g>
	<g>
		<path class="st0" d="M26.7,25.9c-0.2,0-0.3-0.1-0.5-0.2L18,17.4c-0.3-0.3-0.3-0.7,0-0.9c0.3-0.3,0.7-0.3,0.9,0l8.3,8.3
			c0.3,0.3,0.3,0.7,0,0.9C27.1,25.8,26.9,25.9,26.7,25.9z"/>
	</g>
	<g>
		<path class="st0" d="M72.9,25.5c-0.2,0-0.3-0.1-0.5-0.2c-0.3-0.3-0.3-0.7,0-0.9l8.3-8.3c0.3-0.3,0.7-0.3,0.9,0
			c0.3,0.3,0.3,0.7,0,0.9l-8.3,8.3C73.3,25.5,73.1,25.5,72.9,25.5z"/>
	</g>
	<g>
		<path class="st0" d="M94.3,48.5H82.6c-0.4,0-0.7-0.3-0.7-0.7c0-0.4,0.3-0.7,0.7-0.7h11.7c0.4,0,0.7,0.3,0.7,0.7
			C95,48.2,94.7,48.5,94.3,48.5z"/>
	</g>
	<g>
		<path class="st0" d="M81.5,80c-0.2,0-0.3-0.1-0.5-0.2l-8.3-8.3c-0.3-0.3-0.3-0.7,0-0.9c0.3-0.3,0.7-0.3,0.9,0l8.3,8.3
			c0.3,0.3,0.3,0.7,0,0.9C81.9,79.9,81.7,80,81.5,80z"/>
	</g>
	<g>
		<g>
			<path class="st1" d="M50.1,25.5"/>
		</g>
		<g>
			<g>
				<path class="st2" d="M63.7,23.8H36.5c-1.3,0-2.3,1-2.3,2.3v0c0,1.3,1,2.3,2.3,2.3h27.1c1.3,0,2.3-1,2.3-2.3v0
					C66,24.8,64.9,23.8,63.7,23.8z"/>
			</g>
			<g class="st3">
				<g>
					<path class="st4" d="M63.7,28.4H36.5c-0.6,0-1.2-0.3-1.6-0.7c-0.4-0.4-0.7-1-0.7-1.6c0-0.2,0-0.3,0-0.5
						c0.1,0.5,0.3,0.9,0.6,1.2c0.4,0.4,1,0.7,1.6,0.7h1v-2.8h1.8v2.8h0.6v-2.8h0.7v2.8h23.1c1.1,0,2.1-0.8,2.3-1.9
						c0,0.1,0,0.3,0,0.5C66,27.4,64.9,28.4,63.7,28.4z"/>
				</g>
			</g>
			<g class="st5">
				<g>
					<path class="st6" d="M58.4,27.5v-2.8H36.5c-1.1,0-2.1,0.8-2.3,1.9c0-0.1,0-0.3,0-0.5c0-1.3,1-2.3,2.3-2.3h21.9h5.2h0v0v0.9v2.8
						H58.4z"/>
				</g>
			</g>
			<g>
				<path class="st0" d="M63.7,29H36.5c-1.6,0-2.9-1.3-2.9-2.9s1.3-2.9,2.9-2.9h27.1c1.6,0,2.9,1.3,2.9,2.9S65.3,29,63.7,29z
					 M36.5,24.4c-0.9,0-1.7,0.8-1.7,1.7c0,0.9,0.8,1.7,1.7,1.7h27.1c0.9,0,1.7-0.8,1.7-1.7c0-0.9-0.8-1.7-1.7-1.7H36.5z"/>
			</g>
		</g>
		<g>
			<g>
				<path class="st2" d="M63.7,19.2H36.5c-1.3,0-2.3,1-2.3,2.3v0c0,1.3,1,2.3,2.3,2.3h27.1c1.3,0,2.3-1,2.3-2.3v0
					C66,20.2,64.9,19.2,63.7,19.2z"/>
			</g>
			<g class="st3">
				<g>
					<path class="st4" d="M63.7,23.8H36.5c-0.6,0-1.2-0.3-1.6-0.7c-0.4-0.4-0.7-1-0.7-1.6c0-0.2,0-0.3,0-0.5
						c0.1,0.5,0.3,0.9,0.6,1.2c0.4,0.4,1,0.7,1.6,0.7h1v-2.8h1.8v2.8h0.6v-2.8h0.7v2.8h23.1c1.1,0,2.1-0.8,2.3-1.9
						c0,0.1,0,0.3,0,0.5C66,22.8,64.9,23.8,63.7,23.8z"/>
				</g>
			</g>
			<g class="st5">
				<g>
					<path class="st6" d="M58.4,22.9v-2.8H36.5c-1.1,0-2.1,0.8-2.3,1.9c0-0.1,0-0.3,0-0.5c0-1.3,1-2.3,2.3-2.3h21.9h5.2h0v0v0.9v2.8
						H58.4z"/>
				</g>
			</g>
			<g>
				<path class="st0" d="M63.7,24.4H36.5c-1.6,0-2.9-1.3-2.9-2.9s1.3-2.9,2.9-2.9h27.1c1.6,0,2.9,1.3,2.9,2.9S65.3,24.4,63.7,24.4z
					 M36.5,19.8c-0.9,0-1.7,0.8-1.7,1.7c0,0.9,0.8,1.7,1.7,1.7h27.1c0.9,0,1.7-0.8,1.7-1.7c0-0.9-0.8-1.7-1.7-1.7H36.5z"/>
			</g>
		</g>
		<g>
			<g>
				<path class="st2" d="M63.7,14.5H36.5c-1.3,0-2.3,1-2.3,2.3v0c0,1.3,1,2.3,2.3,2.3h27.1c1.3,0,2.3-1,2.3-2.3v0
					C66,15.6,64.9,14.5,63.7,14.5z"/>
			</g>
			<g class="st3">
				<g>
					<path class="st4" d="M63.7,19.3H36.5c-0.6,0-1.2-0.3-1.6-0.7c-0.4-0.4-0.7-1-0.7-1.6c0-0.2,0-0.3,0-0.5
						c0.1,0.5,0.3,0.9,0.6,1.2c0.4,0.4,1,0.7,1.6,0.7h1v-2.8h1.8v2.8h0.6v-2.8h0.7v2.8h23.1c1.1,0,2.1-0.8,2.3-1.9
						c0,0.1,0,0.3,0,0.5C66,18.2,64.9,19.3,63.7,19.3z"/>
				</g>
			</g>
			<g class="st5">
				<g>
					<path class="st6" d="M58.4,18.3v-2.8H36.5c-1.1,0-2.1,0.8-2.3,1.9c0-0.1,0-0.3,0-0.5c0-1.3,1-2.3,2.3-2.3h21.9h5.2h0v0v0.9v2.8
						H58.4z"/>
				</g>
			</g>
			<g>
				<path class="st0" d="M63.7,19.8H36.5c-1.6,0-2.9-1.3-2.9-2.9s1.3-2.9,2.9-2.9h27.1c1.6,0,2.9,1.3,2.9,2.9S65.3,19.8,63.7,19.8z
					 M36.5,15.1c-0.9,0-1.7,0.8-1.7,1.7c0,0.9,0.8,1.7,1.7,1.7h27.1c0.9,0,1.7-0.8,1.7-1.7c0-0.9-0.8-1.7-1.7-1.7H36.5z"/>
			</g>
		</g>
		<g>
			<g>
				<path class="st7" d="M73,51.3c0-6.1-2.4-11.6-6.2-15.7c-1.8-1.9-2.9-4.5-2.9-7.2v0H36.1v0.2c0,2.6-1,5.2-2.8,7.1
					c-3.8,4.1-6.1,9.5-6.1,15.6c0,12.6,10.2,22.9,22.9,22.9S73,63.9,73,51.3z"/>
			</g>
			<g class="st8">
				<g>
					<path class="st4" d="M34.9,35.7c1.8-1.9,2.8-4.5,2.8-7.1v-0.2h-1.5v0.2c0,2.6-1,5.2-2.8,7.1c-3.8,4.1-6.1,9.5-6.1,15.6
						c0,12.6,10.2,22.9,22.9,22.9c0.3,0,0.5,0,0.8,0c-12.3-0.4-22.1-10.5-22.1-22.9C28.8,45.3,31.1,39.8,34.9,35.7z"/>
				</g>
			</g>
			<g>
				<g class="st5">
					<g>
						<path class="st9" d="M48,28.4h-3.4v9.7c0,1.7,1.3,3,3,3h0c0.2,0,0.4-0.2,0.4-0.4V28.4z"/>
					</g>
					<g>
						<path class="st9" d="M52.2,28.4h3.4v9.7c0,1.7-1.3,3-3,3h0c-0.2,0-0.4-0.2-0.4-0.4V28.4z"/>
					</g>
				</g>
				<g>
					<g>
						<path class="st0" d="M47.5,41.8c-2,0-3.6-1.6-3.6-3.6V27.8h4.7v12.9C48.6,41.3,48.1,41.8,47.5,41.8z M45.1,29v9.1
							c0,1.3,1,2.3,2.2,2.4V29H45.1z"/>
					</g>
					<g>
						<path class="st0" d="M52.7,41.8c-0.6,0-1.1-0.5-1.1-1.1V27.8h4.7v10.3C56.3,40.1,54.7,41.8,52.7,41.8z M52.8,29v11.5
							c1.2-0.1,2.2-1.1,2.2-2.4V29H52.8z"/>
					</g>
				</g>
				<g>
					<path class="st0" d="M44.9,54.6c-2,0-3.7-1.7-3.7-3.7s1.7-3.7,3.7-3.7h3.7v3.7C48.6,53,46.9,54.6,44.9,54.6z M44.9,48.4
						c-1.4,0-2.5,1.1-2.5,2.5s1.1,2.5,2.5,2.5c1.4,0,2.5-1.1,2.5-2.5v-2.5H44.9z"/>
				</g>
				<g>
					<path class="st0" d="M55.3,54.6c-2,0-3.7-1.7-3.7-3.7v-3.7h3.7c2,0,3.7,1.7,3.7,3.7S57.4,54.6,55.3,54.6z M52.8,48.4v2.5
						c0,1.4,1.1,2.5,2.5,2.5c1.4,0,2.5-1.1,2.5-2.5s-1.1-2.5-2.5-2.5H52.8z"/>
				</g>
				<g>
					<rect x="48" y="47.2" class="st0" width="4.2" height="1.2"/>
				</g>
				<g>
					<rect x="51.6" y="40.7" class="st0" width="1.2" height="7.1"/>
				</g>
				<g>
					<rect x="47.4" y="40.7" class="st0" width="1.2" height="7.1"/>
				</g>
			</g>
			<g class="st8">
				<g>
					<path class="st10" d="M73,51.3c0-6.1-2.4-11.6-6.2-15.7c-1.8-1.9-2.9-4.5-2.9-7.2H36.1v0.2l0,0l0,0.3c4.4,0.2,8.7,0.4,13.1,0.7
						c6,0,11.8,2.6,15.9,7c0,0,0.1,0.1,0.1,0.1c3.9,4.1,6.2,9.6,6.2,15.7c0,6.9-3,13-7.8,17.2C69.3,65.6,73,58.9,73,51.3z"/>
				</g>
			</g>
			<g>
				<path class="st0" d="M50.6,28.9h-0.9l0-0.9c0.3,0,0.6,0,0.9,0L50.6,28.9z"/>
			</g>
			<g>
				<path class="st0" d="M50.1,74.8c-3.2,0-6.2-0.6-9.1-1.8c-2.8-1.2-5.3-2.9-7.5-5s-3.8-4.7-5-7.5c-1.2-2.9-1.8-6-1.8-9.1
					c0-5.9,2.2-11.6,6.3-16c1.7-1.8,2.6-4.2,2.6-6.7v-0.8h29v0.6c0,2.5,1,4.9,2.7,6.7c4.1,4.4,6.4,10.1,6.4,16.1
					c0,3.2-0.6,6.2-1.8,9.1c-1.2,2.8-2.9,5.3-5,7.5s-4.7,3.8-7.5,5C56.3,74.1,53.3,74.8,50.1,74.8z M36.7,29c-0.1,2.6-1.1,5.2-3,7.1
					c-3.8,4.1-5.9,9.5-5.9,15.1c0,12.3,10,22.3,22.3,22.3s22.3-10,22.3-22.3c0-5.7-2.2-11.1-6.1-15.3c-1.8-1.9-2.9-4.4-3-7H36.7z"/>
			</g>
			<g>
				<path class="st0" d="M50.6,28.9h-0.9l0-0.9c0.3,0,0.6,0,0.9,0L50.6,28.9z"/>
			</g>
			<g>
				<path class="st11" d="M38.8,65.7c-2.1-2.5-1.9-5.2-0.9-5.7c1.1-0.6,3,0.9,5.6,2.7c2.5,1.8,4.3,3.8,2.8,5.1
					c-0.7,0.6-2.1,0.8-3.6,0.4C41.3,67.8,39.8,66.9,38.8,65.7z"/>
			</g>
		</g>
		<g>
			<g>
				<path class="st2" d="M61.6,14.5c-2.1-4.2-6.5-7-11.5-7s-9.3,2.9-11.5,7c0,0,0,0,0,0L61.6,14.5C61.6,14.5,61.6,14.5,61.6,14.5z"
					/>
			</g>
			<g class="st5">
				<g>
					<path class="st6" d="M61.1,13.7c0,0,0.1,0.1,0.1,0.1c0,0,0,0,0,0.1c0,0,0.1,0.1,0.1,0.1c0,0,0,0,0,0.1c0,0,0.1,0.1,0.1,0.1
						c0,0,0,0,0,0.1c0,0.1,0.1,0.1,0.1,0.2c0,0,0,0,0,0h-2.4H38.7c0,0,0,0,0,0c0.2-0.3,0.3-0.6,0.5-0.9h19.3
						C56.1,10.8,52.5,9,48.6,9c-3.2,0-6.1,1.1-8.3,3c2.4-2.8,5.9-4.6,9.8-4.6C54.7,7.5,58.8,9.9,61.1,13.7L61.1,13.7
						C61.1,13.6,61.1,13.6,61.1,13.7z"/>
				</g>
			</g>
			<g>
				<path class="st0" d="M37.6,15.2l0.5-0.9c1.1-2.2,2.8-4,4.9-5.3c2.1-1.3,4.6-2,7.1-2s5,0.7,7.1,2c2.1,1.3,3.8,3.1,4.9,5.3
					l0.5,0.9l-1,0c0,0,0,0,0,0H38.7c0,0,0,0,0,0L37.6,15.2z M39.7,13.9h20.9c-2.2-3.6-6.1-5.8-10.4-5.8
					C45.8,8.1,41.9,10.3,39.7,13.9z"/>
			</g>
			<g class="st3">
				<g>
					
						<ellipse transform="matrix(0.6722 -0.7404 0.7404 0.6722 5.5466 36.0915)" class="st4" cx="43.5" cy="11.8" rx="1.3" ry="0.6"/>
				</g>
			</g>
		</g>
		<g>
			<path class="st12" d="M50.1,51.3"/>
		</g>
	</g>
</g>
</svg>
