<svg xmlns="http://www.w3.org/2000/svg" xmlns:xlink="http://www.w3.org/1999/xlink" width="1080" zoomAndPan="magnify" viewBox="0 0 810 809.999993" height="1080" preserveAspectRatio="xMidYMid meet" version="1.0"><defs><clipPath id="ec67e11dd5"><path d="M 123.585938 326 L 686.085938 326 L 686.085938 686.085938 L 123.585938 686.085938 Z M 123.585938 326 " clip-rule="nonzero"/></clipPath><clipPath id="39143e7c2c"><path d="M 236 123.585938 L 372 123.585938 L 372 304 L 236 304 Z M 236 123.585938 " clip-rule="nonzero"/></clipPath></defs><path fill="#ffffff" d="M 247.40625 630.128906 C 247.40625 630.867188 247.335938 631.601562 247.191406 632.324219 C 247.046875 633.050781 246.832031 633.753906 246.550781 634.4375 C 246.265625 635.121094 245.921875 635.769531 245.507812 636.382812 C 245.097656 637 244.632812 637.566406 244.109375 638.089844 C 243.585938 638.613281 243.019531 639.078125 242.402344 639.488281 C 241.789062 639.898438 241.140625 640.246094 240.457031 640.53125 C 239.773438 640.8125 239.070312 641.027344 238.347656 641.171875 C 237.621094 641.3125 236.890625 641.386719 236.148438 641.386719 C 235.410156 641.386719 234.679688 641.3125 233.953125 641.171875 C 233.230469 641.027344 232.523438 640.8125 231.84375 640.53125 C 231.160156 640.246094 230.511719 639.898438 229.894531 639.488281 C 229.28125 639.078125 228.714844 638.613281 228.191406 638.089844 C 227.667969 637.566406 227.203125 637 226.789062 636.382812 C 226.378906 635.769531 226.035156 635.121094 225.75 634.4375 C 225.46875 633.753906 225.253906 633.050781 225.109375 632.324219 C 224.964844 631.601562 224.894531 630.867188 224.894531 630.128906 C 224.894531 629.390625 224.964844 628.660156 225.109375 627.933594 C 225.253906 627.207031 225.46875 626.503906 225.75 625.820312 C 226.035156 625.140625 226.378906 624.492188 226.789062 623.875 C 227.203125 623.261719 227.667969 622.691406 228.191406 622.171875 C 228.714844 621.648438 229.28125 621.179688 229.894531 620.769531 C 230.511719 620.359375 231.160156 620.011719 231.84375 619.730469 C 232.523438 619.449219 233.230469 619.234375 233.953125 619.089844 C 234.679688 618.945312 235.410156 618.875 236.148438 618.875 C 236.890625 618.875 237.621094 618.945312 238.347656 619.089844 C 239.070312 619.234375 239.773438 619.449219 240.457031 619.730469 C 241.140625 620.011719 241.789062 620.359375 242.402344 620.769531 C 243.019531 621.179688 243.585938 621.648438 244.109375 622.171875 C 244.632812 622.691406 245.097656 623.261719 245.507812 623.875 C 245.921875 624.492188 246.265625 625.140625 246.550781 625.820312 C 246.832031 626.503906 247.046875 627.207031 247.191406 627.933594 C 247.335938 628.660156 247.40625 629.390625 247.40625 630.128906 Z M 247.40625 630.128906 " fill-opacity="1" fill-rule="nonzero"/><path fill="#ffffff" d="M 573.847656 630.128906 C 573.847656 630.867188 573.773438 631.601562 573.628906 632.324219 C 573.488281 633.050781 573.273438 633.753906 572.988281 634.4375 C 572.707031 635.121094 572.359375 635.769531 571.949219 636.382812 C 571.539062 637 571.074219 637.566406 570.550781 638.089844 C 570.027344 638.613281 569.457031 639.078125 568.84375 639.488281 C 568.230469 639.898438 567.582031 640.246094 566.898438 640.53125 C 566.214844 640.8125 565.511719 641.027344 564.785156 641.171875 C 564.0625 641.3125 563.328125 641.386719 562.589844 641.386719 C 561.851562 641.386719 561.121094 641.3125 560.394531 641.171875 C 559.667969 641.027344 558.964844 640.8125 558.28125 640.53125 C 557.601562 640.246094 556.949219 639.898438 556.335938 639.488281 C 555.722656 639.078125 555.152344 638.613281 554.628906 638.089844 C 554.109375 637.566406 553.640625 637 553.230469 636.382812 C 552.820312 635.769531 552.472656 635.121094 552.191406 634.4375 C 551.90625 633.753906 551.695312 633.050781 551.550781 632.324219 C 551.40625 631.601562 551.332031 630.867188 551.332031 630.128906 C 551.332031 629.390625 551.40625 628.660156 551.550781 627.933594 C 551.695312 627.207031 551.90625 626.503906 552.191406 625.820312 C 552.472656 625.140625 552.820312 624.492188 553.230469 623.875 C 553.640625 623.261719 554.109375 622.691406 554.628906 622.171875 C 555.152344 621.648438 555.722656 621.179688 556.335938 620.769531 C 556.953125 620.359375 557.601562 620.011719 558.28125 619.730469 C 558.964844 619.449219 559.667969 619.234375 560.394531 619.089844 C 561.121094 618.945312 561.851562 618.875 562.589844 618.875 C 563.328125 618.875 564.0625 618.945312 564.785156 619.089844 C 565.511719 619.234375 566.214844 619.449219 566.898438 619.730469 C 567.582031 620.011719 568.230469 620.359375 568.84375 620.769531 C 569.457031 621.179688 570.027344 621.648438 570.550781 622.171875 C 571.074219 622.691406 571.539062 623.261719 571.949219 623.875 C 572.359375 624.492188 572.707031 625.140625 572.988281 625.820312 C 573.273438 626.503906 573.488281 627.207031 573.628906 627.933594 C 573.773438 628.660156 573.847656 629.390625 573.847656 630.128906 Z M 573.847656 630.128906 " fill-opacity="1" fill-rule="nonzero"/><g clip-path="url(#ec67e11dd5)"><path fill="#ffffff" d="M 675.15625 573.847656 L 663.898438 573.847656 L 663.898438 450.023438 C 663.898438 446.984375 662.660156 444.171875 660.636719 442.03125 L 593.097656 374.492188 C 590.957031 372.46875 588.144531 371.230469 585.105469 371.230469 L 483.792969 371.230469 L 483.792969 337.460938 C 483.792969 331.269531 478.730469 326.203125 472.539062 326.203125 L 134.839844 326.203125 C 128.648438 326.203125 123.585938 331.269531 123.585938 337.460938 L 123.585938 630.128906 C 123.585938 636.320312 128.648438 641.386719 134.839844 641.386719 L 180.992188 641.386719 C 186.285156 667.050781 209.023438 686.414062 236.148438 686.414062 C 263.277344 686.414062 286.015625 667.050781 291.308594 641.386719 L 507.433594 641.386719 C 512.722656 667.050781 535.460938 686.414062 562.589844 686.414062 C 589.71875 686.414062 612.457031 667.050781 617.746094 641.386719 L 675.15625 641.386719 C 681.347656 641.386719 686.414062 636.320312 686.414062 630.128906 L 686.414062 585.105469 C 686.414062 578.914062 681.347656 573.847656 675.15625 573.847656 Z M 180.992188 618.875 L 146.097656 618.875 L 146.097656 596.359375 L 191.460938 596.359375 C 186.394531 602.886719 182.679688 610.542969 180.992188 618.875 Z M 236.148438 663.898438 C 217.578125 663.898438 202.378906 648.703125 202.378906 630.128906 C 202.378906 611.554688 217.578125 596.359375 236.148438 596.359375 C 254.722656 596.359375 269.917969 611.554688 269.917969 630.128906 C 269.917969 648.703125 254.722656 663.898438 236.148438 663.898438 Z M 146.097656 573.847656 L 146.097656 348.714844 L 461.28125 348.714844 L 461.28125 573.847656 Z M 507.433594 618.875 L 291.308594 618.875 C 289.617188 610.542969 285.902344 602.886719 280.839844 596.359375 L 517.902344 596.359375 C 512.835938 602.886719 509.121094 610.542969 507.433594 618.875 Z M 562.589844 663.898438 C 544.015625 663.898438 528.820312 648.703125 528.820312 630.128906 C 528.820312 611.554688 544.015625 596.359375 562.589844 596.359375 C 581.164062 596.359375 596.359375 611.554688 596.359375 630.128906 C 596.359375 648.703125 581.164062 663.898438 562.589844 663.898438 Z M 483.792969 573.847656 L 483.792969 393.742188 L 580.488281 393.742188 L 641.386719 454.640625 L 641.386719 573.847656 Z M 663.898438 618.875 L 617.746094 618.875 C 616.058594 610.542969 612.34375 602.886719 607.277344 596.359375 L 663.898438 596.359375 Z M 663.898438 618.875 " fill-opacity="1" fill-rule="nonzero"/></g><path fill="#ffffff" d="M 517.5625 506.308594 L 607.617188 506.308594 C 613.839844 506.308594 618.875 501.265625 618.875 495.050781 L 618.875 468.675781 C 618.875 465.691406 617.6875 462.824219 615.574219 460.714844 L 574.40625 419.554688 C 572.296875 417.441406 569.4375 416.253906 566.449219 416.253906 L 517.5625 416.253906 C 511.34375 416.253906 506.308594 421.296875 506.308594 427.511719 L 506.308594 495.050781 C 506.308594 501.265625 511.34375 506.308594 517.5625 506.308594 Z M 528.820312 438.769531 L 561.789062 438.769531 L 596.359375 473.335938 L 596.359375 483.792969 L 528.820312 483.792969 Z M 528.820312 438.769531 " fill-opacity="1" fill-rule="nonzero"/><path fill="#ffffff" d="M 393.742188 438.769531 C 399.933594 438.769531 405 433.703125 405 427.511719 L 405 382.484375 C 405 376.292969 399.933594 371.230469 393.742188 371.230469 L 213.636719 371.230469 C 207.445312 371.230469 202.378906 376.292969 202.378906 382.484375 L 202.378906 540.078125 C 202.378906 546.269531 207.445312 551.332031 213.636719 551.332031 L 393.742188 551.332031 C 399.933594 551.332031 405 546.269531 405 540.078125 L 405 517.5625 C 405 511.375 399.933594 506.308594 393.742188 506.308594 C 387.550781 506.308594 382.484375 511.375 382.484375 517.5625 L 382.484375 528.820312 L 224.894531 528.820312 L 224.894531 393.742188 L 258.664062 393.742188 L 258.664062 438.769531 C 258.664062 444.960938 263.730469 450.023438 269.917969 450.023438 L 337.460938 450.023438 C 343.648438 450.023438 348.714844 444.960938 348.714844 438.769531 L 348.714844 393.742188 L 382.484375 393.742188 L 382.484375 427.511719 C 382.484375 433.703125 387.550781 438.769531 393.742188 438.769531 Z M 326.203125 427.511719 L 281.175781 427.511719 L 281.175781 393.742188 L 326.203125 393.742188 Z M 326.203125 427.511719 " fill-opacity="1" fill-rule="nonzero"/><g clip-path="url(#39143e7c2c)"><path fill="#ffffff" d="M 303.691406 303.636719 C 306.546875 303.648438 309.433594 302.605469 311.648438 300.390625 C 314.078125 297.960938 371.230469 240.25 371.230469 191.125 C 371.230469 153.878906 340.933594 123.585938 303.691406 123.585938 C 266.445312 123.585938 236.148438 153.878906 236.148438 191.125 C 236.148438 240.25 293.296875 297.957031 295.730469 300.390625 C 297.839844 302.5 300.75 303.625 303.691406 303.636719 Z M 303.691406 146.097656 C 328.523438 146.097656 348.714844 166.296875 348.714844 191.125 C 348.714844 219.222656 321.023438 256.394531 303.691406 275.953125 C 286.355469 256.394531 258.664062 219.222656 258.664062 191.125 C 258.664062 166.296875 278.855469 146.097656 303.691406 146.097656 Z M 303.691406 146.097656 " fill-opacity="1" fill-rule="nonzero"/></g><path fill="#ffffff" d="M 314.945312 191.125 C 314.945312 191.863281 314.875 192.59375 314.730469 193.320312 C 314.585938 194.046875 314.371094 194.75 314.089844 195.433594 C 313.804688 196.113281 313.460938 196.761719 313.050781 197.378906 C 312.636719 197.992188 312.171875 198.5625 311.648438 199.082031 C 311.125 199.605469 310.558594 200.074219 309.941406 200.484375 C 309.328125 200.894531 308.679688 201.242188 307.996094 201.523438 C 307.3125 201.804688 306.609375 202.019531 305.886719 202.164062 C 305.160156 202.308594 304.429688 202.378906 303.691406 202.378906 C 302.949219 202.378906 302.21875 202.308594 301.492188 202.164062 C 300.769531 202.019531 300.066406 201.804688 299.382812 201.523438 C 298.699219 201.242188 298.050781 200.894531 297.4375 200.484375 C 296.820312 200.074219 296.253906 199.605469 295.730469 199.082031 C 295.207031 198.5625 294.742188 197.992188 294.328125 197.378906 C 293.917969 196.761719 293.574219 196.113281 293.289062 195.433594 C 293.007812 194.75 292.792969 194.046875 292.648438 193.320312 C 292.503906 192.59375 292.433594 191.863281 292.433594 191.125 C 292.433594 190.386719 292.503906 189.652344 292.648438 188.929688 C 292.792969 188.203125 293.007812 187.5 293.289062 186.816406 C 293.574219 186.132812 293.917969 185.484375 294.328125 184.871094 C 294.742188 184.253906 295.207031 183.6875 295.730469 183.164062 C 296.253906 182.640625 296.820312 182.175781 297.4375 181.765625 C 298.050781 181.355469 298.699219 181.007812 299.382812 180.722656 C 300.066406 180.441406 300.769531 180.226562 301.492188 180.082031 C 302.21875 179.941406 302.949219 179.867188 303.691406 179.867188 C 304.429688 179.867188 305.160156 179.941406 305.886719 180.082031 C 306.609375 180.226562 307.3125 180.441406 307.996094 180.722656 C 308.679688 181.007812 309.328125 181.355469 309.941406 181.765625 C 310.558594 182.175781 311.125 182.640625 311.648438 183.164062 C 312.171875 183.6875 312.636719 184.253906 313.050781 184.871094 C 313.460938 185.484375 313.804688 186.132812 314.089844 186.816406 C 314.371094 187.5 314.585938 188.203125 314.730469 188.929688 C 314.875 189.652344 314.945312 190.386719 314.945312 191.125 Z M 314.945312 191.125 " fill-opacity="1" fill-rule="nonzero"/><path fill="#ffffff" d="M 405 472.539062 C 405 473.277344 404.925781 474.007812 404.78125 474.734375 C 404.636719 475.457031 404.425781 476.164062 404.140625 476.84375 C 403.859375 477.527344 403.511719 478.175781 403.101562 478.792969 C 402.691406 479.40625 402.222656 479.976562 401.703125 480.496094 C 401.179688 481.019531 400.609375 481.488281 399.996094 481.898438 C 399.382812 482.308594 398.734375 482.65625 398.050781 482.9375 C 397.367188 483.21875 396.664062 483.433594 395.9375 483.578125 C 395.214844 483.722656 394.480469 483.792969 393.742188 483.792969 C 393.003906 483.792969 392.269531 483.722656 391.546875 483.578125 C 390.820312 483.433594 390.117188 483.21875 389.433594 482.9375 C 388.75 482.65625 388.101562 482.308594 387.488281 481.898438 C 386.875 481.488281 386.304688 481.019531 385.78125 480.496094 C 385.261719 479.976562 384.792969 479.40625 384.382812 478.792969 C 383.972656 478.175781 383.625 477.527344 383.34375 476.84375 C 383.058594 476.164062 382.847656 475.457031 382.703125 474.734375 C 382.558594 474.007812 382.484375 473.277344 382.484375 472.539062 C 382.484375 471.800781 382.558594 471.066406 382.703125 470.34375 C 382.847656 469.617188 383.058594 468.914062 383.34375 468.230469 C 383.625 467.546875 383.972656 466.898438 384.382812 466.285156 C 384.792969 465.667969 385.261719 465.101562 385.78125 464.578125 C 386.304688 464.054688 386.875 463.589844 387.488281 463.179688 C 388.101562 462.769531 388.75 462.421875 389.433594 462.136719 C 390.117188 461.855469 390.820312 461.640625 391.546875 461.496094 C 392.269531 461.355469 393.003906 461.28125 393.742188 461.28125 C 394.480469 461.28125 395.214844 461.355469 395.9375 461.496094 C 396.664062 461.640625 397.367188 461.855469 398.050781 462.136719 C 398.734375 462.421875 399.382812 462.769531 399.996094 463.179688 C 400.609375 463.589844 401.179688 464.054688 401.703125 464.578125 C 402.222656 465.101562 402.691406 465.667969 403.101562 466.285156 C 403.511719 466.898438 403.859375 467.546875 404.140625 468.230469 C 404.425781 468.914062 404.636719 469.617188 404.78125 470.34375 C 404.925781 471.066406 405 471.800781 405 472.539062 Z M 405 472.539062 " fill-opacity="1" fill-rule="nonzero"/></svg>