<?xml version="1.0" encoding="utf-8"?>
<!-- Generator: Adobe Illustrator 27.0.0, SVG Export Plug-In . SVG Version: 6.00 Build 0)  -->
<svg version="1.1" id="Layer_1" xmlns="http://www.w3.org/2000/svg" xmlns:xlink="http://www.w3.org/1999/xlink" x="0px" y="0px"
	 viewBox="0 0 103 99" style="enable-background:new 0 0 103 99;" xml:space="preserve">
<style type="text/css">
	.st0{fill-rule:evenodd;clip-rule:evenodd;fill:#FFFFFF;}
	.st1{fill:none;}
	.st2{fill-rule:evenodd;clip-rule:evenodd;fill:#D61F26;}
	.st3{fill-rule:evenodd;clip-rule:evenodd;fill:#203568;}
	.st4{fill:#FFFFFF;}
	.st5{fill:#203568;}
	.st6{fill:url(#SVGID_1_);}
	.st7{fill:url(#SVGID_00000072242009228491696910000001808649873509295293_);}
	.st8{fill:url(#SVGID_00000132766719571070318840000003332724325835252381_);}
	.st9{fill:url(#SVGID_00000101792668238045625270000017180303375867545246_);}
	.st10{fill:url(#SVGID_00000033367456785181914270000008762491905643120024_);}
	.st11{fill:url(#SVGID_00000179624828781814110560000003604600603117455265_);}
	.st12{fill:url(#SVGID_00000049932140102600819990000017502220928342874018_);}
	.st13{fill:url(#SVGID_00000121967497521533528270000013840313219338316718_);}
	.st14{fill:url(#SVGID_00000067951263810637645960000015132859578514762686_);}
	.st15{fill:url(#SVGID_00000024705249035597720610000000199054545574995118_);}
	.st16{fill:#D8DEE8;}
	.st17{fill:url(#SVGID_00000005242465982122561520000016287165323965883812_);}
	.st18{fill:url(#SVGID_00000000193154631928270990000018388977075968714931_);}
	.st19{fill:url(#SVGID_00000099626424578409315580000014244801070172702622_);}
	.st20{fill:url(#SVGID_00000096778111676542344210000011093602601030611874_);}
	.st21{fill:#D61F26;}
	.st22{opacity:0.3;fill:url(#SVGID_00000089554848271089304440000016674655113378213013_);}
	.st23{fill:url(#SVGID_00000115500432169181167680000005156347607408327296_);}
	.st24{opacity:0.6;fill:url(#SVGID_00000127005763096570690500000013680794002991328697_);}
	.st25{opacity:0.3;fill:#FFFFFF;}
	.st26{opacity:0.6;fill:url(#SVGID_00000158728877196514636490000004999350118406642345_);}
	.st27{fill:#FBAD3E;}
	.st28{fill:#FA990E;}
	.st29{fill:#255299;}
	.st30{fill:#D1DAFE;}
	.st31{fill:#51504F;}
	.st32{fill:#393F48;}
	.st33{fill:#912010;}
	.st34{fill:#203568;stroke:#FFFDFD;stroke-width:0.5;stroke-miterlimit:10;}
	.st35{fill:#2A4792;}
</style>
<path class="st0" d="M-333.6-3.7c-1.9-0.2-3.9,1.1-5.6,0.3c-1.8-0.8-2.6-2.9-3.8-4.4c-1.7-2.1-4.9-3.6-5-6.4
	c-0.1-2.7,2.3-5.1,4.7-6.4c2.1-1.2,4.9,0.6,7.2-0.3c2.6-0.9,3.8-4.6,6.5-4.7c2.7-0.1,5.1,2,6.8,4.1c1.7,2.1,2.3,4.7,2.6,7.4
	c0.3,2.6,0.3,5.3-1,7.5c-1.2,2.2-3.4,3.9-5.8,4.4C-329.4-1.6-331.4-3.5-333.6-3.7z"/>
<path class="st0" d="M51.9,82.5c-6.3-0.7-12.7,3.5-18.5,1c-6-2.6-8.5-9.4-12.6-14.5c-5.7-7-16.1-11.9-16.3-21
	c-0.2-8.8,7.6-16.6,15.3-21c7-3.9,16.1,1.9,23.7-0.9c8.4-3.1,12.4-15.1,21.4-15.5c8.9-0.4,16.7,6.7,22.3,13.6
	c5.5,6.8,7.6,15.5,8.5,24.2c0.9,8.4,0.9,17.3-3.4,24.6C88.2,80.4,81.2,86,73.2,87.9C65.9,89.5,59.4,83.4,51.9,82.5z"/>
<path class="st0" d="M-294.9-3.7c-1.9-0.2-3.9,1.1-5.6,0.3c-1.8-0.8-2.6-2.9-3.8-4.4c-1.7-2.1-4.9-3.6-5-6.4
	c-0.1-2.7,2.3-5.1,4.7-6.4c2.1-1.2,4.9,0.6,7.2-0.3c2.6-0.9,3.8-4.6,6.5-4.7c2.7-0.1,5.1,2,6.8,4.1c1.7,2.1,2.3,4.7,2.6,7.4
	c0.3,2.6,0.3,5.3-1,7.5c-1.2,2.2-3.4,3.9-5.8,4.4C-290.6-1.6-292.6-3.5-294.9-3.7z"/>
<rect x="-345.2" y="-25.7" class="st1" width="24.4" height="21.1"/>
<path class="st2" d="M-333.1-20.1c-0.2,0.7-0.5,1.4-0.9,2.1c0.1,0,0.3,0,0.4,0c-0.2,0.5-0.5,0.9-0.8,1.3c0.2,0,0.5-0.1,0.7-0.1
	c-0.4,0.6-0.8,1.2-1.3,1.8c0.3,0,0.5,0,0.8-0.1c-0.4,0.5-0.7,0.9-1.2,1.3c-0.2-0.2-0.4-0.5-0.6-0.7c0.2,0,0.4,0,0.6,0
	c-0.4-0.4-0.7-0.9-1-1.3c0.2,0,0.4,0,0.5,0c-0.2-0.3-0.4-0.6-0.6-1c0.1,0,0.2,0,0.3,0c-0.3-0.5-0.5-1-0.7-1.5
	c-0.2,0.5-0.4,1-0.7,1.5c0.1,0,0.2,0,0.3,0c-0.2,0.3-0.4,0.7-0.6,1c0.2,0,0.4,0,0.5,0c-0.2,0.4-0.5,0.8-0.8,1.1
	c-0.6-0.7-1.1-1.4-1.5-2.1c0.3,0,0.6,0,0.9,0.1c-0.4-0.5-0.7-1.1-1-1.7c0.2,0,0.4,0,0.5,0.1c-0.5-0.8-0.8-1.7-1.1-2.6
	c-0.3,0.9-0.7,1.8-1.1,2.6c0.2,0,0.4,0,0.5-0.1c-0.3,0.6-0.7,1.1-1,1.7c0.3,0,0.6-0.1,0.9-0.1c-0.5,0.8-1.1,1.6-1.7,2.3
	c0.3,0,0.7-0.1,1-0.1c-0.6,0.8-1.2,1.5-1.9,2.1c0.9,0.2,2.3,0.2,3.9,0.1c-1.7,0.6-3.3,1.6-3.5,2.7c1.3-2.3,12.8-4.1,15.5-4.2
	c-0.4,0.6-1,1.1-1.3,1.6c2.1-0.6,4.7-0.7,6.7,0.2c-0.7-0.7-1.4-1.5-2-2.3c0.4,0,0.7,0,1.1,0.1c-0.7-0.8-1.2-1.6-1.8-2.4
	c0.3,0,0.6,0,1,0.1c-0.4-0.6-0.8-1.2-1.1-1.8c0.2,0,0.4,0,0.6,0.1c-0.5-0.9-0.9-1.8-1.2-2.8c-0.3,1-0.7,1.9-1.2,2.8
	c0.2,0,0.4-0.1,0.6-0.1c-0.3,0.6-0.7,1.2-1.1,1.8c0.3,0,0.6-0.1,1-0.1c-0.4,0.6-0.8,1.2-1.3,1.8c-0.2-0.3-0.5-0.5-0.7-0.8
	c0.4,0,0.7,0,1.1,0.1c-0.7-0.8-1.2-1.6-1.8-2.4c0.3,0,0.6,0,1,0.1c-0.4-0.6-0.8-1.2-1.1-1.8c0.2,0,0.4,0,0.6,0.1
	c-0.5-0.9-0.9-1.8-1.2-2.8c-0.3,1-0.7,1.9-1.2,2.8c0.2,0,0.4-0.1,0.6-0.1c-0.3,0.6-0.7,1.2-1.1,1.8c0.3,0,0.6-0.1,1-0.1
	c-0.4,0.6-0.8,1.3-1.3,1.8c-0.1-0.2-0.3-0.4-0.4-0.6c0.2,0,0.5,0,0.7,0.1c-0.3-0.4-0.6-0.9-0.8-1.3c0.1,0,0.3,0,0.4,0
	C-332.6-18.7-332.9-19.4-333.1-20.1L-333.1-20.1z M-329.1-11.9c1.4,0.5,4.4,0.9,5.3,1.9c-1-0.7-4.2-1-5.8-1.4
	c-0.5-0.2-1-0.8-0.2-1.2C-330.1-12.3-329.7-12.2-329.1-11.9z"/>
<path class="st3" d="M-328.3-13.6c-2.9,0.4-21.2,2.5-12,7.7c10,4.1,23.4-2.2,15.2-4.3C-327.7-10.9-333.5-11.3-328.3-13.6
	L-328.3-13.6z"/>
<path class="st4" d="M-332.6-8.2c-0.7-0.3-1.3-0.7-1.9-1.2l0.6-0.2c0.6,0.4,1.3,0.8,2,1.1L-332.6-8.2L-332.6-8.2z M-327.2-5.3
	c0.4-0.1,0.8-0.3,1.2-0.4l-5-2.2l-0.7,0.4L-327.2-5.3L-327.2-5.3z M-334.9-9.9c-0.1-0.2-0.2-0.5-0.1-0.7l0.5-0.1
	c0,0.2,0.1,0.5,0.2,0.7L-334.9-9.9L-334.9-9.9z M-334.9-11.1c0.1-0.2,0.3-0.4,0.5-0.6l0.4,0c-0.2,0.1-0.3,0.3-0.4,0.5L-334.9-11.1
	L-334.9-11.1z M-334-12c0.9-0.7,2.5-1.1,4.2-1.3c-1.5,0.2-2.9,0.7-3.8,1.3L-334-12z"/>
<path class="st5" d="M49.1,20.8c0,4.8-6.7,13.6-9.8,17.3c-0.8,0.9-2.2,0.9-2.9,0c-3-3.7-9.8-12.5-9.8-17.3c0-6.2,5-11.2,11.2-11.2
	C44,9.5,49.1,14.6,49.1,20.8z"/>
<ellipse transform="matrix(0.2298 -0.9732 0.9732 0.2298 8.925 52.8162)" class="st4" cx="37.8" cy="20.8" rx="6.3" ry="6.3"/>
<path class="st5" d="M98.4,20.8c0,4.8-6.7,13.6-9.8,17.3c-0.8,0.9-2.2,0.9-2.9,0c-3-3.7-9.8-12.5-9.8-17.3c0-6.2,5-11.2,11.2-11.2
	C93.3,9.5,98.4,14.6,98.4,20.8z"/>
<ellipse transform="matrix(0.2298 -0.9732 0.9732 0.2298 46.8915 100.7889)" class="st4" cx="87.1" cy="20.8" rx="6.3" ry="6.3"/>
<g>
	
		<linearGradient id="SVGID_1_" gradientUnits="userSpaceOnUse" x1="3089.1167" y1="38.651" x2="3078.467" y2="56.6372" gradientTransform="matrix(1 0 0 1 -3022.4941 0)">
		<stop  offset="0" style="stop-color:#FFC444"/>
		<stop  offset="0.3138" style="stop-color:#FBA94A"/>
		<stop  offset="0.9964" style="stop-color:#F36F56"/>
	</linearGradient>
	<polygon class="st6" points="66.5,54.8 56.8,53.6 56.8,39.3 66.5,37.5 	"/>
	<g>
		
			<linearGradient id="SVGID_00000046313237720473952240000000079993237029629102_" gradientUnits="userSpaceOnUse" x1="3098.8606" y1="39.0877" x2="3087.8145" y2="57.7435" gradientTransform="matrix(1 0 0 1 -3022.4941 0)">
			<stop  offset="0" style="stop-color:#FFC444"/>
			<stop  offset="0.3138" style="stop-color:#FBA94A"/>
			<stop  offset="0.9964" style="stop-color:#F36F56"/>
		</linearGradient>
		<polygon style="fill:url(#SVGID_00000046313237720473952240000000079993237029629102_);" points="78.3,54 66.5,54.8 66.5,37.5 
			78.3,39.1 		"/>
		<polygon class="st4" points="71,38.1 71,40.5 74.9,40.9 74.9,38.6 		"/>
	</g>
</g>
<g>
	
		<linearGradient id="SVGID_00000152953698272766214470000014586679189651611299_" gradientUnits="userSpaceOnUse" x1="3106.0989" y1="53.4306" x2="3090.7292" y2="79.388" gradientTransform="matrix(1 0 0 1 -3022.4941 0)">
		<stop  offset="0" style="stop-color:#FFC444"/>
		<stop  offset="0.3138" style="stop-color:#FBA94A"/>
		<stop  offset="0.9964" style="stop-color:#F36F56"/>
	</linearGradient>
	<polygon style="fill:url(#SVGID_00000152953698272766214470000014586679189651611299_);" points="85.8,74.2 69.9,75.3 69.9,52 
		85.8,53.1 	"/>
	
		<linearGradient id="SVGID_00000098902180666936296770000006412487518505865639_" gradientUnits="userSpaceOnUse" x1="3092.3628" y1="53.4866" x2="3078.05" y2="77.6593" gradientTransform="matrix(1 0 0 1 -3022.4941 0)">
		<stop  offset="0" style="stop-color:#FFC444"/>
		<stop  offset="0.3138" style="stop-color:#FBA94A"/>
		<stop  offset="0.9964" style="stop-color:#F36F56"/>
	</linearGradient>
	<polygon style="fill:url(#SVGID_00000098902180666936296770000006412487518505865639_);" points="69.9,75.3 56.9,73.7 56.9,53.5 
		69.9,52 	"/>
	<polygon class="st4" points="75.6,52.4 75.6,56.1 80.9,56.3 80.9,52.8 	"/>
</g>
<polygon class="st5" points="58.6,79.4 67.6,79 65.1,73.2 59.3,73.6 57.7,76.1 "/>
<g>
	
		<linearGradient id="SVGID_00000160891079844303955870000004300380234994391442_" gradientUnits="userSpaceOnUse" x1="47.482" y1="74.1163" x2="52.7676" y2="74.1163">
		<stop  offset="0" style="stop-color:#311944"/>
		<stop  offset="1" style="stop-color:#6B3976"/>
	</linearGradient>
	<path style="fill:url(#SVGID_00000160891079844303955870000004300380234994391442_);" d="M50.1,70.1c-0.1,0-0.1,0-0.2,0l-0.9,0
		l0,0.4c-0.9,0.6-1.5,2-1.5,3.6c0,1.7,0.7,3.1,1.6,3.7l0,0.3h1c1.5,0,2.6-1.8,2.6-4C52.8,71.9,51.6,70.1,50.1,70.1z"/>
	
		<linearGradient id="SVGID_00000163779268216218189380000011372176471965691776_" gradientUnits="userSpaceOnUse" x1="46.3687" y1="74.1163" x2="51.6542" y2="74.1163">
		<stop  offset="0" style="stop-color:#311944"/>
		<stop  offset="1" style="stop-color:#6B3976"/>
	</linearGradient>
	<ellipse style="fill:url(#SVGID_00000163779268216218189380000011372176471965691776_);" cx="49" cy="74.1" rx="2.6" ry="4"/>
</g>
<g>
	
		<linearGradient id="SVGID_00000026139312699143887850000017929999381304148124_" gradientUnits="userSpaceOnUse" x1="72.7117" y1="77.6162" x2="79.1871" y2="77.6162">
		<stop  offset="0" style="stop-color:#311944"/>
		<stop  offset="1" style="stop-color:#6B3976"/>
	</linearGradient>
	<path style="fill:url(#SVGID_00000026139312699143887850000017929999381304148124_);" d="M75.9,73.2c-0.1,0-0.1,0-0.2,0l-1.1,0
		l0,0.4c-1.1,0.7-1.9,2.3-1.9,4c0,1.9,0.8,3.5,2,4.1l0,0.3h1.2c1.8,0,3.2-2,3.2-4.5C79.2,75.2,77.7,73.2,75.9,73.2z"/>
	
		<linearGradient id="SVGID_00000009567563429968187150000001883935410586683063_" gradientUnits="userSpaceOnUse" x1="71.3478" y1="77.6162" x2="77.8232" y2="77.6162">
		<stop  offset="0" style="stop-color:#311944"/>
		<stop  offset="1" style="stop-color:#6B3976"/>
	</linearGradient>
	<ellipse style="fill:url(#SVGID_00000009567563429968187150000001883935410586683063_);" cx="74.6" cy="77.6" rx="3.2" ry="4.5"/>
</g>
<g>
	
		<linearGradient id="SVGID_00000077303640750303687030000008742792695146510210_" gradientUnits="userSpaceOnUse" x1="60.45" y1="79.7981" x2="66.8248" y2="79.7981">
		<stop  offset="0" style="stop-color:#311944"/>
		<stop  offset="1" style="stop-color:#6B3976"/>
	</linearGradient>
	<path style="fill:url(#SVGID_00000077303640750303687030000008742792695146510210_);" d="M63.6,75.2c-0.1,0-0.1,0-0.2,0l-1.1,0
		l0,0.4c-1.1,0.7-1.9,2.3-1.9,4.1c0,1.9,0.8,3.5,2,4.2l0,0.3h1.2c1.8,0,3.2-2,3.2-4.6C66.8,77.3,65.4,75.2,63.6,75.2z"/>
	
		<linearGradient id="SVGID_00000029013338726483550970000011726653941691604923_" gradientUnits="userSpaceOnUse" x1="59.1073" y1="79.7981" x2="65.482" y2="79.7981">
		<stop  offset="0" style="stop-color:#311944"/>
		<stop  offset="1" style="stop-color:#6B3976"/>
	</linearGradient>
	<ellipse style="fill:url(#SVGID_00000029013338726483550970000011726653941691604923_);" cx="62.3" cy="79.8" rx="3.2" ry="4.6"/>
	<ellipse class="st16" cx="61.8" cy="79.8" rx="1.8" ry="2.6"/>
	
		<linearGradient id="SVGID_00000178174510963190756390000007958219278344240569_" gradientUnits="userSpaceOnUse" x1="64.2841" y1="79.5639" x2="61.3652" y2="79.8794">
		<stop  offset="5.405410e-03" style="stop-color:#D8DEE8"/>
		<stop  offset="1" style="stop-color:#F4F7FA"/>
	</linearGradient>
	<ellipse style="fill:url(#SVGID_00000178174510963190756390000007958219278344240569_);" cx="62.1" cy="79.8" rx="1.5" ry="2.4"/>
</g>
<path class="st5" d="M31.9,70.1v4.8c0,1.2,1.1,2.2,2.3,2.1l11.6-1.4v-5.4L31.9,70.1z"/>
<path class="st5" d="M37.1,69.5l3.2,4.9c0.5,0.7,1.2,1.2,2,1.3l10.5,1.3l0.8-5.3L37.1,69.5z"/>
<g>
	
		<linearGradient id="SVGID_00000163047540793332553570000005827827964000270003_" gradientUnits="userSpaceOnUse" x1="35.1464" y1="75.8597" x2="40.432" y2="75.8597">
		<stop  offset="0" style="stop-color:#311944"/>
		<stop  offset="1" style="stop-color:#6B3976"/>
	</linearGradient>
	<path style="fill:url(#SVGID_00000163047540793332553570000005827827964000270003_);" d="M37.8,71.9c-0.1,0-0.1,0-0.2,0l-0.9,0
		l0,0.4c-0.9,0.6-1.5,2-1.5,3.6c0,1.7,0.7,3.1,1.6,3.7l0,0.3h1c1.5,0,2.6-1.8,2.6-4C40.4,73.7,39.2,71.9,37.8,71.9z"/>
	
		<linearGradient id="SVGID_00000003797775589335058460000006949045958821939370_" gradientUnits="userSpaceOnUse" x1="34.0331" y1="75.8597" x2="39.3187" y2="75.8597">
		<stop  offset="0" style="stop-color:#311944"/>
		<stop  offset="1" style="stop-color:#6B3976"/>
	</linearGradient>
	<ellipse style="fill:url(#SVGID_00000003797775589335058460000006949045958821939370_);" cx="36.7" cy="75.9" rx="2.6" ry="4"/>
	<ellipse class="st16" cx="36.3" cy="75.9" rx="1.5" ry="2.2"/>
	
		<linearGradient id="SVGID_00000140016278656109086480000011905375568204979610_" gradientUnits="userSpaceOnUse" x1="39.1656" y1="76.2146" x2="35.0633" y2="75.6624">
		<stop  offset="5.405410e-03" style="stop-color:#D8DEE8"/>
		<stop  offset="1" style="stop-color:#F4F7FA"/>
	</linearGradient>
	<ellipse style="fill:url(#SVGID_00000140016278656109086480000011905375568204979610_);" cx="36.5" cy="75.9" rx="1.3" ry="2.1"/>
</g>
<path class="st21" d="M49.3,73.2l-21.6-3c-0.4,0-0.6-0.4-0.6-0.7v-19c0-0.4,0.3-0.7,0.7-0.7l21.5-0.7V73.2z"/>
<path class="st21" d="M66.2,71.9l-16.9,1.3V49.1L65.4,50c0.5,0,0.8,0.4,0.8,0.9V71.9z"/>
<linearGradient id="SVGID_00000092436755856298790910000004954319789311670191_" gradientUnits="userSpaceOnUse" x1="27.0646" y1="61.41" x2="47.2082" y2="61.41">
	<stop  offset="0" style="stop-color:#AA80F9"/>
	<stop  offset="0.9964" style="stop-color:#6165D7"/>
</linearGradient>
<path style="opacity:0.3;fill:url(#SVGID_00000092436755856298790910000004954319789311670191_);" d="M41.5,58.3
	c-3.1-4-9.4-1-12.5-5.5c-0.7-1-1.2-2-1.5-3c-0.2,0.1-0.3,0.4-0.3,0.6v19c0,0.4,0.3,0.7,0.6,0.7l19.5,2.7c-1.2-1.3-2.5-3.1-3.4-5.2
	C41.9,63,43.5,60.9,41.5,58.3z"/>
<linearGradient id="SVGID_00000001635183368924068900000008055964230396636065_" gradientUnits="userSpaceOnUse" x1="51.4105" y1="68.9839" x2="81.4982" y2="68.9839">
	<stop  offset="5.405410e-03" style="stop-color:#D8DEE8"/>
	<stop  offset="1" style="stop-color:#F4F7FA"/>
</linearGradient>
<path style="fill:url(#SVGID_00000001635183368924068900000008055964230396636065_);" d="M52.5,59.1c-0.6,2.6-1.9,10.2-0.4,18.3
	c0.1,0.6,0.6,1.1,1.2,1.2l5.3,0.8c0,0,0.1-5,2.6-5.3c2.5-0.3,4.9,2,5,6.1c0,0,5.5,0.7,13.7-1.2c0,0,1.1-0.2,1.6-1.5l-0.4-5.7
	c0-0.5-0.2-0.9-0.6-1.2l-4.9-4.2c0,0-4.4-6.3-5.9-7.5c0,0-0.8-1.3-7.2-1.4c-4.4-0.1-7.4,0.2-8.9,0.4C53.2,58,52.7,58.5,52.5,59.1z"
	/>
<linearGradient id="SVGID_00000155851253059602798840000002597436727521135274_" gradientUnits="userSpaceOnUse" x1="66.2594" y1="69.5217" x2="52.3749" y2="91.5054">
	<stop  offset="5.405410e-03" style="stop-color:#D8DEE8"/>
	<stop  offset="1" style="stop-color:#F4F7FA"/>
</linearGradient>
<path style="opacity:0.6;fill:url(#SVGID_00000155851253059602798840000002597436727521135274_);" d="M80.8,71.1l-0.2,0.3
	c0.1,2.9,0.7,4-4.7,4.5c-5.4,0.6-5.2-4-5.2-4l-7.1-3.1l-5.9-9.3c-1.2-0.9-3.2-1.2-4.6-1.3c-0.3,0.2-0.5,0.5-0.6,0.9
	c-0.6,2.6-1.9,10.2-0.4,18.3c0.1,0.6,0.6,1.1,1.2,1.2l5.3,0.8c0,0,0.1-5,2.6-5.3c2.5-0.3,4.9,2,5,6.1c0,0,5.5,0.7,13.7-1.2
	c0,0,1.1-0.2,1.6-1.5l-0.4-5.7C81.1,71.6,81,71.3,80.8,71.1z"/>
<path class="st5" d="M63.6,67.4c0.2,0.3,0.5,0.5,0.9,0.4l11.2-1.4l0,0c0,0-3.7-5.2-5.4-7l-10.3,0.6c-0.4,0-0.6,0.4-0.4,0.7
	L63.6,67.4z"/>
<path class="st25" d="M70.2,63.9c-3.1-1.2-5.6,0.2-7.7-1.5c-0.8-0.6-1.3-1.5-1.6-2.5l-1.1,0.1c-0.4,0-0.6,0.4-0.4,0.7l4,6.6
	c0.2,0.3,0.5,0.5,0.9,0.4l9.3-1.1C72.6,65.2,71.3,64.4,70.2,63.9z"/>
<path class="st21" d="M80.1,71.8c0-0.1-0.1-0.2-0.2-0.2c-2.8,0-6.3,0.6-7.5,0.8c-0.2,0-0.4,0.3-0.3,0.5c0.2,1,0.6,1.6,0.9,2
	c0.2,0.3,0.5,0.4,0.8,0.4c0.9,0.1,2.8,0.2,3.8,0c0.8-0.2,1.6-0.6,2.1-0.8c0.3-0.1,0.4-0.4,0.5-0.7C80.3,73.2,80.2,72.2,80.1,71.8z"
	/>
<path class="st5" d="M76.9,76.1c-4.2,0.6-5.1-0.9-5.1-0.9c-1,0.1-2.4,0-3.2-0.2c-0.3-0.1-0.6,0.1-0.8,0.4c-0.1,0.2-0.4,0.4-0.8,0.5
	c-0.7,0.1-1.9-0.1-2.5-0.3c0.8,1.2,1.4,2.7,1.5,4.7c0,0,5.6,0.7,13.8-1.2c0,0,1.1-0.2,1.6-1.5l-0.2-3.7
	C80.8,74.5,79.7,75.7,76.9,76.1z"/>
<linearGradient id="SVGID_00000073701389382170977770000008570220149686880946_" gradientUnits="userSpaceOnUse" x1="69.0276" y1="77.9205" x2="81.4982" y2="77.9205">
	<stop  offset="0" style="stop-color:#444B8C"/>
	<stop  offset="0.9964" style="stop-color:#26264F"/>
</linearGradient>
<path style="opacity:0.6;fill:url(#SVGID_00000073701389382170977770000008570220149686880946_);" d="M70.1,76.8
	c-0.5,0-0.9,0.3-0.9,0.8c0,1-0.1,2.1-0.2,2.8c2.4,0,6.2-0.2,10.9-1.3c0,0,1.1-0.2,1.6-1.5l-0.1-2.2C78,77.4,72.3,77,70.1,76.8z"/>
<path class="st5" d="M54.3,60.6l1.5,0.4c0.5,0.1,0.9,0.4,1.2,0.8l3.8,5.5c0.3,0.4-0.1,0.9-0.5,0.8l-6.5-1.4
	c-0.3-0.1-0.5-0.3-0.5-0.5c0-0.9-0.1-3.2,0.3-5.1C53.7,60.7,54,60.5,54.3,60.6z"/>
<g>
	<g>
		<path class="st21" d="M46.4,35.8c0,0,2.7-8.4,11.8-9.7S73.6,31,73.6,31l-1.9,1.8C71.7,32.8,57.6,18.3,46.4,35.8z"/>
		<path class="st21" d="M77,35.4l-3-5.3c0,0-3.4,3-3.4,3.1l5.9,2.7C76.9,36,77.2,35.6,77,35.4z"/>
	</g>
</g>
<text transform="matrix(1 0 0 1 -382.4725 5.5308)" style="font-family:'NexaLight'; font-size:3.0746px;">Local Move Experts</text>
<text transform="matrix(1 0 0 1 -347.215 5.5308)" style="font-family:'NexaLight'; font-size:3.0746px;">Long Distance Movers</text>
<text transform="matrix(1 0 0 1 -309.093 5.5308)" style="font-family:'NexaLight'; font-size:3.0746px;">Residential Moving</text>
<g>
	<path class="st21" d="M-299.1-17.3l5.1-1.9c0,0,0.1,0,0.1,0l5.1,1.9v7.8h-0.9v-2.2c0,0,0-0.1-0.1-0.1h-1.4V-14c0,0,0-0.1-0.1-0.1
		h-2.2c0,0-0.1,0-0.1,0.1v2.3h-0.7V-14c0,0,0-0.1-0.1-0.1h-1.5c0.1,0.1,0.1,0.2,0.1,0.2l0.8,1.7h0v0l0,0c0.1,0.2,0.2,0.5,0.2,0.7
		v1.8c0,0.2-0.1,0.5-0.3,0.6h7.1v-8l0.6,0.2c0.1,0,0.2,0,0.2-0.1l0.2-0.5c0-0.1,0-0.2-0.1-0.2l-6.8-2.5c0,0-0.1,0-0.1,0l-6.8,2.5
		c-0.1,0-0.1,0.1-0.1,0.2l0.2,0.5c0,0.1,0.1,0.1,0.2,0.1l0.6-0.2v1.4h0.8V-17.3z M-292.8-11.8h0.7v2.3h-0.7V-11.8z"/>
	<path class="st21" d="M-284.4-8.1h-19.1c-0.1,0-0.2,0.1-0.2,0.2c0,0.1,0.1,0.2,0.2,0.2h19.1c0.1,0,0.2-0.1,0.2-0.2
		C-284.2-8-284.3-8.1-284.4-8.1z"/>
	<path class="st5" d="M-285.1-16c-1.4,0.2-2.4,1.4-2.4,2.8c0,0.5,0.1,1,0.4,1.4c0.3,0.6,1.6,2.3,2.2,3.1c0.1,0.2,0.4,0.2,0.5,0
		c0.5-0.7,1.8-2.5,2.2-3.1c0.2-0.4,0.4-0.9,0.4-1.4C-282-14.9-283.4-16.2-285.1-16z M-284.8-11.4c-1,0-1.8-0.8-1.8-1.8
		s0.8-1.8,1.8-1.8s1.8,0.8,1.8,1.8S-283.7-11.4-284.8-11.4z"/>
	<path class="st5" d="M-301.9-9.2h3.9c0-0.1-0.1-0.3-0.1-0.4c0-0.4,0.2-0.7,0.5-0.9c-0.2,0.2-0.3,0.5-0.3,0.7c0,0.2,0.1,0.4,0.2,0.6
		c0.2,0.3,0.6,0.6,1,0.6c0.4,0,0.8-0.2,1-0.6h0h0.1h0c0.2,0,0.4-0.2,0.4-0.4v-1.8c0-0.2,0-0.4-0.1-0.5l-0.8-1.7
		c-0.2-0.5-0.7-0.8-1.2-0.8h-0.6v-0.2c0-0.2-0.2-0.5-0.5-0.5h-6c-0.2,0-0.5,0.2-0.5,0.5v5c0,0.2,0.2,0.5,0.5,0.5h0.2c0,0,0,0,0,0
		c0,0,0.1,0,0.2,0c0-0.1-0.1-0.2-0.1-0.3c0-0.4,0.2-0.7,0.4-1c-0.2,0.2-0.3,0.4-0.3,0.7c0,0.2,0.1,0.4,0.2,0.6
		c0.2,0.3,0.6,0.6,1,0.6C-302.5-8.6-302.1-8.8-301.9-9.2z M-297.5-9.7c0-0.4,0.3-0.6,0.6-0.6c0.4,0,0.6,0.3,0.6,0.6
		c0,0.2-0.1,0.5-0.3,0.6c-0.1,0-0.2,0.1-0.3,0.1c-0.1,0-0.2,0-0.3-0.1C-297.3-9.3-297.5-9.5-297.5-9.7z M-297.4-14
		c0.3,0,0.6,0.2,0.8,0.5l0.8,1.7h-2.2V-14H-297.4z M-302.6-9.2c-0.1,0-0.2,0.1-0.3,0.1c-0.1,0-0.2,0-0.3-0.1
		c-0.2-0.1-0.3-0.3-0.3-0.6c0-0.4,0.3-0.6,0.6-0.6c0.4,0,0.6,0.3,0.6,0.6C-302.2-9.5-302.4-9.3-302.6-9.2z"/>
</g>
<path class="st0" d="M-257.9-3.7c-1.9-0.2-3.9,1.1-5.6,0.3c-1.8-0.8-2.6-2.9-3.8-4.4c-1.7-2.1-4.9-3.6-5-6.4
	c-0.1-2.7,2.3-5.1,4.7-6.4c2.1-1.2,4.9,0.6,7.2-0.3c2.6-0.9,3.8-4.6,6.5-4.7c2.7-0.1,5.1,2,6.8,4.1c1.7,2.1,2.3,4.7,2.6,7.4
	c0.3,2.6,0.3,5.3-1,7.5c-1.2,2.2-3.4,3.9-5.8,4.4C-253.6-1.6-255.6-3.5-257.9-3.7z"/>
<path class="st0" d="M-224.8-3.2c-1.6-0.2-3.3,1.1-4.8,0.3c-1.6-0.8-2.2-2.9-3.3-4.4c-1.5-2.1-4.2-3.6-4.3-6.4c-0.1-2.7,2-5.1,4-6.4
	c1.8-1.2,4.2,0.6,6.2-0.3c2.2-0.9,3.2-4.6,5.6-4.7c2.3-0.1,4.4,2,5.8,4.1c1.4,2.1,2,4.7,2.2,7.4c0.2,2.6,0.2,5.3-0.9,7.5
	c-1.1,2.2-2.9,3.9-5,4.4C-221.2-1.1-222.9-3-224.8-3.2z"/>
<path class="st0" d="M-190.5-3.2c-1.6-0.2-3.3,1.1-4.8,0.3c-1.6-0.8-2.2-2.9-3.3-4.4c-1.5-2.1-4.2-3.6-4.3-6.4c-0.1-2.7,2-5.1,4-6.4
	c1.8-1.2,4.2,0.6,6.2-0.3c2.2-0.9,3.2-4.6,5.6-4.7c2.3-0.1,4.4,2,5.8,4.1c1.4,2.1,2,4.7,2.2,7.4c0.2,2.6,0.2,5.3-0.9,7.5
	c-1.1,2.2-2.9,3.9-5,4.4C-186.9-1.1-188.6-3-190.5-3.2z"/>
<text transform="matrix(1 0 0 1 -271.2151 5.5308)" style="font-family:'NexaLight'; font-size:3.0746px;">Commercial Moving</text>
<text transform="matrix(1 0 0 1 -233.0836 5.5308)" style="font-family:'NexaLight'; font-size:3.0746px;">Small Moves</text>
<text transform="matrix(1 0 0 1 -205.6064 5.5308)" style="font-family:'NexaLight'; font-size:3.0746px;">Packing &amp; Storage Service</text>
<g>
	<g>
		<g>
			<g>
				<g>
					<g>
						<g>
							<g>
								<path class="st27" d="M-255.2-20.7v3.1h-2.7c-0.2,0-0.3-0.1-0.3-0.3v-2.4c0-0.2,0.1-0.3,0.3-0.3H-255.2z"/>
								<path class="st28" d="M-256.1-20.7v0.7c0,0.1-0.1,0.1-0.2,0.1l-0.2-0.2c0,0-0.1,0-0.1,0l-0.2,0.2c-0.1,0-0.2,0-0.2-0.1v-0.7
									H-256.1z"/>
								<path class="st28" d="M-256.4-18.4c-0.1,0-0.2,0.1-0.3,0.1c-0.1,0-0.2,0-0.3,0c-0.1,0-0.2,0-0.3,0c-0.1,0-0.2,0-0.3-0.1
									c0.1,0,0.2-0.1,0.3-0.1c0.1,0,0.2,0,0.3,0c0.1,0,0.2,0,0.3,0C-256.6-18.5-256.5-18.5-256.4-18.4z"/>
								<path class="st28" d="M-257.1-18.1c0.1,0,0.1,0,0.2,0.1c-0.1,0-0.1,0.1-0.2,0.1c-0.1,0-0.1,0-0.2,0c-0.1,0-0.1,0-0.2,0
									c-0.1,0-0.1,0-0.2-0.1c0.1,0,0.1-0.1,0.2-0.1c0.1,0,0.1,0,0.2,0S-257.1-18.1-257.1-18.1z"/>
							</g>
						</g>
					</g>
				</g>
			</g>
		</g>
		<g>
			<g>
				<g>
					<g>
						<g>
							<g>
								<path class="st27" d="M-251.3-20.7v3.1h-2.7c-0.2,0-0.3-0.1-0.3-0.3v-2.4c0-0.2,0.1-0.3,0.3-0.3H-251.3z"/>
								<path class="st28" d="M-254.3-20.4v2.4c0,0.2-0.1,0.3-0.3,0.3h-0.5v-3.1h0.5C-254.4-20.7-254.3-20.6-254.3-20.4z"/>
								<path class="st28" d="M-250.4-20.4v2.4c0,0.2-0.1,0.3-0.3,0.3h-0.5v-3.1h0.5C-250.6-20.7-250.4-20.6-250.4-20.4z"/>
								<path class="st28" d="M-252.2-20.7v0.7c0,0.1-0.1,0.1-0.2,0.1l-0.2-0.2c0,0-0.1,0-0.1,0l-0.2,0.2c-0.1,0-0.2,0-0.2-0.1v-0.7
									H-252.2z"/>
								<path class="st28" d="M-252.6-18.4c-0.1,0-0.2,0.1-0.3,0.1c-0.1,0-0.2,0-0.3,0c-0.1,0-0.2,0-0.3,0s-0.2,0-0.3-0.1
									c0.1,0,0.2-0.1,0.3-0.1c0.1,0,0.2,0,0.3,0c0.1,0,0.2,0,0.3,0C-252.8-18.5-252.7-18.5-252.6-18.4z"/>
								<path class="st28" d="M-253.2-18.1c0.1,0,0.1,0,0.2,0.1c-0.1,0-0.1,0.1-0.2,0.1c-0.1,0-0.1,0-0.2,0c-0.1,0-0.1,0-0.2,0
									c-0.1,0-0.1,0-0.2-0.1c0.1,0,0.1-0.1,0.2-0.1c0.1,0,0.1,0,0.2,0S-253.3-18.1-253.2-18.1z"/>
							</g>
						</g>
					</g>
				</g>
			</g>
		</g>
	</g>
	<g>
		<g>
			<g>
				<g>
					<g>
						<g>
							<g>
								<path class="st27" d="M-255.2-15.6v3.1h-2.7c-0.2,0-0.3-0.1-0.3-0.3v-2.4c0-0.2,0.1-0.3,0.3-0.3H-255.2z"/>
								<path class="st28" d="M-256.1-15.6v0.7c0,0.1-0.1,0.1-0.2,0.1l-0.2-0.2c0,0-0.1,0-0.1,0l-0.2,0.2c-0.1,0-0.2,0-0.2-0.1v-0.7
									H-256.1z"/>
								<path class="st28" d="M-256.4-13.3c-0.1,0-0.2,0.1-0.3,0.1c-0.1,0-0.2,0-0.3,0c-0.1,0-0.2,0-0.3,0c-0.1,0-0.2,0-0.3-0.1
									c0.1,0,0.2-0.1,0.3-0.1c0.1,0,0.2,0,0.3,0c0.1,0,0.2,0,0.3,0C-256.6-13.4-256.5-13.3-256.4-13.3z"/>
								<path class="st28" d="M-257.1-13c0.1,0,0.1,0,0.2,0.1c-0.1,0-0.1,0.1-0.2,0.1c-0.1,0-0.1,0-0.2,0c-0.1,0-0.1,0-0.2,0
									c-0.1,0-0.1,0-0.2-0.1c0.1,0,0.1-0.1,0.2-0.1c0.1,0,0.1,0,0.2,0S-257.1-13-257.1-13z"/>
							</g>
						</g>
					</g>
				</g>
			</g>
		</g>
		<g>
			<g>
				<g>
					<g>
						<g>
							<g>
								<path class="st27" d="M-251.3-15.6v3.1h-2.7c-0.2,0-0.3-0.1-0.3-0.3v-2.4c0-0.2,0.1-0.3,0.3-0.3H-251.3z"/>
								<path class="st28" d="M-250.4-15.3v2.4c0,0.2-0.1,0.3-0.3,0.3h-0.5v-3.1h0.5C-250.6-15.6-250.4-15.4-250.4-15.3z"/>
								<path class="st28" d="M-254.3-15.3v2.4c0,0.2-0.1,0.3-0.3,0.3h-0.5v-3.1h0.5C-254.4-15.6-254.3-15.4-254.3-15.3z"/>
								<path class="st28" d="M-252.2-15.6v0.7c0,0.1-0.1,0.1-0.2,0.1l-0.2-0.2c0,0-0.1,0-0.1,0l-0.2,0.2c-0.1,0-0.2,0-0.2-0.1v-0.7
									H-252.2z"/>
								<path class="st28" d="M-252.6-13.3c-0.1,0-0.2,0.1-0.3,0.1c-0.1,0-0.2,0-0.3,0c-0.1,0-0.2,0-0.3,0s-0.2,0-0.3-0.1
									c0.1,0,0.2-0.1,0.3-0.1c0.1,0,0.2,0,0.3,0c0.1,0,0.2,0,0.3,0C-252.8-13.4-252.7-13.3-252.6-13.3z"/>
								<path class="st28" d="M-253.2-13c0.1,0,0.1,0,0.2,0.1c-0.1,0-0.1,0.1-0.2,0.1c-0.1,0-0.1,0-0.2,0c-0.1,0-0.1,0-0.2,0
									c-0.1,0-0.1,0-0.2-0.1c0.1,0,0.1-0.1,0.2-0.1c0.1,0,0.1,0,0.2,0S-253.3-13-253.2-13z"/>
							</g>
						</g>
					</g>
				</g>
			</g>
		</g>
	</g>
	<g>
		<path class="st21" d="M-249.2-17.7c0.2,0,0.4,0.1,0.4,0.3c0,0.2,0,0.3,0,0.5c0,0.2-0.2,0.3-0.4,0.3c-3.5,0.2-7,0.2-10.4,0
			c-0.2,0-0.4-0.1-0.4-0.3c0-0.2,0-0.3,0-0.5c0-0.2,0.2-0.3,0.4-0.3C-256.2-17.8-252.8-17.8-249.2-17.7z"/>
		<path class="st21" d="M-249.2-12.6c0.2,0,0.4,0.1,0.4,0.3c0,0.2,0,0.3,0,0.5c0,0.2-0.2,0.3-0.4,0.3c-3.5,0.2-7,0.2-10.4,0
			c-0.2,0-0.4-0.1-0.4-0.3c0-0.2,0-0.3,0-0.5c0-0.2,0.2-0.3,0.4-0.3C-256.2-12.8-252.8-12.8-249.2-12.6z"/>
	</g>
	<g>
		<g>
			<path class="st5" d="M-258.8-9.6c0,0.2-0.2,0.4-0.3,0.4c-0.2,0-0.4,0-0.6,0c-0.2,0-0.3-0.2-0.3-0.4c-0.2-3.5-0.2-7,0-10.4
				c0-0.2,0.1-0.4,0.3-0.4c0.2,0,0.4,0,0.6,0c0.2,0,0.4,0.2,0.4,0.4C-258.6-16.6-258.6-13.2-258.8-9.6z"/>
			<path class="st5" d="M-248.9-9.6c0,0.2-0.2,0.4-0.3,0.4c-0.2,0-0.4,0-0.6,0c-0.2,0-0.3-0.2-0.3-0.4c-0.2-3.5-0.2-7,0-10.4
				c0-0.2,0.1-0.4,0.3-0.4c0.2,0,0.4,0,0.6,0c0.2,0,0.4,0.2,0.4,0.4C-248.7-16.6-248.7-13.2-248.9-9.6z"/>
		</g>
	</g>
	<path class="st21" d="M-256-12.6v6h-8.3v-6c0-0.4,0.3-0.8,0.8-0.8h6.8C-256.4-13.4-256-13.1-256-12.6z"/>
	<rect x="-256" y="-10.6" class="st29" width="0.4" height="4"/>
	<path class="st5" d="M-251.8-8.9v2.2h-3.8v-4.3c0-0.4,0.3-0.7,0.7-0.7h1.3c0.3,0,0.5,0.1,0.6,0.4l1.1,2.1
		C-251.8-9.1-251.8-9-251.8-8.9z"/>
	<path class="st30" d="M-251.6-6.5V-6c0,0.1-0.1,0.2-0.2,0.2h-12.6c-0.1,0-0.2-0.1-0.2-0.2v-0.5c0-0.1,0.1-0.2,0.2-0.2h12.6
		C-251.7-6.6-251.6-6.6-251.6-6.5z"/>
	<path class="st30" d="M-255.2-11v1.2c0,0.1,0.1,0.2,0.2,0.2l2,0.5c0.3,0.1,0.6-0.2,0.4-0.5l-0.7-1.5c0-0.1-0.1-0.1-0.2-0.1h-1.5
		C-255.1-11.3-255.2-11.2-255.2-11z"/>
	<path class="st31" d="M-254-8.7c0,0,0.1,0,0.1-0.1c0-0.1,0-0.1-0.1-0.1l-0.5-0.2c-0.1,0-0.1,0-0.1,0.1c0,0.1,0,0.1,0.1,0.1
		L-254-8.7C-254-8.7-254-8.7-254-8.7z"/>
	<circle class="st32" cx="-253.7" cy="-6.1" r="1"/>
	<circle class="st4" cx="-253.7" cy="-6.1" r="0.4"/>
	<circle class="st32" cx="-259.9" cy="-6.1" r="1"/>
	<circle class="st4" cx="-259.9" cy="-6.1" r="0.4"/>
	<circle class="st32" cx="-262.5" cy="-6.1" r="1"/>
	<circle class="st4" cx="-262.5" cy="-6.1" r="0.4"/>
	<path class="st27" d="M-252.4-7.9c0,0.3,0.2,0.5,0.5,0.5c0,0,0,0,0.1,0v-1c0,0,0,0-0.1,0C-252.1-8.4-252.4-8.2-252.4-7.9z"/>
	<path class="st33" d="M-257.2-12.5c-0.1,0.4-0.1,0.8-0.1,1.3c0,0.4,0,0.8,0,1.3c0,0.4,0,0.8,0,1.3c0,0.4,0.1,0.8,0.1,1.3
		c0.1-0.4,0.1-0.8,0.1-1.3c0-0.4,0-0.8,0-1.3c0-0.4,0-0.8,0-1.3C-257.1-11.7-257.2-12.1-257.2-12.5z"/>
	<path class="st33" d="M-258.4-12.5c-0.1,0.4-0.1,0.8-0.1,1.3c0,0.4,0,0.8,0,1.3c0,0.4,0,0.8,0,1.3c0,0.4,0.1,0.8,0.1,1.3
		c0.1-0.4,0.1-0.8,0.1-1.3c0-0.4,0-0.8,0-1.3c0-0.4,0-0.8,0-1.3C-258.3-11.7-258.3-12.1-258.4-12.5z"/>
	<path class="st33" d="M-259.6-12.5c-0.1,0.4-0.1,0.8-0.1,1.3c0,0.4,0,0.8,0,1.3c0,0.4,0,0.8,0,1.3c0,0.4,0.1,0.8,0.1,1.3
		c0.1-0.4,0.1-0.8,0.1-1.3c0-0.4,0-0.8,0-1.3c0-0.4,0-0.8,0-1.3C-259.5-11.7-259.5-12.1-259.6-12.5z"/>
	<path class="st33" d="M-260.8-12.5c-0.1,0.4-0.1,0.8-0.1,1.3c0,0.4,0,0.8,0,1.3c0,0.4,0,0.8,0,1.3c0,0.4,0.1,0.8,0.1,1.3
		c0.1-0.4,0.1-0.8,0.1-1.3c0-0.4,0-0.8,0-1.3c0-0.4,0-0.8,0-1.3C-260.7-11.7-260.7-12.1-260.8-12.5z"/>
	<path class="st33" d="M-261.9-12.5c-0.1,0.4-0.1,0.8-0.1,1.3c0,0.4,0,0.8,0,1.3c0,0.4,0,0.8,0,1.3c0,0.4,0.1,0.8,0.1,1.3
		c0.1-0.4,0.1-0.8,0.1-1.3c0-0.4,0-0.8,0-1.3c0-0.4,0-0.8,0-1.3C-261.8-11.7-261.9-12.1-261.9-12.5z"/>
	<path class="st33" d="M-263.1-12.5c-0.1,0.4-0.1,0.8-0.1,1.3c0,0.4,0,0.8,0,1.3c0,0.4,0,0.8,0,1.3c0,0.4,0.1,0.8,0.1,1.3
		c0.1-0.4,0.1-0.8,0.1-1.3c0-0.4,0-0.8,0-1.3c0-0.4,0-0.8,0-1.3C-263-11.7-263-12.1-263.1-12.5z"/>
	<path class="st21" d="M-260.9-17.3c0,0.7-1.1,2.4-1.5,3c-0.1,0.1-0.2,0.1-0.3,0c-0.4-0.6-1.5-2.3-1.5-3c0-0.9,0.7-1.6,1.6-1.6
		S-260.9-18.2-260.9-17.3z"/>
	<circle class="st29" cx="-262.5" cy="-17.3" r="1.1"/>
	<circle class="st4" cx="-262.5" cy="-17.3" r="0.8"/>
</g>
<g id="Master_Layer_4">
</g>
<rect x="-197" y="-21" class="st1" width="15.1" height="17.8"/>
<path class="st34" d="M-189.6-11.9l-0.2,5.6l5.4-3.1l0.3-5.4L-189.6-11.9z"/>
<path class="st34" d="M-194.6-14.9l-0.1,5.3l5,3.3l0.2-5.6L-194.6-14.9z"/>
<path class="st34" d="M-189-17.6l-5.7,2.6l5.1,3l5.5-2.9L-189-17.6z"/>
<path class="st21" d="M-187.5-13L-187.5-13l1.1-0.2l0.1-0.4l-4.6-3"/>
<path class="st21" d="M-187.5-13l0.5-0.8l-4-2.9l-1.2,0.5L-187.5-13z"/>
<path class="st21" d="M-187.5-13l1.2-0.6l0,1.4l-1.1,0.6L-187.5-13z"/>
<path class="st21" d="M-189.5-4.6c-3.7,0-6.8-2.6-7.5-6.2c0-0.1,0-0.1,0-0.1c0,0,0.1-0.1,0.1-0.1s0.1,0,0.1,0c0,0,0.1,0.1,0.1,0.1
	C-196-7.4-193-5-189.5-5c4,0,7.2-3.2,7.2-7.2c0-3.9-3.2-7.2-7.2-7.2c-0.3,0-0.6,0-0.9,0.1c-0.1,0-0.1,0-0.1,0c0,0-0.1-0.1-0.1-0.1
	c0-0.1,0-0.1,0-0.1c0,0,0.1-0.1,0.1-0.1c0.3,0,0.6-0.1,1-0.1c2,0,3.9,0.8,5.4,2.2c1.4,1.4,2.2,3.3,2.2,5.3s-0.8,3.9-2.2,5.3
	S-187.5-4.6-189.5-4.6z"/>
<path class="st4" d="M-196.8-11.6c0,0-0.1,0-0.1-0.1c0,0-0.1-0.1-0.1-0.1c0-0.1,0-0.2,0-0.3c0-0.1,0-0.1,0.1-0.1
	c0,0,0.1-0.1,0.1-0.1s0.1,0,0.1,0.1c0,0,0.1,0.1,0.1,0.1c0,0.1,0,0.2,0,0.3c0,0,0,0.1,0,0.1c0,0,0,0,0,0.1
	C-196.7-11.6-196.7-11.6-196.8-11.6C-196.7-11.6-196.7-11.6-196.8-11.6C-196.8-11.6-196.8-11.6-196.8-11.6z"/>
<path class="st35" d="M-196.6-13.4C-196.7-13.4-196.7-13.4-196.6-13.4c-0.1,0-0.1,0-0.2-0.1c0,0,0,0,0-0.1c0,0,0-0.1,0-0.1
	c0-0.2,0.1-0.4,0.2-0.6c0,0,0,0,0-0.1c0,0,0,0,0.1-0.1s0,0,0.1,0c0,0,0.1,0,0.1,0c0,0,0,0,0.1,0c0,0,0,0,0,0.1c0,0,0,0,0,0.1
	c0,0,0,0.1,0,0.1c-0.1,0.2-0.1,0.4-0.1,0.6c0,0,0,0.1-0.1,0.1C-196.5-13.5-196.6-13.4-196.6-13.4L-196.6-13.4z M-195.7-15.7
	c0,0-0.1,0-0.1,0c0,0,0,0-0.1-0.1c0,0,0,0,0-0.1s0-0.1,0-0.1c0,0,0-0.1,0-0.1c0.1-0.2,0.2-0.4,0.3-0.5c0,0,0,0,0.1-0.1
	c0,0,0,0,0.1,0c0,0,0.1,0,0.1,0c0,0,0,0,0.1,0c0,0,0,0,0.1,0.1c0,0,0,0,0,0.1c0,0,0,0.1,0,0.1c0,0,0,0,0,0.1
	c-0.1,0.2-0.2,0.3-0.3,0.5C-195.6-15.8-195.6-15.8-195.7-15.7C-195.7-15.7-195.7-15.7-195.7-15.7L-195.7-15.7z M-194.1-17.6
	c0,0-0.1,0-0.1,0c0,0-0.1-0.1-0.1-0.1c0,0,0-0.1,0-0.1c0,0,0-0.1,0.1-0.1c0.2-0.1,0.3-0.3,0.5-0.4c0,0,0.1,0,0.1,0
	c0.1,0,0.1,0,0.1,0.1c0,0,0,0.1,0,0.1c0,0.1,0,0.1-0.1,0.1c-0.2,0.1-0.3,0.2-0.5,0.4C-194-17.6-194.1-17.6-194.1-17.6L-194.1-17.6z"
	/>
<path class="st35" d="M-189.2-19.3L-189.2-19.3c-0.1,0-0.2,0-0.3,0h0c-0.1,0-0.1,0-0.1-0.1c0,0-0.1-0.1-0.1-0.1c0-0.1,0-0.1,0.1-0.1
	c0,0,0.1-0.1,0.1-0.1c0.1,0,0.2,0,0.3,0c0.1,0,0.1,0,0.1,0.1c0,0,0.1,0.1,0.1,0.1c0,0.1,0,0.1-0.1,0.1
	C-189.1-19.3-189.1-19.3-189.2-19.3L-189.2-19.3z"/>
<path class="st35" d="M-189.2-18.1c0,0-0.1,0-0.1,0l-1.6-1.1c0,0,0,0-0.1-0.1c0,0,0-0.1,0-0.1c0,0,0-0.1,0-0.1c0,0,0-0.1,0-0.1
	c1.5-1.4,1.6-1.4,1.7-1.5c0,0,0.1,0,0.1,0c0,0,0.1,0.1,0.1,0.1c0,0,0,0.1,0,0.1c0,0-0.1,0.1-0.1,0.1c-0.1,0.1-0.7,0.7-1.4,1.2
	l1.4,0.9c0,0,0.1,0.1,0.1,0.1c0,0,0,0.1,0,0.1c0,0,0,0.1-0.1,0.1C-189.1-18.1-189.2-18.1-189.2-18.1L-189.2-18.1z"/>
<path class="st21" d="M-229-11.6l4.6,2.3c0,0,0,0,0.1,0c0,0,0,0,0,0c0,0,0.1,0,0.1,0l2.7-1.4c0.1,0,0.1-0.2,0.1-0.2
	c0-0.1-0.2-0.1-0.2-0.1l-0.1,0.1l0-0.6c0-0.1-0.1-0.2-0.2-0.2c0,0,0,0,0,0c-0.1,0-0.2,0.1-0.2,0.2l0,0.8l-2,1l0-4.5l2-1l0,0.8
	c0,0.1,0.1,0.2,0.2,0.2c0,0,0,0,0,0c0.1,0,0.2-0.1,0.2-0.2l0-1l1.8-0.9l0,1.9c0,0.1,0.1,0.2,0.2,0.2c0,0,0,0,0,0
	c0.1,0,0.2-0.1,0.2-0.2l0-2.2c0,0,0,0,0,0c0,0,0,0,0,0c0,0,0,0,0,0c0,0,0,0,0,0c0-0.1-0.1-0.1-0.1-0.1l-4.5-2.3c-0.1,0-0.1,0-0.2,0
	l-2.2,1.1c0,0-0.1,0-0.1,0l-2.3,1.2c0,0,0,0,0,0c0,0,0,0,0,0c0,0,0,0,0,0c0,0,0,0,0,0c0,0,0,0,0,0c0,0,0,0,0,0c0,0,0,0,0,0
	c0,0,0,0,0,0c0,0,0,0,0,0c0,0,0,0,0,0c0,0,0,0,0,0c0,0,0,0,0,0c0,0,0,0,0,0c0,0,0,0,0,0c0,0,0,0,0,0c0,0,0,0,0,0c0,0,0,0,0,0
	c0,0,0,0,0,0c0,0,0,0,0,0c0,0,0,0,0,0c0,0,0,0,0,0c0,0,0,0,0,0c0,0,0,0,0,0c0,0,0,0,0,0c0,0,0,0,0,0c0,0,0,0,0,0c0,0,0,0,0,0
	c0,0,0,0,0,0c0,0,0,0,0,0c0,0,0,0,0,0c0,0,0,0,0,0c0,0,0,0,0,0c0,0,0,0,0,0c0,0,0,0,0,0c0,0,0,0,0,0c0,0,0,0,0,0c0,0,0,0,0,0
	c0,0,0,0,0,0c0,0,0,0,0,0c0,0,0,0,0,0c0,0,0,0,0,0c0,0,0,0,0,0c0,0,0,0,0,0c0,0,0,0,0,0c0,0,0,0,0,0c0,0,0,0,0,0c0,0,0,0,0,0l0,4.9
	C-229.1-11.7-229.1-11.6-229-11.6z M-226.6-17.6l4.2,2.1l-2,1l-1.5-0.7l-2.7-1.4L-226.6-17.6z M-228.8-16.3l2.8,1.4l1.4,0.7l0,4.5
	l-4.2-2.1L-228.8-16.3z M-224.4-18.7l4.2,2.1l-1.8,0.9l-4.2-2.1L-224.4-18.7z"/>
<path class="st5" d="M-228.9-8.3C-228.9-8.3-228.9-8.3-228.9-8.3C-228.9-8.3-228.9-8.3-228.9-8.3C-228.9-8.3-228.9-8.3-228.9-8.3
	C-228.9-8.3-228.9-8.3-228.9-8.3C-228.9-8.3-228.9-8.3-228.9-8.3C-228.9-8.3-228.9-8.3-228.9-8.3C-228.9-8.3-228.9-8.3-228.9-8.3
	C-228.9-8.3-228.9-8.3-228.9-8.3C-228.9-8.3-228.9-8.3-228.9-8.3C-228.9-8.3-228.9-8.3-228.9-8.3C-228.9-8.3-228.9-8.3-228.9-8.3
	C-228.9-8.3-228.9-8.3-228.9-8.3C-228.9-8.3-228.9-8.2-228.9-8.3C-228.9-8.2-228.9-8.2-228.9-8.3c0,0.1,0,0.1,0.1,0.1c0,0,0,0,0,0
	c0,0,0,0,0,0c0,0,0,0,0,0c0,0,0,0,0,0c0,0,0,0,0,0c0,0,0,0,0,0c0,0,0,0,0,0c0,0,0,0,0,0c0,0,0,0,0,0c0,0,0,0,0,0c0,0,0.1,0,0.1,0
	c0,0,0,0,0,0c0,0,0,0,0,0c0,0,0,0,0,0c0,0,0,0,0,0l0,0l9.1,0c0,0,0,0,0,0c0.3,0,0.7-0.1,1-0.2c0.3-0.1,0.6-0.3,0.8-0.6
	c0.2-0.2,0.4-0.5,0.6-0.8c0.1-0.3,0.2-0.7,0.2-1c0-0.9-0.4-1.7-1.2-2.2c-0.4-0.3-0.9-0.5-1.5-0.5c0,0,0,0,0,0l-1.1,0
	c-0.1,0-0.2,0.1-0.2,0.2c0,0.1,0.1,0.2,0.2,0.2l1.1,0c0,0,0,0,0,0c0.5,0,0.9,0.1,1.3,0.4c0.6,0.4,1,1.1,1,1.9c0,1.3-1,2.3-2.3,2.3
	c0,0,0,0,0,0l-8.9,0l0-0.8c0-0.1,0-0.1-0.1-0.2c-0.1,0-0.1,0-0.2,0l-2.7,1.8c-0.1,0-0.1,0.1-0.1,0.2s0,0.1,0.1,0.2l2.7,1.8
	c0,0,0.1,0,0.1,0c0,0,0.1,0,0.1,0c0.1,0,0.1-0.1,0.1-0.2l0-0.8l8.9,0c0.3,0,0.6,0,0.9-0.1c0.3-0.1,0.5-0.2,0.7-0.4
	c0.2-0.2,0.4-0.4,0.6-0.6c0.2-0.2,0.3-0.5,0.4-0.8c0-0.1,0-0.2-0.1-0.2c-0.1,0-0.2,0-0.2,0.1c-0.3,1-1.2,1.7-2.2,1.7l-8.9,0l0-0.6
	c0-0.1-0.1-0.2-0.2-0.2c0,0,0,0,0,0c-0.1,0-0.2,0.1-0.2,0.2l0,0.8c0,0,0,0,0,0c0,0,0,0,0,0l0,0.6l-2.2-1.5l2.2-1.5L-228.9-8.3z"/>
<path class="st5" d="M-219.9-18.8h0.2c0.1,0,0.2-0.1,0.2-0.2c0-0.1-0.1-0.2-0.2-0.2h-0.2c-0.1,0-0.2,0.1-0.2,0.2
	C-220.1-18.9-220-18.8-219.9-18.8z"/>
<path class="st5" d="M-222-18.8h1c0.1,0,0.2-0.1,0.2-0.2c0-0.1-0.1-0.2-0.2-0.2h-1c-0.1,0-0.2,0.1-0.2,0.2
	C-222.1-18.9-222.1-18.8-222-18.8z"/>
<path class="st5" d="M-219.3-17.6h2.1c0.1,0,0.2-0.1,0.2-0.2s-0.1-0.2-0.2-0.2h-2.1c-0.1,0-0.2,0.1-0.2,0.2S-219.4-17.6-219.3-17.6z
	"/>
<path class="st5" d="M-218.6-16.4c-0.1,0-0.2,0.1-0.2,0.2s0.1,0.2,0.2,0.2h0.5c0.1,0,0.2-0.1,0.2-0.2s-0.1-0.2-0.2-0.2H-218.6z"/>
<path class="st5" d="M-220.7-11.4l1,0c0,0,0,0,0,0c0.5,0,0.9,0.1,1.3,0.4c0.1,0,0.1,0.1,0.2,0.2c0,0,0.1,0,0.1,0
	c0.1,0,0.1,0,0.1-0.1c0.1-0.1,0.1-0.2,0-0.3c-0.1-0.1-0.2-0.1-0.2-0.2c-0.4-0.3-0.9-0.5-1.5-0.5c0,0,0,0,0,0l-1,0
	c-0.1,0-0.2,0.1-0.2,0.2C-220.9-11.4-220.8-11.4-220.7-11.4C-220.7-11.4-220.7-11.4-220.7-11.4z"/>
</svg>
