<?xml version="1.0" encoding="utf-8"?>
<!-- Generator: Adobe Illustrator 27.0.0, SVG Export Plug-In . SVG Version: 6.00 Build 0)  -->
<svg version="1.1" id="Layer_1" xmlns="http://www.w3.org/2000/svg" xmlns:xlink="http://www.w3.org/1999/xlink" x="0px" y="0px"
	 viewBox="0 0 103 99" style="enable-background:new 0 0 103 99;" xml:space="preserve">
<style type="text/css">
	.st0{fill-rule:evenodd;clip-rule:evenodd;fill:#FFFFFF;}
	.st1{fill:none;}
	.st2{fill-rule:evenodd;clip-rule:evenodd;fill:#D61F26;}
	.st3{fill-rule:evenodd;clip-rule:evenodd;fill:#203568;}
	.st4{fill:#FFFFFF;}
	.st5{fill:#D61F26;}
	.st6{fill:#203568;}
	.st7{fill:#FBAD3E;}
	.st8{fill:#FA990E;}
	.st9{fill:#255299;}
	.st10{fill:#D1DAFE;}
	.st11{fill:#51504F;}
	.st12{fill:#393F48;}
	.st13{fill:#912010;}
	.st14{fill:#203568;stroke:#FFFDFD;stroke-width:0.5;stroke-miterlimit:10;}
	.st15{fill:#2A4792;}
</style>
<path class="st0" d="M-294.9-3.7c-1.9-0.2-3.9,1.1-5.6,0.3c-1.8-0.8-2.6-2.9-3.8-4.4c-1.7-2.1-4.9-3.6-5-6.4
	c-0.1-2.7,2.3-5.1,4.7-6.4c2.1-1.2,4.9,0.6,7.2-0.3c2.6-0.9,3.8-4.6,6.5-4.7c2.7-0.1,5.1,2,6.8,4.1c1.7,2.1,2.3,4.7,2.6,7.4
	c0.3,2.6,0.3,5.3-1,7.5c-1.2,2.2-3.4,3.9-5.8,4.4C-290.6-1.6-292.6-3.5-294.9-3.7z"/>
<g>
	<path class="st0" d="M53.6,84.6c-6.7-0.7-13.7,3.8-19.9,1.1c-6.5-2.8-9.1-10.2-13.6-15.6C14,62.6,2.8,57.2,2.5,47.5
		C2.3,38,10.7,29.6,19,25c7.6-4.2,17.3,2,25.5-0.9c9.1-3.3,13.4-16.2,23-16.6c9.6-0.4,18,7.2,24,14.7c5.9,7.3,8.1,16.7,9.1,26
		c0.9,9.1,0.9,18.6-3.6,26.5c-4.4,7.6-12,13.8-20.6,15.7C68.7,92.2,61.6,85.5,53.6,84.6z"/>
	<rect x="12.8" y="7.1" class="st1" width="86.2" height="74.7"/>
	<path class="st2" d="M55.3,26.6c-0.8,2.5-1.9,5-3.2,7.3c0.5-0.1,1-0.1,1.5-0.2c-0.9,1.6-1.8,3.2-2.9,4.7c0.8-0.1,1.7-0.2,2.5-0.2
		c-1.4,2.2-2.9,4.4-4.7,6.4c0.9-0.1,1.9-0.2,2.8-0.2c-1.3,1.6-2.6,3.2-4.1,4.7c-0.8-0.8-1.5-1.7-2.2-2.6c0.7,0,1.4,0.1,2.1,0.2
		c-1.3-1.5-2.4-3.1-3.5-4.8c0.6,0,1.3,0.1,1.9,0.2c-0.8-1.1-1.5-2.3-2.2-3.5c0.4,0,0.7,0.1,1.1,0.1c-1-1.7-1.8-3.5-2.4-5.4
		c-0.6,1.9-1.4,3.7-2.4,5.4c0.4-0.1,0.7-0.1,1.1-0.1c-0.6,1.2-1.4,2.4-2.2,3.5c0.6-0.1,1.3-0.1,1.9-0.2c-0.9,1.4-1.8,2.7-2.8,4
		c-2-2.3-3.7-4.8-5.3-7.4c1.1,0.1,2.1,0.2,3.2,0.3c-1.4-1.9-2.6-3.9-3.7-5.9c0.6,0.1,1.3,0.1,1.9,0.2c-1.6-2.9-3-6-4.1-9.2
		c-1,3.2-2.4,6.3-4.1,9.2c0.6-0.1,1.3-0.2,1.9-0.2c-1.1,2-2.3,4-3.7,5.9c1.1-0.1,2.2-0.2,3.2-0.3c-1.8,2.8-3.7,5.5-5.9,8.1
		c1.2-0.1,2.4-0.2,3.5-0.3c-2,2.7-4.2,5.2-6.6,7.6c3.3,0.7,8.2,0.7,13.8,0.3c-6,2.3-11.6,5.5-12.5,9.5c4.6-8.2,45.1-14.6,54.7-14.8
		c-1.4,2-3.6,3.8-4.6,5.6c7.4-2.1,16.5-2.4,23.8,0.5c-2.6-2.5-4.9-5.2-7.1-8c1.2,0.1,2.5,0.2,3.7,0.3c-2.3-2.7-4.4-5.5-6.2-8.5
		c1.1,0.1,2.3,0.2,3.4,0.3c-1.4-2-2.7-4.1-3.9-6.3c0.7,0,1.3,0.1,2,0.2c-1.7-3.1-3.2-6.4-4.3-9.7c-1.1,3.4-2.6,6.6-4.3,9.7
		c0.7-0.1,1.3-0.2,2-0.2c-1.2,2.2-2.5,4.3-3.9,6.3c1.1-0.1,2.3-0.2,3.4-0.3c-1.4,2.2-2.8,4.3-4.4,6.3c-0.8-1-1.6-1.9-2.4-2.9
		c1.2,0.1,2.5,0.2,3.7,0.3c-2.3-2.7-4.4-5.5-6.2-8.5c1.1,0.1,2.3,0.2,3.4,0.3c-1.4-2-2.7-4.1-3.9-6.3c0.7,0.1,1.3,0.1,2,0.2
		c-1.7-3.1-3.2-6.4-4.3-9.7c-1.1,3.4-2.6,6.6-4.3,9.7c0.7-0.1,1.3-0.2,2-0.2c-1.2,2.2-2.5,4.3-3.9,6.3c1.1-0.1,2.3-0.2,3.4-0.3
		c-1.4,2.3-2.9,4.4-4.6,6.5c-0.5-0.7-1-1.5-1.4-2.2c0.8,0,1.7,0.1,2.5,0.2c-1.1-1.5-2-3.1-2.9-4.7c0.5,0,1,0.1,1.5,0.2
		C57.2,31.6,56.1,29.1,55.3,26.6L55.3,26.6z M69.7,55.7c4.9,1.9,15.5,3,18.7,6.8c-3.5-2.3-14.7-3.4-20.4-5.1
		c-1.9-0.6-3.5-2.8-0.9-4.4C66.3,54.2,67.4,54.8,69.7,55.7z"/>
	<path class="st3" d="M72.5,49.6C62.3,50.8-2.3,58.5,30,76.9c35.3,14.4,82.6-7.7,53.8-15.2C74.4,59.3,54.2,58,72.5,49.6L72.5,49.6z"
		/>
	<path class="st4" d="M57.2,68.9c-2.4-0.9-4.7-2.3-6.6-4.1l2.3-0.6c2.1,1.6,4.4,2.8,6.9,3.7L57.2,68.9L57.2,68.9z M76.5,79
		c1.5-0.4,3-0.9,4.3-1.4L63,69.7L60.5,71L76.5,79L76.5,79z M49.2,62.9c-0.4-0.8-0.6-1.7-0.5-2.6l1.8-0.2c0,0.8,0.3,1.6,0.8,2.3
		L49.2,62.9L49.2,62.9z M49.2,58.6c0.4-0.8,1-1.5,1.7-2.1l1.4,0c-0.6,0.5-1,1.1-1.4,1.8L49.2,58.6L49.2,58.6z M52.2,55.5
		c3.3-2.3,8.7-4,14.8-4.5c-5.2,0.7-10.3,2.3-13.4,4.5L52.2,55.5z"/>
</g>
<text transform="matrix(1 0 0 1 -347.215 5.5308)" style="font-family:'NexaLight'; font-size:3.0746px;">Long Distance Movers</text>
<text transform="matrix(1 0 0 1 -309.093 5.5308)" style="font-family:'NexaLight'; font-size:3.0746px;">Residential Moving</text>
<g>
	<path class="st5" d="M-299.1-17.3l5.1-1.9c0,0,0.1,0,0.1,0l5.1,1.9v7.8h-0.9v-2.2c0,0,0-0.1-0.1-0.1h-1.4V-14c0,0,0-0.1-0.1-0.1
		h-2.2c0,0-0.1,0-0.1,0.1v2.3h-0.7V-14c0,0,0-0.1-0.1-0.1h-1.5c0.1,0.1,0.1,0.2,0.1,0.2l0.8,1.7h0v0l0,0c0.1,0.2,0.2,0.5,0.2,0.7
		v1.8c0,0.2-0.1,0.5-0.3,0.6h7.1v-8l0.6,0.2c0.1,0,0.2,0,0.2-0.1l0.2-0.5c0-0.1,0-0.2-0.1-0.2l-6.8-2.5c0,0-0.1,0-0.1,0l-6.8,2.5
		c-0.1,0-0.1,0.1-0.1,0.2l0.2,0.5c0,0.1,0.1,0.1,0.2,0.1l0.6-0.2v1.4h0.8V-17.3z M-292.8-11.8h0.7v2.3h-0.7V-11.8z"/>
	<path class="st5" d="M-284.4-8.1h-19.1c-0.1,0-0.2,0.1-0.2,0.2c0,0.1,0.1,0.2,0.2,0.2h19.1c0.1,0,0.2-0.1,0.2-0.2
		C-284.2-8-284.3-8.1-284.4-8.1z"/>
	<path class="st6" d="M-285.1-16c-1.4,0.2-2.4,1.4-2.4,2.8c0,0.5,0.1,1,0.4,1.4c0.3,0.6,1.6,2.3,2.2,3.1c0.1,0.2,0.4,0.2,0.5,0
		c0.5-0.7,1.8-2.5,2.2-3.1c0.2-0.4,0.4-0.9,0.4-1.4C-282-14.9-283.4-16.2-285.1-16z M-284.8-11.4c-1,0-1.8-0.8-1.8-1.8
		s0.8-1.8,1.8-1.8s1.8,0.8,1.8,1.8S-283.7-11.4-284.8-11.4z"/>
	<path class="st6" d="M-301.9-9.2h3.9c0-0.1-0.1-0.3-0.1-0.4c0-0.4,0.2-0.7,0.5-0.9c-0.2,0.2-0.3,0.5-0.3,0.7c0,0.2,0.1,0.4,0.2,0.6
		c0.2,0.3,0.6,0.6,1,0.6c0.4,0,0.8-0.2,1-0.6h0h0.1h0c0.2,0,0.4-0.2,0.4-0.4v-1.8c0-0.2,0-0.4-0.1-0.5l-0.8-1.7
		c-0.2-0.5-0.7-0.8-1.2-0.8h-0.6v-0.2c0-0.2-0.2-0.5-0.5-0.5h-6c-0.2,0-0.5,0.2-0.5,0.5v5c0,0.2,0.2,0.5,0.5,0.5h0.2c0,0,0,0,0,0
		c0,0,0.1,0,0.2,0c0-0.1-0.1-0.2-0.1-0.3c0-0.4,0.2-0.7,0.4-1c-0.2,0.2-0.3,0.4-0.3,0.7c0,0.2,0.1,0.4,0.2,0.6
		c0.2,0.3,0.6,0.6,1,0.6C-302.5-8.6-302.1-8.8-301.9-9.2z M-297.5-9.7c0-0.4,0.3-0.6,0.6-0.6c0.4,0,0.6,0.3,0.6,0.6
		c0,0.2-0.1,0.5-0.3,0.6c-0.1,0-0.2,0.1-0.3,0.1c-0.1,0-0.2,0-0.3-0.1C-297.3-9.3-297.5-9.5-297.5-9.7z M-297.4-14
		c0.3,0,0.6,0.2,0.8,0.5l0.8,1.7h-2.2V-14H-297.4z M-302.6-9.2c-0.1,0-0.2,0.1-0.3,0.1c-0.1,0-0.2,0-0.3-0.1
		c-0.2-0.1-0.3-0.3-0.3-0.6c0-0.4,0.3-0.6,0.6-0.6c0.4,0,0.6,0.3,0.6,0.6C-302.2-9.5-302.4-9.3-302.6-9.2z"/>
</g>
<path class="st0" d="M-257.9-3.7c-1.9-0.2-3.9,1.1-5.6,0.3c-1.8-0.8-2.6-2.9-3.8-4.4c-1.7-2.1-4.9-3.6-5-6.4
	c-0.1-2.7,2.3-5.1,4.7-6.4c2.1-1.2,4.9,0.6,7.2-0.3c2.6-0.9,3.8-4.6,6.5-4.7c2.7-0.1,5.1,2,6.8,4.1c1.7,2.1,2.3,4.7,2.6,7.4
	c0.3,2.6,0.3,5.3-1,7.5c-1.2,2.2-3.4,3.9-5.8,4.4C-253.6-1.6-255.6-3.5-257.9-3.7z"/>
<path class="st0" d="M-224.8-3.2c-1.6-0.2-3.3,1.1-4.8,0.3c-1.6-0.8-2.2-2.9-3.3-4.4c-1.5-2.1-4.2-3.6-4.3-6.4c-0.1-2.7,2-5.1,4-6.4
	c1.8-1.2,4.2,0.6,6.2-0.3c2.2-0.9,3.2-4.6,5.6-4.7c2.3-0.1,4.4,2,5.8,4.1c1.4,2.1,2,4.7,2.2,7.4c0.2,2.6,0.2,5.3-0.9,7.5
	c-1.1,2.2-2.9,3.9-5,4.4C-221.2-1.1-222.9-3-224.8-3.2z"/>
<path class="st0" d="M-190.5-3.2c-1.6-0.2-3.3,1.1-4.8,0.3c-1.6-0.8-2.2-2.9-3.3-4.4c-1.5-2.1-4.2-3.6-4.3-6.4c-0.1-2.7,2-5.1,4-6.4
	c1.8-1.2,4.2,0.6,6.2-0.3c2.2-0.9,3.2-4.6,5.6-4.7c2.3-0.1,4.4,2,5.8,4.1c1.4,2.1,2,4.7,2.2,7.4c0.2,2.6,0.2,5.3-0.9,7.5
	c-1.1,2.2-2.9,3.9-5,4.4C-186.9-1.1-188.6-3-190.5-3.2z"/>
<text transform="matrix(1 0 0 1 -271.2151 5.5308)" style="font-family:'NexaLight'; font-size:3.0746px;">Commercial Moving</text>
<text transform="matrix(1 0 0 1 -233.0836 5.5308)" style="font-family:'NexaLight'; font-size:3.0746px;">Small Moves</text>
<text transform="matrix(1 0 0 1 -205.6064 5.5308)" style="font-family:'NexaLight'; font-size:3.0746px;">Packing &amp; Storage Service</text>
<g>
	<g>
		<g>
			<g>
				<g>
					<g>
						<g>
							<g>
								<path class="st7" d="M-255.2-20.7v3.1h-2.7c-0.2,0-0.3-0.1-0.3-0.3v-2.4c0-0.2,0.1-0.3,0.3-0.3H-255.2z"/>
								<path class="st8" d="M-256.1-20.7v0.7c0,0.1-0.1,0.1-0.2,0.1l-0.2-0.2c0,0-0.1,0-0.1,0l-0.2,0.2c-0.1,0-0.2,0-0.2-0.1v-0.7
									H-256.1z"/>
								<path class="st8" d="M-256.4-18.4c-0.1,0-0.2,0.1-0.3,0.1c-0.1,0-0.2,0-0.3,0c-0.1,0-0.2,0-0.3,0c-0.1,0-0.2,0-0.3-0.1
									c0.1,0,0.2-0.1,0.3-0.1c0.1,0,0.2,0,0.3,0c0.1,0,0.2,0,0.3,0C-256.6-18.5-256.5-18.5-256.4-18.4z"/>
								<path class="st8" d="M-257.1-18.1c0.1,0,0.1,0,0.2,0.1c-0.1,0-0.1,0.1-0.2,0.1c-0.1,0-0.1,0-0.2,0c-0.1,0-0.1,0-0.2,0
									c-0.1,0-0.1,0-0.2-0.1c0.1,0,0.1-0.1,0.2-0.1c0.1,0,0.1,0,0.2,0S-257.1-18.1-257.1-18.1z"/>
							</g>
						</g>
					</g>
				</g>
			</g>
		</g>
		<g>
			<g>
				<g>
					<g>
						<g>
							<g>
								<path class="st7" d="M-251.3-20.7v3.1h-2.7c-0.2,0-0.3-0.1-0.3-0.3v-2.4c0-0.2,0.1-0.3,0.3-0.3H-251.3z"/>
								<path class="st8" d="M-254.3-20.4v2.4c0,0.2-0.1,0.3-0.3,0.3h-0.5v-3.1h0.5C-254.4-20.7-254.3-20.6-254.3-20.4z"/>
								<path class="st8" d="M-250.4-20.4v2.4c0,0.2-0.1,0.3-0.3,0.3h-0.5v-3.1h0.5C-250.6-20.7-250.4-20.6-250.4-20.4z"/>
								<path class="st8" d="M-252.2-20.7v0.7c0,0.1-0.1,0.1-0.2,0.1l-0.2-0.2c0,0-0.1,0-0.1,0l-0.2,0.2c-0.1,0-0.2,0-0.2-0.1v-0.7
									H-252.2z"/>
								<path class="st8" d="M-252.6-18.4c-0.1,0-0.2,0.1-0.3,0.1c-0.1,0-0.2,0-0.3,0c-0.1,0-0.2,0-0.3,0s-0.2,0-0.3-0.1
									c0.1,0,0.2-0.1,0.3-0.1c0.1,0,0.2,0,0.3,0c0.1,0,0.2,0,0.3,0C-252.8-18.5-252.7-18.5-252.6-18.4z"/>
								<path class="st8" d="M-253.2-18.1c0.1,0,0.1,0,0.2,0.1c-0.1,0-0.1,0.1-0.2,0.1c-0.1,0-0.1,0-0.2,0c-0.1,0-0.1,0-0.2,0
									c-0.1,0-0.1,0-0.2-0.1c0.1,0,0.1-0.1,0.2-0.1c0.1,0,0.1,0,0.2,0S-253.3-18.1-253.2-18.1z"/>
							</g>
						</g>
					</g>
				</g>
			</g>
		</g>
	</g>
	<g>
		<g>
			<g>
				<g>
					<g>
						<g>
							<g>
								<path class="st7" d="M-255.2-15.6v3.1h-2.7c-0.2,0-0.3-0.1-0.3-0.3v-2.4c0-0.2,0.1-0.3,0.3-0.3H-255.2z"/>
								<path class="st8" d="M-256.1-15.6v0.7c0,0.1-0.1,0.1-0.2,0.1l-0.2-0.2c0,0-0.1,0-0.1,0l-0.2,0.2c-0.1,0-0.2,0-0.2-0.1v-0.7
									H-256.1z"/>
								<path class="st8" d="M-256.4-13.3c-0.1,0-0.2,0.1-0.3,0.1c-0.1,0-0.2,0-0.3,0c-0.1,0-0.2,0-0.3,0c-0.1,0-0.2,0-0.3-0.1
									c0.1,0,0.2-0.1,0.3-0.1c0.1,0,0.2,0,0.3,0c0.1,0,0.2,0,0.3,0C-256.6-13.4-256.5-13.3-256.4-13.3z"/>
								<path class="st8" d="M-257.1-13c0.1,0,0.1,0,0.2,0.1c-0.1,0-0.1,0.1-0.2,0.1c-0.1,0-0.1,0-0.2,0c-0.1,0-0.1,0-0.2,0
									c-0.1,0-0.1,0-0.2-0.1c0.1,0,0.1-0.1,0.2-0.1c0.1,0,0.1,0,0.2,0S-257.1-13-257.1-13z"/>
							</g>
						</g>
					</g>
				</g>
			</g>
		</g>
		<g>
			<g>
				<g>
					<g>
						<g>
							<g>
								<path class="st7" d="M-251.3-15.6v3.1h-2.7c-0.2,0-0.3-0.1-0.3-0.3v-2.4c0-0.2,0.1-0.3,0.3-0.3H-251.3z"/>
								<path class="st8" d="M-250.4-15.3v2.4c0,0.2-0.1,0.3-0.3,0.3h-0.5v-3.1h0.5C-250.6-15.6-250.4-15.4-250.4-15.3z"/>
								<path class="st8" d="M-254.3-15.3v2.4c0,0.2-0.1,0.3-0.3,0.3h-0.5v-3.1h0.5C-254.4-15.6-254.3-15.4-254.3-15.3z"/>
								<path class="st8" d="M-252.2-15.6v0.7c0,0.1-0.1,0.1-0.2,0.1l-0.2-0.2c0,0-0.1,0-0.1,0l-0.2,0.2c-0.1,0-0.2,0-0.2-0.1v-0.7
									H-252.2z"/>
								<path class="st8" d="M-252.6-13.3c-0.1,0-0.2,0.1-0.3,0.1c-0.1,0-0.2,0-0.3,0c-0.1,0-0.2,0-0.3,0s-0.2,0-0.3-0.1
									c0.1,0,0.2-0.1,0.3-0.1c0.1,0,0.2,0,0.3,0c0.1,0,0.2,0,0.3,0C-252.8-13.4-252.7-13.3-252.6-13.3z"/>
								<path class="st8" d="M-253.2-13c0.1,0,0.1,0,0.2,0.1c-0.1,0-0.1,0.1-0.2,0.1c-0.1,0-0.1,0-0.2,0c-0.1,0-0.1,0-0.2,0
									c-0.1,0-0.1,0-0.2-0.1c0.1,0,0.1-0.1,0.2-0.1c0.1,0,0.1,0,0.2,0S-253.3-13-253.2-13z"/>
							</g>
						</g>
					</g>
				</g>
			</g>
		</g>
	</g>
	<g>
		<path class="st5" d="M-249.2-17.7c0.2,0,0.4,0.1,0.4,0.3c0,0.2,0,0.3,0,0.5c0,0.2-0.2,0.3-0.4,0.3c-3.5,0.2-7,0.2-10.4,0
			c-0.2,0-0.4-0.1-0.4-0.3c0-0.2,0-0.3,0-0.5c0-0.2,0.2-0.3,0.4-0.3C-256.2-17.8-252.8-17.8-249.2-17.7z"/>
		<path class="st5" d="M-249.2-12.6c0.2,0,0.4,0.1,0.4,0.3c0,0.2,0,0.3,0,0.5c0,0.2-0.2,0.3-0.4,0.3c-3.5,0.2-7,0.2-10.4,0
			c-0.2,0-0.4-0.1-0.4-0.3c0-0.2,0-0.3,0-0.5c0-0.2,0.2-0.3,0.4-0.3C-256.2-12.8-252.8-12.8-249.2-12.6z"/>
	</g>
	<g>
		<g>
			<path class="st6" d="M-258.8-9.6c0,0.2-0.2,0.4-0.3,0.4c-0.2,0-0.4,0-0.6,0c-0.2,0-0.3-0.2-0.3-0.4c-0.2-3.5-0.2-7,0-10.4
				c0-0.2,0.1-0.4,0.3-0.4c0.2,0,0.4,0,0.6,0c0.2,0,0.4,0.2,0.4,0.4C-258.6-16.6-258.6-13.2-258.8-9.6z"/>
			<path class="st6" d="M-248.9-9.6c0,0.2-0.2,0.4-0.3,0.4c-0.2,0-0.4,0-0.6,0c-0.2,0-0.3-0.2-0.3-0.4c-0.2-3.5-0.2-7,0-10.4
				c0-0.2,0.1-0.4,0.3-0.4c0.2,0,0.4,0,0.6,0c0.2,0,0.4,0.2,0.4,0.4C-248.7-16.6-248.7-13.2-248.9-9.6z"/>
		</g>
	</g>
	<path class="st5" d="M-256-12.6v6h-8.3v-6c0-0.4,0.3-0.8,0.8-0.8h6.8C-256.4-13.4-256-13.1-256-12.6z"/>
	<rect x="-256" y="-10.6" class="st9" width="0.4" height="4"/>
	<path class="st6" d="M-251.8-8.9v2.2h-3.8v-4.3c0-0.4,0.3-0.7,0.7-0.7h1.3c0.3,0,0.5,0.1,0.6,0.4l1.1,2.1
		C-251.8-9.1-251.8-9-251.8-8.9z"/>
	<path class="st10" d="M-251.6-6.5V-6c0,0.1-0.1,0.2-0.2,0.2h-12.6c-0.1,0-0.2-0.1-0.2-0.2v-0.5c0-0.1,0.1-0.2,0.2-0.2h12.6
		C-251.7-6.6-251.6-6.6-251.6-6.5z"/>
	<path class="st10" d="M-255.2-11v1.2c0,0.1,0.1,0.2,0.2,0.2l2,0.5c0.3,0.1,0.6-0.2,0.4-0.5l-0.7-1.5c0-0.1-0.1-0.1-0.2-0.1h-1.5
		C-255.1-11.3-255.2-11.2-255.2-11z"/>
	<path class="st11" d="M-254-8.7c0,0,0.1,0,0.1-0.1c0-0.1,0-0.1-0.1-0.1l-0.5-0.2c-0.1,0-0.1,0-0.1,0.1c0,0.1,0,0.1,0.1,0.1
		L-254-8.7C-254-8.7-254-8.7-254-8.7z"/>
	<circle class="st12" cx="-253.7" cy="-6.1" r="1"/>
	<circle class="st4" cx="-253.7" cy="-6.1" r="0.4"/>
	<circle class="st12" cx="-259.9" cy="-6.1" r="1"/>
	<circle class="st4" cx="-259.9" cy="-6.1" r="0.4"/>
	<circle class="st12" cx="-262.5" cy="-6.1" r="1"/>
	<circle class="st4" cx="-262.5" cy="-6.1" r="0.4"/>
	<path class="st7" d="M-252.4-7.9c0,0.3,0.2,0.5,0.5,0.5c0,0,0,0,0.1,0v-1c0,0,0,0-0.1,0C-252.1-8.4-252.4-8.2-252.4-7.9z"/>
	<path class="st13" d="M-257.2-12.5c-0.1,0.4-0.1,0.8-0.1,1.3c0,0.4,0,0.8,0,1.3c0,0.4,0,0.8,0,1.3c0,0.4,0.1,0.8,0.1,1.3
		c0.1-0.4,0.1-0.8,0.1-1.3c0-0.4,0-0.8,0-1.3c0-0.4,0-0.8,0-1.3C-257.1-11.7-257.2-12.1-257.2-12.5z"/>
	<path class="st13" d="M-258.4-12.5c-0.1,0.4-0.1,0.8-0.1,1.3c0,0.4,0,0.8,0,1.3c0,0.4,0,0.8,0,1.3c0,0.4,0.1,0.8,0.1,1.3
		c0.1-0.4,0.1-0.8,0.1-1.3c0-0.4,0-0.8,0-1.3c0-0.4,0-0.8,0-1.3C-258.3-11.7-258.3-12.1-258.4-12.5z"/>
	<path class="st13" d="M-259.6-12.5c-0.1,0.4-0.1,0.8-0.1,1.3c0,0.4,0,0.8,0,1.3c0,0.4,0,0.8,0,1.3c0,0.4,0.1,0.8,0.1,1.3
		c0.1-0.4,0.1-0.8,0.1-1.3c0-0.4,0-0.8,0-1.3c0-0.4,0-0.8,0-1.3C-259.5-11.7-259.5-12.1-259.6-12.5z"/>
	<path class="st13" d="M-260.8-12.5c-0.1,0.4-0.1,0.8-0.1,1.3c0,0.4,0,0.8,0,1.3c0,0.4,0,0.8,0,1.3c0,0.4,0.1,0.8,0.1,1.3
		c0.1-0.4,0.1-0.8,0.1-1.3c0-0.4,0-0.8,0-1.3c0-0.4,0-0.8,0-1.3C-260.7-11.7-260.7-12.1-260.8-12.5z"/>
	<path class="st13" d="M-261.9-12.5c-0.1,0.4-0.1,0.8-0.1,1.3c0,0.4,0,0.8,0,1.3c0,0.4,0,0.8,0,1.3c0,0.4,0.1,0.8,0.1,1.3
		c0.1-0.4,0.1-0.8,0.1-1.3c0-0.4,0-0.8,0-1.3c0-0.4,0-0.8,0-1.3C-261.8-11.7-261.9-12.1-261.9-12.5z"/>
	<path class="st13" d="M-263.1-12.5c-0.1,0.4-0.1,0.8-0.1,1.3c0,0.4,0,0.8,0,1.3c0,0.4,0,0.8,0,1.3c0,0.4,0.1,0.8,0.1,1.3
		c0.1-0.4,0.1-0.8,0.1-1.3c0-0.4,0-0.8,0-1.3c0-0.4,0-0.8,0-1.3C-263-11.7-263-12.1-263.1-12.5z"/>
	<path class="st5" d="M-260.9-17.3c0,0.7-1.1,2.4-1.5,3c-0.1,0.1-0.2,0.1-0.3,0c-0.4-0.6-1.5-2.3-1.5-3c0-0.9,0.7-1.6,1.6-1.6
		S-260.9-18.2-260.9-17.3z"/>
	<circle class="st9" cx="-262.5" cy="-17.3" r="1.1"/>
	<circle class="st4" cx="-262.5" cy="-17.3" r="0.8"/>
</g>
<g id="Master_Layer_4">
</g>
<rect x="-197" y="-21" class="st1" width="15.1" height="17.8"/>
<path class="st14" d="M-189.6-11.9l-0.2,5.6l5.4-3.1l0.3-5.4L-189.6-11.9z"/>
<path class="st14" d="M-194.6-14.9l-0.1,5.3l5,3.3l0.2-5.6L-194.6-14.9z"/>
<path class="st14" d="M-189-17.6l-5.7,2.6l5.1,3l5.5-2.9L-189-17.6z"/>
<path class="st5" d="M-187.5-13L-187.5-13l1.1-0.2l0.1-0.4l-4.6-3"/>
<path class="st5" d="M-187.5-13l0.5-0.8l-4-2.9l-1.2,0.5L-187.5-13z"/>
<path class="st5" d="M-187.5-13l1.2-0.6l0,1.4l-1.1,0.6L-187.5-13z"/>
<path class="st5" d="M-189.5-4.6c-3.7,0-6.8-2.6-7.5-6.2c0-0.1,0-0.1,0-0.1c0,0,0.1-0.1,0.1-0.1s0.1,0,0.1,0c0,0,0.1,0.1,0.1,0.1
	C-196-7.4-193-5-189.5-5c4,0,7.2-3.2,7.2-7.2c0-3.9-3.2-7.2-7.2-7.2c-0.3,0-0.6,0-0.9,0.1c-0.1,0-0.1,0-0.1,0c0,0-0.1-0.1-0.1-0.1
	c0-0.1,0-0.1,0-0.1c0,0,0.1-0.1,0.1-0.1c0.3,0,0.6-0.1,1-0.1c2,0,3.9,0.8,5.4,2.2c1.4,1.4,2.2,3.3,2.2,5.3s-0.8,3.9-2.2,5.3
	S-187.5-4.6-189.5-4.6z"/>
<path class="st4" d="M-196.8-11.6c0,0-0.1,0-0.1-0.1c0,0-0.1-0.1-0.1-0.1c0-0.1,0-0.2,0-0.3c0-0.1,0-0.1,0.1-0.1
	c0,0,0.1-0.1,0.1-0.1s0.1,0,0.1,0.1c0,0,0.1,0.1,0.1,0.1c0,0.1,0,0.2,0,0.3c0,0,0,0.1,0,0.1c0,0,0,0,0,0.1
	C-196.7-11.6-196.7-11.6-196.8-11.6C-196.7-11.6-196.7-11.6-196.8-11.6C-196.8-11.6-196.8-11.6-196.8-11.6z"/>
<path class="st15" d="M-196.6-13.4C-196.7-13.4-196.7-13.4-196.6-13.4c-0.1,0-0.1,0-0.2-0.1c0,0,0,0,0-0.1c0,0,0-0.1,0-0.1
	c0-0.2,0.1-0.4,0.2-0.6c0,0,0,0,0-0.1c0,0,0,0,0.1-0.1s0,0,0.1,0c0,0,0.1,0,0.1,0c0,0,0,0,0.1,0c0,0,0,0,0,0.1c0,0,0,0,0,0.1
	c0,0,0,0.1,0,0.1c-0.1,0.2-0.1,0.4-0.1,0.6c0,0,0,0.1-0.1,0.1C-196.5-13.5-196.6-13.4-196.6-13.4L-196.6-13.4z M-195.7-15.7
	c0,0-0.1,0-0.1,0c0,0,0,0-0.1-0.1c0,0,0,0,0-0.1s0-0.1,0-0.1c0,0,0-0.1,0-0.1c0.1-0.2,0.2-0.4,0.3-0.5c0,0,0,0,0.1-0.1
	c0,0,0,0,0.1,0c0,0,0.1,0,0.1,0c0,0,0,0,0.1,0c0,0,0,0,0.1,0.1c0,0,0,0,0,0.1c0,0,0,0.1,0,0.1c0,0,0,0,0,0.1
	c-0.1,0.2-0.2,0.3-0.3,0.5C-195.6-15.8-195.6-15.8-195.7-15.7C-195.7-15.7-195.7-15.7-195.7-15.7L-195.7-15.7z M-194.1-17.6
	c0,0-0.1,0-0.1,0c0,0-0.1-0.1-0.1-0.1c0,0,0-0.1,0-0.1c0,0,0-0.1,0.1-0.1c0.2-0.1,0.3-0.3,0.5-0.4c0,0,0.1,0,0.1,0
	c0.1,0,0.1,0,0.1,0.1c0,0,0,0.1,0,0.1c0,0.1,0,0.1-0.1,0.1c-0.2,0.1-0.3,0.2-0.5,0.4C-194-17.6-194.1-17.6-194.1-17.6L-194.1-17.6z"
	/>
<path class="st15" d="M-189.2-19.3L-189.2-19.3c-0.1,0-0.2,0-0.3,0h0c-0.1,0-0.1,0-0.1-0.1c0,0-0.1-0.1-0.1-0.1c0-0.1,0-0.1,0.1-0.1
	c0,0,0.1-0.1,0.1-0.1c0.1,0,0.2,0,0.3,0c0.1,0,0.1,0,0.1,0.1c0,0,0.1,0.1,0.1,0.1c0,0.1,0,0.1-0.1,0.1
	C-189.1-19.3-189.1-19.3-189.2-19.3L-189.2-19.3z"/>
<path class="st15" d="M-189.2-18.1c0,0-0.1,0-0.1,0l-1.6-1.1c0,0,0,0-0.1-0.1c0,0,0-0.1,0-0.1c0,0,0-0.1,0-0.1c0,0,0-0.1,0-0.1
	c1.5-1.4,1.6-1.4,1.7-1.5c0,0,0.1,0,0.1,0c0,0,0.1,0.1,0.1,0.1c0,0,0,0.1,0,0.1c0,0-0.1,0.1-0.1,0.1c-0.1,0.1-0.7,0.7-1.4,1.2
	l1.4,0.9c0,0,0.1,0.1,0.1,0.1c0,0,0,0.1,0,0.1c0,0,0,0.1-0.1,0.1C-189.1-18.1-189.2-18.1-189.2-18.1L-189.2-18.1z"/>
<path class="st5" d="M-229-11.6l4.6,2.3c0,0,0,0,0.1,0c0,0,0,0,0,0c0,0,0.1,0,0.1,0l2.7-1.4c0.1,0,0.1-0.2,0.1-0.2
	c0-0.1-0.2-0.1-0.2-0.1l-0.1,0.1l0-0.6c0-0.1-0.1-0.2-0.2-0.2c0,0,0,0,0,0c-0.1,0-0.2,0.1-0.2,0.2l0,0.8l-2,1l0-4.5l2-1l0,0.8
	c0,0.1,0.1,0.2,0.2,0.2c0,0,0,0,0,0c0.1,0,0.2-0.1,0.2-0.2l0-1l1.8-0.9l0,1.9c0,0.1,0.1,0.2,0.2,0.2c0,0,0,0,0,0
	c0.1,0,0.2-0.1,0.2-0.2l0-2.2c0,0,0,0,0,0c0,0,0,0,0,0c0,0,0,0,0,0c0,0,0,0,0,0c0-0.1-0.1-0.1-0.1-0.1l-4.5-2.3c-0.1,0-0.1,0-0.2,0
	l-2.2,1.1c0,0-0.1,0-0.1,0l-2.3,1.2c0,0,0,0,0,0c0,0,0,0,0,0c0,0,0,0,0,0c0,0,0,0,0,0c0,0,0,0,0,0c0,0,0,0,0,0c0,0,0,0,0,0
	c0,0,0,0,0,0c0,0,0,0,0,0c0,0,0,0,0,0c0,0,0,0,0,0c0,0,0,0,0,0c0,0,0,0,0,0c0,0,0,0,0,0c0,0,0,0,0,0c0,0,0,0,0,0c0,0,0,0,0,0
	c0,0,0,0,0,0c0,0,0,0,0,0c0,0,0,0,0,0c0,0,0,0,0,0c0,0,0,0,0,0c0,0,0,0,0,0c0,0,0,0,0,0c0,0,0,0,0,0c0,0,0,0,0,0c0,0,0,0,0,0
	c0,0,0,0,0,0c0,0,0,0,0,0c0,0,0,0,0,0c0,0,0,0,0,0c0,0,0,0,0,0c0,0,0,0,0,0c0,0,0,0,0,0c0,0,0,0,0,0c0,0,0,0,0,0c0,0,0,0,0,0
	c0,0,0,0,0,0c0,0,0,0,0,0c0,0,0,0,0,0c0,0,0,0,0,0c0,0,0,0,0,0c0,0,0,0,0,0c0,0,0,0,0,0c0,0,0,0,0,0c0,0,0,0,0,0c0,0,0,0,0,0l0,4.9
	C-229.1-11.7-229.1-11.6-229-11.6z M-226.6-17.6l4.2,2.1l-2,1l-1.5-0.7l-2.7-1.4L-226.6-17.6z M-228.8-16.3l2.8,1.4l1.4,0.7l0,4.5
	l-4.2-2.1L-228.8-16.3z M-224.4-18.7l4.2,2.1l-1.8,0.9l-4.2-2.1L-224.4-18.7z"/>
<path class="st6" d="M-228.9-8.3C-228.9-8.3-228.9-8.3-228.9-8.3C-228.9-8.3-228.9-8.3-228.9-8.3C-228.9-8.3-228.9-8.3-228.9-8.3
	C-228.9-8.3-228.9-8.3-228.9-8.3C-228.9-8.3-228.9-8.3-228.9-8.3C-228.9-8.3-228.9-8.3-228.9-8.3C-228.9-8.3-228.9-8.3-228.9-8.3
	C-228.9-8.3-228.9-8.3-228.9-8.3C-228.9-8.3-228.9-8.3-228.9-8.3C-228.9-8.3-228.9-8.3-228.9-8.3C-228.9-8.3-228.9-8.3-228.9-8.3
	C-228.9-8.3-228.9-8.3-228.9-8.3C-228.9-8.3-228.9-8.2-228.9-8.3C-228.9-8.2-228.9-8.2-228.9-8.3c0,0.1,0,0.1,0.1,0.1c0,0,0,0,0,0
	c0,0,0,0,0,0c0,0,0,0,0,0c0,0,0,0,0,0c0,0,0,0,0,0c0,0,0,0,0,0c0,0,0,0,0,0c0,0,0,0,0,0c0,0,0,0,0,0c0,0,0,0,0,0c0,0,0.1,0,0.1,0
	c0,0,0,0,0,0c0,0,0,0,0,0c0,0,0,0,0,0c0,0,0,0,0,0l0,0l9.1,0c0,0,0,0,0,0c0.3,0,0.7-0.1,1-0.2c0.3-0.1,0.6-0.3,0.8-0.6
	c0.2-0.2,0.4-0.5,0.6-0.8c0.1-0.3,0.2-0.7,0.2-1c0-0.9-0.4-1.7-1.2-2.2c-0.4-0.3-0.9-0.5-1.5-0.5c0,0,0,0,0,0l-1.1,0
	c-0.1,0-0.2,0.1-0.2,0.2c0,0.1,0.1,0.2,0.2,0.2l1.1,0c0,0,0,0,0,0c0.5,0,0.9,0.1,1.3,0.4c0.6,0.4,1,1.1,1,1.9c0,1.3-1,2.3-2.3,2.3
	c0,0,0,0,0,0l-8.9,0l0-0.8c0-0.1,0-0.1-0.1-0.2c-0.1,0-0.1,0-0.2,0l-2.7,1.8c-0.1,0-0.1,0.1-0.1,0.2s0,0.1,0.1,0.2l2.7,1.8
	c0,0,0.1,0,0.1,0c0,0,0.1,0,0.1,0c0.1,0,0.1-0.1,0.1-0.2l0-0.8l8.9,0c0.3,0,0.6,0,0.9-0.1c0.3-0.1,0.5-0.2,0.7-0.4
	c0.2-0.2,0.4-0.4,0.6-0.6c0.2-0.2,0.3-0.5,0.4-0.8c0-0.1,0-0.2-0.1-0.2c-0.1,0-0.2,0-0.2,0.1c-0.3,1-1.2,1.7-2.2,1.7l-8.9,0l0-0.6
	c0-0.1-0.1-0.2-0.2-0.2c0,0,0,0,0,0c-0.1,0-0.2,0.1-0.2,0.2l0,0.8c0,0,0,0,0,0c0,0,0,0,0,0l0,0.6l-2.2-1.5l2.2-1.5L-228.9-8.3z"/>
<path class="st6" d="M-219.9-18.8h0.2c0.1,0,0.2-0.1,0.2-0.2c0-0.1-0.1-0.2-0.2-0.2h-0.2c-0.1,0-0.2,0.1-0.2,0.2
	C-220.1-18.9-220-18.8-219.9-18.8z"/>
<path class="st6" d="M-222-18.8h1c0.1,0,0.2-0.1,0.2-0.2c0-0.1-0.1-0.2-0.2-0.2h-1c-0.1,0-0.2,0.1-0.2,0.2
	C-222.1-18.9-222.1-18.8-222-18.8z"/>
<path class="st6" d="M-219.3-17.6h2.1c0.1,0,0.2-0.1,0.2-0.2s-0.1-0.2-0.2-0.2h-2.1c-0.1,0-0.2,0.1-0.2,0.2S-219.4-17.6-219.3-17.6z
	"/>
<path class="st6" d="M-218.6-16.4c-0.1,0-0.2,0.1-0.2,0.2s0.1,0.2,0.2,0.2h0.5c0.1,0,0.2-0.1,0.2-0.2s-0.1-0.2-0.2-0.2H-218.6z"/>
<path class="st6" d="M-220.7-11.4l1,0c0,0,0,0,0,0c0.5,0,0.9,0.1,1.3,0.4c0.1,0,0.1,0.1,0.2,0.2c0,0,0.1,0,0.1,0
	c0.1,0,0.1,0,0.1-0.1c0.1-0.1,0.1-0.2,0-0.3c-0.1-0.1-0.2-0.1-0.2-0.2c-0.4-0.3-0.9-0.5-1.5-0.5c0,0,0,0,0,0l-1,0
	c-0.1,0-0.2,0.1-0.2,0.2C-220.9-11.4-220.8-11.4-220.7-11.4C-220.7-11.4-220.7-11.4-220.7-11.4z"/>
</svg>
