<?xml version="1.0" encoding="utf-8"?>
<!-- Generator: Adobe Illustrator 28.2.0, SVG Export Plug-In . SVG Version: 6.00 Build 0)  -->
<svg version="1.1" id="Layer_1" xmlns="http://www.w3.org/2000/svg" xmlns:xlink="http://www.w3.org/1999/xlink" x="0px" y="0px"
	 viewBox="0 0 256 256" style="enable-background:new 0 0 256 256;" xml:space="preserve">
<style type="text/css">
	.st0{fill:#68967C;}
	.st1{fill:#363F39;}
</style>
<g>
	<path class="st0" d="M143.6,139.7h-1.5V124h9.5v15.7h-0.5c2.1,1.9,6.4,4.2,7.5,0h-0.8v-18.8c0-1.7-1.4-3.1-3.1-3.1H139
		c-1.7,0-3.1,1.4-3.1,3.1v18.8h-1.5C137.3,141.4,142.7,143.5,143.6,139.7z"/>
	<path class="st0" d="M178.8,109c0.1,0,0.2,0,0.3,0c0.9,0,1.8-0.4,2.5-1.2c1.1-1.4,0.8-3.3-0.5-4.4l-2.2-1.8v-9.3
		c0-1.7-1.4-3.1-3.1-3.1c-1.7,0-3.1,1.4-3.1,3.1v4.4l-23.7-18.8c-1.1-0.9-2.7-0.9-3.9,0l-28.8,22.8c0,0,0,0,0,0l-3.4,2.7
		c-1.4,1.1-1.6,3-0.5,4.4c0.7,0.9,1.7,1.3,2.7,1.2v30.7h-0.8c2.1,1.8,6.7,3.9,9,0h-2v-35l25.7-20.4l25.7,20.4v34.9
		c2.5,1.1,4.4,3.2,7,0.1h-0.7V109z"/>
	<path class="st1" d="M204.9,59.5L204.9,59.5l-116,0c-1.7,0-3.1,1.4-3.1,3.1v28.6H58.1c-1.6,0-2.9,1.1-3.1,2.7l-7,48.4
		c0,0.1,0,0.1,0,0.2c0,0,0,0,0,0c0,0,0,0,0,0.1c0,0,0,0,0,0c0,0,0,0,0,0.1c0,0,0,0,0,0c0,0,0,0,0,0c0,0,0,0,0,0.1v35.4
		c0,1.7,1.4,3.1,3.1,3.1h10.1c1.5,8.6,9,15.2,18,15.2s16.5-6.6,18-15.2h59.9c1.5,8.6,9,15.2,18,15.2c9,0,16.5-6.6,18-15.2h11.7
		c1.7,0,3.1-1.4,3.1-3.1V62.7C208,60.9,206.6,59.5,204.9,59.5z M60.8,97.5h24.9v42.2h-31L60.8,97.5z M79.3,190.3
		c-6.6,0-12-5.4-12-12.1c0-6.7,5.4-12.1,12-12.1s12,5.4,12,12.1C91.3,184.9,85.9,190.3,79.3,190.3z M175.2,190.3
		c-6.6,0-12-5.4-12-12.1c0-6.7,5.4-12.1,12-12.1c6.6,0,12,5.4,12,12.1C187.2,184.9,181.8,190.3,175.2,190.3z M201.8,175.1h-8.5
		c-1.5-8.6-9-15.2-18-15.2c-9,0-16.5,6.6-18,15.2H97.3c-1.5-8.6-9-15.2-18-15.2c-9,0-16.5,6.6-18,15.2h-7v-29.1h147.5V175.1z
		 M201.8,139.7h-16.5h-5.7h-6.9c0,0-0.1,0-0.1-0.1v0.1h-13.8h-7.5h-7.5h-9.3h-11.2h-9c0,0,0,0,0,0H92V65.8h0h109.7V139.7z"/>
</g>
</svg>
