<?xml version="1.0" encoding="utf-8"?>
<!-- Generator: Adobe Illustrator 28.2.0, SVG Export Plug-In . SVG Version: 6.00 Build 0)  -->
<svg version="1.1" id="Layer_1" xmlns="http://www.w3.org/2000/svg" xmlns:xlink="http://www.w3.org/1999/xlink" x="0px" y="0px"
	 viewBox="0 0 128 128" style="enable-background:new 0 0 128 128;" xml:space="preserve">
<style type="text/css">
	.st0{fill:#363F39;}
	.st1{opacity:0.2;fill:#69957C;}
	.st2{fill:#FFFFFF;}
	.st3{fill:#69957C;}
</style>
<g>
	<path class="st0" d="M109.6,54.1c-2.1-2-4.1-4-6.2-6.1c-0.1-2.8-0.1-5.6-0.2-8.5c-0.1-3.8-1.8-7.4-4.5-10.2
		c-2.8-2.8-6.4-4.4-10.2-4.5c-2.8-0.1-5.6-0.2-8.5-0.2c-2-2.1-4.1-4.1-6.1-6.2c-2.7-2.8-6.2-4.3-9.9-4.3c-3.7,0-7.2,1.6-9.9,4.3
		c-2,2.1-4,4.1-6.1,6.2c-2.8,0.1-5.6,0.1-8.5,0.2c-7.8,0.3-14.5,6.9-14.7,14.7c-0.1,2.8-0.2,5.6-0.2,8.5c-2.1,2-4.2,4.1-6.2,6.1
		C15.6,56.8,14,60.3,14,64c0,3.7,1.5,7.2,4.3,9.9c2.1,2,4.2,4,6.2,6.1c0.1,2.8,0.1,5.6,0.2,8.5c0.1,3.8,1.8,7.4,4.5,10.2
		c2.8,2.8,6.4,4.4,10.2,4.5c2.8,0.1,5.6,0.2,8.5,0.2c2,2.1,4.1,4.1,6.1,6.2c2.7,2.8,6.2,4.3,9.9,4.3c3.7,0,7.2-1.5,9.9-4.3
		c2-2.1,4-4.1,6.1-6.2c2.8-0.1,5.6-0.1,8.5-0.2c7.8-0.3,14.5-6.9,14.7-14.7c0.1-2.8,0.2-5.6,0.2-8.5c2.1-2,4.2-4.1,6.2-6.1
		c2.8-2.7,4.3-6.2,4.3-9.9C114,60.3,112.4,56.8,109.6,54.1L109.6,54.1z"/>
	<path class="st1" d="M80,24.6c-2-2.1-4.1-4.1-6.1-6.2c-2.7-2.8-6.2-4.3-9.9-4.3c-3.7,0-7.2,1.6-9.9,4.3c-2,2.1-4,4.1-6.1,6.2
		c-2.8,0.1-5.6,0.1-8.5,0.2c-7.8,0.3-14.5,6.9-14.7,14.7c-0.1,2.8-0.2,5.6-0.2,8.5c-2.1,2-4.2,4.1-6.2,6.1C15.6,56.8,14,60.3,14,64
		c0,3.7,1.5,7.2,4.3,9.9c2.1,2,4.2,4,6.2,6.1c0,2.4,0.1,4.9,0.2,7.3c3.4,0.7,6.9,1,10.4,1c30,0,54.4-24.3,54.4-54.4
		c0-3-0.3-6.1-0.8-9.1l-0.3,0C85.6,24.8,82.8,24.7,80,24.6L80,24.6z"/>
	<path class="st2" d="M88.8,57.7c-8.4,8.8-17,17.7-25.4,26.6c-1.4,1.5-3.3,2.3-5.3,2.3h0c-2,0-3.9-0.8-5.3-2.3
		c-4.5-4.6-9-9.3-13.5-13.9c-2.8-2.9-2.8-7.5,0-10.3c0,0,0.1-0.1,0.1-0.1c3-2.9,7.7-2.8,10.5,0.1c2.7,2.8,5.4,5.5,8.1,8.3
		c6.7-7,13.4-14,20-21c2.8-3,7.5-3,10.5-0.2C91.5,50.1,91.7,54.7,88.8,57.7L88.8,57.7z"/>
</g>
<rect x="-158.5" y="-377.9" class="st3" width="195.8" height="150.7"/>
<rect x="90.7" y="-377.9" class="st0" width="195.8" height="150.7"/>
</svg>
