<?xml version="1.0" encoding="utf-8"?>
<!-- Generator: Adobe Illustrator 28.2.0, SVG Export Plug-In . SVG Version: 6.00 Build 0)  -->
<svg version="1.1" id="Layer_1" xmlns="http://www.w3.org/2000/svg" xmlns:xlink="http://www.w3.org/1999/xlink" x="0px" y="0px"
	 viewBox="0 0 256 256" style="enable-background:new 0 0 256 256;" xml:space="preserve">
<style type="text/css">
	.st0{fill:#363F39;}
	.st1{fill:#68967C;}
</style>
<g>
	<path class="st0" d="M205.7,131.1h-42.5v-15.9c0-1.3-1-2.3-2.3-2.3s-2.3,1-2.3,2.3v15.9H97.5v-26l16.2-16.2h44.7v15.3
		c0,1.3,1,2.3,2.3,2.3s2.3-1,2.3-2.3V86.6c0-1.3-1-2.3-2.3-2.3h-1.4V67.8c0-1.3-1-2.3-2.3-2.3h-25c-1.3,0-2.3,1-2.3,2.3v16.4h-11.3
		l4-4c0.9-0.9,0.9-2.4,0-3.3l-8.8-8.8c-0.9-0.9-2.4-0.9-3.3,0L80.6,97.8c-0.9,0.9-0.9,2.4,0,3.3c0.9,0.9,2.4,0.9,3.3,0L112,73
		l5.5,5.5l-51.6,51.6l-5.5-5.5l15.8-15.8c0.9-0.9,0.9-2.4,0-3.3c-0.9-0.9-2.4-0.9-3.3,0L55.4,123c-0.9,0.9-0.9,2.4,0,3.3l4.8,4.8
		h-9.9c-1.3,0-2.3,1-2.3,2.3V146c0,1.3,1,2.3,2.3,2.3H54v39.8c0,1.3,1,2.3,2.3,2.3H122c1.3,0,2.3-1,2.3-2.3v-39.8h7.3v39.8
		c0,1.3,1,2.3,2.3,2.3h23.8c1.3,0,2.3-1,2.3-2.3c0-1.3-1-2.3-2.3-2.3h-21.4v-37.5h60.9v37.5h-28.6c-1.3,0-2.3,1-2.3,2.3
		c0,1.3,1,2.3,2.3,2.3h30.9c1.3,0,2.3-1,2.3-2.3v-39.8h3.7c1.3,0,2.3-1,2.3-2.3v-12.5C208,132.2,207,131.1,205.7,131.1L205.7,131.1z
		 M146.9,84.3v-4.7h7.8v4.7H146.9z M154.7,74.9h-7.8v-4.7h7.8V74.9z M142.2,70.2v4.7h-7.8v-4.7H142.2z M134.4,79.6h7.8v4.7h-7.8
		V79.6z M92.8,109.8v21.3H71.6L92.8,109.8z M119.6,185.8H58.7v-37.5h10.8c1.3,0,2.3-1,2.3-2.3s-1-2.3-2.3-2.3H52.7v-7.8h73v7.8H80.5
		c-1.3,0-2.3,1-2.3,2.3s1,2.3,2.3,2.3h39.2V185.8z M203.3,143.6h-73v-7.8h73V143.6z"/>
	<g>
		<path class="st1" d="M71.2,157.7v18.8c0,1.3,1,2.3,2.3,2.3h31.2c1.3,0,2.3-1,2.3-2.3v-18.8c0-1.3-1-2.3-2.3-2.3H73.5
			C72.3,155.3,71.2,156.4,71.2,157.7z M75.9,160h26.6v14.1H75.9V160z"/>
		<path class="st1" d="M184.8,176.4v-18.8c0-1.3-1-2.3-2.3-2.3h-31.2c-1.3,0-2.3,1-2.3,2.3v18.8c0,1.3,1,2.3,2.3,2.3h31.2
			C183.7,178.8,184.8,177.7,184.8,176.4z M180.1,174.1h-26.6V160h26.6V174.1z"/>
		<path class="st1" d="M160.5,169.4H173c1.3,0,2.3-1,2.3-2.3s-1-2.3-2.3-2.3h-12.5c-1.3,0-2.3,1-2.3,2.3S159.2,169.4,160.5,169.4z"
			/>
		<path class="st1" d="M95.5,164.7H83c-1.3,0-2.3,1-2.3,2.3s1,2.3,2.3,2.3h12.5c1.3,0,2.3-1,2.3-2.3S96.8,164.7,95.5,164.7z"/>
		<path class="st1" d="M112.4,98.3c-1.3,0-2.3,1-2.3,2.3v18.8c0,1.3,1,2.3,2.3,2.3h31.2c1.3,0,2.3-1,2.3-2.3v-18.8
			c0-1.3-1-2.3-2.3-2.3H112.4z M141.3,117.1h-26.6V103h26.6V117.1z"/>
		<path class="st1" d="M121.8,112.4h12.5c1.3,0,2.3-1,2.3-2.3c0-1.3-1-2.3-2.3-2.3h-12.5c-1.3,0-2.3,1-2.3,2.3
			C119.4,111.3,120.5,112.4,121.8,112.4z"/>
	</g>
</g>
</svg>
