<?xml version="1.0" encoding="utf-8"?>
<!-- Generator: Adobe Illustrator 28.2.0, SVG Export Plug-In . SVG Version: 6.00 Build 0)  -->
<svg version="1.1" id="Layer_1" xmlns="http://www.w3.org/2000/svg" xmlns:xlink="http://www.w3.org/1999/xlink" x="0px" y="0px"
	 viewBox="0 0 256 256" style="enable-background:new 0 0 256 256;" xml:space="preserve">
<style type="text/css">
	.st0{fill:#363F39;}
	.st1{fill:#68967C;}
</style>
<g>
	<path class="st0" d="M208,74.5v-0.7c0-14.2-11.6-25.8-25.8-25.8c-14.2,0-25.8,11.6-25.8,25.8v0.7c0,5.1,1.5,10.1,4.3,14.3
		l14.1,21.1h-10.7c-3.4,0-6.2,2.2-7.3,5.2H97.4c-4-9.1-13.1-15.5-23.6-15.5c-14.2,0-25.8,11.6-25.8,25.8v0.7
		c0,5.1,1.5,10.1,4.3,14.3l14.1,21.1H55.7c-4.3,0-7.7,3.5-7.7,7.7v31c0,4.3,3.5,7.7,7.7,7.7h36.1c3.4,0,6.2-2.2,7.3-5.2h98.5v-46.5
		h2.6c4.3,0,7.7-3.5,7.7-7.7v-31c0-4.3-3.5-7.7-7.7-7.7h-10.7l14.1-21.1C206.5,84.6,208,79.6,208,74.5L208,74.5z M115.1,120.3v10.3
		H99.2c0.3-1.5,0.4-2.9,0.4-4.5v-0.7c0-1.8-0.2-3.5-0.5-5.2H115.1z M56.6,137.6c-2.3-3.4-3.5-7.4-3.5-11.5v-0.7
		c0-11.4,9.3-20.6,20.6-20.6s20.6,9.3,20.6,20.6v0.7c0,4.1-1.2,8-3.5,11.5l-15.3,23c-0.8,1.2-2.9,1.2-3.7,0L56.6,137.6z M79,166.7
		v5.2H68.6v-5.2H79z M94.5,200.3c0,1.4-1.2,2.6-2.6,2.6H55.7c-1.4,0-2.6-1.2-2.6-2.6v-31c0-1.4,1.2-2.6,2.6-2.6h7.7V177h20.6v-10.3
		h7.7c1.4,0,2.6,1.2,2.6,2.6V200.3z M115.1,197.7H99.6v-28.4c0-4.3-3.5-7.7-7.7-7.7H81.2l6.9-10.3h27V197.7z M192.5,197.7h-51.6
		v-10.3h51.6V197.7z M192.5,182.2h-56.8v15.5h-15.5v-51.6H91.5l3.7-5.6c1-1.5,1.8-3.1,2.4-4.7h22.6v-15.5h10.3v51.6h61.9V182.2z
		 M192.5,166.7h-56.8v-46.5h20.6v28.4c0,4.3,3.5,7.7,7.7,7.7h28.4V166.7z M192.5,125.4v-10.3h7.7c1.4,0,2.6,1.2,2.6,2.6v31
		c0,1.4-1.2,2.6-2.6,2.6h-36.1c-1.4,0-2.6-1.2-2.6-2.6v-31c0-1.4,1.2-2.6,2.6-2.6h7.7v10.3H192.5z M177,120.3v-5.2h10.3v5.2H177z
		 M202.8,74.5c0,4.1-1.2,8-3.5,11.5l-15.3,23c-0.8,1.2-2.9,1.2-3.7,0L165,86c-2.3-3.4-3.5-7.4-3.5-11.5v-0.7
		c0-11.4,9.3-20.6,20.6-20.6s20.6,9.3,20.6,20.6V74.5z"/>
	<path class="st1" d="M182.2,58.3c-8.5,0-15.5,6.9-15.5,15.5s6.9,15.5,15.5,15.5c8.5,0,15.5-6.9,15.5-15.5S190.7,58.3,182.2,58.3z
		 M182.2,84.1c-5.7,0-10.3-4.6-10.3-10.3c0-5.7,4.6-10.3,10.3-10.3c5.7,0,10.3,4.6,10.3,10.3C192.5,79.5,187.9,84.1,182.2,84.1z"/>
	<path class="st1" d="M89.3,125.4c0-8.5-6.9-15.5-15.5-15.5s-15.5,6.9-15.5,15.5s6.9,15.5,15.5,15.5S89.3,134,89.3,125.4z
		 M63.5,125.4c0-5.7,4.6-10.3,10.3-10.3c5.7,0,10.3,4.6,10.3,10.3s-4.6,10.3-10.3,10.3C68.1,135.7,63.5,131.1,63.5,125.4z"/>
</g>
</svg>
