<?xml version="1.0" encoding="utf-8"?>
<!-- Generator: Adobe Illustrator 28.2.0, SVG Export Plug-In . SVG Version: 6.00 Build 0)  -->
<svg version="1.1" id="Layer_1" xmlns="http://www.w3.org/2000/svg" xmlns:xlink="http://www.w3.org/1999/xlink" x="0px" y="0px"
	 viewBox="0 0 256 256" style="enable-background:new 0 0 256 256;" xml:space="preserve">
<style type="text/css">
	.st0{fill:#363F39;}
	.st1{fill:#68967C;}
</style>
<g>
	<g id="XMLID_4191_">
		<path id="XMLID_1072_" class="st0" d="M200,64h-37.3c-1.5,0-2.7-1.2-2.7-2.7V50.7c0-1.5,1.2-2.7,2.7-2.7H200
			c1.5,0,2.7,1.2,2.7,2.7v10.7C202.7,62.8,201.5,64,200,64z M165.3,58.7h32v-5.3h-32V58.7z"/>
	</g>
	<g id="XMLID_4286_">
		<g id="XMLID_4311_">
			<g id="XMLID_4312_">
				<path id="XMLID_1071_" class="st0" d="M205.3,122.7h-42.7c-1.5,0-2.7-1.2-2.7-2.7s1.2-2.7,2.7-2.7h42.7c1.5,0,2.7,1.2,2.7,2.7
					S206.8,122.7,205.3,122.7z"/>
			</g>
		</g>
		<g id="XMLID_4307_">
			<g id="XMLID_4309_">
				<path id="XMLID_1070_" class="st0" d="M205.3,112h-42.7c-1.5,0-2.7-1.2-2.7-2.7s1.2-2.7,2.7-2.7h42.7c1.5,0,2.7,1.2,2.7,2.7
					S206.8,112,205.3,112z"/>
			</g>
		</g>
		<g id="XMLID_4305_">
			<g id="XMLID_4306_">
				<path id="XMLID_1069_" class="st0" d="M205.3,80h-42.7c-1.5,0-2.7-1.2-2.7-2.7s1.2-2.7,2.7-2.7h42.7c1.5,0,2.7,1.2,2.7,2.7
					S206.8,80,205.3,80z"/>
			</g>
		</g>
		<g id="XMLID_4303_">
			<g id="XMLID_4304_">
				<path id="XMLID_1068_" class="st0" d="M205.3,90.7h-42.7c-1.5,0-2.7-1.2-2.7-2.7s1.2-2.7,2.7-2.7h42.7c1.5,0,2.7,1.2,2.7,2.7
					S206.8,90.7,205.3,90.7z"/>
			</g>
		</g>
		<g id="XMLID_4301_">
			<g id="XMLID_4302_">
				<path id="XMLID_1067_" class="st0" d="M205.3,101.3h-42.7c-1.5,0-2.7-1.2-2.7-2.7s1.2-2.7,2.7-2.7h42.7c1.5,0,2.7,1.2,2.7,2.7
					S206.8,101.3,205.3,101.3z"/>
			</g>
		</g>
	</g>
	<g id="XMLID_4285_">
		<path id="XMLID_1066_" class="st0" d="M205.3,144c-1.5,0-2.7-1.2-2.7-2.7V64h-48c-1.5,0-2.7-1.2-2.7-2.7s1.2-2.7,2.7-2.7h50.7
			c1.5,0,2.7,1.2,2.7,2.7v80C208,142.8,206.8,144,205.3,144z"/>
	</g>
	<g id="XMLID_2576_">
		<path id="XMLID_1065_" class="st0" d="M50.7,170.7c-1.5,0-2.7-1.2-2.7-2.7v-5.4c0-1.5,1.2-2.7,2.7-2.7s2.7,1.2,2.7,2.7v5.4
			C53.3,169.5,52.1,170.7,50.7,170.7z"/>
	</g>
	<g id="XMLID_4278_">
		<path id="XMLID_1064_" class="st0" d="M50.7,154.7c-1.5,0-2.7-1.2-2.7-2.7V77.3c0-1.5,1.2-2.7,2.7-2.7h58.7c1.5,0,2.7,1.2,2.7,2.7
			v48.1c0,1.5-1.2,2.7-2.7,2.7s-2.7-1.2-2.7-2.7V80H53.3v72.1C53.3,153.5,52.1,154.7,50.7,154.7z"/>
	</g>
	<g id="XMLID_2610_">
		<g id="XMLID_2710_">
			<g id="XMLID_2434_">
				<path id="XMLID_1063_" class="st0" d="M72,133.3H61.3c-1.5,0-2.7-1.2-2.7-2.7s1.2-2.7,2.7-2.7H72c1.5,0,2.7,1.2,2.7,2.7
					S73.5,133.3,72,133.3z"/>
			</g>
			<g id="XMLID_2709_">
				<path id="XMLID_1062_" class="st0" d="M98.7,122.7H61.3c-1.5,0-2.7-1.2-2.7-2.7s1.2-2.7,2.7-2.7h37.3c1.5,0,2.7,1.2,2.7,2.7
					S100.1,122.7,98.7,122.7z"/>
			</g>
			<g id="XMLID_2708_">
				<path id="XMLID_1061_" class="st0" d="M98.7,112H61.3c-1.5,0-2.7-1.2-2.7-2.7s1.2-2.7,2.7-2.7h37.3c1.5,0,2.7,1.2,2.7,2.7
					S100.1,112,98.7,112z"/>
			</g>
			<g id="XMLID_2681_">
				<path id="XMLID_1060_" class="st0" d="M98.7,101.3H61.3c-1.5,0-2.7-1.2-2.7-2.7s1.2-2.7,2.7-2.7h37.3c1.5,0,2.7,1.2,2.7,2.7
					S100.1,101.3,98.7,101.3z"/>
			</g>
			<g id="XMLID_2656_">
				<path id="XMLID_1059_" class="st0" d="M98.7,90.7H61.3c-1.5,0-2.7-1.2-2.7-2.7s1.2-2.7,2.7-2.7h37.3c1.5,0,2.7,1.2,2.7,2.7
					S100.1,90.7,98.7,90.7z"/>
			</g>
		</g>
		<g id="XMLID_2406_">
			<g id="XMLID_2603_">
				<path id="XMLID_1058_" class="st0" d="M120.5,117.3H120c-1.5,0-2.7-1.2-2.7-2.7s1.2-2.7,2.7-2.7s2.9,1.2,2.9,2.7
					S122,117.3,120.5,117.3z"/>
			</g>
			<g id="XMLID_2407_">
				<path id="XMLID_1057_" class="st0" d="M141.9,117.3h-0.5c-1.5,0-2.7-1.2-2.7-2.7s1.2-2.7,2.7-2.7c1.5,0,2.9,1.2,2.9,2.7
					S143.3,117.3,141.9,117.3L141.9,117.3z"/>
			</g>
			<g id="XMLID_2409_">
				<path id="XMLID_1056_" class="st0" d="M131.2,117.3h-0.5c-1.5,0-2.7-1.2-2.7-2.7s1.2-2.7,2.7-2.7c1.5,0,2.9,1.2,2.9,2.7
					S132.7,117.3,131.2,117.3L131.2,117.3z"/>
			</g>
		</g>
		<g id="XMLID_2598_">
			<g id="XMLID_2602_">
				<path id="XMLID_1055_" class="st0" d="M120.5,106.7H120c-1.5,0-2.7-1.2-2.7-2.7s1.2-2.7,2.7-2.7s2.9,1.2,2.9,2.7
					S122,106.7,120.5,106.7z"/>
			</g>
			<g id="XMLID_2601_">
				<path id="XMLID_1054_" class="st0" d="M141.9,106.7h-0.5c-1.5,0-2.7-1.2-2.7-2.7s1.2-2.7,2.7-2.7c1.5,0,2.9,1.2,2.9,2.7
					S143.3,106.7,141.9,106.7L141.9,106.7z"/>
			</g>
			<g id="XMLID_2600_">
				<path id="XMLID_1053_" class="st0" d="M131.2,106.7h-0.5c-1.5,0-2.7-1.2-2.7-2.7s1.2-2.7,2.7-2.7c1.5,0,2.9,1.2,2.9,2.7
					S132.7,106.7,131.2,106.7L131.2,106.7z"/>
			</g>
		</g>
	</g>
	<g id="XMLID_2645_">
		<path id="XMLID_1052_" class="st0" d="M152,128c-1.5,0-2.7-1.2-2.7-2.7V96h-32c-1.5,0-2.7-1.2-2.7-2.7s1.2-2.7,2.7-2.7H152
			c1.5,0,2.7,1.2,2.7,2.7v32C154.7,126.8,153.5,128,152,128z"/>
	</g>
	<g id="XMLID_2637_">
		<path id="XMLID_1049_" class="st0" d="M93.3,69.3H66.7c-1.5,0-2.7-1.2-2.7-2.7V56c0-1.5,1.2-2.7,2.7-2.7h26.7
			c1.5,0,2.7,1.2,2.7,2.7v10.7C96,68.1,94.8,69.3,93.3,69.3z M69.3,64h21.3v-5.3H69.3V64z"/>
	</g>
	<g id="XMLID_2638_">
		<path id="XMLID_1044_" class="st0" d="M104,80H56c-1.5,0-2.7-1.2-2.7-2.7V66.7c0-1.5,1.2-2.7,2.7-2.7h48c1.5,0,2.7,1.2,2.7,2.7
			v10.7C106.7,78.8,105.5,80,104,80z M58.7,74.7h42.7v-5.3H58.7V74.7z"/>
	</g>
	<g id="XMLID_3444_">
		<path id="XMLID_1043_" class="st0" d="M136,96h-10.7c-1.5,0-2.7-1.2-2.7-2.7V82.7c0-1.5,1.2-2.7,2.7-2.7s2.7,1.2,2.7,2.7v8h5.3
			V77.3c0-1.5,1.2-2.7,2.7-2.7s2.7,1.2,2.7,2.7v16C138.7,94.8,137.5,96,136,96z"/>
	</g>
	<g id="XMLID_2405_">
		<g id="XMLID_2411_">
			<path id="XMLID_1042_" class="st1" d="M96,197.3h-6.9c-0.8,0-1.5-0.3-2-0.9c-0.5-0.6-0.7-1.3-0.6-2.1l5.1-37.2
				c0.2-1.5,1.6-2.5,3-2.3c1.5,0.2,2.5,1.5,2.3,3L92.1,192H96c1.5,0,2.7,1.2,2.7,2.7S97.5,197.3,96,197.3z"/>
		</g>
		<g id="XMLID_2410_">
			<path id="XMLID_1041_" class="st1" d="M112,208H61.3c-1.5,0-2.7-1.2-2.7-2.7c0-1.5,1.2-2.7,2.7-2.7H112c1.5,0,2.7,1.2,2.7,2.7
				C114.7,206.8,113.5,208,112,208z"/>
		</g>
		<g id="XMLID_2437_">
			<path id="XMLID_1040_" class="st1" d="M109.3,149.3H72c-1.5,0-2.7-1.2-2.7-2.7s1.2-2.7,2.7-2.7h37.3c1.5,0,2.7,1.2,2.7,2.7
				S110.8,149.3,109.3,149.3z"/>
		</g>
		<g id="XMLID_2439_">
			<path id="XMLID_1039_" class="st1" d="M161.1,197.3h-38.5c-1.5,0-2.7-1.2-2.7-2.7s1.2-2.7,2.7-2.7h36.2l7.3-53.3H88
				c-1.5,0-2.7-1.2-2.7-2.7c0-1.5,1.2-2.7,2.7-2.7h81.1c0.8,0,1.5,0.3,2,0.9c0.5,0.6,0.7,1.3,0.6,2.1l-8,58.7
				C163.5,196.3,162.4,197.3,161.1,197.3z"/>
		</g>
		<g id="XMLID_2440_">
			<path id="XMLID_1038_" class="st1" d="M200.5,197.3h-11.3c-1.5,0-2.7-1.2-2.7-2.7s1.2-2.7,2.7-2.7h9.1l3.2-16.2
				c0.3-1.3-0.1-2.6-0.9-3.6c-0.8-1-2-1.6-3.3-1.6c-1.4,0-2.5-1-2.7-2.4l-1.7-17.1c-0.4-4.1-3.8-7.2-8-7.2h-16.5
				c-1.5,0-2.7-1.2-2.7-2.7s1.2-2.7,2.7-2.7H185c6.9,0,12.6,5.2,13.3,12l1.5,15c2,0.5,3.7,1.6,5,3.2c1.9,2.2,2.6,5.2,2,8l-3.7,18.3
				C202.9,196.4,201.8,197.3,200.5,197.3L200.5,197.3z"/>
		</g>
		<g id="XMLID_2441_">
			<path id="XMLID_1033_" class="st1" d="M179.9,208c-2.5,0-4.9-0.9-6.6-2.7c-3.9-3.9-3.4-10.6,1-15c2.1-2.1,4.8-3.4,7.5-3.6
				c3-0.3,5.6,0.7,7.5,2.6c3.9,3.9,3.4,10.6-1,15c-2.1,2.1-4.8,3.4-7.5,3.6C180.5,208,180.2,208,179.9,208L179.9,208z M182.8,192
				c-0.2,0-0.3,0-0.5,0c-1.5,0.1-3,0.9-4.2,2.1c-2.3,2.3-2.8,5.7-1,7.5c0.8,0.8,2,1.2,3.3,1.1c1.5-0.1,3-0.9,4.2-2.1
				c2.3-2.3,2.8-5.7,1-7.5C184.9,192.4,183.9,192,182.8,192z"/>
		</g>
		<g id="XMLID_2442_">
			<path id="XMLID_1032_" class="st1" d="M202.7,181.3h-8c-1.5,0-2.7-1.2-2.7-2.7s1.2-2.7,2.7-2.7h8c1.5,0,2.7,1.2,2.7,2.7
				S204.1,181.3,202.7,181.3z"/>
		</g>
		<g id="XMLID_2443_">
			<path id="XMLID_1027_" class="st1" d="M197.3,170.7h-15c-2.4,0-4.6-1-6.1-2.8c-1.5-1.8-2.2-4.2-1.8-6.5l0.9-5.3
				c0.7-3.9,4-6.7,7.9-6.7h12.5c1.4,0,2.5,1,2.7,2.4l1.6,16c0.1,0.8-0.2,1.5-0.7,2.1C198.8,170.3,198.1,170.7,197.3,170.7
				L197.3,170.7z M183.2,154.7c-1.3,0-2.4,0.9-2.6,2.2l-0.9,5.3c-0.1,0.8,0.1,1.6,0.6,2.2c0.5,0.6,1.2,0.9,2,0.9h12.1l-1.1-10.7
				H183.2z"/>
		</g>
		<g id="XMLID_2444_">
			<path id="XMLID_1024_" class="st1" d="M113.2,208c-2.5,0-4.9-0.9-6.6-2.6c-3.9-3.9-3.4-10.6,1-15c2.1-2.1,4.7-3.4,7.5-3.6
				c2.9-0.3,5.6,0.7,7.5,2.6c3.9,3.9,3.4,10.6-1,15c-2.1,2.1-4.7,3.4-7.5,3.6C113.9,208,113.5,208,113.2,208L113.2,208z M116.1,192
				c-0.2,0-0.3,0-0.5,0c-1.5,0.1-3,0.9-4.2,2.1c-1.2,1.2-1.9,2.7-2.1,4.2c-0.1,1.3,0.3,2.5,1,3.3c0.8,0.8,2,1.2,3.3,1.1
				c1.5-0.1,3-0.9,4.2-2.1s1.9-2.7,2.1-4.2c0.1-1.3-0.3-2.5-1-3.3C118.2,192.4,117.2,192,116.1,192z"/>
		</g>
		<g id="XMLID_2559_">
			<path id="XMLID_1023_" class="st1" d="M51.2,208h-0.5c-1.5,0-2.7-1.2-2.7-2.7c0-1.5,1.2-2.7,2.7-2.7s2.9,1.2,2.9,2.7
				C53.6,206.8,52.7,208,51.2,208z"/>
		</g>
	</g>
	<g id="XMLID_2604_">
		<g id="XMLID_2609_">
			<path id="XMLID_1022_" class="st0" d="M120.5,128H120c-1.5,0-2.7-1.2-2.7-2.7s1.2-2.7,2.7-2.7s2.9,1.2,2.9,2.7S122,128,120.5,128
				z"/>
		</g>
		<g id="XMLID_2608_">
			<path id="XMLID_1021_" class="st0" d="M141.9,128h-0.5c-1.5,0-2.7-1.2-2.7-2.7s1.2-2.7,2.7-2.7c1.5,0,2.9,1.2,2.9,2.7
				S143.3,128,141.9,128L141.9,128z"/>
		</g>
		<g id="XMLID_2605_">
			<path id="XMLID_1020_" class="st0" d="M131.2,128h-0.5c-1.5,0-2.7-1.2-2.7-2.7s1.2-2.7,2.7-2.7c1.5,0,2.9,1.2,2.9,2.7
				S132.7,128,131.2,128L131.2,128z"/>
		</g>
	</g>
</g>
</svg>
