<?xml version="1.0" encoding="utf-8"?>
<!-- Generator: Adobe Illustrator 28.2.0, SVG Export Plug-In . SVG Version: 6.00 Build 0)  -->
<svg version="1.1" id="Layer_1" xmlns="http://www.w3.org/2000/svg" xmlns:xlink="http://www.w3.org/1999/xlink" x="0px" y="0px"
	 viewBox="0 0 256 256" style="enable-background:new 0 0 256 256;" xml:space="preserve">
<style type="text/css">
	.st0{fill:#68967C;}
	.st1{fill:#363F39;}
</style>
<g>
	<path class="st0" d="M52.8,128c0-41.5,33.7-75.2,75.2-75.2c11,0,21.9,2.4,31.8,7l-8.7,2.6c-1.3,0.4-2,1.7-1.6,3
		c0.4,1.3,1.7,2,3,1.6l14.4-4.3c1.3-0.4,2-1.7,1.6-3l-4.3-14.4c-0.4-1.3-1.7-2-3-1.6c-1.3,0.4-2,1.7-1.6,3l2.7,9
		c-10.6-5-22.4-7.7-34.3-7.7c-21.4,0-41.5,8.3-56.6,23.4C56.3,86.5,48,106.6,48,128c0,8.6,1.4,17.1,4.1,25.2c0.3,1,1.3,1.6,2.3,1.6
		c0.2,0,0.5,0,0.8-0.1c1.3-0.4,1.9-1.8,1.5-3C54.1,144.1,52.8,136.1,52.8,128z"/>
	<path class="st0" d="M205.1,106.5c-0.4-1.3-1.7-2-2.9-1.7c-1.3,0.4-2,1.7-1.7,2.9c1.8,6.5,2.7,13.3,2.7,20.2
		c0,41.5-33.7,75.2-75.2,75.2c-11,0-21.9-2.4-31.8-7l8.7-2.6c1.3-0.4,2-1.7,1.6-3c-0.4-1.3-1.7-2-3-1.6l-14.4,4.3
		c-1.3,0.4-2,1.7-1.6,3l4.3,14.4c0.3,1,1.3,1.7,2.3,1.7c0.2,0,0.5,0,0.7-0.1c1.3-0.4,2-1.7,1.6-3l-2.7-9c10.7,5,22.4,7.7,34.3,7.7
		c21.4,0,41.5-8.3,56.6-23.4c15.1-15.1,23.4-35.2,23.4-56.6C208,120.7,207,113.5,205.1,106.5z"/>
	<path class="st1" d="M97.1,179c9.3,5.7,19.9,8.6,30.9,8.6c32.9,0,59.6-26.7,59.6-59.6c0-3-0.2-6-0.7-9c1.1-1.8,2.4-4,3.8-6.2
		c3.8-6,8.1-12.7,10.3-19.5c2.7-8.4,1.6-15.3-3.5-20.3c-7.3-7.3-19.1-7.3-26.3,0c-2.7,2.7-4.3,5.9-4.8,9.5
		c-10.7-9.1-24.2-14.1-38.5-14.1c-32.9,0-59.6,26.7-59.6,59.6c0,3.8,0.4,7.5,1.1,11.2c-1.1,0.2-1.9,1.2-1.9,2.3v10.1l-6.3,4.7
		c-0.8,0.6-1.2,1.7-0.8,2.7c0.3,1,1.2,1.6,2.3,1.6h4.5v17.5c0,2.2,1.8,4.1,4.1,4.1h21.8C95,182.2,96.7,180.8,97.1,179z M107.2,178.8
		c-3.5-1.4-6.9-3.2-10-5.4V167c2.2-0.2,3.7,0,4.5,0.7c0.9,0.8,1.3,2.3,1.2,4.6c-0.1,2.8,1.9,3.8,2.8,4.3
		C106.5,177,107.1,177.3,107.2,178.8L107.2,178.8z M163.2,170c-0.1-0.5,0.1-1,0.4-1.9c2.1-5.5,0.4-10.5-1-14.5
		c-1.6-4.7-1.6-5.7,0-6.7c8.2-5,8.3-12,8.4-17.1c0.1-3.4,0.2-5.5,1.5-6.8c1.5-1.5,4.8-2.2,9.8-2.1c0.3,2.3,0.5,4.7,0.5,7.1
		C182.8,144.8,175.2,159.9,163.2,170z M174.7,76.4c2.7-2.7,6.2-4,9.8-4c3.5,0,7.1,1.3,9.8,4c8.6,8.6-0.3,22.6-7.5,33.9
		c-0.8,1.2-1.6,2.4-2.3,3.6c-0.8-1.4-1.8-2.8-2.7-4.3C174.5,97.9,166.2,84.8,174.7,76.4z M128,73.2c5.6,0,11,0.8,16.1,2.4
		c2.1,7.1,2.3,12.2,0.6,15.3c-1.5,2.7-4.6,3.5-7.5,4.3c-0.7,0.2-1.4,0.4-2,0.6c-1.7,0.5-3.7,1.4-4.5,3.4c-0.9,2.2,0.1,4.6,0.9,6.2
		c1.2,2.4,4.4,4.6,7.8,7c1.7,1.2,3.4,2.4,4.7,3.5c0.8,0.7,1,1.3,1,1.4c-0.1,0.2-0.7,0.8-2.1,1.1c-0.4,0.1-1.9,0.2-3.2,0.2
		c-3.8,0.2-9.4,0.5-13.7,1.6c-1.5,0.4-6,1.7-6.8,5.4c-0.6,2.7,0.9,5.5,4.5,8.7c3.5,3.1,8.7,9.1,8.2,12.7c-0.1,0.7-0.4,1.7-2.1,2.6
		c-5.5,2.9-8.9-0.2-11.9-3.7c-1.2-1.4-2.7-4.3-4.3-7.4c-3.2-6.2-6.8-13.2-11.7-15.1c-0.4-0.2-0.9-0.3-1.4-0.4
		c-2.9-0.8-8.4-2.2-9.1-16.4c-0.1-2.7-3.4-9.5-6-13C95.5,81.1,110.8,73.2,128,73.2z M82.5,97.5c1.8,2.9,4.2,7.8,4.2,9.2
		c0.9,17.7,9.1,19.9,12.6,20.8c0.3,0.1,0.7,0.2,0.9,0.2c3.2,1.3,6.6,7.7,9.2,12.9c1.8,3.5,3.3,6.5,4.9,8.3c1.7,2,5.6,6.5,11.4,6.5
		c1.9,0,4-0.5,6.4-1.7c3.4-1.8,4.4-4.4,4.7-6.3c0.8-7-8-15.3-9.8-16.8c-2.6-2.3-3.1-3.7-3-4.1c0.1-0.3,0.9-1.1,3.4-1.8
		c3.8-1,9.1-1.3,12.7-1.5c2.1-0.1,3.3-0.2,4-0.3c3.1-0.7,5.2-2.3,5.8-4.6c0.3-1.2,0.4-3.7-2.5-6.2c-1.5-1.3-3.3-2.6-5.1-3.8
		c-2.5-1.8-5.6-4-6.3-5.3c-0.7-1.4-0.7-2-0.7-2.1c0.1-0.1,0.4-0.3,1.5-0.7c0.5-0.2,1.2-0.3,1.8-0.5c3.4-0.9,8-2,10.5-6.6
		c2-3.6,2.3-8.8,0.7-15.6c6.3,2.7,12.1,6.6,17.1,11.6c0.2,1.1,0.5,2.3,0.9,3.5c2.1,6.6,6.4,13.4,10.1,19.4c0.9,1.4,1.7,2.8,2.5,4.1
		c-5.3,0.2-8.8,1.3-11.1,3.5c-2.8,2.8-2.9,6.5-2.9,10.1c-0.1,4.9-0.2,9.5-6.1,13.1c-5.1,3.2-3.4,8.2-2,12.3c1.2,3.6,2.5,7.3,1,11.2
		c-0.7,1.9-1.3,4,0.2,6.6c-8.9,6.2-19.7,9.9-31.4,9.9c-5.5,0-10.9-0.8-16-2.4c0.2-5.2-1.8-6.9-4.1-8.1c-0.1,0-0.1-0.1-0.2-0.1
		c0.1-3.7-0.9-6.4-2.9-8.1c-2.2-1.9-5-2.1-7.6-1.9v-1.6h4.5c1,0,1.9-0.7,2.3-1.6c0.3-1,0-2.1-0.8-2.7l-17.5-13.1
		c-1.8-1.4-4.3-1.5-6.2-0.3v-1.3c0-1.3-1.1-2.4-2.4-2.4h-2.7c-0.8-3.7-1.1-7.4-1.1-11.2C73.2,116.7,76.6,106.2,82.5,97.5z
		 M72.4,143.9h2.2v2.5l-2.2,1.6V143.9z M70,155.8l11.8-8.7c0,0,0.1-0.1,0.1-0.1c0.2-0.1,0.5-0.2,0.7,0c0,0,0.1,0,0.1,0.1l11.8,8.8h0
		v0l0,0H70z M84.1,177.4h-3.9v-10h3.9V177.4z M92.4,177.4h-3.5v-11.3c0-1.9-1.6-3.5-3.5-3.5H79c-1.9,0-3.5,1.6-3.5,3.5v11.3H72
		v-16.8h20.4V177.4z"/>
	<path class="st0" d="M192.3,85.2c0-4.3-3.5-7.8-7.8-7.8s-7.8,3.5-7.8,7.8c0,4.3,3.5,7.8,7.8,7.8S192.3,89.5,192.3,85.2z
		 M181.4,85.2c0-1.7,1.4-3,3-3c1.7,0,3,1.4,3,3c0,1.7-1.4,3-3,3S181.4,86.8,181.4,85.2z"/>
</g>
</svg>
