<?xml version="1.0" encoding="utf-8"?>
<!-- Generator: Adobe Illustrator 28.2.0, SVG Export Plug-In . SVG Version: 6.00 Build 0)  -->
<svg version="1.1" id="Layer_1" xmlns="http://www.w3.org/2000/svg" xmlns:xlink="http://www.w3.org/1999/xlink" x="0px" y="0px"
	 viewBox="0 0 256 256" style="enable-background:new 0 0 256 256;" xml:space="preserve">
<style type="text/css">
	.st0{fill:#68967C;}
	.st1{fill:#363F39;}
</style>
<g>
	<g>
		<g>
			<rect x="100.7" y="184.5" class="st0" width="7.7" height="5.8"/>
		</g>
	</g>
	<g>
		<g>
			<rect x="162" y="184.5" class="st0" width="7.7" height="5.8"/>
		</g>
	</g>
	<g>
		<path class="st1" d="M177.4,196c1.6-2.2,2.6-4.8,2.8-7.6h15.4v-24.9h-5.7v-69h-86.2v69h-7.6V54.2H48v19.2h26.8v89.1h5.8V60h9.6
			v109.2h99.6v13.4h-10.4c-2-5.7-7.3-9.6-13.6-9.6c-6.2,0-11.6,3.9-13.6,9.6h-34.2c-2-5.7-7.3-9.6-13.6-9.6s-11.6,3.9-13.6,9.6H80.6
			V174h-5.8v14.4h15.4c0.2,2.9,1.2,5.5,2.8,7.6H54.7v5.8H208V196L177.4,196L177.4,196z M74.8,67.6H53.8V60h21.1L74.8,67.6L74.8,67.6
			z M138.1,100.2h17.2v17.2h-17.2V100.2z M138.1,123.2h17.2v5.7h-17.2V123.2z M184,107.9h-16.3v5.8H184v49.8h-74.7v-49.8h16.3v-5.8
			h-16.3v-7.6h23v34.5h28.8v-34.5h23L184,107.9L184,107.9z M104.5,196c-4.7,0-8.6-3.9-8.6-8.6c0-0.5,0-1,0.1-1.3l0-0.1
			c0.7-4.1,4.3-7.2,8.5-7.2s7.8,3.1,8.5,7.2l0,0.1c0.1,0.4,0.1,0.8,0.1,1.3C113.1,192.1,109.3,196,104.5,196z M116,196
			c1.6-2.2,2.6-4.8,2.8-7.6h32.6c0.2,2.9,1.2,5.5,2.8,7.6H116z M165.8,196c-4.7,0-8.6-3.9-8.6-8.6c0-0.5,0-1,0.1-1.3l0-0.1
			c0.7-4.1,4.3-7.2,8.5-7.2c4.2,0,7.8,3.1,8.5,7.2l0,0.1c0.1,0.4,0.1,0.8,0.1,1.3C174.5,192.1,170.6,196,165.8,196z"/>
	</g>
	<g>
		<g>
			<rect x="119.9" y="146.2" class="st0" width="36.4" height="5.8"/>
		</g>
	</g>
	<g>
		<g>
			<rect x="163.9" y="146.2" class="st0" width="9.6" height="5.8"/>
		</g>
	</g>
</g>
</svg>
