<?xml version="1.0" encoding="UTF-8"?>
<svg id="Layer_1" xmlns="http://www.w3.org/2000/svg" version="1.1" viewBox="0 0 54 54">
  <!-- Generator: Adobe Illustrator 29.1.0, SVG Export Plug-In . SVG Version: 2.1.0 Build 142)  -->
  <defs>
    <style>
      .st0 {
        fill: #fff;
      }
    </style>
  </defs>
  <path class="st0" d="M24.2,12.3c.4,0,.7.3.7.6s.2.5.5.5.5-.2.5-.5c0-.7-.5-1.2-1.2-1.4h0c0-.4-.2-.6-.5-.6s-.5.2-.5.5h0c-.7.3-1.1.9-1.1,1.5s.7,1.5,1.6,1.5.7.3.7.6-.3.6-.7.6h0c-.4,0-.7-.3-.7-.6s-.2-.5-.5-.5-.5.2-.5.5c0,.7.5,1.2,1.1,1.4h0c0,.4.2.6.5.6s.5-.2.5-.5h0c.7-.3,1.2-.9,1.2-1.5s-.7-1.5-1.6-1.5-.7-.2-.7-.5.3-.6.7-.6Z"/>
  <path class="st0" d="M28.6,12.3c.4,0,.7.3.7.6s.2.5.5.5.5-.2.5-.5c0-.7-.5-1.2-1.2-1.4h0c0-.4-.2-.6-.5-.6s-.5.2-.5.5h0c-.7.3-1.2.9-1.2,1.5s.7,1.5,1.6,1.5.7.3.7.6-.3.6-.7.6-.7-.3-.7-.6-.2-.5-.5-.5-.5.2-.5.5c0,.7.5,1.2,1.2,1.4h0c0,.4.2.6.5.6s.5-.2.5-.5h0c.7-.3,1.2-.9,1.2-1.5s-.7-1.5-1.6-1.5-.7-.2-.7-.5.3-.6.7-.6Z"/>
  <path class="st0" d="M33,12.3c.4,0,.7.3.7.6s.2.5.5.5.5-.2.5-.5c0-.7-.5-1.2-1.2-1.4h0c0-.4-.2-.6-.5-.6s-.5.2-.5.5h0c-.7.3-1.2.9-1.2,1.5s.7,1.5,1.6,1.5.7.3.7.6-.3.6-.7.6h0c-.4,0-.7-.3-.7-.6s-.2-.5-.5-.5-.5.2-.5.5c0,.7.5,1.2,1.2,1.4h0c0,.4.2.6.5.6s.5-.2.5-.5h0c.7-.3,1.2-.9,1.2-1.5s-.7-1.5-1.6-1.5-.7-.2-.7-.5.3-.6.7-.6Z"/>
  <path class="st0" d="M31.9,29h9V8.6c0-1.5-1.2-2.7-2.7-2.7H7.9c-1.5,0-2.7,1.2-2.7,2.7v36.8c0,1.5,1.2,2.7,2.7,2.7h21.7c-.2-.4-.4-.8-.4-1.3v-15.1c0-1.5,1.2-2.7,2.7-2.7ZM36.9,26.1c0,.5-.4,1-1,1h-5c-.5,0-1-.4-1-1v-3.2c0-.5.4-1,1-1h5c.5,0,1,.4,1,1v3.2ZM16.3,43.5c0,.5-.4,1-1,1h-5c-.5,0-1-.4-1-1v-3.2c0-.5.4-1,1-1h5c.5,0,1,.4,1,1v3.2ZM16.3,34.8c0,.5-.4,1-1,1h-5c-.5,0-1-.4-1-1v-3.2c0-.5.4-1,1-1h5c.5,0,1,.4,1,1v3.2ZM16.3,26.1c0,.5-.4,1-1,1h-5c-.5,0-1-.4-1-1v-3.2c0-.5.4-1,1-1h5c.5,0,1,.4,1,1v3.2ZM26.6,43.5c0,.5-.4,1-1,1h-5c-.5,0-1-.4-1-1v-3.2c0-.5.4-1,1-1h5c.5,0,1,.4,1,1v3.2ZM26.6,34.8c0,.5-.4,1-1,1h-5c-.5,0-1-.4-1-1v-3.2c0-.5.4-1,1-1h5c.5,0,1,.4,1,1v3.2ZM26.6,26.1c0,.5-.4,1-1,1h-5c-.5,0-1-.4-1-1v-3.2c0-.5.4-1,1-1h5c.5,0,1,.4,1,1v3.2ZM10.2,18.4c-.5,0-.9-.4-.9-.9v-7.2c0-.5.4-.9.9-.9h25.7c.5,0,.9.4.9.9v7.2c0,.5-.4.9-.9.9H10.2Z"/>
  <path class="st0" d="M36.8,35c0,.3.4.5.7.3l2-1.5c.1-.1.3-.1.5,0l2,1.5c.3.2.7,0,.7-.3v-4.6h-5.8v4.6Z"/>
  <path class="st0" d="M47.5,30.4h-3.5v4.6c0,1.5-1.7,2.3-2.8,1.4l-1.5-1.1-1.5,1.1c-1.1.9-2.8,0-2.8-1.4v-4.6h-3.5c-.7,0-1.3.6-1.3,1.3v15.1c0,.7.6,1.3,1.3,1.3h15.5c.7,0,1.3-.6,1.3-1.3v-15.1c0-.7-.6-1.3-1.3-1.3ZM37,44.9h-2.5c-.4,0-.7-.3-.7-.7s.3-.7.7-.7h2.5c.4,0,.7.3.7.7s-.3.7-.7.7ZM37,42.5h-2.5c-.4,0-.7-.3-.7-.7s.3-.7.7-.7h2.5c.4,0,.7.3.7.7s-.3.7-.7.7Z"/>
</svg>