<?xml version="1.0" encoding="utf-8"?>
<!-- Generator: Adobe Illustrator 27.0.0, SVG Export Plug-In . SVG Version: 6.00 Build 0)  -->
<svg version="1.1" id="Layer_1" xmlns="http://www.w3.org/2000/svg" xmlns:xlink="http://www.w3.org/1999/xlink" x="0px" y="0px"
	 viewBox="0 0 103 99" style="enable-background:new 0 0 103 99;" xml:space="preserve">
<style type="text/css">
	.st0{fill-rule:evenodd;clip-rule:evenodd;fill:#FFFFFF;}
	.st1{fill:none;}
	.st2{fill:#203568;stroke:#FFFDFD;stroke-width:0.5;stroke-miterlimit:10;}
	.st3{fill:#D61F26;}
	.st4{fill:#FFFFFF;}
	.st5{fill:#2A4792;}
</style>
<text transform="matrix(1 0 0 1 -205.6064 5.5308)" style="font-family:'NexaLight'; font-size:3.0746px;">Packing &amp; Storage Service</text>
<g id="Master_Layer_4">
</g>
<g>
	<path class="st0" d="M53,84.7c-5.7-0.7-11.6,3.7-16.9,1.1c-5.5-2.8-7.8-10.1-11.5-15.5C19.3,62.9,9.8,57.6,9.6,48
		c-0.2-9.4,6.9-17.7,14-22.3c6.4-4.2,14.7,2,21.7-0.9C53,21.5,56.6,8.7,64.8,8.3c8.1-0.4,15.2,7.2,20.4,14.5
		c5,7.2,6.9,16.5,7.7,25.8c0.8,9,0.8,18.4-3.1,26.3c-3.7,7.6-10.2,13.6-17.5,15.6C65.8,92.2,59.8,85.6,53,84.7z"/>
	<rect x="30.3" y="22.6" class="st1" width="52.8" height="62.4"/>
	<path class="st2" d="M56.3,54.2l-0.6,19.6l18.9-10.9L75.7,44L56.3,54.2z"/>
	<path class="st2" d="M38.6,43.6l-0.4,18.7l17.6,11.5l0.6-19.6L38.6,43.6z"/>
	<path class="st2" d="M58.5,34.5l-19.9,9.1l17.8,10.6L75.7,44L58.5,34.5z"/>
	<path class="st3" d="M63.5,50.6h0.3l3.4-0.8l0.3-1.5l-16-10.5"/>
	<path class="st3" d="M63.5,50.6l1.9-2.8l-13.9-10l-4,1.9L63.5,50.6z"/>
	<path class="st3" d="M63.4,50.5l4.1-2.2l0.1,5l-4,2.1L63.4,50.5z"/>
	<path class="st3" d="M56.5,79.8c-12.8,0-23.8-9.1-26.1-21.6c0-0.2,0-0.4,0.1-0.5c0.1-0.2,0.3-0.3,0.4-0.3c0.2,0,0.4,0,0.5,0.1
		s0.3,0.3,0.3,0.4c2.2,11.8,12.6,20.4,24.8,20.4c13.9,0,25.2-11.2,25.2-25c0-13.8-11.3-25-25.2-25c-1.1,0-2.1,0.1-3.2,0.2
		c-0.2,0-0.4,0-0.5-0.1c-0.1-0.1-0.2-0.3-0.3-0.5c0-0.2,0-0.4,0.1-0.5c0.1-0.1,0.3-0.2,0.5-0.3c1.1-0.1,2.2-0.2,3.4-0.2
		c7.1,0,13.8,2.7,18.8,7.7c5,5,7.8,11.6,7.8,18.7s-2.8,13.7-7.8,18.7C70.2,77.1,63.6,79.8,56.5,79.8z"/>
	<path class="st4" d="M31,55.4c-0.2,0-0.3-0.1-0.5-0.2c-0.1-0.1-0.2-0.3-0.2-0.4c0-0.4-0.1-0.7-0.1-1.1c0-0.2,0.1-0.4,0.2-0.5
		c0.1-0.1,0.3-0.2,0.5-0.2c0.2,0,0.4,0.1,0.5,0.2c0.1,0.1,0.2,0.3,0.2,0.5c0,0.4,0,0.7,0.1,1.1c0,0.1,0,0.2,0,0.3
		c0,0.1-0.1,0.2-0.1,0.2c-0.1,0.1-0.1,0.1-0.2,0.2C31.3,55.3,31.2,55.4,31,55.4C31.1,55.4,31.1,55.4,31,55.4z"/>
	<path class="st5" d="M31.6,48.9c-0.1,0-0.2,0-0.3-0.1c-0.1,0-0.2-0.1-0.2-0.2c-0.1-0.1-0.1-0.2-0.1-0.3c0-0.1,0-0.2,0-0.3
		c0.1-0.7,0.3-1.4,0.5-2.1c0-0.1,0.1-0.2,0.1-0.2c0.1-0.1,0.1-0.1,0.2-0.2c0.1,0,0.2-0.1,0.3-0.1c0.1,0,0.2,0,0.3,0
		c0.1,0,0.2,0.1,0.2,0.1c0.1,0.1,0.1,0.1,0.2,0.2c0,0.1,0.1,0.2,0.1,0.3c0,0.1,0,0.2,0,0.3c-0.2,0.7-0.4,1.3-0.5,2
		c0,0.2-0.1,0.3-0.2,0.4C31.9,48.9,31.7,48.9,31.6,48.9L31.6,48.9z M34.8,40.9c-0.1,0-0.2,0-0.4-0.1c-0.1,0-0.1-0.1-0.2-0.2
		c-0.1-0.1-0.1-0.2-0.1-0.2s0-0.2,0-0.3c0-0.1,0-0.2,0.1-0.3c0.4-0.6,0.8-1.2,1.2-1.8c0.1-0.1,0.1-0.1,0.2-0.2
		c0.1,0,0.2-0.1,0.3-0.1c0.1,0,0.2,0,0.3,0c0.1,0,0.2,0.1,0.2,0.1c0.1,0.1,0.1,0.1,0.2,0.2c0,0.1,0.1,0.2,0.1,0.3c0,0.1,0,0.2,0,0.3
		c0,0.1-0.1,0.2-0.1,0.2c-0.4,0.6-0.8,1.1-1.1,1.7c-0.1,0.1-0.1,0.2-0.3,0.2C35,40.8,34.9,40.9,34.8,40.9L34.8,40.9z M40.4,34.3
		c-0.1,0-0.3,0-0.4-0.1c-0.1-0.1-0.2-0.2-0.3-0.3c0-0.1-0.1-0.3,0-0.4c0-0.1,0.1-0.3,0.2-0.3c0.6-0.5,1.1-0.9,1.7-1.3
		c0.2-0.1,0.3-0.1,0.5-0.1c0.2,0,0.3,0.1,0.4,0.3c0.1,0.1,0.1,0.3,0.1,0.5c0,0.2-0.1,0.3-0.3,0.4c-0.6,0.4-1.1,0.8-1.6,1.2
		C40.7,34.3,40.6,34.3,40.4,34.3L40.4,34.3z"/>
	<path class="st5" d="M57.6,28.5L57.6,28.5c-0.4,0-0.7,0-1.1,0h0c-0.2,0-0.4-0.1-0.5-0.2c-0.1-0.1-0.2-0.3-0.2-0.5
		c0-0.2,0.1-0.4,0.2-0.5c0.1-0.1,0.3-0.2,0.5-0.2c0.4,0,0.7,0,1.1,0c0.2,0,0.4,0.1,0.5,0.2c0.1,0.1,0.2,0.3,0.2,0.5
		c0,0.2-0.1,0.4-0.2,0.5C58,28.4,57.8,28.5,57.6,28.5L57.6,28.5z"/>
	<path class="st5" d="M57.6,32.6c-0.1,0-0.3,0-0.4-0.1l-5.6-3.7c-0.1-0.1-0.2-0.1-0.2-0.2c-0.1-0.1-0.1-0.2-0.1-0.3
		c0-0.1,0-0.2,0-0.3s0.1-0.2,0.2-0.3c5.4-5,5.7-5.1,5.8-5.1c0.2,0,0.3,0,0.5,0c0.2,0.1,0.3,0.2,0.3,0.4s0.1,0.3,0,0.5
		c-0.1,0.2-0.2,0.3-0.3,0.4c-0.4,0.3-2.6,2.3-4.8,4.3l4.8,3.2c0.1,0.1,0.2,0.2,0.3,0.3c0.1,0.1,0.1,0.3,0,0.4c0,0.1-0.1,0.3-0.3,0.4
		C57.9,32.5,57.7,32.6,57.6,32.6L57.6,32.6z"/>
</g>
</svg>
