<?xml version="1.0" encoding="utf-8"?>
<!-- Generator: Adobe Illustrator 27.0.0, SVG Export Plug-In . SVG Version: 6.00 Build 0)  -->
<svg version="1.1" id="Layer_1" xmlns="http://www.w3.org/2000/svg" xmlns:xlink="http://www.w3.org/1999/xlink" x="0px" y="0px"
	 viewBox="0 0 103 99" style="enable-background:new 0 0 103 99;" xml:space="preserve">
<style type="text/css">
	.st0{fill-rule:evenodd;clip-rule:evenodd;fill:#FFFFFF;}
	.st1{fill:#D61F26;}
	.st2{fill:#203568;}
	.st3{fill:#FBAD3E;}
	.st4{fill:#FA990E;}
	.st5{fill:#255299;}
	.st6{fill:#D1DAFE;}
	.st7{fill:#51504F;}
	.st8{fill:#393F48;}
	.st9{fill:#FFFFFF;}
	.st10{fill:#912010;}
	.st11{fill:none;}
	.st12{fill:#203568;stroke:#FFFDFD;stroke-width:0.5;stroke-miterlimit:10;}
	.st13{fill:#2A4792;}
</style>
<text transform="matrix(1 0 0 1 -309.093 5.5308)" style="font-family:'NexaLight'; font-size:3.0746px;">Residential Moving</text>
<g>
	<path class="st0" d="M53.1,82.9c-6.3-0.7-12.8,3.5-18.6,1c-6.1-2.6-8.6-9.5-12.7-14.6C16,62.2,5.5,57.2,5.3,48.1
		c-0.2-8.9,7.6-16.8,15.4-21.2c7.1-4,16.3,1.9,23.9-0.9c8.5-3.1,12.5-15.2,21.6-15.6c9-0.4,16.8,6.8,22.5,13.7
		c5.6,6.8,7.6,15.7,8.5,24.4c0.9,8.5,0.9,17.5-3.4,24.9c-4.1,7.2-11.2,12.9-19.3,14.7C67.2,89.9,60.6,83.7,53.1,82.9z"/>
	<g>
		<path class="st1" d="M39.2,37.9L56,31.6c0.1,0,0.2,0,0.3,0l16.8,6.3v25.9h-3v-7.4c0-0.2-0.1-0.3-0.3-0.3H65v-7.5
			c0-0.2-0.1-0.3-0.3-0.3h-7.2c-0.2,0-0.3,0.1-0.3,0.3v7.5h-2.3v-7.5c0-0.2-0.1-0.3-0.3-0.3h-5.1c0.2,0.3,0.3,0.5,0.5,0.8l2.5,5.6
			h0.1v0.1l0,0.1c0.3,0.8,0.5,1.5,0.5,2.4v6c0,0.8-0.3,1.5-0.9,2.1h23.4V38.9l2,0.8c0.2,0.1,0.5,0,0.6-0.3l0.6-1.7
			c0.1-0.2,0-0.5-0.3-0.6l-22.4-8.4c-0.1,0-0.2,0-0.3,0l-22.4,8.4c-0.2,0.1-0.4,0.4-0.3,0.6l0.6,1.7c0.1,0.2,0.4,0.4,0.6,0.3l2-0.8
			v4.8h2.6V37.9z M60,56.1h2.3v7.7H60V56.1z"/>
		<path class="st1" d="M87.8,68.4H24.5c-0.5,0-0.8,0.4-0.8,0.8c0,0.5,0.4,0.8,0.8,0.8h63.3c0.5,0,0.8-0.4,0.8-0.8
			C88.6,68.8,88.2,68.4,87.8,68.4z"/>
		<path class="st2" d="M85.3,42.3c-4.6,0.6-8,4.5-7.9,9.2c0,1.7,0.4,3.2,1.2,4.6c1.1,2,5.4,7.7,7.2,10.2c0.4,0.6,1.2,0.6,1.6,0
			c1.8-2.4,6.1-8.2,7.2-10.2c0.8-1.3,1.2-2.9,1.2-4.6C95.8,46,91,41.6,85.3,42.3z M86.6,57.5c-3.3,0-6.1-2.7-6.1-6.1
			c0-3.3,2.7-6.1,6.1-6.1c3.3,0,6.1,2.7,6.1,6.1C92.7,54.8,90,57.5,86.6,57.5z"/>
		<path class="st2" d="M29.8,64.8h12.8c-0.2-0.4-0.3-0.9-0.3-1.3c0-1.2,0.6-2.3,1.5-3c-0.6,0.7-0.9,1.5-0.9,2.4
			c0,0.7,0.2,1.3,0.5,1.9c0.6,1.1,1.8,1.8,3.2,1.8c1.4,0,2.5-0.7,3.2-1.8H50h0.2h0c0.8,0,1.4-0.6,1.4-1.4v-6c0-0.6-0.1-1.2-0.4-1.8
			l-2.6-5.8c-0.7-1.6-2.3-2.7-4.1-2.7h-2.1v-0.5c0-0.8-0.7-1.5-1.5-1.5H21c-0.8,0-1.5,0.7-1.5,1.5v16.7c0,0.8,0.7,1.5,1.5,1.5h0.8
			c0,0,0,0,0,0c0,0,0.2,0,0.8,0c-0.1-0.4-0.2-0.7-0.2-1.1c-0.1-1.3,0.5-2.4,1.5-3.2c-0.6,0.6-0.9,1.5-0.9,2.4c0,0.7,0.2,1.3,0.5,1.9
			c0.6,1.1,1.8,1.8,3.2,1.8S29.1,65.9,29.8,64.8z M44.5,62.9c0-1.2,1-2.1,2.1-2.1c1.2,0,2.1,1,2.1,2.1c0,0.8-0.5,1.5-1.1,1.9
			c-0.3,0.2-0.7,0.3-1,0.3c-0.4,0-0.7-0.1-1-0.3C45,64.5,44.5,63.8,44.5,62.9z M44.6,48.9c1.1,0,2.1,0.6,2.6,1.7l2.6,5.7h-7.3v-7.4
			H44.6z M27.6,64.8c-0.3,0.2-0.7,0.3-1,0.3c-0.4,0-0.7-0.1-1-0.3c-0.7-0.4-1.1-1.1-1.1-1.9c0-1.2,1-2.1,2.1-2.1
			c1.2,0,2.1,1,2.1,2.1C28.7,63.8,28.3,64.5,27.6,64.8z"/>
	</g>
</g>
<path class="st0" d="M-257.9-3.7c-1.9-0.2-3.9,1.1-5.6,0.3c-1.8-0.8-2.6-2.9-3.8-4.4c-1.7-2.1-4.9-3.6-5-6.4
	c-0.1-2.7,2.3-5.1,4.7-6.4c2.1-1.2,4.9,0.6,7.2-0.3c2.6-0.9,3.8-4.6,6.5-4.7c2.7-0.1,5.1,2,6.8,4.1c1.7,2.1,2.3,4.7,2.6,7.4
	c0.3,2.6,0.3,5.3-1,7.5c-1.2,2.2-3.4,3.9-5.8,4.4C-253.6-1.6-255.6-3.5-257.9-3.7z"/>
<path class="st0" d="M-224.8-3.2c-1.6-0.2-3.3,1.1-4.8,0.3c-1.6-0.8-2.2-2.9-3.3-4.4c-1.5-2.1-4.2-3.6-4.3-6.4c-0.1-2.7,2-5.1,4-6.4
	c1.8-1.2,4.2,0.6,6.2-0.3c2.2-0.9,3.2-4.6,5.6-4.7c2.3-0.1,4.4,2,5.8,4.1c1.4,2.1,2,4.7,2.2,7.4c0.2,2.6,0.2,5.3-0.9,7.5
	c-1.1,2.2-2.9,3.9-5,4.4C-221.2-1.1-222.9-3-224.8-3.2z"/>
<path class="st0" d="M-190.5-3.2c-1.6-0.2-3.3,1.1-4.8,0.3c-1.6-0.8-2.2-2.9-3.3-4.4c-1.5-2.1-4.2-3.6-4.3-6.4c-0.1-2.7,2-5.1,4-6.4
	c1.8-1.2,4.2,0.6,6.2-0.3c2.2-0.9,3.2-4.6,5.6-4.7c2.3-0.1,4.4,2,5.8,4.1c1.4,2.1,2,4.7,2.2,7.4c0.2,2.6,0.2,5.3-0.9,7.5
	c-1.1,2.2-2.9,3.9-5,4.4C-186.9-1.1-188.6-3-190.5-3.2z"/>
<text transform="matrix(1 0 0 1 -271.2151 5.5308)" style="font-family:'NexaLight'; font-size:3.0746px;">Commercial Moving</text>
<text transform="matrix(1 0 0 1 -233.0836 5.5308)" style="font-family:'NexaLight'; font-size:3.0746px;">Small Moves</text>
<text transform="matrix(1 0 0 1 -205.6064 5.5308)" style="font-family:'NexaLight'; font-size:3.0746px;">Packing &amp; Storage Service</text>
<g>
	<g>
		<g>
			<g>
				<g>
					<g>
						<g>
							<g>
								<path class="st3" d="M-255.2-20.7v3.1h-2.7c-0.2,0-0.3-0.1-0.3-0.3v-2.4c0-0.2,0.1-0.3,0.3-0.3H-255.2z"/>
								<path class="st4" d="M-256.1-20.7v0.7c0,0.1-0.1,0.1-0.2,0.1l-0.2-0.2c0,0-0.1,0-0.1,0l-0.2,0.2c-0.1,0-0.2,0-0.2-0.1v-0.7
									H-256.1z"/>
								<path class="st4" d="M-256.4-18.4c-0.1,0-0.2,0.1-0.3,0.1c-0.1,0-0.2,0-0.3,0c-0.1,0-0.2,0-0.3,0c-0.1,0-0.2,0-0.3-0.1
									c0.1,0,0.2-0.1,0.3-0.1c0.1,0,0.2,0,0.3,0c0.1,0,0.2,0,0.3,0C-256.6-18.5-256.5-18.5-256.4-18.4z"/>
								<path class="st4" d="M-257.1-18.1c0.1,0,0.1,0,0.2,0.1c-0.1,0-0.1,0.1-0.2,0.1c-0.1,0-0.1,0-0.2,0c-0.1,0-0.1,0-0.2,0
									c-0.1,0-0.1,0-0.2-0.1c0.1,0,0.1-0.1,0.2-0.1c0.1,0,0.1,0,0.2,0S-257.1-18.1-257.1-18.1z"/>
							</g>
						</g>
					</g>
				</g>
			</g>
		</g>
		<g>
			<g>
				<g>
					<g>
						<g>
							<g>
								<path class="st3" d="M-251.3-20.7v3.1h-2.7c-0.2,0-0.3-0.1-0.3-0.3v-2.4c0-0.2,0.1-0.3,0.3-0.3H-251.3z"/>
								<path class="st4" d="M-254.3-20.4v2.4c0,0.2-0.1,0.3-0.3,0.3h-0.5v-3.1h0.5C-254.4-20.7-254.3-20.6-254.3-20.4z"/>
								<path class="st4" d="M-250.4-20.4v2.4c0,0.2-0.1,0.3-0.3,0.3h-0.5v-3.1h0.5C-250.6-20.7-250.4-20.6-250.4-20.4z"/>
								<path class="st4" d="M-252.2-20.7v0.7c0,0.1-0.1,0.1-0.2,0.1l-0.2-0.2c0,0-0.1,0-0.1,0l-0.2,0.2c-0.1,0-0.2,0-0.2-0.1v-0.7
									H-252.2z"/>
								<path class="st4" d="M-252.6-18.4c-0.1,0-0.2,0.1-0.3,0.1c-0.1,0-0.2,0-0.3,0c-0.1,0-0.2,0-0.3,0s-0.2,0-0.3-0.1
									c0.1,0,0.2-0.1,0.3-0.1c0.1,0,0.2,0,0.3,0c0.1,0,0.2,0,0.3,0C-252.8-18.5-252.7-18.5-252.6-18.4z"/>
								<path class="st4" d="M-253.2-18.1c0.1,0,0.1,0,0.2,0.1c-0.1,0-0.1,0.1-0.2,0.1c-0.1,0-0.1,0-0.2,0c-0.1,0-0.1,0-0.2,0
									c-0.1,0-0.1,0-0.2-0.1c0.1,0,0.1-0.1,0.2-0.1c0.1,0,0.1,0,0.2,0S-253.3-18.1-253.2-18.1z"/>
							</g>
						</g>
					</g>
				</g>
			</g>
		</g>
	</g>
	<g>
		<g>
			<g>
				<g>
					<g>
						<g>
							<g>
								<path class="st3" d="M-255.2-15.6v3.1h-2.7c-0.2,0-0.3-0.1-0.3-0.3v-2.4c0-0.2,0.1-0.3,0.3-0.3H-255.2z"/>
								<path class="st4" d="M-256.1-15.6v0.7c0,0.1-0.1,0.1-0.2,0.1l-0.2-0.2c0,0-0.1,0-0.1,0l-0.2,0.2c-0.1,0-0.2,0-0.2-0.1v-0.7
									H-256.1z"/>
								<path class="st4" d="M-256.4-13.3c-0.1,0-0.2,0.1-0.3,0.1c-0.1,0-0.2,0-0.3,0c-0.1,0-0.2,0-0.3,0c-0.1,0-0.2,0-0.3-0.1
									c0.1,0,0.2-0.1,0.3-0.1c0.1,0,0.2,0,0.3,0c0.1,0,0.2,0,0.3,0C-256.6-13.4-256.5-13.3-256.4-13.3z"/>
								<path class="st4" d="M-257.1-13c0.1,0,0.1,0,0.2,0.1c-0.1,0-0.1,0.1-0.2,0.1c-0.1,0-0.1,0-0.2,0c-0.1,0-0.1,0-0.2,0
									c-0.1,0-0.1,0-0.2-0.1c0.1,0,0.1-0.1,0.2-0.1c0.1,0,0.1,0,0.2,0S-257.1-13-257.1-13z"/>
							</g>
						</g>
					</g>
				</g>
			</g>
		</g>
		<g>
			<g>
				<g>
					<g>
						<g>
							<g>
								<path class="st3" d="M-251.3-15.6v3.1h-2.7c-0.2,0-0.3-0.1-0.3-0.3v-2.4c0-0.2,0.1-0.3,0.3-0.3H-251.3z"/>
								<path class="st4" d="M-250.4-15.3v2.4c0,0.2-0.1,0.3-0.3,0.3h-0.5v-3.1h0.5C-250.6-15.6-250.4-15.4-250.4-15.3z"/>
								<path class="st4" d="M-254.3-15.3v2.4c0,0.2-0.1,0.3-0.3,0.3h-0.5v-3.1h0.5C-254.4-15.6-254.3-15.4-254.3-15.3z"/>
								<path class="st4" d="M-252.2-15.6v0.7c0,0.1-0.1,0.1-0.2,0.1l-0.2-0.2c0,0-0.1,0-0.1,0l-0.2,0.2c-0.1,0-0.2,0-0.2-0.1v-0.7
									H-252.2z"/>
								<path class="st4" d="M-252.6-13.3c-0.1,0-0.2,0.1-0.3,0.1c-0.1,0-0.2,0-0.3,0c-0.1,0-0.2,0-0.3,0s-0.2,0-0.3-0.1
									c0.1,0,0.2-0.1,0.3-0.1c0.1,0,0.2,0,0.3,0c0.1,0,0.2,0,0.3,0C-252.8-13.4-252.7-13.3-252.6-13.3z"/>
								<path class="st4" d="M-253.2-13c0.1,0,0.1,0,0.2,0.1c-0.1,0-0.1,0.1-0.2,0.1c-0.1,0-0.1,0-0.2,0c-0.1,0-0.1,0-0.2,0
									c-0.1,0-0.1,0-0.2-0.1c0.1,0,0.1-0.1,0.2-0.1c0.1,0,0.1,0,0.2,0S-253.3-13-253.2-13z"/>
							</g>
						</g>
					</g>
				</g>
			</g>
		</g>
	</g>
	<g>
		<path class="st1" d="M-249.2-17.7c0.2,0,0.4,0.1,0.4,0.3c0,0.2,0,0.3,0,0.5c0,0.2-0.2,0.3-0.4,0.3c-3.5,0.2-7,0.2-10.4,0
			c-0.2,0-0.4-0.1-0.4-0.3c0-0.2,0-0.3,0-0.5c0-0.2,0.2-0.3,0.4-0.3C-256.2-17.8-252.8-17.8-249.2-17.7z"/>
		<path class="st1" d="M-249.2-12.6c0.2,0,0.4,0.1,0.4,0.3c0,0.2,0,0.3,0,0.5c0,0.2-0.2,0.3-0.4,0.3c-3.5,0.2-7,0.2-10.4,0
			c-0.2,0-0.4-0.1-0.4-0.3c0-0.2,0-0.3,0-0.5c0-0.2,0.2-0.3,0.4-0.3C-256.2-12.8-252.8-12.8-249.2-12.6z"/>
	</g>
	<g>
		<g>
			<path class="st2" d="M-258.8-9.6c0,0.2-0.2,0.4-0.3,0.4c-0.2,0-0.4,0-0.6,0c-0.2,0-0.3-0.2-0.3-0.4c-0.2-3.5-0.2-7,0-10.4
				c0-0.2,0.1-0.4,0.3-0.4c0.2,0,0.4,0,0.6,0c0.2,0,0.4,0.2,0.4,0.4C-258.6-16.6-258.6-13.2-258.8-9.6z"/>
			<path class="st2" d="M-248.9-9.6c0,0.2-0.2,0.4-0.3,0.4c-0.2,0-0.4,0-0.6,0c-0.2,0-0.3-0.2-0.3-0.4c-0.2-3.5-0.2-7,0-10.4
				c0-0.2,0.1-0.4,0.3-0.4c0.2,0,0.4,0,0.6,0c0.2,0,0.4,0.2,0.4,0.4C-248.7-16.6-248.7-13.2-248.9-9.6z"/>
		</g>
	</g>
	<path class="st1" d="M-256-12.6v6h-8.3v-6c0-0.4,0.3-0.8,0.8-0.8h6.8C-256.4-13.4-256-13.1-256-12.6z"/>
	<rect x="-256" y="-10.6" class="st5" width="0.4" height="4"/>
	<path class="st2" d="M-251.8-8.9v2.2h-3.8v-4.3c0-0.4,0.3-0.7,0.7-0.7h1.3c0.3,0,0.5,0.1,0.6,0.4l1.1,2.1
		C-251.8-9.1-251.8-9-251.8-8.9z"/>
	<path class="st6" d="M-251.6-6.5V-6c0,0.1-0.1,0.2-0.2,0.2h-12.6c-0.1,0-0.2-0.1-0.2-0.2v-0.5c0-0.1,0.1-0.2,0.2-0.2h12.6
		C-251.7-6.6-251.6-6.6-251.6-6.5z"/>
	<path class="st6" d="M-255.2-11v1.2c0,0.1,0.1,0.2,0.2,0.2l2,0.5c0.3,0.1,0.6-0.2,0.4-0.5l-0.7-1.5c0-0.1-0.1-0.1-0.2-0.1h-1.5
		C-255.1-11.3-255.2-11.2-255.2-11z"/>
	<path class="st7" d="M-254-8.7c0,0,0.1,0,0.1-0.1c0-0.1,0-0.1-0.1-0.1l-0.5-0.2c-0.1,0-0.1,0-0.1,0.1c0,0.1,0,0.1,0.1,0.1L-254-8.7
		C-254-8.7-254-8.7-254-8.7z"/>
	<circle class="st8" cx="-253.7" cy="-6.1" r="1"/>
	<circle class="st9" cx="-253.7" cy="-6.1" r="0.4"/>
	<circle class="st8" cx="-259.9" cy="-6.1" r="1"/>
	<circle class="st9" cx="-259.9" cy="-6.1" r="0.4"/>
	<circle class="st8" cx="-262.5" cy="-6.1" r="1"/>
	<circle class="st9" cx="-262.5" cy="-6.1" r="0.4"/>
	<path class="st3" d="M-252.4-7.9c0,0.3,0.2,0.5,0.5,0.5c0,0,0,0,0.1,0v-1c0,0,0,0-0.1,0C-252.1-8.4-252.4-8.2-252.4-7.9z"/>
	<path class="st10" d="M-257.2-12.5c-0.1,0.4-0.1,0.8-0.1,1.3c0,0.4,0,0.8,0,1.3c0,0.4,0,0.8,0,1.3c0,0.4,0.1,0.8,0.1,1.3
		c0.1-0.4,0.1-0.8,0.1-1.3c0-0.4,0-0.8,0-1.3c0-0.4,0-0.8,0-1.3C-257.1-11.7-257.2-12.1-257.2-12.5z"/>
	<path class="st10" d="M-258.4-12.5c-0.1,0.4-0.1,0.8-0.1,1.3c0,0.4,0,0.8,0,1.3c0,0.4,0,0.8,0,1.3c0,0.4,0.1,0.8,0.1,1.3
		c0.1-0.4,0.1-0.8,0.1-1.3c0-0.4,0-0.8,0-1.3c0-0.4,0-0.8,0-1.3C-258.3-11.7-258.3-12.1-258.4-12.5z"/>
	<path class="st10" d="M-259.6-12.5c-0.1,0.4-0.1,0.8-0.1,1.3c0,0.4,0,0.8,0,1.3c0,0.4,0,0.8,0,1.3c0,0.4,0.1,0.8,0.1,1.3
		c0.1-0.4,0.1-0.8,0.1-1.3c0-0.4,0-0.8,0-1.3c0-0.4,0-0.8,0-1.3C-259.5-11.7-259.5-12.1-259.6-12.5z"/>
	<path class="st10" d="M-260.8-12.5c-0.1,0.4-0.1,0.8-0.1,1.3c0,0.4,0,0.8,0,1.3c0,0.4,0,0.8,0,1.3c0,0.4,0.1,0.8,0.1,1.3
		c0.1-0.4,0.1-0.8,0.1-1.3c0-0.4,0-0.8,0-1.3c0-0.4,0-0.8,0-1.3C-260.7-11.7-260.7-12.1-260.8-12.5z"/>
	<path class="st10" d="M-261.9-12.5c-0.1,0.4-0.1,0.8-0.1,1.3c0,0.4,0,0.8,0,1.3c0,0.4,0,0.8,0,1.3c0,0.4,0.1,0.8,0.1,1.3
		c0.1-0.4,0.1-0.8,0.1-1.3c0-0.4,0-0.8,0-1.3c0-0.4,0-0.8,0-1.3C-261.8-11.7-261.9-12.1-261.9-12.5z"/>
	<path class="st10" d="M-263.1-12.5c-0.1,0.4-0.1,0.8-0.1,1.3c0,0.4,0,0.8,0,1.3c0,0.4,0,0.8,0,1.3c0,0.4,0.1,0.8,0.1,1.3
		c0.1-0.4,0.1-0.8,0.1-1.3c0-0.4,0-0.8,0-1.3c0-0.4,0-0.8,0-1.3C-263-11.7-263-12.1-263.1-12.5z"/>
	<path class="st1" d="M-260.9-17.3c0,0.7-1.1,2.4-1.5,3c-0.1,0.1-0.2,0.1-0.3,0c-0.4-0.6-1.5-2.3-1.5-3c0-0.9,0.7-1.6,1.6-1.6
		S-260.9-18.2-260.9-17.3z"/>
	<circle class="st5" cx="-262.5" cy="-17.3" r="1.1"/>
	<circle class="st9" cx="-262.5" cy="-17.3" r="0.8"/>
</g>
<g id="Master_Layer_4">
</g>
<rect x="-197" y="-21" class="st11" width="15.1" height="17.8"/>
<path class="st12" d="M-189.6-11.9l-0.2,5.6l5.4-3.1l0.3-5.4L-189.6-11.9z"/>
<path class="st12" d="M-194.6-14.9l-0.1,5.3l5,3.3l0.2-5.6L-194.6-14.9z"/>
<path class="st12" d="M-189-17.6l-5.7,2.6l5.1,3l5.5-2.9L-189-17.6z"/>
<path class="st1" d="M-187.5-13L-187.5-13l1.1-0.2l0.1-0.4l-4.6-3"/>
<path class="st1" d="M-187.5-13l0.5-0.8l-4-2.9l-1.2,0.5L-187.5-13z"/>
<path class="st1" d="M-187.5-13l1.2-0.6l0,1.4l-1.1,0.6L-187.5-13z"/>
<path class="st1" d="M-189.5-4.6c-3.7,0-6.8-2.6-7.5-6.2c0-0.1,0-0.1,0-0.1c0,0,0.1-0.1,0.1-0.1s0.1,0,0.1,0c0,0,0.1,0.1,0.1,0.1
	C-196-7.4-193-5-189.5-5c4,0,7.2-3.2,7.2-7.2c0-3.9-3.2-7.2-7.2-7.2c-0.3,0-0.6,0-0.9,0.1c-0.1,0-0.1,0-0.1,0c0,0-0.1-0.1-0.1-0.1
	c0-0.1,0-0.1,0-0.1c0,0,0.1-0.1,0.1-0.1c0.3,0,0.6-0.1,1-0.1c2,0,3.9,0.8,5.4,2.2c1.4,1.4,2.2,3.3,2.2,5.3s-0.8,3.9-2.2,5.3
	S-187.5-4.6-189.5-4.6z"/>
<path class="st9" d="M-196.8-11.6c0,0-0.1,0-0.1-0.1c0,0-0.1-0.1-0.1-0.1c0-0.1,0-0.2,0-0.3c0-0.1,0-0.1,0.1-0.1
	c0,0,0.1-0.1,0.1-0.1s0.1,0,0.1,0.1c0,0,0.1,0.1,0.1,0.1c0,0.1,0,0.2,0,0.3c0,0,0,0.1,0,0.1c0,0,0,0,0,0.1
	C-196.7-11.6-196.7-11.6-196.8-11.6C-196.7-11.6-196.7-11.6-196.8-11.6C-196.8-11.6-196.8-11.6-196.8-11.6z"/>
<path class="st13" d="M-196.6-13.4C-196.7-13.4-196.7-13.4-196.6-13.4c-0.1,0-0.1,0-0.2-0.1c0,0,0,0,0-0.1c0,0,0-0.1,0-0.1
	c0-0.2,0.1-0.4,0.2-0.6c0,0,0,0,0-0.1c0,0,0,0,0.1-0.1s0,0,0.1,0c0,0,0.1,0,0.1,0c0,0,0,0,0.1,0c0,0,0,0,0,0.1c0,0,0,0,0,0.1
	c0,0,0,0.1,0,0.1c-0.1,0.2-0.1,0.4-0.1,0.6c0,0,0,0.1-0.1,0.1C-196.5-13.5-196.6-13.4-196.6-13.4L-196.6-13.4z M-195.7-15.7
	c0,0-0.1,0-0.1,0c0,0,0,0-0.1-0.1c0,0,0,0,0-0.1s0-0.1,0-0.1c0,0,0-0.1,0-0.1c0.1-0.2,0.2-0.4,0.3-0.5c0,0,0,0,0.1-0.1
	c0,0,0,0,0.1,0c0,0,0.1,0,0.1,0c0,0,0,0,0.1,0c0,0,0,0,0.1,0.1c0,0,0,0,0,0.1c0,0,0,0.1,0,0.1c0,0,0,0,0,0.1
	c-0.1,0.2-0.2,0.3-0.3,0.5C-195.6-15.8-195.6-15.8-195.7-15.7C-195.7-15.7-195.7-15.7-195.7-15.7L-195.7-15.7z M-194.1-17.6
	c0,0-0.1,0-0.1,0c0,0-0.1-0.1-0.1-0.1c0,0,0-0.1,0-0.1c0,0,0-0.1,0.1-0.1c0.2-0.1,0.3-0.3,0.5-0.4c0,0,0.1,0,0.1,0
	c0.1,0,0.1,0,0.1,0.1c0,0,0,0.1,0,0.1c0,0.1,0,0.1-0.1,0.1c-0.2,0.1-0.3,0.2-0.5,0.4C-194-17.6-194.1-17.6-194.1-17.6L-194.1-17.6z"
	/>
<path class="st13" d="M-189.2-19.3L-189.2-19.3c-0.1,0-0.2,0-0.3,0h0c-0.1,0-0.1,0-0.1-0.1c0,0-0.1-0.1-0.1-0.1c0-0.1,0-0.1,0.1-0.1
	c0,0,0.1-0.1,0.1-0.1c0.1,0,0.2,0,0.3,0c0.1,0,0.1,0,0.1,0.1c0,0,0.1,0.1,0.1,0.1c0,0.1,0,0.1-0.1,0.1
	C-189.1-19.3-189.1-19.3-189.2-19.3L-189.2-19.3z"/>
<path class="st13" d="M-189.2-18.1c0,0-0.1,0-0.1,0l-1.6-1.1c0,0,0,0-0.1-0.1c0,0,0-0.1,0-0.1c0,0,0-0.1,0-0.1c0,0,0-0.1,0-0.1
	c1.5-1.4,1.6-1.4,1.7-1.5c0,0,0.1,0,0.1,0c0,0,0.1,0.1,0.1,0.1c0,0,0,0.1,0,0.1c0,0-0.1,0.1-0.1,0.1c-0.1,0.1-0.7,0.7-1.4,1.2
	l1.4,0.9c0,0,0.1,0.1,0.1,0.1c0,0,0,0.1,0,0.1c0,0,0,0.1-0.1,0.1C-189.1-18.1-189.2-18.1-189.2-18.1L-189.2-18.1z"/>
<path class="st1" d="M-229-11.6l4.6,2.3c0,0,0,0,0.1,0c0,0,0,0,0,0c0,0,0.1,0,0.1,0l2.7-1.4c0.1,0,0.1-0.2,0.1-0.2
	c0-0.1-0.2-0.1-0.2-0.1l-0.1,0.1l0-0.6c0-0.1-0.1-0.2-0.2-0.2c0,0,0,0,0,0c-0.1,0-0.2,0.1-0.2,0.2l0,0.8l-2,1l0-4.5l2-1l0,0.8
	c0,0.1,0.1,0.2,0.2,0.2c0,0,0,0,0,0c0.1,0,0.2-0.1,0.2-0.2l0-1l1.8-0.9l0,1.9c0,0.1,0.1,0.2,0.2,0.2c0,0,0,0,0,0
	c0.1,0,0.2-0.1,0.2-0.2l0-2.2c0,0,0,0,0,0c0,0,0,0,0,0c0,0,0,0,0,0c0,0,0,0,0,0c0-0.1-0.1-0.1-0.1-0.1l-4.5-2.3c-0.1,0-0.1,0-0.2,0
	l-2.2,1.1c0,0-0.1,0-0.1,0l-2.3,1.2c0,0,0,0,0,0c0,0,0,0,0,0c0,0,0,0,0,0c0,0,0,0,0,0c0,0,0,0,0,0c0,0,0,0,0,0c0,0,0,0,0,0
	c0,0,0,0,0,0c0,0,0,0,0,0c0,0,0,0,0,0c0,0,0,0,0,0c0,0,0,0,0,0c0,0,0,0,0,0c0,0,0,0,0,0c0,0,0,0,0,0c0,0,0,0,0,0c0,0,0,0,0,0
	c0,0,0,0,0,0c0,0,0,0,0,0c0,0,0,0,0,0c0,0,0,0,0,0c0,0,0,0,0,0c0,0,0,0,0,0c0,0,0,0,0,0c0,0,0,0,0,0c0,0,0,0,0,0c0,0,0,0,0,0
	c0,0,0,0,0,0c0,0,0,0,0,0c0,0,0,0,0,0c0,0,0,0,0,0c0,0,0,0,0,0c0,0,0,0,0,0c0,0,0,0,0,0c0,0,0,0,0,0c0,0,0,0,0,0c0,0,0,0,0,0
	c0,0,0,0,0,0c0,0,0,0,0,0c0,0,0,0,0,0c0,0,0,0,0,0c0,0,0,0,0,0c0,0,0,0,0,0c0,0,0,0,0,0c0,0,0,0,0,0c0,0,0,0,0,0c0,0,0,0,0,0l0,4.9
	C-229.1-11.7-229.1-11.6-229-11.6z M-226.6-17.6l4.2,2.1l-2,1l-1.5-0.7l-2.7-1.4L-226.6-17.6z M-228.8-16.3l2.8,1.4l1.4,0.7l0,4.5
	l-4.2-2.1L-228.8-16.3z M-224.4-18.7l4.2,2.1l-1.8,0.9l-4.2-2.1L-224.4-18.7z"/>
<path class="st2" d="M-228.9-8.3C-228.9-8.3-228.9-8.3-228.9-8.3C-228.9-8.3-228.9-8.3-228.9-8.3C-228.9-8.3-228.9-8.3-228.9-8.3
	C-228.9-8.3-228.9-8.3-228.9-8.3C-228.9-8.3-228.9-8.3-228.9-8.3C-228.9-8.3-228.9-8.3-228.9-8.3C-228.9-8.3-228.9-8.3-228.9-8.3
	C-228.9-8.3-228.9-8.3-228.9-8.3C-228.9-8.3-228.9-8.3-228.9-8.3C-228.9-8.3-228.9-8.3-228.9-8.3C-228.9-8.3-228.9-8.3-228.9-8.3
	C-228.9-8.3-228.9-8.3-228.9-8.3C-228.9-8.3-228.9-8.2-228.9-8.3C-228.9-8.2-228.9-8.2-228.9-8.3c0,0.1,0,0.1,0.1,0.1c0,0,0,0,0,0
	c0,0,0,0,0,0c0,0,0,0,0,0c0,0,0,0,0,0c0,0,0,0,0,0c0,0,0,0,0,0c0,0,0,0,0,0c0,0,0,0,0,0c0,0,0,0,0,0c0,0,0,0,0,0c0,0,0.1,0,0.1,0
	c0,0,0,0,0,0c0,0,0,0,0,0c0,0,0,0,0,0c0,0,0,0,0,0l0,0l9.1,0c0,0,0,0,0,0c0.3,0,0.7-0.1,1-0.2c0.3-0.1,0.6-0.3,0.8-0.6
	c0.2-0.2,0.4-0.5,0.6-0.8c0.1-0.3,0.2-0.7,0.2-1c0-0.9-0.4-1.7-1.2-2.2c-0.4-0.3-0.9-0.5-1.5-0.5c0,0,0,0,0,0l-1.1,0
	c-0.1,0-0.2,0.1-0.2,0.2c0,0.1,0.1,0.2,0.2,0.2l1.1,0c0,0,0,0,0,0c0.5,0,0.9,0.1,1.3,0.4c0.6,0.4,1,1.1,1,1.9c0,1.3-1,2.3-2.3,2.3
	c0,0,0,0,0,0l-8.9,0l0-0.8c0-0.1,0-0.1-0.1-0.2c-0.1,0-0.1,0-0.2,0l-2.7,1.8c-0.1,0-0.1,0.1-0.1,0.2s0,0.1,0.1,0.2l2.7,1.8
	c0,0,0.1,0,0.1,0c0,0,0.1,0,0.1,0c0.1,0,0.1-0.1,0.1-0.2l0-0.8l8.9,0c0.3,0,0.6,0,0.9-0.1c0.3-0.1,0.5-0.2,0.7-0.4
	c0.2-0.2,0.4-0.4,0.6-0.6c0.2-0.2,0.3-0.5,0.4-0.8c0-0.1,0-0.2-0.1-0.2c-0.1,0-0.2,0-0.2,0.1c-0.3,1-1.2,1.7-2.2,1.7l-8.9,0l0-0.6
	c0-0.1-0.1-0.2-0.2-0.2c0,0,0,0,0,0c-0.1,0-0.2,0.1-0.2,0.2l0,0.8c0,0,0,0,0,0c0,0,0,0,0,0l0,0.6l-2.2-1.5l2.2-1.5L-228.9-8.3z"/>
<path class="st2" d="M-219.9-18.8h0.2c0.1,0,0.2-0.1,0.2-0.2c0-0.1-0.1-0.2-0.2-0.2h-0.2c-0.1,0-0.2,0.1-0.2,0.2
	C-220.1-18.9-220-18.8-219.9-18.8z"/>
<path class="st2" d="M-222-18.8h1c0.1,0,0.2-0.1,0.2-0.2c0-0.1-0.1-0.2-0.2-0.2h-1c-0.1,0-0.2,0.1-0.2,0.2
	C-222.1-18.9-222.1-18.8-222-18.8z"/>
<path class="st2" d="M-219.3-17.6h2.1c0.1,0,0.2-0.1,0.2-0.2s-0.1-0.2-0.2-0.2h-2.1c-0.1,0-0.2,0.1-0.2,0.2S-219.4-17.6-219.3-17.6z
	"/>
<path class="st2" d="M-218.6-16.4c-0.1,0-0.2,0.1-0.2,0.2s0.1,0.2,0.2,0.2h0.5c0.1,0,0.2-0.1,0.2-0.2s-0.1-0.2-0.2-0.2H-218.6z"/>
<path class="st2" d="M-220.7-11.4l1,0c0,0,0,0,0,0c0.5,0,0.9,0.1,1.3,0.4c0.1,0,0.1,0.1,0.2,0.2c0,0,0.1,0,0.1,0
	c0.1,0,0.1,0,0.1-0.1c0.1-0.1,0.1-0.2,0-0.3c-0.1-0.1-0.2-0.1-0.2-0.2c-0.4-0.3-0.9-0.5-1.5-0.5c0,0,0,0,0,0l-1,0
	c-0.1,0-0.2,0.1-0.2,0.2C-220.9-11.4-220.8-11.4-220.7-11.4C-220.7-11.4-220.7-11.4-220.7-11.4z"/>
</svg>
