<svg xmlns="http://www.w3.org/2000/svg" xmlns:xlink="http://www.w3.org/1999/xlink" width="1080" zoomAndPan="magnify" viewBox="0 0 810 809.999993" height="1080" preserveAspectRatio="xMidYMid meet" version="1.0"><defs><clipPath id="a84a0fa2e9"><path d="M 49 491 L 321 491 L 321 694.5 L 49 694.5 Z M 49 491 " clip-rule="nonzero"/></clipPath></defs><path fill="#ffffff" d="M 416.929688 514.257812 C 411.816406 514.257812 406.703125 513.164062 401.953125 511.09375 C 395.742188 508.414062 392.941406 501.230469 395.621094 495.019531 C 398.300781 488.929688 405.484375 486.007812 411.695312 488.6875 C 413.886719 489.660156 418.269531 490.878906 423.261719 488.199219 L 514.957031 439.855469 C 526.035156 434.011719 539.1875 434.011719 550.269531 439.855469 L 641.960938 488.199219 C 646.589844 490.636719 651.949219 490.269531 656.210938 487.226562 C 660.472656 484.058594 662.542969 479.066406 661.6875 473.832031 L 644.152344 371.542969 C 642.085938 359.246094 646.101562 346.703125 654.992188 337.933594 L 729.148438 265.480469 C 732.925781 261.828125 734.265625 256.59375 732.558594 251.480469 C 730.976562 246.484375 726.835938 242.953125 721.601562 242.222656 L 619.070312 227.246094 C 606.769531 225.417969 596.054688 217.625 590.574219 206.421875 L 544.789062 113.269531 C 540.164062 103.769531 525.183594 103.769531 520.558594 113.269531 L 474.773438 206.421875 C 469.292969 217.625 458.574219 225.417969 446.277344 227.246094 L 343.746094 242.222656 C 338.511719 242.953125 334.492188 246.484375 332.789062 251.480469 C 331.203125 256.59375 332.421875 261.707031 336.195312 265.480469 L 390.75 318.816406 C 395.5 323.566406 395.621094 331.238281 390.992188 335.988281 C 386.367188 340.859375 378.574219 340.859375 373.824219 336.230469 L 319.269531 282.894531 C 308.921875 272.667969 305.144531 257.8125 309.652344 243.929688 C 314.15625 230.046875 325.847656 220.183594 340.214844 218.113281 L 442.625 203.136719 C 447.007812 202.527344 450.78125 199.726562 452.851562 195.707031 L 498.636719 102.554688 C 505.09375 89.523438 518.121094 81.367188 532.613281 81.367188 C 547.101562 81.367188 560.132812 89.523438 566.585938 102.554688 L 612.371094 195.707031 C 614.320312 199.726562 618.09375 202.527344 622.601562 203.136719 L 725.132812 218.113281 C 739.5 220.183594 751.191406 230.046875 755.695312 243.929688 C 760.203125 257.8125 756.546875 272.667969 746.074219 282.894531 L 671.917969 355.347656 C 668.75 358.515625 667.289062 363.019531 668.019531 367.402344 L 685.554688 469.8125 C 687.992188 484.183594 682.269531 498.429688 670.457031 506.953125 C 658.765625 515.476562 643.421875 516.574219 630.636719 509.753906 L 538.945312 461.410156 C 535.046875 459.339844 530.296875 459.339844 526.402344 461.410156 L 434.710938 509.753906 C 429.109375 512.675781 423.019531 514.136719 417.050781 514.136719 Z M 416.929688 514.257812 " fill-opacity="1" fill-rule="nonzero"/><path fill="#ffffff" d="M 276.042969 615.816406 C 273.972656 615.816406 271.902344 615.328125 270.074219 614.230469 L 123.828125 532.523438 C 117.984375 529.238281 115.792969 521.808594 119.082031 515.964844 L 230.867188 315.894531 C 232.328125 313.214844 234.882812 311.144531 237.804688 310.292969 L 339.121094 277.78125 C 345.453125 275.710938 352.390625 279.242188 354.460938 285.695312 C 356.53125 292.148438 353 298.96875 346.546875 301.039062 L 249.738281 332.089844 L 146.234375 517.425781 L 271.292969 587.199219 L 278.355469 574.535156 C 280.183594 571.246094 283.46875 569.054688 287.125 568.445312 C 287.367188 568.445312 320.488281 562.84375 336.683594 533.742188 C 353.855469 502.933594 349.46875 474.925781 349.46875 474.683594 C 348.738281 470.054688 350.6875 465.308594 354.585938 462.628906 L 465.152344 387.128906 C 473.1875 381.652344 475.988281 371.300781 471.972656 362.410156 C 467.464844 352.667969 456.261719 348.285156 446.398438 352.425781 L 289.800781 416.964844 C 283.59375 419.523438 276.53125 416.597656 273.851562 410.390625 C 271.292969 404.179688 274.214844 396.992188 280.425781 394.4375 L 437.023438 329.898438 C 458.941406 320.886719 484.027344 330.628906 494.011719 352.304688 C 503.023438 371.910156 496.691406 395.046875 478.789062 407.34375 L 374.1875 478.824219 C 374.675781 491.609375 373.457031 517.910156 357.871094 545.675781 C 340.457031 576.96875 309.894531 587.929688 296.863281 591.21875 L 286.515625 609.726562 C 284.933594 612.527344 282.253906 614.597656 279.207031 615.449219 C 278.113281 615.816406 277.015625 615.9375 275.921875 615.9375 Z M 276.042969 615.816406 " fill-opacity="1" fill-rule="nonzero"/><g clip-path="url(#a84a0fa2e9)"><path fill="#ffffff" d="M 281.035156 695.210938 L 259.726562 683.277344 L 291.628906 626.289062 L 102.398438 520.589844 L 70.492188 577.578125 L 49.183594 565.644531 L 86.933594 498.0625 C 90.222656 492.21875 97.648438 490.027344 103.492188 493.3125 L 314.035156 610.945312 C 316.835938 612.527344 318.90625 615.207031 319.757812 618.25 C 320.609375 621.296875 320.246094 624.703125 318.660156 627.503906 L 280.914062 695.085938 Z M 281.035156 695.210938 " fill-opacity="1" fill-rule="nonzero"/></g><path fill="#ffffff" d="M 138.929688 588.78125 C 136.859375 588.78125 134.910156 588.296875 132.960938 587.199219 L 107.023438 572.707031 C 101.179688 569.421875 98.988281 561.992188 102.277344 556.148438 C 105.5625 550.304688 112.992188 548.109375 118.835938 551.398438 L 144.773438 565.890625 C 150.617188 569.175781 152.8125 576.605469 149.523438 582.449219 C 147.332031 586.46875 143.191406 588.660156 138.929688 588.660156 Z M 138.929688 588.78125 " fill-opacity="1" fill-rule="nonzero"/></svg>