<?xml version="1.0" encoding="UTF-8"?>
<svg id="Layer_1" data-name="Layer 1" xmlns="http://www.w3.org/2000/svg" viewBox="0 0 90 90">
  <defs>
    <style>
      .cls-1 {
        fill: #fff;
      }
    </style>
  </defs>
  <path class="cls-1" d="M2.41,50.06c.25-1.4.32-2.92.52-4.38.84-5.98,2.39-11.89,3.21-17.88l25,3.49c-.82-1.78-1.95-3.4-2.61-5.27-3.69-10.36,2.92-21.73,13.85-23.26,12.99-1.83,23.21,10.55,19.02,23-1.25,3.71-3.79,6.73-5.68,10.1l4.47,1.99c-.38,1.16-2.15,3.39-2.12,4.49.05,1.8,2.06-.28,2.65-.66,2.17-1.38,4.36-1.75,6,.61.8,1.14.87,2.42,1.54,3.61.7-.57,1.37-1.16,1.99-1.82,1.55-1.63,2.98-3.9,4.56-5.41,1.45-1.39,3.42-2.18,4.82-3.82,1.63-1.91,2.47-4.78,3.49-7.05l3.63,5.91c.33.85.7,2.24.7,3.13,0,1.63-2.49,8.42-3.43,9.87-.8,1.24-2.16,2.17-3.03,3.45-2.83,4.16-1.47,7.96-2.77,12.34-.99,3.35-4.35,6.86-4.05,10.19.18,2,1.46,3.81,1.64,5.83.32,3.62-1.55,5.82-2.99,8.88l-.49-.25c-1.77-2.08-6.09-9.57-8.5-10.26-2.04-.59-7,1.13-9.27,1.63-2.41.53-4.87.86-7.27,1.45l-2.03,7.43c-.18.04-.32-.02-.49-.09-4.24-1.75-6.41-5.92-9.98-8.28s-8.24-4-12.17-5.93c-8.63-4.24-19.5-9.49-20.2-20.4v-2.66ZM44.75,43.09c.15.12.89-1.09,1-1.24,3.08-4.64,7.08-10.11,9.66-14.92,7.99-14.95-11.12-26.32-20.36-14.54-3.59,4.58-3.13,9.88-.52,14.77,2.92,5.45,7.36,10.43,10.22,15.94ZM44.75,52.55c-3.06-5.3-6.37-10.46-9.8-15.53l-24.74-3.74c-.58,4.27-1.69,8.47-2.3,12.73-.5,3.46-1.02,7.16.44,10.46,3.12,7.05,17.76,12.52,24.5,15.85,3.49,1.73,6.93,3.61,9.32,6.78.95-2.52,2.32-3.61,4.9-4.23,1.94-.47,4.04-.69,6.01-1.13,3.28-.73,7.54-2.27,10.84-1.94,2.21.22,3.97,1.78,5.56,3.15-.35-1.81-.46-3.34-.09-5.15.75-3.69,3.79-6.44,4.39-10.22.72-4.48-.05-6.97,2.48-11.3,1.08-1.86,2.43-2.73,3.52-4.16.68-.89.96-2.82,1.49-3.86-4.59,1.81-8.13,10.82-13.37,10.81-2.56,0-4.42-2.53-4.9-4.83-4.72,4.33-11.28.29-9.63-5.81l-.81-.16-7.82,12.27Z"/>
  <path class="cls-1" d="M44.22,12.59c9.28-.87,11.17,12.76,2.4,14.69-10.36,2.28-12.7-13.72-2.4-14.69ZM46.69,18.24c-2.31-2.32-5.82,1.15-3.6,3.52,2.21,2.36,5.94-1.17,3.6-3.52Z"/>
</svg>