<?xml version="1.0" encoding="UTF-8"?>
<svg id="Layer_1" data-name="Layer 1" xmlns="http://www.w3.org/2000/svg" viewBox="0 0 200 200">
  <defs>
    <style>
      .cls-1 {
        fill: #116087;
        fill-rule: evenodd;
      }

      .cls-2 {
        fill: none;
        stroke: #116087;
        stroke-miterlimit: 10;
        stroke-width: 3px;
      }
    </style>
  </defs>
  <circle class="cls-2" cx="100" cy="100" r="86.2"/>
  <path class="cls-1" d="M70,85.61c-.93-.81-2.17-1.27-3.51-1.19-1.33.09-2.5.71-3.31,1.63-.81.93-1.27,2.17-1.19,3.51.09,1.33.71,2.5,1.63,3.31.91.8,2.12,1.25,3.43,1.19.05,0,.1,0,.16-.01,1.3-.11,2.44-.72,3.24-1.63.8-.91,1.25-2.12,1.19-3.43,0-.05,0-.1-.01-.16-.11-1.3-.72-2.44-1.63-3.24h0ZM66.31,81.54c2.12-.14,4.1.6,5.59,1.9,1.49,1.3,2.48,3.17,2.62,5.3v.09c.12,2.09-.62,4.03-1.9,5.5-1.3,1.49-3.17,2.48-5.3,2.62h-.09c-2.09.12-4.03-.62-5.5-1.9-1.49-1.3-2.48-3.17-2.62-5.3-.14-2.12.6-4.1,1.9-5.59,1.3-1.49,3.17-2.48,5.3-2.62h0ZM61.31,139.68l.58-3.23-4.57-7.04-.95,7.27h0c-.03.26-.14.52-.32.74l-6.85,8.22s-.04.06-.07.08c-.5.6-.71,1.34-.65,2.06.06.71.4,1.41,1,1.91.6.5,1.34.71,2.06.65.71-.06,1.41-.4,1.91-1h0s6.12-7.34,6.12-7.34c.02-.03.04-.06.07-.08l.3-.35c.52-.6,1.31-1.52,1.33-1.77h0s0-.08.02-.12h0ZM85.66,116.65c-.19.6-.56,1.1-1.05,1.45-.59.42-1.33.62-2.1.49h0s-7.42-1.24-7.42-1.24c-.04,0-.07-.01-.11-.01-.42-.05-.83-.19-1.2-.43-.35-.23-.66-.53-.9-.92-.05-.09-.11-.17-.18-.24l-2.63-3.23c-.5-.62-1.41-.71-2.03-.21-.3.24-.47.58-.52.93l-1.39,10.06c-.04.31.02.62.16.88h0s11.15,20.58,11.15,20.58c.02.04.04.09.07.13.32.68.35,1.42.13,2.09-.22.66-.68,1.25-1.33,1.61-.05.02-.1.05-.15.08-.68.32-1.42.35-2.09.13-.69-.23-1.29-.71-1.64-1.41-.03-.07-.07-.13-.11-.18l-12.91-19.89h0c-.3-.47-.6-.99-.85-1.57-.24-.56-.45-1.17-.56-1.85-.06-.37-.1-.75-.11-1.15,0-.41.02-.85.07-1.32l2.57-16.53c.22-1.03.97-2.18,2.07-3.01.54-.4,1.15-.72,1.82-.89.66-.17,1.37-.21,2.13-.05,1.55.32,3.28,1.44,5.05,3.8h0s0,.01,0,.01l5.19,6.79c.23.3.56.49.91.55l4.5.75c.06.01.12.02.19.03l1.03.17h.04c.75.14,1.37.56,1.79,1.14.42.59.62,1.34.49,2.1h0c-.01.07-.03.14-.04.21-.02.05-.03.11-.05.17h0ZM128.1,83.44c1.49-1.3,3.47-2.04,5.59-1.9,2.13.14,4,1.13,5.3,2.62,1.3,1.49,2.04,3.47,1.9,5.59-.14,2.13-1.13,4-2.62,5.3-1.46,1.28-3.41,2.02-5.5,1.9-.03,0-.07,0-.09,0-2.13-.14-4-1.13-5.3-2.62-1.28-1.46-2.02-3.41-1.9-5.5,0-.03,0-.07,0-.09.14-2.13,1.13-4,2.62-5.3h0ZM133.51,84.42c-1.34-.09-2.58.37-3.51,1.19-.91.8-1.52,1.94-1.63,3.24,0,.05,0,.11-.01.16-.06,1.3.39,2.52,1.19,3.43.8.91,1.94,1.52,3.24,1.63.05,0,.11,0,.16.01,1.3.06,2.52-.39,3.43-1.19.93-.81,1.55-1.98,1.63-3.31.09-1.34-.37-2.58-1.19-3.51-.81-.93-1.98-1.55-3.31-1.63h0ZM132.48,113.24l1.39,10.06c.04.31-.02.62-.16.88h0s-11.15,20.58-11.15,20.58c-.02.04-.04.09-.07.13-.32.68-.35,1.42-.13,2.09.22.66.68,1.25,1.33,1.61.05.02.1.05.15.08.68.32,1.42.35,2.09.13.69-.23,1.29-.71,1.64-1.41.03-.07.07-.13.11-.18l12.91-19.89h0c.3-.47.6-.99.85-1.57.24-.56.45-1.17.56-1.85.06-.37.1-.75.11-1.15,0-.41-.02-.85-.07-1.32l-2.57-16.53c-.22-1.03-.97-2.18-2.07-3.01-.54-.4-1.15-.72-1.82-.89-.66-.17-1.37-.21-2.13-.05-1.55.32-3.28,1.44-5.05,3.8h0s0,.01,0,.01l-5.19,6.79c-.23.3-.56.49-.91.55l-4.84.81c-.06.01-.12.03-.19.03l-.68.11h-.04c-.75.14-1.37.56-1.79,1.14-.42.59-.62,1.34-.49,2.1h0c.01.07.03.14.04.21.02.05.03.11.05.17.19.6.56,1.1,1.05,1.45.59.42,1.33.62,2.1.49h0s7.42-1.24,7.42-1.24c.04,0,.07-.01.11-.01.42-.05.83-.19,1.2-.43.35-.23.66-.53.9-.92.05-.09.11-.17.18-.24l2.63-3.23c.5-.62,1.41-.71,2.03-.21.3.24.47.58.52.93h0ZM135.84,140.14l-.03-.15-5.67,8.73s-.03.05-.04.08c-.72,1.35-1.92,2.3-3.27,2.74-1.36.44-2.88.38-4.26-.28-.07-.03-.15-.07-.22-.11-1.35-.72-2.3-1.92-2.74-3.27-.45-1.38-.38-2.92.32-4.32.01-.03.02-.05.04-.08l10.97-20.26-.87-6.29-.52.64c-.47.75-1.08,1.35-1.78,1.79-.73.46-1.56.75-2.42.85l-7.3,1.22c-.07.02-.15.03-.22.03-1.51.22-2.98-.18-4.13-1.01-.73-.53-1.34-1.23-1.76-2.05h-23.89c-.42.83-1.03,1.53-1.76,2.05-1.15.83-2.62,1.23-4.13,1.01-.08,0-.15-.02-.22-.03l-7.3-1.22c-.86-.1-1.69-.39-2.42-.85-.7-.44-1.31-1.05-1.78-1.79l-.52-.64-.87,6.29,10.97,20.26s.03.05.04.08c.69,1.4.77,2.94.32,4.32-.44,1.36-1.39,2.55-2.74,3.27-.07.04-.14.08-.22.11-1.38.67-2.9.73-4.26.28-1.36-.44-2.55-1.39-3.27-2.74-.02-.02-.03-.05-.04-.08l-5.67-8.73-.03.15c-.15,1.15-1.28,2.46-2.02,3.32-.06.06-.1.12-.27.32-.02.03-.04.05-.07.07l-6.12,7.35h0c-1.01,1.21-2.42,1.89-3.88,2.02-1.46.13-2.96-.29-4.17-1.3-1.21-1.01-1.89-2.42-2.02-3.88-.13-1.46.29-2.96,1.3-4.17.02-.03.04-.05.07-.07l6.58-7.9,1.54-11.76c-.06-.42-.1-.88-.11-1.36,0-.55.02-1.13.1-1.75l2.59-16.65v-.07s.01,0,.01,0c.34-1.67,1.5-3.5,3.17-4.75.83-.62,1.78-1.11,2.83-1.38,1.06-.28,2.22-.33,3.43-.08,2.19.45,4.53,1.9,6.78,4.89h0s4.84,6.34,4.84,6.34l2.34.39v-61.51c0-.8.65-1.45,1.45-1.45h34.57c.8,0,1.45.65,1.45,1.45v61.57l2.69-.45,4.84-6.34h0c2.24-2.99,4.59-4.44,6.78-4.89,1.21-.25,2.36-.19,3.43.08,1.05.27,2,.76,2.83,1.38,1.67,1.25,2.83,3.08,3.17,4.75h0v.07s2.6,16.65,2.6,16.65c.08.62.11,1.2.1,1.75,0,.48-.05.94-.11,1.36l1.54,11.76,6.58,7.9s.04.05.07.07c1.01,1.21,1.43,2.71,1.3,4.17-.13,1.46-.82,2.87-2.02,3.88-1.21,1.01-2.71,1.43-4.17,1.3-1.46-.13-2.87-.82-3.88-2.02h0s-6.12-7.35-6.12-7.35c-.02-.02-.04-.05-.07-.07-.17-.2-.21-.25-.27-.32-.74-.86-1.87-2.17-2.02-3.32h0ZM138.11,136.45l4.57-7.04.95,7.27h0c.03.26.14.52.32.74l6.85,8.22s.04.06.07.08c.5.6.71,1.34.65,2.06-.06.71-.4,1.41-1,1.91-.6.5-1.34.71-2.06.65-.71-.06-1.41-.4-1.91-1h0s-6.12-7.34-6.12-7.34c-.02-.03-.04-.06-.07-.08l-.3-.35c-.52-.6-1.31-1.52-1.33-1.77h0s0-.08-.02-.12l-.58-3.23h0ZM89.07,110.89h6.78c.8,0,1.45-.65,1.45-1.45s-.65-1.45-1.45-1.45h-6.78c-.8,0-1.45.65-1.45,1.45s.65,1.45,1.45,1.45ZM96.81,49.65v8.01l2.05-1.82c.54-.48,1.36-.5,1.92,0l2.06,1.83v-8.01h-6.03ZM89.07,76.71h6.78c.8,0,1.45-.65,1.45-1.45s-.65-1.45-1.45-1.45h-6.78c-.8,0-1.45.65-1.45,1.45s.65,1.45,1.45,1.45ZM83.99,80.67h31.68v-31.02h-9.93v11.22c0,.8-.65,1.45-1.45,1.45-.41,0-.79-.17-1.05-.45l-3.41-3.03-3.51,3.11c-.6.53-1.51.47-2.04-.12-.24-.27-.36-.62-.36-.96h0v-11.22h-9.93v31.02h0ZM102.84,83.57h-6.03v8.27l2.05-1.82c.54-.48,1.36-.5,1.92,0l2.06,1.83v-8.27ZM115.66,83.57h-9.93v11.48c0,.8-.65,1.45-1.45,1.45-.41,0-.79-.17-1.05-.45l-3.41-3.03-3.51,3.11c-.6.53-1.51.47-2.04-.12-.24-.27-.36-.62-.36-.96h0v-11.48h-9.93v26.63h.03c1.5.29,2.76,1.14,3.59,2.29.62.87,1,1.91,1.06,3.02h22.66c.06-1.11.44-2.15,1.06-3.02.77-1.07,1.91-1.88,3.27-2.21v-26.71h0Z"/>
</svg>