<?xml version="1.0" encoding="UTF-8"?>
<svg id="Layer_1" data-name="Layer 1" xmlns="http://www.w3.org/2000/svg" viewBox="0 0 200 200">
  <defs>
    <style>
      .cls-1 {
        fill: #116087;
      }

      .cls-2 {
        fill: none;
        stroke: #116087;
        stroke-miterlimit: 10;
        stroke-width: 3px;
      }
    </style>
  </defs>
  <circle class="cls-2" cx="100" cy="100" r="86.2"/>
  <g id="warranty">
    <path class="cls-1" d="M120.63,125.39h-1.59v-19.04c-.01-9.2-7.17-16.81-16.35-17.4.32-1.05.48-2.14.48-3.23v-22.22c0-6.13-4.98-11.1-11.11-11.11h-6.35c-6.13,0-11.1,4.98-11.11,11.11v22.22c0,1.09.16,2.18.48,3.23-9.18.59-16.34,8.2-16.35,17.4v19.04h-1.59c-2.63,0-4.76,2.13-4.76,4.76v6.35c0,2.63,2.13,4.76,4.76,4.76h7.93v4.76c0,.88.71,1.59,1.59,1.59h44.43c.88,0,1.59-.71,1.59-1.59h0v-4.76h7.93c2.63,0,4.76-2.13,4.76-4.76v-6.35c0-2.63-2.13-4.76-4.76-4.76ZM77.78,63.5c0-4.38,3.55-7.93,7.93-7.93h6.35c4.38,0,7.93,3.55,7.93,7.93v4.76h-22.22v-4.76ZM99.73,71.44c-.68,1.9-2.47,3.17-4.49,3.17h-12.69c-2.02,0-3.81-1.27-4.49-3.17h21.67ZM77.78,76.18c1.37,1.04,3.04,1.6,4.76,1.61h12.69c1.72,0,3.39-.57,4.76-1.61v9.54c0,4.38-3.55,7.93-7.93,7.93h-6.35c-4.38,0-7.93-3.55-7.93-7.93v-9.54ZM65.09,138.08h-7.93c-.88,0-1.59-.71-1.59-1.59v-6.35c0-.88.71-1.59,1.59-1.59h7.93v9.52ZM109.52,144.43h-41.26v-41.26h12.69v11.11c0,.88.71,1.59,1.59,1.59.25,0,.49-.06.71-.17l5.64-2.82,5.64,2.82c.78.39,1.74.07,2.13-.71.11-.22.17-.46.17-.71v-11.11h12.69v41.26ZM84.13,111.71v-8.54h9.52v8.54l-4.05-2.03c-.45-.22-.97-.22-1.42,0l-4.05,2.03ZM111.11,100h-44.43c-.88,0-1.59.71-1.59,1.59h0v23.8h-3.17v-19.04c0-7.88,6.4-14.27,14.28-14.28h.42c2.07,2.98,5.47,4.76,9.1,4.76h6.35c3.63,0,7.03-1.78,9.1-4.76h.42c7.88,0,14.27,6.4,14.28,14.28v19.04h-3.17v-23.8c0-.88-.71-1.59-1.59-1.59h0ZM122.22,136.5c0,.88-.71,1.59-1.59,1.59h-7.93v-9.52h7.93c.88,0,1.59.71,1.59,1.59v6.35Z"/>
    <path class="cls-1" d="M79.37,141.26h-6.35c-.88,0-1.59-.71-1.59-1.59s.71-1.59,1.59-1.59h6.35c.88,0,1.59.71,1.59,1.59s-.71,1.59-1.59,1.59Z"/>
    <path class="cls-1" d="M128.56,98.41c-.3,0-.6-.09-.85-.25l-7.17-4.56c-6.88-4.35-11.04-11.94-11.02-20.08v-13.19c0-.67.42-1.26,1.04-1.49l17.45-6.35c.35-.13.73-.13,1.08,0l17.45,6.35c.63.23,1.04.82,1.04,1.49v13.19c.02,8.14-4.14,15.73-11.02,20.08h0l-7.17,4.56c-.25.16-.55.25-.85.25ZM112.69,61.44v12.08c-.02,7.06,3.59,13.63,9.55,17.4l6.31,4.02,6.31-4.02c5.96-3.77,9.57-10.35,9.55-17.4v-12.08l-15.87-5.77-15.87,5.77ZM135.73,92.27h0Z"/>
    <path class="cls-1" d="M126.98,84.13c-.48,0-.94-.22-1.24-.6l-6.35-7.93c-.55-.69-.43-1.68.26-2.23.68-.54,1.68-.43,2.22.25l4.92,6.15,8.35-13.91c.45-.75,1.43-.99,2.18-.54.75.45.99,1.43.54,2.18l-9.52,15.87c-.27.45-.74.73-1.25.77-.04,0-.07,0-.11,0Z"/>
    <path class="cls-1" d="M95.24,65.09c-.88,0-1.59-.71-1.59-1.59h0c0-.88-.71-1.59-1.59-1.59-.88,0-1.59-.71-1.59-1.59s.71-1.59,1.59-1.59c2.63,0,4.76,2.13,4.76,4.76,0,.88-.71,1.59-1.59,1.59h0Z"/>
    <circle class="cls-1" cx="104.76" cy="117.45" r="1.59"/>
    <path class="cls-1" d="M104.76,112.69c-.88,0-1.59-.71-1.59-1.59h0v-1.59h-1.59c-.88,0-1.59-.71-1.59-1.59s.71-1.59,1.59-1.59h3.17c.88,0,1.59.71,1.59,1.59h0v3.17c0,.88-.71,1.59-1.59,1.59h0Z"/>
  </g>
</svg>