<svg id="Layer_1" data-name="Layer 1" xmlns="http://www.w3.org/2000/svg" viewBox="0 0 236.8 50"><defs><style>.cls-1{fill:#66c939;}.cls-2{fill:#101111;}</style></defs><path class="cls-1" d="M125.3,16.05h-7.88l-1.5,3.64h-4l7.57-17h3.87l7.59,17H126.8Zm-1.24-3-2.69-6.5-2.69,6.5Z"/><path class="cls-1" d="M132.69,2.72h3.93V16.49h8.5v3.2H132.69Z"/><path class="cls-1" d="M147.33,2.72h3.93V16.49h8.5v3.2H147.33Z"/><path class="cls-1" d="M162,2.72h3.93v17H162Z"/><path class="cls-1" d="M183.06,16.54v3.15H169.92v-17h12.82V5.87h-8.92V9.56h7.88v3h-7.88v3.93Z"/><path class="cls-1" d="M186.18,2.72h7.71a10.85,10.85,0,0,1,4.88,1,7.94,7.94,0,0,1,3.3,3,8.41,8.41,0,0,1,1.18,4.46,8.36,8.36,0,0,1-1.18,4.46,7.81,7.81,0,0,1-3.3,3,10.72,10.72,0,0,1-4.88,1.06h-7.71Zm7.52,13.74a5.73,5.73,0,0,0,4.06-1.41,5,5,0,0,0,1.51-3.85,5,5,0,0,0-1.51-3.84,5.74,5.74,0,0,0-4.06-1.42h-3.59V16.46Z"/><path d="M114.17,29.86h-2.24v-.81h5.4v.81h-2.24v5.71h-.92Z"/><path d="M123.07,35.57l-1.4-2-.41,0h-1.62v2h-.93V29.05h2.55a3,3,0,0,1,2,.61,2.06,2.06,0,0,1,.73,1.66,2.19,2.19,0,0,1-.38,1.29,2.07,2.07,0,0,1-1.06.77l1.55,2.19Zm-.49-3.16a1.51,1.51,0,0,0,0-2.17,2.11,2.11,0,0,0-1.35-.38h-1.59V32.8h1.59A2.05,2.05,0,0,0,122.58,32.41Z"/><path d="M130,33.94h-3.46l-.72,1.63h-1l2.95-6.52h.93l3,6.52h-1Zm-.32-.74L128.28,30l-1.41,3.2Z"/><path d="M138.66,29.05v6.52h-.77L134,30.71v4.86h-.93V29.05h.76l3.92,4.86V29.05Z"/><path d="M141.46,35.42a2.93,2.93,0,0,1-1.07-.59l.34-.73a2.94,2.94,0,0,0,1,.54,3.51,3.51,0,0,0,1.19.21,2.21,2.21,0,0,0,1.22-.27.86.86,0,0,0,.4-.73.76.76,0,0,0-.22-.55,1.61,1.61,0,0,0-.54-.32c-.22-.07-.52-.16-.91-.25a11.51,11.51,0,0,1-1.19-.35,1.92,1.92,0,0,1-.77-.55,1.41,1.41,0,0,1-.32-1,1.69,1.69,0,0,1,.27-.94,1.86,1.86,0,0,1,.84-.67A3.31,3.31,0,0,1,143,29a4.35,4.35,0,0,1,1.14.15,3,3,0,0,1,1,.42l-.31.75a3.44,3.44,0,0,0-.87-.4,3.3,3.3,0,0,0-.92-.13,1.94,1.94,0,0,0-1.18.29.87.87,0,0,0-.4.74.71.71,0,0,0,.22.55,1.47,1.47,0,0,0,.56.32,8.63,8.63,0,0,0,.9.25,11.23,11.23,0,0,1,1.18.35,2.07,2.07,0,0,1,.77.54,1.46,1.46,0,0,1,.32,1,1.65,1.65,0,0,1-.28.94,2,2,0,0,1-.85.67,3.58,3.58,0,0,1-1.4.25A4.54,4.54,0,0,1,141.46,35.42Z"/><path d="M151.68,29.66a2.26,2.26,0,0,1,0,3.33,3.06,3.06,0,0,1-2,.61h-1.61v2h-.93V29.05h2.54A3,3,0,0,1,151.68,29.66ZM151,32.41a1.51,1.51,0,0,0,0-2.17,2.11,2.11,0,0,0-1.35-.38h-1.59v2.93h1.59A2.11,2.11,0,0,0,151,32.41Z"/><path d="M155.4,35.21A3.22,3.22,0,0,1,154.16,34a3.31,3.31,0,0,1-.45-1.71,3.25,3.25,0,0,1,1.69-2.9,3.66,3.66,0,0,1,1.78-.43,3.62,3.62,0,0,1,1.77.43,3.23,3.23,0,0,1,1.24,1.19,3.47,3.47,0,0,1,0,3.42A3.16,3.16,0,0,1,159,35.21a3.63,3.63,0,0,1-1.77.44A3.67,3.67,0,0,1,155.4,35.21Zm3.07-.72a2.38,2.38,0,0,0,.91-.9,2.65,2.65,0,0,0,0-2.56,2.38,2.38,0,0,0-.91-.9,2.52,2.52,0,0,0-1.29-.32,2.61,2.61,0,0,0-1.3.32,2.46,2.46,0,0,0-.91.9,2.65,2.65,0,0,0,0,2.56,2.46,2.46,0,0,0,.91.9,2.62,2.62,0,0,0,1.3.33A2.53,2.53,0,0,0,158.47,34.49Z"/><path d="M166.79,35.57l-1.4-2-.41,0h-1.61v2h-.93V29.05H165a3,3,0,0,1,2,.61,2,2,0,0,1,.73,1.66,2.25,2.25,0,0,1-.37,1.29,2.14,2.14,0,0,1-1.07.77l1.55,2.19Zm-.49-3.16a1.49,1.49,0,0,0,0-2.17,2.11,2.11,0,0,0-1.35-.38h-1.58V32.8H165A2.05,2.05,0,0,0,166.3,32.41Z"/><path d="M170.78,29.86h-2.23v-.81h5.39v.81h-2.23v5.71h-.93Z"/><path d="M179.16,33.94h-3.47L175,35.57h-1l3-6.52h.92l3,6.52h-1Zm-.33-.74L177.42,30,176,33.2Z"/><path d="M183.16,29.86h-2.23v-.81h5.39v.81h-2.24v5.71h-.92Z"/><path d="M187.71,29.05h.93v6.52h-.93Z"/><path d="M192.13,35.21A3.16,3.16,0,0,1,190.89,34a3.31,3.31,0,0,1-.45-1.71,3.27,3.27,0,0,1,.45-1.7,3.18,3.18,0,0,1,1.24-1.2,3.88,3.88,0,0,1,3.55,0,3.23,3.23,0,0,1,1.24,1.19,3.47,3.47,0,0,1,0,3.42,3.16,3.16,0,0,1-1.24,1.19,3.8,3.8,0,0,1-3.55,0Zm3.07-.72a2.43,2.43,0,0,0,.9-.9,2.65,2.65,0,0,0,0-2.56,2.43,2.43,0,0,0-.9-.9,2.52,2.52,0,0,0-1.29-.32,2.58,2.58,0,0,0-1.3.32,2.38,2.38,0,0,0-.91.9,2.65,2.65,0,0,0,0,2.56,2.38,2.38,0,0,0,.91.9,2.59,2.59,0,0,0,1.3.33A2.53,2.53,0,0,0,195.2,34.49Z"/><path d="M204.77,29.05v6.52H204l-3.92-4.86v4.86h-.93V29.05h.77l3.91,4.86V29.05Z"/><path d="M117.39,45.6h.89v2.54a3.38,3.38,0,0,1-1.12.61,4,4,0,0,1-1.34.22,3.72,3.72,0,0,1-1.78-.43,3.21,3.21,0,0,1-1.25-1.2,3.26,3.26,0,0,1-.45-1.71,3.31,3.31,0,0,1,.45-1.71A3.11,3.11,0,0,1,114,42.73a3.67,3.67,0,0,1,1.79-.43,3.74,3.74,0,0,1,1.42.25,3.12,3.12,0,0,1,1.09.75l-.58.58a2.63,2.63,0,0,0-1.89-.75,2.82,2.82,0,0,0-1.34.32,2.32,2.32,0,0,0-.92.89,2.49,2.49,0,0,0-.34,1.29,2.4,2.4,0,0,0,.34,1.28,2.28,2.28,0,0,0,.92.9,2.7,2.7,0,0,0,1.33.33,2.76,2.76,0,0,0,1.53-.42Z"/><path d="M124.79,48.89l-1.4-2-.41,0h-1.61v2h-.93V42.37H123a3,3,0,0,1,2,.61,2,2,0,0,1,.73,1.67,2.22,2.22,0,0,1-.37,1.28,2.16,2.16,0,0,1-1.07.78l1.55,2.18Zm-.49-3.15a1.34,1.34,0,0,0,.47-1.09,1.32,1.32,0,0,0-.47-1.09,2.11,2.11,0,0,0-1.35-.38h-1.58v2.94H123A2.11,2.11,0,0,0,124.3,45.74Z"/><path d="M128.74,48.54a3.25,3.25,0,0,1-1.24-1.2,3.46,3.46,0,0,1,0-3.41,3.25,3.25,0,0,1,1.24-1.2,3.66,3.66,0,0,1,1.78-.43,3.62,3.62,0,0,1,1.77.43,3.23,3.23,0,0,1,1.24,1.19,3.31,3.31,0,0,1,.45,1.71,3.26,3.26,0,0,1-.45,1.71,3.18,3.18,0,0,1-1.24,1.2,3.74,3.74,0,0,1-1.77.43A3.78,3.78,0,0,1,128.74,48.54Zm3.07-.73a2.25,2.25,0,0,0,.91-.9,2.49,2.49,0,0,0,.33-1.28,2.52,2.52,0,0,0-.33-1.28,2.38,2.38,0,0,0-.91-.9,2.62,2.62,0,0,0-1.29-.32,2.69,2.69,0,0,0-1.3.32,2.46,2.46,0,0,0-.91.9,2.52,2.52,0,0,0-.33,1.28,2.49,2.49,0,0,0,.33,1.28,2.32,2.32,0,0,0,.91.9,2.59,2.59,0,0,0,1.3.33A2.53,2.53,0,0,0,131.81,47.81Z"/><path d="M136.45,48.22a2.91,2.91,0,0,1-.73-2.14V42.37h.93V46c0,1.4.61,2.1,1.84,2.1a1.76,1.76,0,0,0,1.37-.52,2.29,2.29,0,0,0,.47-1.58V42.37h.9v3.71a3,3,0,0,1-.72,2.15,2.74,2.74,0,0,1-2,.74A2.69,2.69,0,0,1,136.45,48.22Z"/><path d="M148.05,43a2.26,2.26,0,0,1,0,3.33,3,3,0,0,1-2,.61h-1.61v2h-.93V42.37h2.54A3,3,0,0,1,148.05,43Zm-.67,2.75a1.49,1.49,0,0,0,0-2.17,2.11,2.11,0,0,0-1.35-.38h-1.58v2.93H146A2.11,2.11,0,0,0,147.38,45.73Z"/><path class="cls-2" d="M87.5,50h6.67L61,.78l0,0L36.24,37.44h0l-.65,1a105,105,0,0,1,25.8-10.48c1.62-.43,3.22-.82,4.82-1.17a102.12,102.12,0,0,0-17.33,1.83l12.1-18Z"/><path class="cls-1" d="M62.12,50c1.73-6.58,8.36-13.42,17.7-17.41,7.08-3,14.26-3.77,19.91-2.53-9.62-2.61-23.15-2.32-37.39,1.46-15,4-27.47,11-34.34,18.48Z"/></svg>